<svg xmlns="http://www.w3.org/2000/svg" xmlns:xlink="http://www.w3.org/1999/xlink" width="40" zoomAndPan="magnify" viewBox="0 0 30 30.000001" height="40" preserveAspectRatio="xMidYMid meet" version="1.0"><defs><clipPath id="c0fd874fdf"><path d="M 2.082031 1.597656 L 28.210938 1.597656 L 28.210938 27.726562 L 2.082031 27.726562 Z M 2.082031 1.597656 " clip-rule="nonzero"/></clipPath><clipPath id="5fdf17c59f"><path d="M 5 15 L 28.210938 15 L 28.210938 27.726562 L 5 27.726562 Z M 5 15 " clip-rule="nonzero"/></clipPath><clipPath id="91dda1b0ac"><path d="M 2.082031 15 L 22 15 L 22 27.726562 L 2.082031 27.726562 Z M 2.082031 15 " clip-rule="nonzero"/></clipPath><clipPath id="f386b72732"><path d="M 12 27 L 14 27 L 14 27.726562 L 12 27.726562 Z M 12 27 " clip-rule="nonzero"/></clipPath><clipPath id="5311dc3cee"><path d="M 16 27 L 17 27 L 17 27.726562 L 16 27.726562 Z M 16 27 " clip-rule="nonzero"/></clipPath><clipPath id="aac9cd7896"><path d="M 14 27 L 15 27 L 15 27.726562 L 14 27.726562 Z M 14 27 " clip-rule="nonzero"/></clipPath><clipPath id="16a9d51c28"><path d="M 2.082031 16 L 4 16 L 4 18 L 2.082031 18 Z M 2.082031 16 " clip-rule="nonzero"/></clipPath></defs><g clip-path="url(#c0fd874fdf)"><path fill="#8bd2f6" d="M 28.214844 14.667969 C 28.214844 15.523438 28.132812 16.375 27.964844 17.214844 C 27.796875 18.058594 27.550781 18.875 27.222656 19.667969 C 26.894531 20.457031 26.492188 21.210938 26.015625 21.925781 C 25.539062 22.636719 24.996094 23.296875 24.390625 23.90625 C 23.78125 24.511719 23.121094 25.054688 22.410156 25.53125 C 21.695312 26.007812 20.941406 26.410156 20.148438 26.738281 C 19.359375 27.066406 18.539062 27.3125 17.699219 27.480469 C 16.859375 27.648438 16.007812 27.730469 15.148438 27.730469 C 14.292969 27.730469 13.441406 27.648438 12.601562 27.480469 C 11.761719 27.3125 10.941406 27.066406 10.148438 26.738281 C 9.359375 26.410156 8.605469 26.007812 7.890625 25.53125 C 7.179688 25.054688 6.519531 24.511719 5.910156 23.90625 C 5.304688 23.296875 4.761719 22.636719 4.285156 21.925781 C 3.808594 21.210938 3.40625 20.457031 3.078125 19.667969 C 2.75 18.875 2.503906 18.058594 2.335938 17.214844 C 2.167969 16.375 2.085938 15.523438 2.085938 14.667969 C 2.085938 13.808594 2.167969 12.957031 2.335938 12.117188 C 2.503906 11.277344 2.75 10.460938 3.078125 9.667969 C 3.40625 8.875 3.808594 8.121094 4.285156 7.40625 C 4.761719 6.695312 5.304688 6.035156 5.910156 5.425781 C 6.519531 4.820312 7.179688 4.28125 7.890625 3.804688 C 8.605469 3.328125 9.359375 2.921875 10.148438 2.59375 C 10.941406 2.265625 11.761719 2.019531 12.601562 1.851562 C 13.441406 1.683594 14.292969 1.601562 15.148438 1.601562 C 16.007812 1.601562 16.859375 1.683594 17.699219 1.851562 C 18.539062 2.019531 19.359375 2.265625 20.148438 2.59375 C 20.941406 2.921875 21.695312 3.328125 22.410156 3.804688 C 23.121094 4.28125 23.78125 4.820312 24.390625 5.425781 C 24.996094 6.035156 25.539062 6.695312 26.015625 7.40625 C 26.492188 8.121094 26.894531 8.875 27.222656 9.667969 C 27.550781 10.460938 27.796875 11.277344 27.964844 12.117188 C 28.132812 12.957031 28.214844 13.808594 28.214844 14.667969 Z M 28.214844 14.667969 " fill-opacity="1" fill-rule="nonzero"/></g><g clip-path="url(#5fdf17c59f)"><path fill="#7da34f" d="M 15.707031 17.796875 C 12.035156 19.121094 8.433594 20.894531 5.351562 23.308594 C 7.742188 26.019531 11.246094 27.730469 15.148438 27.730469 C 22.082031 27.730469 27.753906 22.332031 28.1875 15.507812 C 23.953125 15.394531 19.738281 16.339844 15.707031 17.796875 Z M 15.707031 17.796875 " fill-opacity="1" fill-rule="nonzero"/><path fill="#729549" d="M 19.339844 19.238281 C 19.542969 16.226562 25.078125 16.394531 28.078125 16.570312 C 28.128906 16.222656 28.164062 15.867188 28.1875 15.507812 C 23.953125 15.394531 19.738281 16.339844 15.707031 17.796875 C 12.035156 19.121094 8.433594 20.894531 5.351562 23.308594 C 7.746094 26.019531 11.246094 27.730469 15.148438 27.730469 C 17.890625 27.730469 20.433594 26.886719 22.53125 25.445312 C 22.273438 24.875 19.152344 22.085938 19.339844 19.238281 Z M 19.339844 19.238281 " fill-opacity="1" fill-rule="nonzero"/></g><g clip-path="url(#91dda1b0ac)"><path fill="#b8d15c" d="M 21.160156 25.765625 C 19.328125 22.390625 16.667969 19.527344 13.234375 17.75 C 9.765625 15.957031 5.925781 15.429688 2.089844 15.046875 C 2.292969 22.085938 8.0625 27.730469 15.148438 27.730469 C 17.402344 27.730469 19.519531 27.164062 21.371094 26.160156 C 21.300781 26.027344 21.230469 25.894531 21.160156 25.765625 Z M 21.160156 25.765625 " fill-opacity="1" fill-rule="nonzero"/><path fill="#9cc549" d="M 6.765625 16.949219 C 10.460938 17.878906 14.136719 19.792969 16.511719 22.839844 C 17.527344 24.140625 18.285156 25.644531 18.632812 27.261719 C 19.59375 26.996094 20.511719 26.625 21.371094 26.160156 C 21.300781 26.027344 21.230469 25.894531 21.160156 25.765625 C 19.328125 22.390625 16.667969 19.527344 13.234375 17.75 C 9.769531 15.960938 5.929688 15.429688 2.09375 15.050781 C 2.105469 15.476562 2.136719 15.898438 2.1875 16.3125 C 3.730469 16.351562 5.273438 16.574219 6.765625 16.949219 Z M 6.765625 16.949219 " fill-opacity="1" fill-rule="nonzero"/></g><path fill="#ffffff" d="M 21.597656 6.324219 C 21.597656 5.808594 21.230469 5.378906 20.742188 5.277344 C 20.699219 4.695312 20.210938 4.234375 19.617188 4.234375 C 19.316406 4.234375 19.046875 4.351562 18.84375 4.539062 C 18.625 4.375 18.351562 4.28125 18.054688 4.28125 C 17.433594 4.28125 16.914062 4.707031 16.769531 5.285156 C 16.695312 5.269531 16.617188 5.257812 16.535156 5.257812 C 15.945312 5.257812 15.46875 5.738281 15.46875 6.324219 C 15.46875 6.898438 15.917969 7.363281 16.484375 7.390625 L 16.484375 7.394531 L 20.625 7.394531 L 20.625 7.390625 C 21.167969 7.339844 21.597656 6.882812 21.597656 6.324219 Z M 21.597656 6.324219 " fill-opacity="0.42" fill-rule="nonzero"/><path fill="#ffffff" d="M 14.019531 7.636719 C 14.019531 7.117188 13.652344 6.6875 13.164062 6.589844 C 13.121094 6.003906 12.632812 5.542969 12.039062 5.542969 C 11.738281 5.542969 11.46875 5.660156 11.265625 5.847656 C 11.046875 5.6875 10.773438 5.589844 10.476562 5.589844 C 9.855469 5.589844 9.335938 6.015625 9.191406 6.59375 C 9.117188 6.578125 9.039062 6.566406 8.957031 6.566406 C 8.367188 6.566406 7.890625 7.046875 7.890625 7.636719 C 7.890625 8.207031 8.339844 8.671875 8.90625 8.699219 L 8.90625 8.703125 L 13.046875 8.703125 L 13.046875 8.699219 C 13.589844 8.648438 14.019531 8.191406 14.019531 7.636719 Z M 14.019531 7.636719 " fill-opacity="0.42" fill-rule="nonzero"/><path fill="#ffffff" d="M 25.46875 9.957031 L 25.398438 9.957031 C 25.382812 9.308594 24.644531 9.097656 24.339844 9.332031 C 24.296875 8.75 23.808594 8.289062 23.214844 8.289062 C 22.914062 8.289062 22.644531 8.402344 22.441406 8.59375 C 22.222656 8.429688 21.949219 8.332031 21.652344 8.332031 C 21.03125 8.332031 20.511719 8.761719 20.367188 9.335938 C 20.292969 9.320312 20.214844 9.3125 20.132812 9.3125 C 19.542969 9.3125 19.066406 9.789062 19.066406 10.378906 C 19.066406 10.949219 19.515625 11.417969 20.082031 11.445312 L 25.46875 11.445312 C 25.878906 11.445312 26.210938 11.113281 26.210938 10.703125 C 26.210938 10.292969 25.878906 9.957031 25.46875 9.957031 Z M 25.46875 9.957031 " fill-opacity="0.42" fill-rule="nonzero"/><path fill="#fff6a0" d="M 4.730469 19.773438 C 4.929688 19.773438 4.929688 19.46875 4.730469 19.46875 C 4.535156 19.46875 4.535156 19.773438 4.730469 19.773438 Z M 4.730469 19.773438 " fill-opacity="1" fill-rule="nonzero"/><path fill="#fff6a0" d="M 4.640625 21.5 C 4.839844 21.5 4.839844 21.191406 4.640625 21.191406 C 4.441406 21.191406 4.441406 21.5 4.640625 21.5 Z M 4.640625 21.5 " fill-opacity="1" fill-rule="nonzero"/><path fill="#fff6a0" d="M 6.003906 20.375 C 5.988281 20.375 5.972656 20.375 5.957031 20.375 C 5.878906 20.375 5.800781 20.445312 5.804688 20.53125 C 5.808594 20.613281 5.871094 20.683594 5.957031 20.683594 C 5.972656 20.683594 5.988281 20.683594 6.003906 20.683594 C 6.082031 20.683594 6.160156 20.613281 6.15625 20.53125 C 6.152344 20.445312 6.089844 20.375 6.003906 20.375 Z M 6.003906 20.375 " fill-opacity="1" fill-rule="nonzero"/><path fill="#fff6a0" d="M 5.730469 22.453125 C 5.929688 22.453125 5.929688 22.148438 5.730469 22.148438 C 5.535156 22.148438 5.53125 22.453125 5.730469 22.453125 Z M 5.730469 22.453125 " fill-opacity="1" fill-rule="nonzero"/><path fill="#fff6a0" d="M 7.003906 21.554688 C 6.988281 21.554688 6.972656 21.554688 6.957031 21.554688 C 6.878906 21.554688 6.800781 21.625 6.804688 21.710938 C 6.808594 21.792969 6.871094 21.863281 6.957031 21.863281 C 6.972656 21.863281 6.988281 21.863281 7.003906 21.863281 C 7.082031 21.863281 7.160156 21.792969 7.15625 21.710938 C 7.152344 21.625 7.089844 21.554688 7.003906 21.554688 Z M 7.003906 21.554688 " fill-opacity="1" fill-rule="nonzero"/><path fill="#fff6a0" d="M 7.410156 24.089844 C 7.609375 24.089844 7.609375 23.78125 7.410156 23.78125 C 7.214844 23.78125 7.214844 24.089844 7.410156 24.089844 Z M 7.410156 24.089844 " fill-opacity="1" fill-rule="nonzero"/><path fill="#fff6a0" d="M 8.59375 22.953125 C 8.789062 22.953125 8.789062 22.644531 8.59375 22.644531 C 8.394531 22.644531 8.394531 22.953125 8.59375 22.953125 Z M 8.59375 22.953125 " fill-opacity="1" fill-rule="nonzero"/><path fill="#fff6a0" d="M 10.589844 25.632812 C 10.789062 25.632812 10.789062 25.324219 10.589844 25.324219 C 10.390625 25.324219 10.390625 25.632812 10.589844 25.632812 Z M 10.589844 25.632812 " fill-opacity="1" fill-rule="nonzero"/><path fill="#fff6a0" d="M 11.90625 24.453125 C 12.105469 24.453125 12.105469 24.144531 11.90625 24.144531 C 11.710938 24.144531 11.707031 24.453125 11.90625 24.453125 Z M 11.90625 24.453125 " fill-opacity="1" fill-rule="nonzero"/><path fill="#fff6a0" d="M 12.226562 25.816406 C 12.421875 25.816406 12.421875 25.507812 12.226562 25.507812 C 12.027344 25.507812 12.027344 25.816406 12.226562 25.816406 Z M 12.226562 25.816406 " fill-opacity="1" fill-rule="nonzero"/><path fill="#fff6a0" d="M 9.210938 23.980469 C 9.210938 23.996094 9.210938 24.011719 9.210938 24.023438 C 9.210938 24.105469 9.28125 24.183594 9.363281 24.179688 C 9.445312 24.175781 9.519531 24.109375 9.519531 24.023438 C 9.519531 24.011719 9.519531 23.996094 9.519531 23.980469 C 9.519531 23.898438 9.445312 23.824219 9.363281 23.828125 C 9.28125 23.832031 9.210938 23.894531 9.210938 23.980469 Z M 9.210938 23.980469 " fill-opacity="1" fill-rule="nonzero"/><path fill="#fff6a0" d="M 3.460938 18.320312 C 3.65625 18.320312 3.65625 18.015625 3.460938 18.015625 C 3.261719 18.015625 3.261719 18.320312 3.460938 18.320312 Z M 3.460938 18.320312 " fill-opacity="1" fill-rule="nonzero"/><path fill="#fff6a0" d="M 3.6875 19.601562 C 3.671875 19.601562 3.65625 19.601562 3.640625 19.601562 C 3.5625 19.601562 3.484375 19.675781 3.488281 19.757812 C 3.492188 19.839844 3.554688 19.910156 3.640625 19.910156 C 3.65625 19.910156 3.671875 19.910156 3.6875 19.910156 C 3.765625 19.910156 3.84375 19.839844 3.839844 19.757812 C 3.835938 19.675781 3.773438 19.601562 3.6875 19.601562 Z M 3.6875 19.601562 " fill-opacity="1" fill-rule="nonzero"/><path fill="#fff6a0" d="M 14.8125 26.632812 C 15.011719 26.632812 15.011719 26.324219 14.8125 26.324219 C 14.617188 26.324219 14.617188 26.632812 14.8125 26.632812 Z M 14.8125 26.632812 " fill-opacity="1" fill-rule="nonzero"/><path fill="#fff6a0" d="M 11.863281 26.539062 C 12.058594 26.539062 12.058594 26.234375 11.863281 26.234375 C 11.664062 26.234375 11.664062 26.539062 11.863281 26.539062 Z M 11.863281 26.539062 " fill-opacity="1" fill-rule="nonzero"/><path fill="#fff6a0" d="M 8.546875 24.996094 C 8.746094 24.996094 8.746094 24.691406 8.546875 24.691406 C 8.347656 24.691406 8.347656 24.996094 8.546875 24.996094 Z M 8.546875 24.996094 " fill-opacity="1" fill-rule="nonzero"/><path fill="#fff6a0" d="M 6.910156 22.828125 C 6.894531 22.828125 6.878906 22.828125 6.867188 22.828125 C 6.785156 22.828125 6.707031 22.898438 6.710938 22.980469 C 6.714844 23.0625 6.78125 23.136719 6.867188 23.136719 C 6.882812 23.136719 6.898438 23.136719 6.910156 23.136719 C 6.992188 23.136719 7.070312 23.0625 7.066406 22.980469 C 7.0625 22.898438 6.996094 22.828125 6.910156 22.828125 Z M 6.910156 22.828125 " fill-opacity="1" fill-rule="nonzero"/><path fill="#fff6a0" d="M 17.175781 26.40625 C 17.371094 26.40625 17.371094 26.097656 17.175781 26.097656 C 16.976562 26.097656 16.976562 26.40625 17.175781 26.40625 Z M 17.175781 26.40625 " fill-opacity="1" fill-rule="nonzero"/><g clip-path="url(#f386b72732)"><path fill="#fff6a0" d="M 12.953125 27.3125 C 13.148438 27.3125 13.148438 27.003906 12.953125 27.003906 C 12.753906 27.003906 12.753906 27.3125 12.953125 27.3125 Z M 12.953125 27.3125 " fill-opacity="1" fill-rule="nonzero"/></g><path fill="#fff6a0" d="M 13.679688 25.90625 C 13.875 25.90625 13.875 25.597656 13.679688 25.597656 C 13.480469 25.597656 13.480469 25.90625 13.679688 25.90625 Z M 13.679688 25.90625 " fill-opacity="1" fill-rule="nonzero"/><g clip-path="url(#5311dc3cee)"><path fill="#fff6a0" d="M 16.3125 27.496094 C 16.511719 27.496094 16.511719 27.1875 16.3125 27.1875 C 16.113281 27.1875 16.113281 27.496094 16.3125 27.496094 Z M 16.3125 27.496094 " fill-opacity="1" fill-rule="nonzero"/></g><g clip-path="url(#aac9cd7896)"><path fill="#fff6a0" d="M 14.675781 27.628906 C 14.875 27.628906 14.875 27.324219 14.675781 27.324219 C 14.480469 27.324219 14.480469 27.628906 14.675781 27.628906 Z M 14.675781 27.628906 " fill-opacity="1" fill-rule="nonzero"/></g><path fill="#fff6a0" d="M 9.546875 25.90625 C 9.742188 25.90625 9.742188 25.597656 9.546875 25.597656 C 9.347656 25.597656 9.347656 25.90625 9.546875 25.90625 Z M 9.546875 25.90625 " fill-opacity="1" fill-rule="nonzero"/><g clip-path="url(#16a9d51c28)"><path fill="#fff6a0" d="M 2.914062 17.230469 C 3.113281 17.230469 3.113281 16.925781 2.914062 16.925781 C 2.71875 16.925781 2.714844 17.230469 2.914062 17.230469 Z M 2.914062 17.230469 " fill-opacity="1" fill-rule="nonzero"/></g><path fill="#fff6a0" d="M 10.679688 24.179688 C 10.878906 24.179688 10.878906 23.871094 10.679688 23.871094 C 10.484375 23.871094 10.484375 24.179688 10.679688 24.179688 Z M 10.679688 24.179688 " fill-opacity="1" fill-rule="nonzero"/><path fill="#fff6a0" d="M 16.175781 26.359375 C 16.375 26.359375 16.375 26.050781 16.175781 26.050781 C 15.976562 26.050781 15.976562 26.359375 16.175781 26.359375 Z M 16.175781 26.359375 " fill-opacity="1" fill-rule="nonzero"/><path fill="#fff6a0" d="M 4.640625 20.820312 C 4.839844 20.820312 4.839844 20.511719 4.640625 20.511719 C 4.441406 20.511719 4.441406 20.820312 4.640625 20.820312 Z M 4.640625 20.820312 " fill-opacity="1" fill-rule="nonzero"/><path fill="#fff6a0" d="M 22.925781 24.207031 C 22.925781 24.222656 22.925781 24.238281 22.925781 24.253906 C 22.925781 24.332031 22.996094 24.410156 23.078125 24.40625 C 23.160156 24.402344 23.234375 24.339844 23.234375 24.253906 C 23.234375 24.238281 23.234375 24.222656 23.234375 24.207031 C 23.234375 24.128906 23.160156 24.050781 23.078125 24.054688 C 22.996094 24.058594 22.925781 24.121094 22.925781 24.207031 Z M 22.925781 24.207031 " fill-opacity="1" fill-rule="nonzero"/><path fill="#fff6a0" d="M 24.242188 23.230469 C 24.242188 23.246094 24.242188 23.261719 24.242188 23.277344 C 24.242188 23.355469 24.3125 23.433594 24.394531 23.429688 C 24.480469 23.425781 24.550781 23.363281 24.550781 23.277344 C 24.550781 23.261719 24.550781 23.246094 24.550781 23.230469 C 24.550781 23.152344 24.480469 23.074219 24.394531 23.078125 C 24.3125 23.082031 24.242188 23.144531 24.242188 23.230469 Z M 24.242188 23.230469 " fill-opacity="1" fill-rule="nonzero"/><path fill="#fff6a0" d="M 24.894531 21.863281 C 25.09375 21.863281 25.09375 21.554688 24.894531 21.554688 C 24.699219 21.554688 24.699219 21.863281 24.894531 21.863281 Z M 24.894531 21.863281 " fill-opacity="1" fill-rule="nonzero"/><path fill="#fff6a0" d="M 26.46875 18.53125 C 26.46875 18.546875 26.46875 18.5625 26.46875 18.574219 C 26.46875 18.65625 26.539062 18.734375 26.621094 18.730469 C 26.703125 18.726562 26.773438 18.660156 26.773438 18.574219 C 26.773438 18.5625 26.773438 18.546875 26.773438 18.53125 C 26.773438 18.449219 26.703125 18.375 26.621094 18.378906 C 26.539062 18.378906 26.46875 18.445312 26.46875 18.53125 Z M 26.46875 18.53125 " fill-opacity="1" fill-rule="nonzero"/><path fill="#fff6a0" d="M 24.894531 20.136719 C 25.09375 20.136719 25.09375 19.832031 24.894531 19.832031 C 24.699219 19.832031 24.699219 20.136719 24.894531 20.136719 Z M 24.894531 20.136719 " fill-opacity="1" fill-rule="nonzero"/><path fill="#fff6a0" d="M 26.074219 21.046875 C 26.273438 21.046875 26.273438 20.738281 26.074219 20.738281 C 25.878906 20.738281 25.878906 21.046875 26.074219 21.046875 Z M 26.074219 21.046875 " fill-opacity="1" fill-rule="nonzero"/><path fill="#fff6a0" d="M 23.53125 21.910156 C 23.730469 21.910156 23.730469 21.601562 23.53125 21.601562 C 23.335938 21.601562 23.335938 21.910156 23.53125 21.910156 Z M 23.53125 21.910156 " fill-opacity="1" fill-rule="nonzero"/><path fill="#fff6a0" d="M 22.535156 23.40625 C 22.730469 23.40625 22.730469 23.101562 22.535156 23.101562 C 22.335938 23.101562 22.335938 23.40625 22.535156 23.40625 Z M 22.535156 23.40625 " fill-opacity="1" fill-rule="nonzero"/><path fill="#fff6a0" d="M 26.238281 19.511719 C 26.226562 19.527344 26.210938 19.542969 26.195312 19.558594 C 26.136719 19.617188 26.136719 19.714844 26.195312 19.773438 C 26.253906 19.832031 26.355469 19.832031 26.410156 19.773438 C 26.425781 19.757812 26.441406 19.742188 26.457031 19.730469 C 26.515625 19.671875 26.515625 19.570312 26.457031 19.511719 C 26.398438 19.453125 26.300781 19.453125 26.238281 19.511719 Z M 26.238281 19.511719 " fill-opacity="1" fill-rule="nonzero"/><path fill="#fff6a0" d="M 27.195312 17.214844 C 27.195312 17.230469 27.195312 17.246094 27.195312 17.257812 C 27.195312 17.339844 27.265625 17.417969 27.347656 17.414062 C 27.429688 17.410156 27.5 17.34375 27.5 17.257812 C 27.5 17.242188 27.5 17.226562 27.5 17.214844 C 27.5 17.132812 27.429688 17.054688 27.347656 17.058594 C 27.265625 17.0625 27.195312 17.128906 27.195312 17.214844 Z M 27.195312 17.214844 " fill-opacity="1" fill-rule="nonzero"/><path fill="#e9e9e9" d="M 7.683594 18.199219 L 6.730469 18.199219 L 6.9375 11.648438 L 7.476562 11.648438 Z M 7.683594 18.199219 " fill-opacity="1" fill-rule="nonzero"/><path fill="#ffffff" d="M 7.425781 11.617188 L 6 7.820312 C 5.96875 7.738281 5.847656 7.765625 5.855469 7.851562 L 6.144531 10.542969 C 6.171875 10.808594 6.308594 11.054688 6.523438 11.21875 L 7.179688 11.726562 " fill-opacity="1" fill-rule="nonzero"/><path fill="#ffffff" d="M 7.097656 11.882812 L 11.058594 11.019531 C 11.144531 11.003906 11.136719 10.875 11.046875 10.875 L 8.34375 10.769531 C 8.074219 10.761719 7.8125 10.859375 7.617188 11.046875 L 7.023438 11.625 " fill-opacity="1" fill-rule="nonzero"/><path fill="#ffffff" d="M 7.011719 11.527344 L 3.722656 13.902344 C 3.652344 13.953125 3.714844 14.066406 3.796875 14.035156 L 6.3125 13.046875 C 6.566406 12.949219 6.765625 12.753906 6.867188 12.503906 L 7.183594 11.738281 " fill-opacity="1" fill-rule="nonzero"/><path fill="#c8c8c8" d="M 7.671875 11.664062 C 7.671875 11.792969 7.625 11.902344 7.535156 11.992188 C 7.445312 12.085938 7.335938 12.128906 7.207031 12.128906 C 7.078125 12.128906 6.96875 12.085938 6.878906 11.992188 C 6.789062 11.902344 6.742188 11.792969 6.742188 11.664062 C 6.742188 11.539062 6.789062 11.429688 6.878906 11.335938 C 6.96875 11.246094 7.078125 11.203125 7.207031 11.203125 C 7.335938 11.203125 7.445312 11.246094 7.535156 11.335938 C 7.625 11.429688 7.671875 11.539062 7.671875 11.664062 Z M 7.671875 11.664062 " fill-opacity="1" fill-rule="nonzero"/><path fill="#e9e9e9" d="M 23.078125 18.378906 L 24.03125 18.378906 L 23.824219 11.828125 L 23.285156 11.828125 Z M 23.078125 18.378906 " fill-opacity="1" fill-rule="nonzero"/><path fill="#ffffff" d="M 23.347656 11.898438 L 23.742188 7.859375 C 23.753906 7.773438 23.878906 7.769531 23.890625 7.855469 L 24.308594 10.53125 C 24.351562 10.796875 24.28125 11.066406 24.117188 11.285156 L 23.613281 11.941406 " fill-opacity="1" fill-rule="nonzero"/><path fill="#ffffff" d="M 23.714844 11.914062 L 19.757812 12.820312 C 19.671875 12.839844 19.628906 12.722656 19.707031 12.683594 L 22.109375 11.4375 C 22.347656 11.3125 22.628906 11.292969 22.882812 11.378906 L 23.667969 11.648438 " fill-opacity="1" fill-rule="nonzero"/><path fill="#ffffff" d="M 23.75 11.707031 L 27.039062 14.082031 C 27.109375 14.132812 27.046875 14.246094 26.96875 14.210938 L 24.449219 13.226562 C 24.199219 13.128906 23.996094 12.929688 23.894531 12.679688 L 23.578125 11.917969 " fill-opacity="1" fill-rule="nonzero"/><path fill="#c8c8c8" d="M 24.019531 11.84375 C 24.019531 11.972656 23.976562 12.082031 23.882812 12.171875 C 23.792969 12.261719 23.683594 12.308594 23.554688 12.308594 C 23.429688 12.308594 23.320312 12.261719 23.226562 12.171875 C 23.136719 12.082031 23.09375 11.972656 23.09375 11.84375 C 23.09375 11.714844 23.136719 11.605469 23.226562 11.515625 C 23.320312 11.425781 23.429688 11.378906 23.554688 11.378906 C 23.683594 11.378906 23.792969 11.425781 23.882812 11.515625 C 23.976562 11.605469 24.019531 11.714844 24.019531 11.84375 Z M 24.019531 11.84375 " fill-opacity="1" fill-rule="nonzero"/><path fill="#e9e9e9" d="M 16.261719 23.140625 L 14.746094 23.140625 L 15.078125 12.746094 L 15.933594 12.746094 Z M 16.261719 23.140625 " fill-opacity="1" fill-rule="nonzero"/><path fill="#ffffff" d="M 15.933594 12.746094 L 15.933594 6.308594 C 15.933594 6.171875 15.734375 6.144531 15.699219 6.28125 L 14.628906 10.4375 C 14.519531 10.851562 14.589844 11.292969 14.8125 11.65625 L 15.503906 12.769531 " fill-opacity="1" fill-rule="nonzero"/><path fill="#ffffff" d="M 15.308594 12.710938 L 20.675781 16.265625 C 20.789062 16.34375 20.921875 16.191406 20.828125 16.085938 L 17.953125 12.898438 C 17.667969 12.578125 17.261719 12.390625 16.835938 12.378906 L 15.523438 12.339844 " fill-opacity="1" fill-rule="nonzero"/><path fill="#ffffff" d="M 15.371094 12.382812 L 9.160156 14.078125 C 9.023438 14.117188 9.054688 14.316406 9.191406 14.3125 L 13.484375 14.25 C 13.910156 14.246094 14.320312 14.066406 14.613281 13.75 L 15.503906 12.789062 " fill-opacity="1" fill-rule="nonzero"/><path fill="#c8c8c8" d="M 16.238281 12.769531 C 16.238281 12.972656 16.167969 13.148438 16.023438 13.289062 C 15.882812 13.433594 15.707031 13.507812 15.503906 13.507812 C 15.300781 13.507812 15.128906 13.433594 14.984375 13.289062 C 14.839844 13.148438 14.769531 12.972656 14.769531 12.769531 C 14.769531 12.566406 14.839844 12.394531 14.984375 12.25 C 15.128906 12.105469 15.300781 12.035156 15.503906 12.035156 C 15.707031 12.035156 15.882812 12.105469 16.023438 12.25 C 16.167969 12.394531 16.238281 12.566406 16.238281 12.769531 Z M 16.238281 12.769531 " fill-opacity="1" fill-rule="nonzero"/></svg>