<svg xmlns="http://www.w3.org/2000/svg" xmlns:xlink="http://www.w3.org/1999/xlink" width="40" zoomAndPan="magnify" viewBox="0 0 30 30.000001" height="40" preserveAspectRatio="xMidYMid meet" version="1.0"><defs><clipPath id="09aee3c5b9"><path d="M 3.386719 2.054688 L 27.339844 2.054688 L 27.339844 24 L 3.386719 24 Z M 3.386719 2.054688 " clip-rule="nonzero"/></clipPath><clipPath id="67e53fe677"><path d="M 4 22 L 27 22 L 27 26.730469 L 4 26.730469 Z M 4 22 " clip-rule="nonzero"/></clipPath><clipPath id="0c9223db1e"><path d="M 3.386719 13 L 27.339844 13 L 27.339844 24 L 3.386719 24 Z M 3.386719 13 " clip-rule="nonzero"/></clipPath><clipPath id="49e4122a2b"><path d="M 3.386719 2.054688 L 27.339844 2.054688 L 27.339844 26.730469 L 3.386719 26.730469 Z M 3.386719 2.054688 " clip-rule="nonzero"/></clipPath></defs><g clip-path="url(#09aee3c5b9)"><path fill="#91c5eb" d="M 3.433594 13.964844 C 3.433594 7.410156 8.773438 2.097656 15.363281 2.097656 C 21.953125 2.097656 27.292969 7.410156 27.292969 13.964844 C 27.292969 17.652344 25.601562 20.945312 22.949219 23.121094 C 22.296875 23.144531 21.644531 23.171875 20.992188 23.203125 C 17.851562 23.339844 14.710938 23.570312 11.5625 23.507812 C 10.371094 23.480469 9.179688 23.417969 7.992188 23.296875 C 5.214844 21.121094 3.433594 17.75 3.433594 13.964844 Z M 3.433594 13.964844 " fill-opacity="1" fill-rule="nonzero"/></g><path fill="#969696" d="M 21.226562 9.398438 C 21.308594 9.53125 21.355469 9.6875 21.355469 9.855469 C 21.355469 10.167969 21.191406 10.441406 20.949219 10.601562 C 20.980469 10.695312 21 10.796875 21 10.90625 C 21 11.132812 20.914062 11.339844 20.773438 11.5 C 21.027344 11.578125 21.214844 11.816406 21.214844 12.097656 C 21.214844 12.398438 21.003906 12.648438 20.71875 12.710938 C 20.722656 12.738281 20.726562 12.765625 20.726562 12.792969 C 20.726562 13.054688 20.515625 13.261719 20.253906 13.261719 C 20.125 13.261719 20.003906 13.210938 19.921875 13.125 C 19.902344 13.273438 19.777344 13.390625 19.621094 13.390625 C 19.570312 13.390625 19.519531 13.375 19.476562 13.351562 C 19.4375 13.375 19.390625 13.390625 19.339844 13.390625 C 19.269531 13.390625 19.199219 13.359375 19.152344 13.3125 C 19.152344 13.3125 19.148438 13.3125 19.148438 13.3125 C 18.9375 13.3125 18.769531 13.140625 18.769531 12.933594 C 18.769531 12.855469 18.792969 12.785156 18.832031 12.722656 C 18.335938 12.699219 17.941406 12.292969 17.941406 11.796875 C 17.941406 11.429688 18.152344 11.117188 18.457031 10.964844 C 18.265625 10.8125 18.140625 10.582031 18.140625 10.324219 C 18.140625 10.160156 18.1875 10.011719 18.269531 9.886719 C 18.023438 9.734375 17.859375 9.464844 17.859375 9.15625 C 17.859375 8.683594 18.246094 8.296875 18.722656 8.296875 C 18.757812 8.296875 18.792969 8.300781 18.828125 8.304688 C 18.761719 8.179688 18.722656 8.039062 18.722656 7.886719 C 18.722656 7.398438 19.117188 7.003906 19.609375 7.003906 C 20.035156 7.003906 20.390625 7.300781 20.476562 7.699219 C 20.574219 7.664062 20.679688 7.644531 20.789062 7.644531 C 21.308594 7.644531 21.726562 8.0625 21.726562 8.578125 C 21.726562 8.933594 21.523438 9.242188 21.226562 9.398438 Z M 16.289062 7.589844 C 16.175781 7.589844 16.066406 7.609375 15.964844 7.644531 C 15.878906 7.238281 15.515625 6.933594 15.078125 6.933594 C 14.578125 6.933594 14.171875 7.335938 14.171875 7.835938 C 14.171875 7.988281 14.210938 8.136719 14.28125 8.261719 C 14.246094 8.257812 14.207031 8.253906 14.171875 8.253906 C 13.683594 8.253906 13.289062 8.648438 13.289062 9.136719 C 13.289062 9.453125 13.457031 9.726562 13.707031 9.882812 C 13.625 10.011719 13.578125 10.164062 13.578125 10.328125 C 13.578125 10.597656 13.703125 10.832031 13.898438 10.984375 C 13.585938 11.144531 13.371094 11.464844 13.371094 11.835938 C 13.371094 12.347656 13.777344 12.765625 14.28125 12.789062 C 14.242188 12.851562 14.21875 12.921875 14.21875 13 C 14.21875 13.214844 14.394531 13.390625 14.609375 13.390625 C 14.609375 13.390625 14.609375 13.390625 14.613281 13.390625 C 14.660156 13.4375 14.730469 13.46875 14.804688 13.46875 C 14.855469 13.46875 14.902344 13.453125 14.945312 13.429688 C 14.988281 13.453125 15.039062 13.46875 15.09375 13.46875 C 15.25 13.46875 15.378906 13.351562 15.398438 13.199219 C 15.484375 13.285156 15.605469 13.339844 15.738281 13.339844 C 16.007812 13.339844 16.222656 13.125 16.222656 12.859375 C 16.222656 12.828125 16.222656 12.800781 16.214844 12.773438 C 16.503906 12.710938 16.722656 12.453125 16.722656 12.148438 C 16.722656 11.859375 16.53125 11.617188 16.269531 11.535156 C 16.414062 11.371094 16.503906 11.160156 16.503906 10.925781 C 16.503906 10.816406 16.484375 10.710938 16.449219 10.617188 C 16.699219 10.453125 16.867188 10.171875 16.867188 9.851562 C 16.867188 9.679688 16.816406 9.519531 16.734375 9.382812 C 17.039062 9.226562 17.246094 8.90625 17.246094 8.542969 C 17.246094 8.015625 16.816406 7.589844 16.289062 7.589844 Z M 11.613281 7.597656 C 11.5 7.597656 11.390625 7.617188 11.289062 7.652344 C 11.199219 7.242188 10.832031 6.933594 10.390625 6.933594 C 9.882812 6.933594 9.472656 7.339844 9.472656 7.84375 C 9.472656 8.003906 9.511719 8.148438 9.582031 8.277344 C 9.546875 8.273438 9.507812 8.269531 9.472656 8.269531 C 8.976562 8.269531 8.578125 8.667969 8.578125 9.160156 C 8.578125 9.480469 8.75 9.761719 9.003906 9.917969 C 8.917969 10.046875 8.871094 10.203125 8.871094 10.367188 C 8.871094 10.636719 9 10.878906 9.195312 11.03125 C 8.878906 11.191406 8.664062 11.515625 8.664062 11.894531 C 8.664062 12.410156 9.070312 12.832031 9.585938 12.855469 C 9.542969 12.917969 9.519531 12.992188 9.519531 13.070312 C 9.519531 13.289062 9.695312 13.460938 9.914062 13.460938 C 9.914062 13.460938 9.914062 13.460938 9.917969 13.460938 C 9.964844 13.511719 10.035156 13.542969 10.113281 13.542969 C 10.164062 13.542969 10.210938 13.53125 10.253906 13.503906 C 10.296875 13.53125 10.347656 13.542969 10.402344 13.542969 C 10.5625 13.542969 10.695312 13.425781 10.710938 13.269531 C 10.800781 13.359375 10.921875 13.414062 11.058594 13.414062 C 11.328125 13.414062 11.546875 13.195312 11.546875 12.925781 C 11.546875 12.898438 11.542969 12.867188 11.539062 12.839844 C 11.832031 12.777344 12.050781 12.519531 12.050781 12.207031 C 12.050781 11.914062 11.859375 11.667969 11.59375 11.585938 C 11.742188 11.421875 11.832031 11.207031 11.832031 10.972656 C 11.832031 10.863281 11.8125 10.757812 11.773438 10.660156 C 12.027344 10.496094 12.195312 10.210938 12.195312 9.886719 C 12.195312 9.710938 12.148438 9.550781 12.0625 9.414062 C 12.371094 9.25 12.582031 8.929688 12.582031 8.558594 C 12.582031 8.027344 12.148438 7.597656 11.613281 7.597656 Z M 11.613281 7.597656 " fill-opacity="1" fill-rule="nonzero"/><g clip-path="url(#67e53fe677)"><path fill="#399557" d="M 4.144531 22.21875 L 26.863281 22.21875 L 22.84375 25.734375 L 20.792969 24.53125 L 15.234375 26.6875 L 12.542969 25.070312 L 9.191406 25.570312 Z M 4.144531 22.21875 " fill-opacity="1" fill-rule="nonzero"/></g><path fill="#000000" d="M 21.761719 8.574219 C 21.761719 8.042969 21.324219 7.609375 20.789062 7.609375 C 20.691406 7.609375 20.59375 7.625 20.5 7.652344 C 20.398438 7.253906 20.027344 6.96875 19.609375 6.96875 C 19.101562 6.96875 18.6875 7.378906 18.6875 7.886719 C 18.6875 8.015625 18.714844 8.144531 18.769531 8.265625 C 18.753906 8.261719 18.738281 8.261719 18.722656 8.261719 C 18.226562 8.261719 17.824219 8.664062 17.824219 9.15625 C 17.824219 9.457031 17.972656 9.730469 18.222656 9.898438 C 18.148438 10.027344 18.105469 10.171875 18.105469 10.324219 C 18.105469 10.566406 18.210938 10.796875 18.394531 10.957031 C 18.09375 11.128906 17.90625 11.445312 17.90625 11.796875 C 17.90625 12.292969 18.285156 12.703125 18.773438 12.753906 C 18.746094 12.808594 18.734375 12.871094 18.734375 12.933594 C 18.734375 13.15625 18.914062 13.339844 19.140625 13.347656 C 19.195312 13.394531 19.265625 13.421875 19.34375 13.421875 C 19.390625 13.421875 19.4375 13.414062 19.480469 13.390625 C 19.523438 13.414062 19.574219 13.421875 19.625 13.421875 C 19.773438 13.421875 19.898438 13.328125 19.941406 13.191406 C 20.03125 13.261719 20.140625 13.296875 20.257812 13.296875 C 20.535156 13.296875 20.761719 13.070312 20.761719 12.792969 C 20.761719 12.773438 20.761719 12.757812 20.761719 12.738281 C 21.046875 12.660156 21.25 12.394531 21.25 12.097656 C 21.25 11.824219 21.085938 11.582031 20.832031 11.484375 C 20.964844 11.320312 21.039062 11.117188 21.039062 10.90625 C 21.039062 10.808594 21.023438 10.710938 20.992188 10.617188 C 21.242188 10.445312 21.390625 10.160156 21.390625 9.855469 C 21.390625 9.703125 21.351562 9.550781 21.277344 9.414062 C 21.574219 9.238281 21.761719 8.921875 21.761719 8.574219 Z M 21.210938 9.367188 L 21.175781 9.386719 L 21.195312 9.417969 C 21.277344 9.550781 21.320312 9.703125 21.320312 9.855469 C 21.320312 10.148438 21.171875 10.414062 20.929688 10.574219 L 20.90625 10.589844 L 20.914062 10.613281 C 20.949219 10.710938 20.964844 10.808594 20.964844 10.90625 C 20.964844 11.117188 20.886719 11.320312 20.746094 11.476562 L 20.710938 11.515625 L 20.761719 11.53125 C 21.011719 11.609375 21.179688 11.835938 21.179688 12.097656 C 21.179688 12.375 20.984375 12.617188 20.710938 12.675781 L 20.679688 12.683594 L 20.683594 12.714844 C 20.691406 12.742188 20.691406 12.769531 20.691406 12.792969 C 20.691406 13.035156 20.496094 13.226562 20.253906 13.226562 C 20.136719 13.226562 20.027344 13.183594 19.945312 13.097656 L 19.894531 13.046875 L 19.886719 13.121094 C 19.871094 13.253906 19.757812 13.351562 19.625 13.351562 C 19.578125 13.351562 19.535156 13.339844 19.496094 13.320312 L 19.476562 13.308594 L 19.460938 13.320312 C 19.425781 13.339844 19.382812 13.351562 19.34375 13.351562 C 19.28125 13.351562 19.222656 13.328125 19.179688 13.285156 L 19.164062 13.273438 L 19.148438 13.273438 C 18.957031 13.273438 18.804688 13.121094 18.804688 12.933594 C 18.804688 12.863281 18.824219 12.800781 18.859375 12.742188 L 18.894531 12.691406 L 18.832031 12.6875 C 18.351562 12.664062 17.976562 12.273438 17.976562 11.792969 C 17.976562 11.453125 18.167969 11.148438 18.472656 10.992188 L 18.523438 10.96875 L 18.480469 10.933594 C 18.289062 10.785156 18.175781 10.5625 18.175781 10.320312 C 18.175781 10.171875 18.21875 10.027344 18.300781 9.902344 L 18.316406 9.875 L 18.289062 9.855469 C 18.039062 9.703125 17.894531 9.441406 17.894531 9.15625 C 17.894531 8.699219 18.265625 8.332031 18.722656 8.332031 C 18.753906 8.332031 18.785156 8.332031 18.824219 8.335938 L 18.890625 8.34375 L 18.859375 8.285156 C 18.792969 8.164062 18.757812 8.023438 18.757812 7.882812 C 18.757812 7.417969 19.140625 7.035156 19.609375 7.035156 C 20.007812 7.035156 20.359375 7.316406 20.441406 7.703125 L 20.449219 7.742188 L 20.488281 7.730469 C 20.585938 7.695312 20.6875 7.679688 20.792969 7.679688 C 21.289062 7.679688 21.691406 8.082031 21.691406 8.574219 C 21.691406 8.910156 21.507812 9.210938 21.210938 9.367188 Z M 16.289062 7.554688 C 16.1875 7.554688 16.089844 7.566406 15.992188 7.597656 C 15.886719 7.1875 15.507812 6.894531 15.078125 6.894531 C 14.558594 6.894531 14.136719 7.316406 14.136719 7.835938 C 14.136719 7.96875 14.164062 8.101562 14.21875 8.222656 C 14.203125 8.222656 14.1875 8.21875 14.171875 8.21875 C 13.664062 8.21875 13.25 8.632812 13.25 9.136719 C 13.25 9.441406 13.402344 9.722656 13.660156 9.894531 C 13.582031 10.027344 13.542969 10.175781 13.542969 10.328125 C 13.542969 10.578125 13.648438 10.8125 13.835938 10.980469 C 13.527344 11.15625 13.335938 11.480469 13.335938 11.835938 C 13.335938 12.347656 13.722656 12.765625 14.222656 12.820312 C 14.195312 12.875 14.183594 12.9375 14.183594 13 C 14.183594 13.230469 14.367188 13.417969 14.597656 13.421875 C 14.65625 13.476562 14.726562 13.503906 14.804688 13.503906 C 14.855469 13.503906 14.902344 13.492188 14.945312 13.46875 C 14.992188 13.492188 15.042969 13.503906 15.09375 13.503906 C 15.246094 13.503906 15.375 13.40625 15.421875 13.265625 C 15.511719 13.335938 15.621094 13.375 15.742188 13.375 C 16.027344 13.375 16.261719 13.144531 16.261719 12.859375 C 16.261719 12.839844 16.257812 12.820312 16.257812 12.800781 C 16.550781 12.722656 16.757812 12.449219 16.757812 12.148438 C 16.757812 11.867188 16.589844 11.621094 16.332031 11.515625 C 16.46875 11.347656 16.542969 11.140625 16.542969 10.925781 C 16.542969 10.824219 16.523438 10.726562 16.492188 10.628906 C 16.75 10.453125 16.902344 10.164062 16.902344 9.851562 C 16.902344 9.695312 16.863281 9.535156 16.785156 9.398438 C 17.09375 9.222656 17.28125 8.894531 17.28125 8.539062 C 17.28125 7.996094 16.835938 7.554688 16.289062 7.554688 Z M 16.71875 9.351562 L 16.683594 9.371094 L 16.703125 9.402344 C 16.785156 9.539062 16.832031 9.695312 16.832031 9.851562 C 16.832031 10.148438 16.679688 10.425781 16.429688 10.585938 L 16.40625 10.601562 L 16.414062 10.628906 C 16.449219 10.726562 16.46875 10.828125 16.46875 10.925781 C 16.46875 11.140625 16.386719 11.347656 16.242188 11.511719 L 16.207031 11.550781 L 16.257812 11.570312 C 16.515625 11.648438 16.6875 11.882812 16.6875 12.148438 C 16.6875 12.429688 16.484375 12.679688 16.207031 12.742188 L 16.175781 12.75 L 16.179688 12.78125 C 16.1875 12.808594 16.1875 12.835938 16.1875 12.859375 C 16.1875 13.105469 15.988281 13.304688 15.742188 13.304688 C 15.621094 13.304688 15.507812 13.257812 15.421875 13.171875 L 15.371094 13.121094 L 15.363281 13.195312 C 15.347656 13.332031 15.230469 13.433594 15.09375 13.433594 C 15.046875 13.433594 15.003906 13.421875 14.960938 13.398438 L 14.945312 13.390625 L 14.925781 13.398438 C 14.890625 13.421875 14.847656 13.433594 14.804688 13.433594 C 14.742188 13.433594 14.683594 13.410156 14.636719 13.363281 L 14.625 13.355469 L 14.609375 13.355469 C 14.414062 13.355469 14.253906 13.195312 14.253906 13.003906 C 14.253906 12.933594 14.273438 12.867188 14.3125 12.808594 L 14.347656 12.757812 L 14.285156 12.753906 C 13.792969 12.730469 13.410156 12.328125 13.410156 11.835938 C 13.410156 11.488281 13.601562 11.175781 13.917969 11.019531 L 13.96875 10.992188 L 13.921875 10.957031 C 13.726562 10.804688 13.613281 10.578125 13.613281 10.328125 C 13.613281 10.179688 13.65625 10.03125 13.738281 9.902344 L 13.757812 9.871094 L 13.726562 9.851562 C 13.476562 9.699219 13.324219 9.429688 13.324219 9.136719 C 13.324219 8.671875 13.703125 8.292969 14.171875 8.292969 C 14.203125 8.292969 14.238281 8.292969 14.277344 8.300781 L 14.34375 8.308594 L 14.3125 8.246094 C 14.242188 8.121094 14.207031 7.980469 14.207031 7.835938 C 14.207031 7.355469 14.597656 6.96875 15.078125 6.96875 C 15.488281 6.96875 15.847656 7.257812 15.933594 7.652344 L 15.941406 7.691406 L 15.980469 7.679688 C 16.078125 7.644531 16.183594 7.625 16.289062 7.625 C 16.796875 7.625 17.210938 8.035156 17.210938 8.542969 C 17.210938 8.882812 17.023438 9.195312 16.71875 9.351562 Z M 11.613281 7.558594 C 11.511719 7.558594 11.410156 7.574219 11.3125 7.605469 C 11.207031 7.191406 10.824219 6.894531 10.390625 6.894531 C 9.863281 6.894531 9.433594 7.320312 9.433594 7.84375 C 9.433594 7.980469 9.464844 8.113281 9.519531 8.238281 C 9.503906 8.234375 9.488281 8.234375 9.472656 8.234375 C 8.957031 8.234375 8.542969 8.648438 8.542969 9.160156 C 8.542969 9.472656 8.695312 9.753906 8.953125 9.929688 C 8.875 10.0625 8.835938 10.214844 8.835938 10.367188 C 8.835938 10.621094 8.941406 10.859375 9.132812 11.027344 C 8.820312 11.203125 8.628906 11.53125 8.628906 11.894531 C 8.628906 12.40625 9.015625 12.832031 9.523438 12.886719 C 9.496094 12.945312 9.484375 13.007812 9.484375 13.070312 C 9.484375 13.304688 9.671875 13.492188 9.902344 13.5 C 9.960938 13.550781 10.035156 13.578125 10.113281 13.578125 C 10.160156 13.578125 10.210938 13.566406 10.253906 13.542969 C 10.300781 13.566406 10.351562 13.578125 10.402344 13.578125 C 10.558594 13.578125 10.691406 13.480469 10.734375 13.335938 C 10.828125 13.410156 10.9375 13.449219 11.058594 13.449219 C 11.347656 13.449219 11.582031 13.214844 11.582031 12.925781 C 11.582031 12.90625 11.582031 12.886719 11.582031 12.867188 C 11.875 12.789062 12.089844 12.515625 12.089844 12.207031 C 12.089844 11.921875 11.917969 11.671875 11.65625 11.570312 C 11.792969 11.398438 11.867188 11.1875 11.867188 10.972656 C 11.867188 10.871094 11.851562 10.769531 11.820312 10.671875 C 12.078125 10.492188 12.234375 10.199219 12.234375 9.886719 C 12.234375 9.726562 12.191406 9.566406 12.113281 9.425781 C 12.425781 9.246094 12.617188 8.917969 12.617188 8.558594 C 12.617188 8.007812 12.167969 7.558594 11.613281 7.558594 Z M 12.046875 9.382812 L 12.011719 9.398438 L 12.035156 9.429688 C 12.117188 9.570312 12.160156 9.726562 12.160156 9.886719 C 12.160156 10.1875 12.007812 10.464844 11.753906 10.628906 L 11.730469 10.644531 L 11.742188 10.671875 C 11.777344 10.769531 11.792969 10.871094 11.792969 10.972656 C 11.792969 11.191406 11.714844 11.398438 11.566406 11.5625 L 11.527344 11.605469 L 11.582031 11.621094 C 11.839844 11.703125 12.015625 11.9375 12.015625 12.207031 C 12.015625 12.492188 11.8125 12.746094 11.53125 12.804688 L 11.496094 12.8125 L 11.503906 12.847656 C 11.507812 12.875 11.511719 12.902344 11.511719 12.925781 C 11.511719 13.175781 11.308594 13.378906 11.058594 13.378906 C 10.9375 13.378906 10.820312 13.332031 10.734375 13.246094 L 10.683594 13.191406 L 10.675781 13.265625 C 10.660156 13.402344 10.542969 13.507812 10.402344 13.507812 C 10.355469 13.507812 10.308594 13.496094 10.269531 13.472656 L 10.25 13.460938 L 10.234375 13.472656 C 10.195312 13.496094 10.152344 13.507812 10.109375 13.507812 C 10.046875 13.507812 9.988281 13.484375 9.941406 13.4375 L 9.925781 13.425781 L 9.910156 13.425781 C 9.714844 13.425781 9.554688 13.265625 9.554688 13.070312 C 9.554688 13 9.574219 12.933594 9.613281 12.875 L 9.648438 12.824219 L 9.585938 12.820312 C 9.089844 12.796875 8.699219 12.390625 8.699219 11.894531 C 8.699219 11.542969 8.894531 11.222656 9.210938 11.066406 L 9.261719 11.039062 L 9.21875 11.003906 C 9.019531 10.847656 8.90625 10.617188 8.90625 10.367188 C 8.90625 10.214844 8.949219 10.066406 9.03125 9.9375 L 9.054688 9.90625 L 9.023438 9.886719 C 8.765625 9.730469 8.613281 9.457031 8.613281 9.160156 C 8.613281 8.691406 9 8.308594 9.472656 8.308594 C 9.503906 8.308594 9.535156 8.308594 9.578125 8.3125 L 9.648438 8.324219 L 9.613281 8.261719 C 9.542969 8.132812 9.507812 7.988281 9.507812 7.84375 C 9.507812 7.359375 9.902344 6.96875 10.390625 6.96875 C 10.804688 6.96875 11.164062 7.257812 11.25 7.660156 L 11.261719 7.699219 L 11.300781 7.6875 C 11.402344 7.648438 11.507812 7.632812 11.613281 7.632812 C 12.128906 7.632812 12.546875 8.046875 12.546875 8.558594 C 12.546875 8.90625 12.355469 9.21875 12.046875 9.382812 Z M 12.046875 9.382812 " fill-opacity="1" fill-rule="nonzero"/><g clip-path="url(#0c9223db1e)"><path fill="#399557" d="M 27.246094 15.019531 C 26.957031 18.273438 25.347656 21.15625 22.949219 23.121094 C 22.296875 23.144531 21.644531 23.171875 20.992188 23.199219 C 17.851562 23.339844 14.710938 23.570312 11.5625 23.507812 C 10.371094 23.480469 9.179688 23.417969 7.992188 23.292969 C 5.390625 21.257812 3.660156 18.164062 3.453125 14.664062 C 4.203125 14.175781 6.351562 13.21875 6.988281 13.429688 C 7.832031 13.710938 10.847656 15.390625 10.972656 15.421875 C 11.097656 15.453125 14.757812 14.019531 15.007812 14.050781 C 15.257812 14.082031 18.636719 15.886719 18.949219 15.886719 C 19.261719 15.886719 23.890625 14.195312 24.578125 14.328125 C 25.136719 14.429688 26.683594 14.859375 27.246094 15.019531 Z M 27.246094 15.019531 " fill-opacity="1" fill-rule="nonzero"/></g><path fill="#f8aeac" d="M 21.304688 18.957031 L 22.054688 18.957031 L 22.054688 22.253906 L 8.242188 22.253906 L 8.242188 18.957031 L 8.992188 18.957031 L 8.992188 17.3125 L 9.582031 17.3125 L 9.582031 13.398438 L 9.542969 13.398438 C 9.378906 13.398438 9.242188 13.265625 9.242188 13.101562 C 9.242188 12.941406 9.378906 12.808594 9.542969 12.808594 L 11.535156 12.808594 C 11.699219 12.808594 11.832031 12.941406 11.832031 13.101562 C 11.832031 13.265625 11.699219 13.398438 11.535156 13.398438 L 11.492188 13.398438 L 11.492188 17.3125 L 12.097656 17.3125 L 12.097656 18.957031 L 13.695312 18.957031 L 13.695312 17.3125 L 14.292969 17.3125 L 14.292969 13.398438 L 14.25 13.398438 C 14.089844 13.398438 13.953125 13.265625 13.953125 13.101562 C 13.953125 12.941406 14.089844 12.808594 14.25 12.808594 L 16.246094 12.808594 C 16.410156 12.808594 16.542969 12.941406 16.542969 13.101562 C 16.542969 13.265625 16.410156 13.398438 16.246094 13.398438 L 16.203125 13.398438 L 16.203125 17.3125 L 16.800781 17.3125 L 16.800781 18.957031 L 18.195312 18.957031 L 18.195312 17.3125 L 18.792969 17.3125 L 18.792969 13.398438 L 18.753906 13.398438 C 18.589844 13.398438 18.457031 13.265625 18.457031 13.101562 C 18.457031 12.941406 18.589844 12.808594 18.753906 12.808594 L 20.746094 12.808594 C 20.910156 12.808594 21.042969 12.941406 21.042969 13.101562 C 21.042969 13.265625 20.910156 13.398438 20.746094 13.398438 L 20.707031 13.398438 L 20.707031 17.3125 L 21.300781 17.3125 L 21.300781 18.957031 Z M 26.007812 18.105469 L 25.351562 15.707031 L 24.695312 18.105469 L 24.039062 20.507812 L 26.667969 20.507812 Z M 5.316406 18 L 4.347656 21.546875 L 6.285156 21.546875 Z M 7.148438 19.167969 L 6.414062 21.847656 L 7.878906 21.847656 L 7.515625 20.507812 Z M 23.160156 18.820312 L 22.417969 21.546875 L 23.90625 21.546875 L 23.535156 20.183594 Z M 23.160156 18.820312 " fill-opacity="1" fill-rule="nonzero"/><path fill="#f8aeac" d="M 5.15625 21.546875 L 5.476562 21.546875 L 5.476562 22.21875 L 5.15625 22.21875 Z M 5.15625 21.546875 " fill-opacity="1" fill-rule="nonzero"/><path fill="#f8aeac" d="M 6.988281 21.808594 L 7.308594 21.808594 L 7.308594 22.21875 L 6.988281 22.21875 Z M 6.988281 21.808594 " fill-opacity="1" fill-rule="nonzero"/><path fill="#f8aeac" d="M 25.191406 20.460938 L 25.511719 20.460938 L 25.511719 22.21875 L 25.191406 22.21875 Z M 25.191406 20.460938 " fill-opacity="1" fill-rule="nonzero"/><path fill="#f8aeac" d="M 23 21.339844 L 23.324219 21.339844 L 23.324219 22.21875 L 23 22.21875 Z M 23 21.339844 " fill-opacity="1" fill-rule="nonzero"/><path fill="#969696" d="M 20.238281 21.238281 C 20.238281 21.402344 20.105469 21.539062 19.9375 21.539062 L 19.726562 21.539062 L 19.726562 22.828125 C 19.726562 22.996094 19.589844 23.132812 19.421875 23.132812 C 19.253906 23.132812 19.117188 22.996094 19.117188 22.828125 L 19.117188 21.539062 L 15.328125 21.539062 L 15.328125 22.828125 C 15.328125 22.996094 15.191406 23.132812 15.023438 23.132812 C 14.855469 23.132812 14.71875 22.996094 14.71875 22.828125 L 14.71875 21.539062 L 10.929688 21.539062 L 10.929688 22.828125 C 10.929688 22.996094 10.789062 23.132812 10.625 23.132812 C 10.457031 23.132812 10.320312 22.996094 10.320312 22.828125 L 10.320312 21.539062 L 10.109375 21.539062 C 9.941406 21.539062 9.804688 21.402344 9.804688 21.238281 C 9.804688 21.070312 9.941406 20.9375 10.109375 20.9375 L 19.9375 20.9375 C 20.105469 20.9375 20.238281 21.070312 20.238281 21.238281 Z M 19.675781 19.492188 L 18.753906 19.492188 L 18.753906 20.40625 L 19.675781 20.40625 Z M 15.039062 19.492188 L 14.117188 19.492188 L 14.117188 20.40625 L 15.039062 20.40625 Z M 16.582031 19.492188 L 15.664062 19.492188 L 15.664062 20.40625 L 16.582031 20.40625 Z M 18.128906 19.492188 L 17.207031 19.492188 L 17.207031 20.40625 L 18.128906 20.40625 Z M 13.492188 19.492188 L 12.570312 19.492188 L 12.570312 20.40625 L 13.492188 20.40625 Z M 20.300781 19.492188 L 20.300781 20.40625 L 21.21875 20.40625 L 21.21875 19.492188 Z M 10.402344 19.492188 L 9.480469 19.492188 L 9.480469 20.40625 L 10.402344 20.40625 Z M 11.945312 19.492188 L 11.027344 19.492188 L 11.027344 20.40625 L 11.945312 20.40625 Z M 11.945312 19.492188 " fill-opacity="1" fill-rule="nonzero"/><g clip-path="url(#49e4122a2b)"><path fill="#000000" d="M 20.21875 20.40625 L 21.21875 20.40625 L 21.21875 19.40625 L 20.21875 19.40625 Z M 20.300781 19.492188 L 21.136719 19.492188 L 21.136719 20.324219 L 20.300781 20.324219 Z M 17.125 20.40625 L 18.128906 20.40625 L 18.128906 19.40625 L 17.125 19.40625 Z M 17.207031 19.492188 L 18.046875 19.492188 L 18.046875 20.324219 L 17.207031 20.324219 Z M 18.671875 20.40625 L 19.675781 20.40625 L 19.675781 19.40625 L 18.671875 19.40625 Z M 18.753906 19.492188 L 19.589844 19.492188 L 19.589844 20.324219 L 18.753906 20.324219 Z M 9.398438 20.40625 L 10.402344 20.40625 L 10.402344 19.40625 L 9.398438 19.40625 Z M 9.480469 19.492188 L 10.316406 19.492188 L 10.316406 20.324219 L 9.480469 20.324219 Z M 15.578125 20.40625 L 16.582031 20.40625 L 16.582031 19.40625 L 15.578125 19.40625 Z M 15.664062 19.492188 L 16.5 19.492188 L 16.5 20.324219 L 15.664062 20.324219 Z M 10.941406 20.40625 L 11.945312 20.40625 L 11.945312 19.40625 L 10.941406 19.40625 Z M 11.027344 19.492188 L 11.863281 19.492188 L 11.863281 20.324219 L 11.027344 20.324219 Z M 12.488281 20.40625 L 13.492188 20.40625 L 13.492188 19.40625 L 12.488281 19.40625 Z M 12.570312 19.492188 L 13.410156 19.492188 L 13.410156 20.324219 L 12.570312 20.324219 Z M 14.035156 20.40625 L 15.039062 20.40625 L 15.039062 19.40625 L 14.035156 19.40625 Z M 14.117188 19.492188 L 14.953125 19.492188 L 14.953125 20.324219 L 14.117188 20.324219 Z M 5.308594 14.1875 C 4.78125 14.355469 4.277344 14.601562 3.820312 14.917969 C 3.792969 14.9375 3.765625 14.890625 3.792969 14.867188 C 3.921875 14.78125 4.054688 14.695312 4.195312 14.617188 C 4.675781 14.339844 5.203125 14.136719 5.746094 14.011719 C 5.78125 14.003906 5.792969 14.054688 5.757812 14.0625 C 5.609375 14.097656 5.457031 14.140625 5.308594 14.1875 Z M 17.324219 15.683594 C 17.625 15.777344 17.929688 15.871094 18.230469 15.964844 C 18.265625 15.976562 18.25 16.03125 18.214844 16.019531 C 17.914062 15.925781 17.609375 15.832031 17.308594 15.738281 C 17.273438 15.726562 17.289062 15.675781 17.324219 15.683594 Z M 20.929688 18.511719 C 20.929688 18.277344 20.929688 18.039062 20.929688 17.800781 C 20.929688 17.765625 20.984375 17.765625 20.984375 17.800781 C 20.984375 18.039062 20.984375 18.277344 20.984375 18.511719 C 20.984375 18.546875 20.929688 18.546875 20.929688 18.511719 Z M 20.792969 18.625 C 20.792969 18.53125 20.792969 18.433594 20.792969 18.339844 C 20.792969 18.304688 20.847656 18.304688 20.847656 18.339844 C 20.847656 18.433594 20.847656 18.53125 20.847656 18.625 C 20.847656 18.660156 20.792969 18.660156 20.792969 18.625 Z M 19.15625 14.785156 C 19.15625 14.65625 19.15625 14.527344 19.15625 14.398438 C 19.15625 14.363281 19.210938 14.363281 19.210938 14.398438 C 19.210938 14.527344 19.210938 14.65625 19.210938 14.785156 C 19.210938 14.820312 19.15625 14.820312 19.15625 14.785156 Z M 5.824219 14.269531 C 5.359375 14.367188 4.910156 14.546875 4.507812 14.796875 C 4.476562 14.816406 4.449219 14.769531 4.480469 14.75 C 4.886719 14.496094 5.339844 14.316406 5.808594 14.214844 C 5.84375 14.210938 5.859375 14.261719 5.824219 14.269531 Z M 19.019531 14.707031 C 19.019531 14.394531 19.019531 14.082031 19.019531 13.769531 C 19.019531 13.734375 19.074219 13.734375 19.074219 13.769531 C 19.074219 14.082031 19.074219 14.394531 19.074219 14.707031 C 19.074219 14.742188 19.019531 14.742188 19.019531 14.707031 Z M 15.476562 23.722656 C 15.503906 23.835938 15.523438 23.949219 15.535156 24.0625 C 15.535156 24.097656 15.480469 24.097656 15.476562 24.0625 C 15.46875 23.953125 15.449219 23.84375 15.425781 23.738281 C 15.414062 23.703125 15.46875 23.6875 15.476562 23.722656 Z M 22.007812 22.835938 C 22.042969 22.9375 22.058594 23.042969 22.0625 23.148438 C 22.066406 23.183594 22.011719 23.183594 22.007812 23.148438 C 22.003906 23.046875 21.984375 22.945312 21.953125 22.847656 C 21.945312 22.816406 21.996094 22.800781 22.007812 22.835938 Z M 22.304688 22.914062 C 22.277344 22.996094 22.246094 23.074219 22.21875 23.15625 C 22.214844 23.167969 22.199219 23.179688 22.183594 23.175781 C 22.171875 23.167969 22.160156 23.152344 22.164062 23.140625 C 22.195312 23.058594 22.222656 22.980469 22.253906 22.898438 C 22.257812 22.882812 22.269531 22.875 22.285156 22.878906 C 22.300781 22.882812 22.3125 22.898438 22.304688 22.914062 Z M 16.105469 23.75 C 16.113281 23.761719 16.109375 23.777344 16.097656 23.789062 C 16.003906 23.855469 15.917969 23.9375 15.847656 24.03125 C 15.839844 24.042969 15.824219 24.046875 15.808594 24.039062 C 15.796875 24.03125 15.789062 24.015625 15.800781 24.003906 C 15.875 23.902344 15.964844 23.8125 16.070312 23.738281 C 16.082031 23.730469 16.101562 23.738281 16.105469 23.75 Z M 22.464844 22.96875 C 22.421875 23.027344 22.375 23.085938 22.332031 23.140625 C 22.324219 23.15625 22.308594 23.160156 22.292969 23.152344 C 22.28125 23.144531 22.277344 23.125 22.285156 23.113281 C 22.328125 23.054688 22.371094 23 22.417969 22.941406 C 22.425781 22.925781 22.441406 22.921875 22.453125 22.929688 C 22.46875 22.9375 22.472656 22.957031 22.464844 22.96875 Z M 12.535156 23.085938 C 12.492188 23.144531 12.472656 23.214844 12.480469 23.289062 C 12.484375 23.304688 12.46875 23.316406 12.453125 23.316406 C 12.4375 23.316406 12.429688 23.304688 12.425781 23.289062 C 12.417969 23.207031 12.441406 23.121094 12.488281 23.058594 C 12.496094 23.046875 12.511719 23.039062 12.527344 23.046875 C 12.539062 23.054688 12.546875 23.074219 12.535156 23.085938 Z M 24.769531 22.671875 C 24.824219 22.605469 24.890625 22.550781 24.964844 22.511719 C 24.976562 22.503906 24.996094 22.507812 25.003906 22.519531 C 25.011719 22.53125 25.007812 22.550781 24.992188 22.558594 C 24.921875 22.597656 24.859375 22.648438 24.808594 22.710938 C 24.796875 22.722656 24.777344 22.71875 24.769531 22.710938 C 24.757812 22.699219 24.757812 22.683594 24.769531 22.671875 Z M 12.75 23.128906 C 12.757812 23.140625 12.757812 23.160156 12.75 23.167969 C 12.722656 23.191406 12.707031 23.214844 12.691406 23.246094 C 12.675781 23.273438 12.664062 23.300781 12.660156 23.335938 C 12.65625 23.351562 12.636719 23.359375 12.625 23.355469 C 12.609375 23.351562 12.601562 23.335938 12.605469 23.320312 C 12.621094 23.25 12.65625 23.179688 12.710938 23.128906 C 12.71875 23.121094 12.738281 23.121094 12.75 23.128906 Z M 15.761719 23.761719 C 15.71875 23.835938 15.691406 23.917969 15.683594 24 C 15.683594 24.015625 15.671875 24.027344 15.65625 24.027344 C 15.644531 24.027344 15.628906 24.015625 15.628906 24 C 15.636719 23.90625 15.664062 23.816406 15.710938 23.734375 C 15.730469 23.703125 15.777344 23.730469 15.761719 23.761719 Z M 25.214844 14.757812 C 25.78125 14.859375 26.335938 14.988281 26.886719 15.144531 C 26.921875 15.152344 26.910156 15.207031 26.875 15.199219 C 26.324219 15.042969 25.765625 14.914062 25.199219 14.8125 C 25.164062 14.804688 25.179688 14.75 25.214844 14.757812 Z M 25.898438 15.09375 C 26.269531 15.144531 26.636719 15.242188 26.984375 15.386719 C 27.015625 15.398438 27.003906 15.453125 26.96875 15.4375 C 26.621094 15.296875 26.257812 15.199219 25.882812 15.148438 C 25.847656 15.144531 25.863281 15.089844 25.898438 15.09375 Z M 12.320312 23.054688 C 12.328125 23.144531 12.335938 23.238281 12.34375 23.328125 C 12.347656 23.34375 12.332031 23.355469 12.316406 23.355469 C 12.300781 23.355469 12.292969 23.34375 12.289062 23.328125 C 12.28125 23.238281 12.273438 23.144531 12.265625 23.054688 C 12.265625 23.039062 12.28125 23.027344 12.292969 23.027344 C 12.308594 23.027344 12.320312 23.039062 12.320312 23.054688 Z M 24.613281 22.707031 C 24.625 22.632812 24.664062 22.558594 24.726562 22.503906 C 24.734375 22.496094 24.753906 22.496094 24.765625 22.503906 C 24.773438 22.515625 24.773438 22.535156 24.765625 22.542969 C 24.710938 22.589844 24.675781 22.652344 24.667969 22.722656 C 24.664062 22.738281 24.644531 22.746094 24.632812 22.742188 C 24.617188 22.738281 24.609375 22.722656 24.613281 22.707031 Z M 27.335938 13.960938 C 27.335938 10.78125 26.089844 7.789062 23.828125 5.542969 C 21.566406 3.292969 18.5625 2.054688 15.363281 2.054688 C 12.164062 2.054688 9.160156 3.292969 6.898438 5.542969 C 4.636719 7.789062 3.390625 10.78125 3.390625 13.960938 C 3.390625 14.1875 3.398438 14.414062 3.410156 14.640625 L 3.414062 14.664062 C 3.414062 14.671875 3.414062 14.679688 3.414062 14.6875 C 3.519531 16.441406 4.007812 18.121094 4.828125 19.628906 L 4.292969 21.585938 L 5.113281 21.585938 L 5.113281 22.175781 L 4.007812 22.175781 L 9.179688 25.613281 L 12.535156 25.109375 L 15.230469 26.730469 L 20.789062 24.574219 L 22.851562 25.78125 L 26.972656 22.175781 L 25.582031 22.175781 L 25.582031 20.546875 L 26.71875 20.546875 L 26.265625 18.886719 C 26.8125 17.6875 27.160156 16.398438 27.28125 15.0625 C 27.285156 15.050781 27.285156 15.035156 27.289062 15.019531 L 27.289062 14.988281 C 27.320312 14.648438 27.335938 14.304688 27.335938 13.960938 Z M 3.5 14.722656 C 3.5 14.714844 3.5 14.703125 3.496094 14.691406 C 3.496094 14.6875 3.496094 14.6875 3.496094 14.683594 C 3.902344 14.421875 4.628906 14.070312 5.277344 13.820312 C 6.101562 13.503906 6.703125 13.378906 6.976562 13.46875 C 7.445312 13.621094 8.601562 14.222656 9.539062 14.714844 L 9.539062 17.269531 L 8.949219 17.269531 L 8.949219 18.914062 L 8.199219 18.914062 L 8.199219 22.175781 L 7.351562 22.175781 L 7.351562 21.886719 L 7.933594 21.886719 L 7.148438 19.011719 L 6.402344 21.734375 C 6.359375 21.683594 6.316406 21.632812 6.273438 21.585938 L 6.339844 21.585938 L 5.316406 17.839844 L 4.859375 19.507812 C 4.078125 18.046875 3.609375 16.421875 3.5 14.722656 Z M 20.664062 13.441406 L 20.664062 17.273438 L 18.835938 17.273438 L 18.835938 13.355469 L 18.753906 13.355469 C 18.613281 13.355469 18.496094 13.242188 18.496094 13.101562 C 18.496094 12.960938 18.613281 12.847656 18.753906 12.847656 L 20.746094 12.847656 C 20.886719 12.847656 21.003906 12.960938 21.003906 13.101562 C 21.003906 13.242188 20.886719 13.355469 20.746094 13.355469 L 20.664062 13.355469 L 20.664062 13.359375 L 18.835938 13.359375 L 18.835938 13.441406 Z M 18.828125 17.351562 L 18.828125 17.355469 L 20.738281 17.355469 L 20.738281 17.351562 L 21.261719 17.351562 L 21.261719 18.917969 L 18.238281 18.917969 L 18.238281 17.351562 Z M 10.109375 21.492188 C 9.964844 21.492188 9.847656 21.378906 9.847656 21.234375 C 9.847656 21.09375 9.964844 20.976562 10.109375 20.976562 L 19.9375 20.976562 C 20.082031 20.976562 20.199219 21.09375 20.199219 21.234375 C 20.199219 21.378906 20.082031 21.492188 19.9375 21.492188 Z M 19.6875 21.578125 L 19.6875 22.828125 C 19.6875 22.972656 19.566406 23.089844 19.421875 23.089844 C 19.277344 23.089844 19.160156 22.972656 19.160156 22.828125 L 19.160156 21.578125 Z M 19.078125 21.578125 L 19.078125 22.175781 L 15.371094 22.175781 L 15.371094 21.578125 Z M 15.285156 21.578125 L 15.285156 22.828125 C 15.285156 22.972656 15.167969 23.089844 15.023438 23.089844 C 14.878906 23.089844 14.761719 22.972656 14.761719 22.828125 L 14.761719 21.578125 Z M 14.675781 21.578125 L 14.675781 22.175781 L 10.96875 22.175781 L 10.96875 21.578125 Z M 10.886719 21.578125 L 10.886719 22.828125 C 10.886719 22.972656 10.769531 23.089844 10.625 23.089844 C 10.476562 23.089844 10.359375 22.972656 10.359375 22.828125 L 10.359375 21.578125 Z M 19.769531 21.578125 L 19.9375 21.578125 C 20.128906 21.578125 20.28125 21.421875 20.28125 21.234375 C 20.28125 21.046875 20.125 20.894531 19.9375 20.894531 L 10.109375 20.894531 C 9.917969 20.894531 9.765625 21.046875 9.765625 21.234375 C 9.765625 21.421875 9.917969 21.578125 10.109375 21.578125 L 10.277344 21.578125 L 10.277344 22.175781 L 8.285156 22.175781 L 8.285156 18.996094 L 8.992188 18.996094 L 8.992188 19 L 12.058594 19 L 12.058594 18.996094 L 13.730469 18.996094 L 13.730469 19 L 16.796875 19 L 16.796875 18.996094 L 18.226562 18.996094 L 18.226562 19 L 21.289062 19 L 21.289062 18.996094 L 22.011719 18.996094 L 22.011719 22.175781 L 19.769531 22.175781 Z M 18.753906 17.269531 L 18.15625 17.269531 L 18.15625 18.914062 L 16.84375 18.914062 L 16.84375 17.269531 L 16.246094 17.269531 L 16.246094 14.671875 C 16.359375 14.730469 16.476562 14.785156 16.589844 14.84375 C 17.605469 15.347656 18.386719 15.734375 18.753906 15.871094 Z M 16.246094 13.355469 L 16.164062 13.355469 L 16.164062 13.359375 L 14.335938 13.359375 L 14.335938 13.355469 L 14.25 13.355469 C 14.109375 13.355469 13.996094 13.242188 13.996094 13.101562 C 13.996094 12.960938 14.109375 12.847656 14.25 12.847656 L 16.246094 12.847656 C 16.386719 12.847656 16.5 12.960938 16.5 13.101562 C 16.5 13.242188 16.386719 13.355469 16.246094 13.355469 Z M 16.164062 13.441406 L 16.164062 17.273438 L 14.335938 17.273438 L 14.335938 13.441406 Z M 14.332031 17.351562 L 14.332031 17.355469 L 16.242188 17.355469 L 16.242188 17.351562 L 16.761719 17.351562 L 16.761719 18.917969 L 13.738281 18.917969 L 13.738281 17.351562 Z M 14.25 17.269531 L 13.65625 17.269531 L 13.65625 18.914062 L 12.140625 18.914062 L 12.140625 17.269531 L 11.535156 17.269531 L 11.535156 15.289062 C 11.789062 15.199219 12.140625 15.070312 12.625 14.894531 C 13.148438 14.703125 13.773438 14.476562 14.25 14.3125 Z M 11.535156 13.355469 L 11.453125 13.355469 L 11.453125 13.359375 L 9.621094 13.359375 L 9.621094 13.441406 L 11.453125 13.441406 L 11.453125 17.273438 L 9.621094 17.273438 L 9.621094 13.355469 L 9.539062 13.355469 C 9.398438 13.355469 9.285156 13.242188 9.285156 13.101562 C 9.285156 12.960938 9.398438 12.847656 9.539062 12.847656 L 11.535156 12.847656 C 11.675781 12.847656 11.789062 12.960938 11.789062 13.101562 C 11.789062 13.242188 11.675781 13.355469 11.535156 13.355469 Z M 9.582031 17.351562 L 9.582031 17.355469 L 11.492188 17.355469 L 11.492188 17.351562 L 12.054688 17.351562 L 12.054688 18.917969 L 9.03125 18.917969 L 9.03125 17.351562 Z M 6.46875 21.800781 L 7.148438 19.324219 L 7.824219 21.800781 Z M 7.265625 21.882812 L 7.265625 22.175781 L 7.027344 22.175781 L 7.027344 21.882812 Z M 6.535156 21.882812 L 6.945312 21.882812 L 6.945312 22.175781 L 6.808594 22.175781 C 6.71875 22.078125 6.625 21.980469 6.535156 21.882812 Z M 6.695312 22.175781 L 5.519531 22.175781 L 5.519531 21.585938 L 6.164062 21.585938 C 6.332031 21.785156 6.511719 21.980469 6.695312 22.175781 Z M 4.402344 21.5 L 5.316406 18.15625 L 6.230469 21.5 Z M 5.4375 21.585938 L 5.4375 22.175781 L 5.199219 22.175781 L 5.199219 21.585938 Z M 4.285156 22.257812 Z M 24.132812 24.550781 L 24.132812 24.113281 L 24.050781 24.113281 L 24.050781 24.621094 L 23.894531 24.757812 L 23.894531 23.753906 L 23.8125 23.753906 L 23.8125 24.832031 L 22.839844 25.679688 L 20.8125 24.492188 L 20.792969 24.480469 L 16.164062 26.28125 L 16.164062 25.636719 L 16.082031 25.636719 L 16.082031 26.3125 L 15.824219 26.414062 L 15.824219 25.21875 L 15.738281 25.21875 L 15.738281 26.445312 L 15.238281 26.640625 L 12.566406 25.03125 L 12.554688 25.023438 L 9.804688 25.433594 L 9.804688 25.027344 L 9.71875 25.027344 L 9.71875 25.445312 L 9.523438 25.476562 L 9.523438 24.640625 L 9.4375 24.640625 L 9.4375 25.488281 L 9.199219 25.523438 L 4.375 22.316406 C 4.902344 22.472656 7.574219 23.519531 9.382812 24.242188 L 9.394531 24.246094 L 11.859375 23.78125 L 14.664062 24.761719 L 14.671875 24.765625 L 20.71875 23.558594 L 22.417969 23.984375 L 26.652344 22.34375 Z M 26.648438 22.257812 L 22.414062 23.898438 L 20.71875 23.476562 L 14.679688 24.679688 L 11.875 23.699219 L 11.867188 23.695312 L 9.402344 24.160156 C 8.351562 23.738281 5.222656 22.496094 4.445312 22.253906 L 6.773438 22.253906 C 6.773438 22.257812 6.777344 22.257812 6.777344 22.261719 C 6.78125 22.257812 6.785156 22.257812 6.789062 22.253906 L 10.277344 22.253906 L 10.277344 22.824219 C 10.277344 23.015625 10.433594 23.171875 10.625 23.171875 C 10.8125 23.171875 10.96875 23.015625 10.96875 22.824219 L 10.96875 22.253906 L 14.675781 22.253906 L 14.675781 22.824219 C 14.675781 23.015625 14.832031 23.171875 15.023438 23.171875 C 15.214844 23.171875 15.371094 23.015625 15.371094 22.824219 L 15.371094 22.253906 L 19.078125 22.253906 L 19.078125 22.824219 C 19.078125 23.015625 19.230469 23.171875 19.421875 23.171875 C 19.613281 23.171875 19.769531 23.015625 19.769531 22.824219 L 19.769531 22.253906 L 22.011719 22.253906 L 22.011719 22.265625 C 22.039062 22.261719 22.066406 22.261719 22.097656 22.265625 L 22.097656 22.253906 L 26.648438 22.253906 Z M 23.042969 21.585938 L 23.28125 21.585938 L 23.28125 22.175781 L 23.042969 22.175781 Z M 22.472656 21.5 L 23.160156 18.976562 L 23.851562 21.5 Z M 24.03125 22.175781 C 24.449219 21.742188 24.828125 21.277344 25.167969 20.792969 L 25.167969 22.175781 Z M 25.238281 22.175781 L 25.238281 20.546875 L 25.511719 20.546875 L 25.511719 22.175781 Z M 26.609375 20.464844 L 24.089844 20.464844 L 25.351562 15.863281 Z M 26.230469 18.757812 L 25.351562 15.546875 L 23.980469 20.546875 L 25.167969 20.546875 L 25.167969 20.648438 C 24.796875 21.1875 24.378906 21.699219 23.914062 22.175781 L 23.363281 22.175781 L 23.363281 21.585938 L 23.960938 21.585938 L 23.160156 18.660156 L 22.363281 21.585938 L 22.957031 21.585938 L 22.957031 22.175781 L 22.09375 22.175781 L 22.09375 18.914062 L 21.34375 18.914062 L 21.34375 17.269531 L 20.75 17.269531 L 20.75 15.378906 C 22.179688 14.917969 24.15625 14.285156 24.570312 14.363281 C 25.109375 14.464844 26.5625 14.867188 27.199219 15.046875 C 27.082031 16.339844 26.75 17.59375 26.230469 18.757812 Z M 27.207031 14.964844 C 26.5625 14.78125 25.125 14.386719 24.585938 14.285156 C 24.152344 14.203125 22.253906 14.804688 20.75 15.292969 L 20.75 13.4375 C 20.9375 13.4375 21.085938 13.285156 21.085938 13.101562 C 21.085938 12.914062 20.933594 12.761719 20.746094 12.761719 L 18.753906 12.761719 C 18.566406 12.761719 18.414062 12.914062 18.414062 13.101562 C 18.414062 13.285156 18.566406 13.4375 18.753906 13.4375 L 18.753906 15.785156 C 18.339844 15.621094 17.40625 15.15625 16.628906 14.769531 C 16.492188 14.703125 16.367188 14.640625 16.246094 14.578125 L 16.246094 13.4375 C 16.433594 13.4375 16.585938 13.285156 16.585938 13.101562 C 16.585938 12.914062 16.433594 12.761719 16.246094 12.761719 L 14.25 12.761719 C 14.066406 12.761719 13.914062 12.914062 13.914062 13.101562 C 13.914062 13.285156 14.0625 13.4375 14.25 13.4375 L 14.25 14.222656 C 13.828125 14.367188 13.261719 14.574219 12.597656 14.816406 C 12.21875 14.953125 11.835938 15.09375 11.535156 15.199219 L 11.535156 13.4375 C 11.722656 13.4375 11.871094 13.285156 11.871094 13.101562 C 11.871094 12.914062 11.71875 12.761719 11.535156 12.761719 L 9.539062 12.761719 C 9.351562 12.761719 9.199219 12.914062 9.199219 13.101562 C 9.199219 13.285156 9.351562 13.4375 9.539062 13.4375 L 9.539062 14.621094 C 8.605469 14.128906 7.46875 13.542969 7 13.386719 C 6.628906 13.265625 5.84375 13.511719 5.246094 13.742188 C 4.613281 13.988281 3.90625 14.328125 3.492188 14.585938 C 3.480469 14.378906 3.472656 14.171875 3.472656 13.960938 C 3.472656 10.804688 4.710938 7.832031 6.957031 5.601562 C 9.203125 3.367188 12.1875 2.136719 15.363281 2.136719 C 21.917969 2.136719 27.25 7.441406 27.25 13.960938 C 27.25 14.296875 27.238281 14.632812 27.207031 14.964844 Z M 24.476562 22.574219 C 24.46875 22.5625 24.472656 22.546875 24.484375 22.539062 C 24.496094 22.53125 24.515625 22.535156 24.523438 22.546875 C 24.546875 22.597656 24.566406 22.648438 24.582031 22.699219 C 24.585938 22.714844 24.574219 22.730469 24.5625 22.734375 C 24.546875 22.738281 24.53125 22.726562 24.527344 22.714844 C 24.519531 22.691406 24.511719 22.664062 24.503906 22.640625 C 24.5 22.636719 24.5 22.628906 24.496094 22.625 C 24.496094 22.621094 24.496094 22.617188 24.492188 22.617188 C 24.492188 22.613281 24.492188 22.613281 24.492188 22.613281 C 24.492188 22.613281 24.492188 22.613281 24.492188 22.609375 C 24.484375 22.597656 24.480469 22.585938 24.476562 22.574219 Z M 22.019531 15.164062 C 21.6875 15.28125 21.359375 15.417969 21.039062 15.5625 C 21.007812 15.578125 20.976562 15.527344 21.011719 15.515625 C 21.335938 15.367188 21.667969 15.230469 22.003906 15.109375 C 22.039062 15.097656 22.050781 15.148438 22.019531 15.164062 Z M 22.480469 15.214844 C 22.144531 15.292969 21.8125 15.402344 21.492188 15.535156 C 21.457031 15.550781 21.441406 15.496094 21.476562 15.480469 C 21.796875 15.347656 22.128906 15.242188 22.46875 15.164062 C 22.5 15.15625 22.515625 15.207031 22.480469 15.214844 Z M 14.527344 14.769531 C 14.527344 14.445312 14.527344 14.125 14.527344 13.800781 C 14.527344 13.765625 14.585938 13.765625 14.585938 13.800781 C 14.585938 14.125 14.585938 14.445312 14.585938 14.769531 C 14.585938 14.804688 14.527344 14.804688 14.527344 14.769531 Z M 11.675781 15.457031 C 12.09375 15.257812 12.515625 15.078125 12.941406 14.910156 C 12.976562 14.894531 12.992188 14.949219 12.957031 14.960938 C 12.535156 15.128906 12.117188 15.308594 11.707031 15.503906 C 11.671875 15.519531 11.644531 15.472656 11.675781 15.457031 Z M 16.378906 18.605469 C 16.378906 18.488281 16.378906 18.367188 16.378906 18.25 C 16.378906 18.214844 16.433594 18.214844 16.433594 18.25 C 16.433594 18.367188 16.433594 18.488281 16.433594 18.605469 C 16.433594 18.640625 16.378906 18.640625 16.378906 18.605469 Z M 12.117188 15.476562 C 12.511719 15.261719 12.941406 15.109375 13.382812 15.023438 C 13.417969 15.015625 13.433594 15.070312 13.398438 15.078125 C 12.960938 15.160156 12.539062 15.3125 12.144531 15.523438 C 12.113281 15.542969 12.085938 15.492188 12.117188 15.476562 Z M 9.894531 14.648438 C 9.894531 14.515625 9.894531 14.382812 9.894531 14.25 C 9.894531 14.214844 9.949219 14.214844 9.949219 14.25 C 9.949219 14.382812 9.949219 14.515625 9.949219 14.648438 C 9.949219 14.683594 9.894531 14.683594 9.894531 14.648438 Z M 8.179688 22.667969 C 8.148438 22.742188 8.136719 22.816406 8.136719 22.894531 C 8.140625 22.929688 8.082031 22.929688 8.082031 22.894531 C 8.082031 22.8125 8.09375 22.730469 8.125 22.652344 C 8.128906 22.640625 8.140625 22.628906 8.15625 22.632812 C 8.171875 22.636719 8.183594 22.652344 8.179688 22.667969 Z M 14.667969 14.90625 C 14.667969 14.78125 14.667969 14.660156 14.667969 14.539062 C 14.667969 14.503906 14.722656 14.503906 14.722656 14.539062 C 14.722656 14.660156 14.722656 14.78125 14.722656 14.90625 C 14.722656 14.941406 14.667969 14.941406 14.667969 14.90625 Z M 9.769531 14.59375 C 9.769531 14.28125 9.769531 13.972656 9.769531 13.660156 C 9.769531 13.625 9.824219 13.625 9.824219 13.660156 C 9.824219 13.972656 9.824219 14.28125 9.824219 14.59375 C 9.824219 14.628906 9.769531 14.628906 9.769531 14.59375 Z M 16.582031 18.417969 C 16.582031 18.144531 16.582031 17.867188 16.582031 17.589844 C 16.582031 17.554688 16.636719 17.554688 16.636719 17.589844 C 16.636719 17.867188 16.636719 18.144531 16.636719 18.417969 C 16.636719 18.457031 16.582031 18.457031 16.582031 18.417969 Z M 16.777344 15.25 C 17.230469 15.421875 17.683594 15.589844 18.136719 15.761719 C 18.171875 15.773438 18.15625 15.828125 18.121094 15.816406 C 17.667969 15.644531 17.214844 15.472656 16.761719 15.304688 C 16.730469 15.292969 16.746094 15.238281 16.777344 15.25 Z M 11.707031 18.496094 C 11.707031 18.230469 11.707031 17.964844 11.707031 17.699219 C 11.707031 17.664062 11.761719 17.664062 11.761719 17.699219 C 11.761719 17.964844 11.761719 18.230469 11.761719 18.496094 C 11.761719 18.53125 11.707031 18.53125 11.707031 18.496094 Z M 7.980469 22.640625 C 7.988281 22.707031 7.980469 22.777344 7.960938 22.84375 C 7.953125 22.859375 7.941406 22.867188 7.925781 22.863281 C 7.910156 22.859375 7.902344 22.84375 7.90625 22.828125 C 7.925781 22.769531 7.929688 22.703125 7.925781 22.640625 C 7.925781 22.625 7.941406 22.613281 7.953125 22.613281 C 7.96875 22.613281 7.980469 22.625 7.980469 22.640625 Z M 7.230469 22.660156 C 7.242188 22.671875 7.238281 22.6875 7.230469 22.699219 C 7.179688 22.757812 7.140625 22.832031 7.117188 22.910156 C 7.109375 22.945312 7.054688 22.929688 7.066406 22.894531 C 7.089844 22.808594 7.132812 22.726562 7.191406 22.65625 C 7.199219 22.648438 7.21875 22.648438 7.230469 22.660156 Z M 7.820312 22.648438 C 7.855469 22.726562 7.875 22.808594 7.882812 22.894531 C 7.886719 22.910156 7.871094 22.921875 7.855469 22.921875 C 7.839844 22.921875 7.832031 22.910156 7.828125 22.894531 C 7.820312 22.820312 7.800781 22.742188 7.769531 22.675781 C 7.765625 22.660156 7.765625 22.644531 7.78125 22.636719 C 7.792969 22.628906 7.8125 22.632812 7.820312 22.648438 Z M 11.550781 18.589844 C 11.550781 18.464844 11.550781 18.34375 11.550781 18.21875 C 11.550781 18.183594 11.605469 18.183594 11.605469 18.21875 C 11.605469 18.34375 11.605469 18.464844 11.605469 18.589844 C 11.605469 18.625 11.550781 18.625 11.550781 18.589844 Z M 7.046875 22.625 C 7.019531 22.683594 7.007812 22.75 7.015625 22.816406 C 7.015625 22.832031 7 22.84375 6.988281 22.84375 C 6.972656 22.84375 6.960938 22.832031 6.960938 22.816406 C 6.953125 22.742188 6.964844 22.664062 6.996094 22.597656 C 7.003906 22.582031 7.023438 22.578125 7.035156 22.585938 C 7.050781 22.59375 7.050781 22.609375 7.046875 22.625 Z M 6.863281 22.808594 C 6.867188 22.820312 6.859375 22.835938 6.84375 22.839844 C 6.832031 22.84375 6.816406 22.835938 6.8125 22.820312 C 6.792969 22.757812 6.773438 22.695312 6.757812 22.632812 C 6.75 22.621094 6.761719 22.605469 6.773438 22.601562 C 6.789062 22.597656 6.804688 22.605469 6.808594 22.621094 C 6.828125 22.683594 6.847656 22.746094 6.863281 22.808594 Z M 6.863281 22.808594 " fill-opacity="1" fill-rule="nonzero"/></g><path fill="#969696" d="M 10.121094 18.324219 C 10.125 18.308594 10.265625 17.929688 10.265625 17.929688 L 10.40625 17.949219 L 10.53125 17.902344 L 10.601562 18.035156 L 10.675781 17.957031 L 10.894531 18.167969 L 10.808594 18.273438 L 10.691406 18.394531 L 10.449219 18.328125 L 10.214844 18.460938 Z M 10.121094 18.324219 " fill-opacity="1" fill-rule="nonzero"/><path fill="#000000" d="M 10.488281 17.671875 C 10.191406 17.671875 9.949219 17.910156 9.949219 18.207031 C 9.949219 18.503906 10.191406 18.746094 10.488281 18.746094 C 10.789062 18.746094 11.03125 18.503906 11.03125 18.207031 C 11.03125 17.910156 10.789062 17.671875 10.488281 17.671875 Z M 10.488281 18.691406 C 10.222656 18.691406 10.003906 18.472656 10.003906 18.207031 C 10.003906 17.941406 10.222656 17.722656 10.488281 17.722656 C 10.757812 17.722656 10.976562 17.941406 10.976562 18.207031 C 10.976562 18.472656 10.757812 18.691406 10.488281 18.691406 Z M 10.679688 17.921875 L 10.601562 17.976562 L 10.535156 17.890625 L 10.535156 17.878906 L 10.234375 17.917969 L 10.238281 17.9375 C 10.210938 18.007812 10.097656 18.316406 10.097656 18.316406 L 10.09375 18.328125 L 10.207031 18.496094 L 10.453125 18.355469 L 10.6875 18.417969 L 10.933594 18.167969 Z M 10.859375 18.167969 L 10.683594 18.347656 L 10.453125 18.144531 L 10.671875 17.992188 Z M 10.40625 17.949219 L 10.257812 18.035156 C 10.265625 18.007812 10.277344 17.980469 10.285156 17.964844 Z M 10.226562 18.117188 L 10.511719 17.945312 L 10.558594 18.007812 L 10.171875 18.273438 C 10.1875 18.230469 10.207031 18.171875 10.226562 18.117188 Z M 10.445312 18.296875 L 10.222656 18.425781 L 10.164062 18.339844 L 10.40625 18.171875 L 10.59375 18.339844 Z M 10.445312 18.296875 " fill-opacity="1" fill-rule="nonzero"/><path fill="#969696" d="M 14.882812 18.285156 C 14.886719 18.269531 15.027344 17.890625 15.027344 17.890625 L 15.164062 17.910156 L 15.289062 17.867188 L 15.359375 17.996094 L 15.433594 17.921875 L 15.65625 18.128906 L 15.566406 18.234375 L 15.449219 18.355469 L 15.207031 18.289062 L 14.976562 18.425781 Z M 14.882812 18.285156 " fill-opacity="1" fill-rule="nonzero"/><path fill="#000000" d="M 15.25 17.632812 C 14.953125 17.632812 14.710938 17.875 14.710938 18.167969 C 14.710938 18.464844 14.953125 18.707031 15.25 18.707031 C 15.546875 18.707031 15.789062 18.464844 15.789062 18.167969 C 15.789062 17.875 15.546875 17.632812 15.25 17.632812 Z M 15.25 18.652344 C 14.980469 18.652344 14.761719 18.4375 14.761719 18.167969 C 14.761719 17.902344 14.980469 17.6875 15.25 17.6875 C 15.519531 17.6875 15.734375 17.902344 15.734375 18.167969 C 15.734375 18.4375 15.519531 18.652344 15.25 18.652344 Z M 15.4375 17.886719 L 15.359375 17.9375 L 15.292969 17.851562 L 15.292969 17.839844 L 14.992188 17.878906 L 14.996094 17.898438 C 14.96875 17.96875 14.855469 18.277344 14.855469 18.277344 L 14.851562 18.289062 L 14.96875 18.460938 L 15.210938 18.316406 L 15.449219 18.382812 L 15.695312 18.128906 Z M 15.617188 18.128906 L 15.441406 18.308594 L 15.210938 18.105469 L 15.433594 17.953125 Z M 15.164062 17.910156 L 15.015625 18 C 15.027344 17.96875 15.035156 17.945312 15.042969 17.925781 Z M 14.988281 18.078125 L 15.269531 17.90625 L 15.316406 17.96875 L 14.929688 18.234375 C 14.945312 18.191406 14.964844 18.132812 14.988281 18.078125 Z M 15.203125 18.261719 L 14.984375 18.390625 L 14.925781 18.300781 L 15.164062 18.136719 L 15.351562 18.300781 Z M 15.203125 18.261719 " fill-opacity="1" fill-rule="nonzero"/><path fill="#969696" d="M 19.382812 18.222656 C 19.386719 18.210938 19.527344 17.832031 19.527344 17.832031 L 19.664062 17.847656 L 19.792969 17.804688 L 19.859375 17.9375 L 19.9375 17.859375 L 20.15625 18.070312 L 20.070312 18.175781 L 19.953125 18.292969 L 19.710938 18.226562 L 19.476562 18.363281 Z M 19.382812 18.222656 " fill-opacity="1" fill-rule="nonzero"/><path fill="#000000" d="M 19.75 17.570312 C 19.453125 17.570312 19.210938 17.8125 19.210938 18.109375 C 19.210938 18.40625 19.453125 18.644531 19.75 18.644531 C 20.046875 18.644531 20.289062 18.40625 20.289062 18.109375 C 20.289062 17.8125 20.046875 17.570312 19.75 17.570312 Z M 19.75 18.59375 C 19.480469 18.59375 19.265625 18.375 19.265625 18.109375 C 19.265625 17.839844 19.480469 17.625 19.75 17.625 C 20.019531 17.625 20.238281 17.839844 20.238281 18.109375 C 20.238281 18.375 20.019531 18.59375 19.75 18.59375 Z M 19.9375 17.824219 L 19.863281 17.875 L 19.796875 17.792969 L 19.792969 17.777344 L 19.496094 17.820312 L 19.5 17.835938 C 19.472656 17.910156 19.359375 18.214844 19.359375 18.214844 L 19.355469 18.230469 L 19.46875 18.398438 L 19.714844 18.257812 L 19.949219 18.320312 L 20.195312 18.066406 Z M 20.121094 18.070312 L 19.945312 18.25 L 19.710938 18.042969 L 19.933594 17.890625 Z M 19.664062 17.847656 L 19.515625 17.9375 C 19.527344 17.910156 19.539062 17.882812 19.542969 17.867188 Z M 19.488281 18.015625 L 19.773438 17.847656 L 19.820312 17.90625 L 19.429688 18.171875 C 19.445312 18.128906 19.46875 18.074219 19.488281 18.015625 Z M 19.707031 18.199219 L 19.484375 18.328125 L 19.425781 18.242188 L 19.667969 18.074219 L 19.855469 18.242188 Z M 19.707031 18.199219 " fill-opacity="1" fill-rule="nonzero"/></svg>