<svg xmlns="http://www.w3.org/2000/svg" xmlns:xlink="http://www.w3.org/1999/xlink" width="40" zoomAndPan="magnify" viewBox="0 0 30 30.000001" height="40" preserveAspectRatio="xMidYMid meet" version="1.0"><defs><clipPath id="000f0ae6f3"><path d="M 2.078125 3 L 26.753906 3 L 26.753906 27.570312 L 2.078125 27.570312 Z M 2.078125 3 " clip-rule="nonzero"/></clipPath><clipPath id="ad8df3d2b8"><path d="M 2.078125 14 L 26.753906 14 L 26.753906 27.570312 L 2.078125 27.570312 Z M 2.078125 14 " clip-rule="nonzero"/></clipPath><clipPath id="63ca1d274a"><path d="M 3 1.441406 L 22 1.441406 L 22 13 L 3 13 Z M 3 1.441406 " clip-rule="nonzero"/></clipPath><clipPath id="c465fd9a07"><path d="M 2.078125 1.441406 L 26.753906 1.441406 L 26.753906 27.570312 L 2.078125 27.570312 Z M 2.078125 1.441406 " clip-rule="nonzero"/></clipPath></defs><g clip-path="url(#000f0ae6f3)"><path fill="#91c5eb" d="M 26.699219 15.324219 C 26.699219 22.0625 21.199219 27.527344 14.414062 27.527344 C 7.628906 27.527344 2.128906 22.0625 2.128906 15.324219 C 2.128906 8.585938 7.628906 3.125 14.414062 3.125 C 21.199219 3.125 26.699219 8.585938 26.699219 15.324219 Z M 26.699219 15.324219 " fill-opacity="1" fill-rule="nonzero"/></g><g clip-path="url(#ad8df3d2b8)"><path fill="#3e9556" d="M 14.414062 27.527344 C 7.804688 27.527344 2.417969 22.34375 2.140625 15.847656 C 2.132812 15.535156 2.132812 15.285156 2.132812 15.171875 C 2.132812 15.148438 2.132812 15.125 2.132812 15.101562 L 3.054688 15.101562 L 4.261719 15.847656 L 7.886719 15.847656 L 9.484375 15.324219 C 9.484375 15.324219 13.34375 15.296875 13.964844 15.324219 C 14.589844 15.355469 16.617188 14.136719 16.617188 14.136719 C 16.617188 14.136719 20.511719 15.683594 21.410156 15.847656 C 22.304688 16.007812 26.625 14.144531 26.640625 14.136719 C 26.679688 14.527344 26.699219 14.925781 26.699219 15.324219 C 26.699219 22.0625 21.199219 27.527344 14.414062 27.527344 Z M 14.414062 27.527344 " fill-opacity="1" fill-rule="nonzero"/></g><path fill="#969696" d="M 13.953125 15.917969 L 14.898438 16.105469 L 17.050781 15.847656 L 17.820312 16.054688 L 17.820312 18.300781 L 19.292969 18.578125 L 19.199219 19.816406 L 17.910156 20.066406 L 15.976562 20.066406 L 14.621094 19.992188 L 14.191406 19.410156 C 14.191406 19.410156 13.871094 16.878906 13.886719 16.839844 C 13.902344 16.796875 13.953125 15.917969 13.953125 15.917969 Z M 13.953125 15.917969 " fill-opacity="1" fill-rule="nonzero"/><path fill="#f9bdbd" d="M 20.457031 10.84375 C 20.457031 10.941406 20.382812 11.019531 20.289062 11.027344 L 20.289062 20.832031 L 19.199219 20.832031 L 19.199219 11.027344 C 19.105469 11.019531 19.03125 10.941406 19.03125 10.84375 C 19.03125 10.742188 19.113281 10.660156 19.214844 10.660156 L 20.269531 10.660156 C 20.375 10.660156 20.457031 10.742188 20.457031 10.84375 Z M 22.222656 16.714844 L 20.625 16.714844 C 20.523438 16.714844 20.4375 16.796875 20.4375 16.898438 C 20.4375 17 20.519531 17.082031 20.621094 17.082031 L 20.621094 19.363281 L 22.226562 19.363281 L 22.226562 17.082031 C 22.328125 17.082031 22.410156 17 22.410156 16.898438 C 22.410156 16.796875 22.328125 16.714844 22.222656 16.714844 Z M 15.070312 19.96875 C 14.710938 18.542969 14.359375 17.109375 14.09375 15.660156 C 13.949219 14.871094 13.855469 14.070312 13.8125 13.265625 C 13.804688 13.128906 13.777344 12.035156 13.785156 11.382812 C 13.789062 11.117188 13.589844 10.902344 13.34375 10.902344 C 13.34375 10.902344 13.339844 10.902344 13.339844 10.902344 C 12.824219 10.902344 12.3125 10.902344 11.796875 10.902344 C 11.765625 10.902344 11.730469 10.902344 11.695312 10.902344 C 11.183594 10.902344 10.667969 10.902344 10.152344 10.902344 C 10.152344 10.902344 10.148438 10.902344 10.148438 10.902344 C 9.902344 10.902344 9.703125 11.117188 9.707031 11.382812 C 9.71875 12.035156 9.691406 13.128906 9.683594 13.265625 C 9.636719 14.070312 9.542969 14.871094 9.398438 15.660156 C 9.203125 16.734375 8.960938 17.804688 8.699219 18.863281 C 8.449219 17.871094 8.207031 16.871094 8.023438 15.863281 C 7.917969 15.28125 7.847656 14.695312 7.816406 14.101562 C 7.808594 14 7.789062 13.195312 7.796875 12.714844 C 7.800781 12.519531 7.652344 12.363281 7.472656 12.363281 C 7.472656 12.363281 7.46875 12.363281 7.46875 12.363281 C 7.089844 12.363281 6.710938 12.363281 6.332031 12.363281 C 6.308594 12.363281 6.285156 12.363281 6.257812 12.363281 C 5.882812 12.363281 5.503906 12.363281 5.125 12.363281 C 5.125 12.363281 5.121094 12.363281 5.121094 12.363281 C 4.9375 12.363281 4.792969 12.519531 4.796875 12.714844 C 4.804688 13.195312 4.785156 14 4.777344 14.101562 C 4.746094 14.695312 4.675781 15.28125 4.570312 15.863281 C 4.375 16.929688 4.117188 17.988281 3.851562 19.035156 C 3.777344 19.320312 3.703125 19.609375 3.625 19.898438 C 3.617188 19.917969 3.609375 19.9375 3.609375 19.957031 C 3.609375 20.253906 4.789062 20.496094 6.257812 20.503906 C 6.273438 20.503906 6.285156 20.503906 6.296875 20.503906 C 6.308594 20.503906 6.320312 20.503906 6.332031 20.503906 C 7.136719 20.496094 7.851562 20.421875 8.335938 20.308594 C 8.265625 20.585938 8.191406 20.863281 8.117188 21.140625 C 8.105469 21.167969 8.097656 21.195312 8.097656 21.21875 C 8.097656 21.625 9.699219 21.953125 11.695312 21.964844 C 11.710938 21.964844 11.730469 21.964844 11.746094 21.964844 C 11.761719 21.964844 11.78125 21.964844 11.796875 21.964844 C 13.792969 21.953125 15.394531 21.625 15.394531 21.21875 C 15.394531 21.195312 15.386719 21.167969 15.375 21.140625 C 15.269531 20.75 15.167969 20.359375 15.070312 19.96875 Z M 23.902344 17.492188 L 22.574219 17.492188 C 22.472656 17.492188 22.386719 17.574219 22.386719 17.675781 C 22.386719 17.769531 22.453125 17.84375 22.542969 17.859375 L 22.542969 20.414062 L 23.933594 20.414062 L 23.933594 17.859375 C 24.023438 17.84375 24.089844 17.769531 24.089844 17.675781 C 24.089844 17.574219 24.003906 17.492188 23.902344 17.492188 Z M 15.921875 16.671875 L 15.921875 17.832031 C 15.921875 17.832031 17.582031 17.613281 17.625 17.574219 C 17.667969 17.535156 17.625 16.335938 17.625 16.335938 Z M 15.921875 16.671875 " fill-opacity="1" fill-rule="nonzero"/><path fill="#969696" d="M 21.484375 18.34375 C 20.425781 18.34375 19.488281 18.835938 18.882812 19.601562 C 18.277344 19.164062 17.527344 18.902344 16.71875 18.902344 C 14.683594 18.902344 13.035156 20.542969 13.035156 22.5625 C 13.035156 22.917969 14.683594 23.207031 16.71875 23.207031 C 18.753906 23.207031 20.402344 22.917969 20.402344 22.5625 C 20.402344 22.425781 20.394531 22.296875 20.378906 22.164062 C 20.726562 22.1875 21.097656 22.199219 21.484375 22.199219 C 23.304688 22.199219 24.78125 21.941406 24.78125 21.621094 C 24.78125 19.8125 23.304688 18.34375 21.484375 18.34375 Z M 21.484375 18.34375 " fill-opacity="1" fill-rule="nonzero"/><g clip-path="url(#63ca1d274a)"><path fill="#969696" d="M 21.527344 5.460938 C 21.617188 5.703125 21.589844 5.972656 21.492188 6.210938 C 21.394531 6.4375 21.230469 6.664062 21.007812 6.785156 C 20.796875 6.898438 20.5 6.890625 20.347656 6.683594 C 20.320312 6.644531 20.257812 6.667969 20.269531 6.71875 C 20.375 7.160156 20.183594 7.664062 19.792969 7.914062 C 19.386719 8.171875 18.824219 8.128906 18.460938 7.820312 C 18.433594 7.800781 18.398438 7.808594 18.386719 7.839844 C 18.292969 8.136719 18.15625 8.441406 17.90625 8.644531 C 17.671875 8.832031 17.320312 8.902344 17.050781 8.742188 C 17.023438 8.726562 16.984375 8.746094 16.984375 8.777344 C 16.996094 9.167969 16.777344 9.550781 16.429688 9.734375 C 16.070312 9.925781 15.605469 9.875 15.285156 9.625 C 15.257812 9.605469 15.214844 9.617188 15.214844 9.65625 C 15.203125 9.914062 15.132812 10.1875 14.9375 10.371094 C 14.757812 10.535156 14.46875 10.589844 14.257812 10.449219 C 14.230469 10.433594 14.191406 10.457031 14.191406 10.488281 C 14.210938 10.726562 13.746094 11.015625 13.523438 10.90625 C 13.511719 10.898438 13.5 10.898438 13.492188 10.898438 C 13.429688 10.871094 13.363281 10.855469 13.292969 10.855469 L 10.101562 10.855469 C 9.980469 10.855469 9.859375 10.90625 9.769531 10.996094 C 9.730469 11.035156 9.699219 11.078125 9.675781 11.128906 C 9.527344 11.03125 9.515625 10.78125 9.667969 10.679688 C 9.6875 10.667969 9.695312 10.644531 9.683594 10.621094 C 9.460938 10.265625 9.714844 9.738281 10.128906 9.679688 C 10.160156 9.675781 10.167969 9.636719 10.15625 9.617188 C 10.007812 9.300781 9.863281 8.921875 9.976562 8.574219 C 10.0625 8.300781 10.335938 8.050781 10.640625 8.109375 C 10.675781 8.117188 10.707031 8.082031 10.6875 8.046875 C 10.425781 7.535156 10.707031 6.832031 11.253906 6.632812 C 11.28125 6.625 11.296875 6.585938 11.273438 6.5625 C 11.097656 6.417969 10.996094 6.203125 10.980469 5.976562 C 10.964844 5.722656 11.074219 5.503906 11.242188 5.316406 C 11.554688 4.96875 12.058594 4.578125 12.554688 4.769531 C 12.582031 4.78125 12.617188 4.746094 12.605469 4.714844 C 12.425781 4.277344 12.746094 3.851562 13.097656 3.617188 C 13.191406 3.558594 13.289062 3.503906 13.386719 3.453125 C 13.4375 3.425781 13.484375 3.402344 13.535156 3.378906 C 13.570312 3.359375 13.609375 3.351562 13.621094 3.308594 C 13.636719 3.246094 13.632812 3.175781 13.640625 3.109375 C 13.652344 3.050781 13.664062 2.988281 13.679688 2.929688 C 13.703125 2.824219 13.738281 2.71875 13.777344 2.617188 C 13.78125 2.613281 13.785156 2.609375 13.785156 2.609375 C 14.070312 2.28125 14.449219 1.980469 14.898438 1.933594 C 15.285156 1.894531 15.707031 2.0625 15.882812 2.421875 C 15.898438 2.449219 15.941406 2.449219 15.957031 2.421875 C 16.167969 2.0625 16.546875 1.804688 16.960938 1.75 C 17.398438 1.691406 17.847656 1.855469 18.148438 2.171875 C 18.171875 2.199219 18.207031 2.183594 18.21875 2.152344 C 18.320312 1.882812 18.585938 1.707031 18.863281 1.65625 C 19.203125 1.59375 19.5625 1.710938 19.847656 1.890625 C 20.269531 2.15625 20.683594 2.753906 20.371094 3.242188 C 20.34375 3.28125 20.390625 3.320312 20.425781 3.300781 C 20.886719 3.070312 21.402344 3.449219 21.574219 3.867188 C 21.664062 4.085938 21.660156 4.332031 21.5625 4.550781 C 21.472656 4.753906 21.289062 4.933594 21.050781 4.898438 C 20.996094 4.890625 20.972656 4.964844 21.027344 4.980469 C 21.261719 5.050781 21.441406 5.238281 21.527344 5.460938 Z M 9.617188 9.953125 C 9.710938 9.785156 9.867188 9.652344 10.058594 9.609375 C 9.902344 9.265625 9.765625 8.859375 9.914062 8.492188 C 10.023438 8.226562 10.285156 8.003906 10.582031 8.019531 C 10.363281 7.484375 10.632812 6.8125 11.164062 6.578125 C 11.023438 6.441406 10.933594 6.261719 10.90625 6.070312 C 10.875 5.886719 10.902344 5.699219 10.988281 5.53125 C 11.089844 5.332031 11.257812 5.164062 11.425781 5.019531 C 11.714844 4.773438 12.109375 4.558594 12.496094 4.660156 C 12.417969 4.382812 12.519531 4.082031 12.699219 3.859375 C 12.914062 3.589844 13.234375 3.429688 13.539062 3.28125 C 13.554688 3.046875 13.609375 2.816406 13.695312 2.59375 C 13.132812 2.320312 12.367188 2.675781 12.234375 3.285156 C 12.226562 3.320312 12.183594 3.328125 12.160156 3.304688 C 11.601562 2.761719 10.546875 2.921875 10.175781 3.609375 C 10.164062 3.628906 10.136719 3.632812 10.117188 3.625 C 9.324219 3.222656 8.261719 3.574219 7.855469 4.355469 C 7.847656 4.375 7.824219 4.378906 7.808594 4.375 C 7.46875 4.296875 7.125 4.699219 7.265625 5.019531 C 7.28125 5.046875 7.265625 5.085938 7.230469 5.082031 C 6.800781 5.0625 6.34375 5.175781 6.039062 5.492188 C 5.75 5.789062 5.644531 6.269531 5.855469 6.636719 C 5.867188 6.664062 5.851562 6.707031 5.816406 6.703125 C 5.34375 6.648438 4.851562 6.875 4.605469 7.289062 C 4.355469 7.707031 4.398438 8.269531 4.699219 8.652344 C 4.71875 8.679688 4.714844 8.71875 4.679688 8.726562 C 4.242188 8.828125 3.882812 9.21875 3.84375 9.667969 C 3.804688 10.117188 4.085938 10.570312 4.503906 10.742188 C 4.515625 10.746094 4.523438 10.75 4.535156 10.757812 C 4.578125 10.777344 4.546875 10.851562 4.5 10.832031 C 4.496094 10.832031 4.496094 10.832031 4.492188 10.828125 C 4.40625 10.789062 4.3125 10.816406 4.246094 10.878906 C 4.171875 10.945312 4.148438 11.050781 4.152344 11.152344 C 4.152344 11.316406 4.210938 11.488281 4.28125 11.640625 C 4.425781 11.933594 4.65625 12.179688 4.945312 12.335938 C 4.949219 12.335938 4.949219 12.339844 4.949219 12.339844 C 4.988281 12.324219 5.03125 12.316406 5.074219 12.316406 L 7.421875 12.316406 C 7.460938 12.316406 7.496094 12.320312 7.527344 12.332031 C 7.535156 12.328125 7.542969 12.328125 7.554688 12.339844 C 7.554688 12.339844 7.558594 12.339844 7.558594 12.339844 C 7.5625 12.34375 7.566406 12.34375 7.570312 12.347656 C 7.640625 12.363281 7.878906 12.238281 7.925781 12.21875 C 8 12.191406 8.074219 12.15625 8.144531 12.117188 C 8.28125 12.039062 8.410156 11.941406 8.507812 11.816406 C 8.707031 11.566406 8.777344 11.203125 8.613281 10.917969 C 8.601562 10.890625 8.613281 10.863281 8.640625 10.855469 C 8.988281 10.746094 9.0625 10.339844 9.109375 10.027344 C 9.113281 10 9.152344 9.992188 9.171875 10.003906 C 9.296875 10.070312 9.453125 10.046875 9.558594 9.949219 C 9.578125 9.929688 9.601562 9.9375 9.617188 9.953125 Z M 9.617188 9.953125 " fill-opacity="1" fill-rule="nonzero"/></g><path fill="#969696" d="M 7.378906 16.398438 C 7.335938 15.789062 6.824219 15.308594 6.203125 15.308594 C 5.582031 15.308594 5.070312 15.789062 5.027344 16.398438 C 5.023438 16.425781 5.023438 16.453125 5.023438 16.480469 C 5.023438 17.128906 5.550781 17.652344 6.203125 17.652344 C 6.230469 17.652344 6.261719 17.652344 6.289062 17.648438 C 6.898438 17.609375 7.382812 17.101562 7.382812 16.480469 C 7.382812 16.453125 7.382812 16.425781 7.378906 16.398438 Z M 7.261719 16.515625 C 7.253906 16.515625 7.246094 16.515625 7.238281 16.515625 C 7.230469 16.515625 7.226562 16.515625 7.222656 16.515625 L 7.203125 16.515625 C 7.199219 16.515625 7.199219 16.515625 7.195312 16.515625 L 6.542969 16.527344 C 6.53125 16.628906 6.480469 16.714844 6.402344 16.769531 L 6.726562 17.316406 C 6.726562 17.316406 6.726562 17.316406 6.730469 17.316406 C 6.730469 17.324219 6.734375 17.328125 6.734375 17.332031 C 6.734375 17.332031 6.738281 17.335938 6.738281 17.335938 L 6.746094 17.347656 L 6.742188 17.347656 C 6.746094 17.351562 6.746094 17.355469 6.746094 17.355469 C 6.75 17.363281 6.753906 17.371094 6.757812 17.378906 C 6.617188 17.464844 6.453125 17.519531 6.277344 17.53125 C 6.253906 17.535156 6.230469 17.535156 6.203125 17.535156 C 6 17.535156 5.808594 17.476562 5.648438 17.375 C 5.652344 17.371094 5.65625 17.363281 5.660156 17.355469 C 5.660156 17.355469 5.664062 17.351562 5.664062 17.347656 C 5.671875 17.335938 5.675781 17.328125 5.679688 17.316406 C 5.679688 17.316406 5.679688 17.316406 5.683594 17.320312 L 6.011719 16.765625 C 5.933594 16.710938 5.882812 16.625 5.871094 16.527344 L 5.175781 16.515625 L 5.175781 16.511719 C 5.164062 16.511719 5.152344 16.511719 5.144531 16.511719 C 5.144531 16.5 5.144531 16.492188 5.144531 16.480469 C 5.144531 16.457031 5.144531 16.429688 5.144531 16.40625 C 5.171875 16.03125 5.398438 15.710938 5.714844 15.546875 C 5.71875 15.558594 5.722656 15.566406 5.726562 15.578125 C 5.730469 15.582031 5.734375 15.589844 5.738281 15.59375 C 5.738281 15.597656 5.742188 15.605469 5.742188 15.609375 C 5.742188 15.609375 5.742188 15.609375 5.738281 15.609375 L 6.070312 16.191406 C 6.113281 16.171875 6.160156 16.160156 6.207031 16.160156 C 6.253906 16.160156 6.296875 16.171875 6.335938 16.1875 L 6.691406 15.585938 C 6.695312 15.582031 6.695312 15.578125 6.699219 15.574219 C 6.699219 15.570312 6.703125 15.570312 6.703125 15.566406 C 6.703125 15.566406 6.703125 15.566406 6.703125 15.5625 C 6.707031 15.5625 6.707031 15.558594 6.707031 15.554688 C 7.019531 15.722656 7.234375 16.039062 7.261719 16.40625 C 7.261719 16.433594 7.265625 16.457031 7.265625 16.480469 C 7.265625 16.492188 7.261719 16.503906 7.261719 16.515625 Z M 7.261719 16.515625 " fill-opacity="1" fill-rule="nonzero"/><path fill="#000000" d="M 6.371094 16.496094 C 6.371094 16.40625 6.296875 16.335938 6.207031 16.335938 C 6.117188 16.335938 6.042969 16.40625 6.042969 16.496094 C 6.042969 16.585938 6.117188 16.65625 6.207031 16.65625 C 6.296875 16.65625 6.371094 16.585938 6.371094 16.496094 Z M 5.976562 16.496094 C 5.976562 16.371094 6.082031 16.265625 6.207031 16.265625 C 6.335938 16.265625 6.4375 16.371094 6.4375 16.496094 C 6.4375 16.621094 6.335938 16.726562 6.207031 16.726562 C 6.082031 16.726562 5.976562 16.621094 5.976562 16.496094 Z M 5.976562 16.496094 " fill-opacity="1" fill-rule="nonzero"/><path fill="#000000" d="M 6.398438 16.21875 C 6.476562 16.273438 6.53125 16.363281 6.542969 16.460938 L 7.195312 16.449219 C 7.183594 16.113281 7.003906 15.816406 6.734375 15.648438 Z M 6.070312 16.800781 L 5.742188 17.351562 C 5.878906 17.425781 6.035156 17.46875 6.203125 17.46875 C 6.371094 17.46875 6.53125 17.425781 6.667969 17.351562 L 6.339844 16.800781 C 6.300781 16.820312 6.253906 16.832031 6.207031 16.832031 C 6.160156 16.832031 6.113281 16.820312 6.070312 16.800781 Z M 6.207031 16.230469 C 6.058594 16.230469 5.9375 16.347656 5.9375 16.496094 C 5.9375 16.644531 6.058594 16.761719 6.207031 16.761719 C 6.355469 16.761719 6.476562 16.644531 6.476562 16.496094 C 6.476562 16.347656 6.355469 16.230469 6.207031 16.230469 Z M 5.679688 15.644531 C 5.40625 15.8125 5.222656 16.109375 5.210938 16.449219 L 5.871094 16.460938 C 5.882812 16.363281 5.933594 16.28125 6.011719 16.226562 Z M 5.144531 16.40625 C 5.171875 16.03125 5.398438 15.710938 5.714844 15.546875 C 5.71875 15.558594 5.722656 15.566406 5.726562 15.578125 C 5.730469 15.582031 5.734375 15.589844 5.738281 15.59375 C 5.738281 15.597656 5.742188 15.605469 5.742188 15.609375 C 5.742188 15.609375 5.742188 15.609375 5.738281 15.609375 L 6.070312 16.191406 C 6.113281 16.171875 6.160156 16.160156 6.207031 16.160156 C 6.253906 16.160156 6.296875 16.171875 6.335938 16.1875 L 6.691406 15.585938 C 6.695312 15.582031 6.695312 15.578125 6.699219 15.574219 C 6.699219 15.570312 6.703125 15.570312 6.703125 15.566406 C 6.703125 15.566406 6.703125 15.566406 6.703125 15.5625 C 6.707031 15.5625 6.707031 15.558594 6.707031 15.554688 C 7.019531 15.722656 7.234375 16.039062 7.261719 16.40625 C 7.261719 16.433594 7.265625 16.457031 7.265625 16.480469 C 7.265625 16.492188 7.261719 16.503906 7.261719 16.515625 C 7.253906 16.515625 7.246094 16.515625 7.238281 16.515625 C 7.230469 16.515625 7.226562 16.515625 7.222656 16.515625 L 7.203125 16.515625 C 7.199219 16.515625 7.199219 16.515625 7.195312 16.515625 L 6.542969 16.527344 C 6.53125 16.628906 6.480469 16.714844 6.402344 16.769531 L 6.726562 17.316406 C 6.726562 17.316406 6.726562 17.316406 6.730469 17.316406 C 6.730469 17.324219 6.734375 17.328125 6.734375 17.332031 C 6.734375 17.332031 6.738281 17.335938 6.738281 17.335938 L 6.746094 17.347656 L 6.742188 17.347656 C 6.746094 17.351562 6.746094 17.355469 6.746094 17.355469 C 6.75 17.363281 6.753906 17.371094 6.757812 17.378906 C 6.617188 17.464844 6.453125 17.519531 6.277344 17.53125 C 6.253906 17.535156 6.230469 17.535156 6.203125 17.535156 C 6 17.535156 5.808594 17.476562 5.648438 17.375 C 5.652344 17.371094 5.65625 17.363281 5.660156 17.355469 C 5.660156 17.355469 5.664062 17.351562 5.664062 17.347656 C 5.671875 17.335938 5.675781 17.328125 5.679688 17.316406 C 5.679688 17.316406 5.679688 17.316406 5.683594 17.320312 L 6.011719 16.765625 C 5.933594 16.710938 5.882812 16.625 5.871094 16.527344 L 5.175781 16.515625 L 5.175781 16.511719 C 5.164062 16.511719 5.152344 16.511719 5.144531 16.511719 C 5.144531 16.5 5.144531 16.492188 5.144531 16.480469 C 5.144531 16.457031 5.144531 16.429688 5.144531 16.40625 Z M 5.144531 16.40625 " fill-opacity="1" fill-rule="nonzero"/><path fill="#969696" d="M 12.84375 16.25 C 12.800781 15.644531 12.289062 15.164062 11.664062 15.164062 C 11.042969 15.164062 10.53125 15.640625 10.488281 16.25 C 10.488281 16.277344 10.484375 16.304688 10.484375 16.335938 C 10.484375 16.980469 11.015625 17.507812 11.664062 17.507812 C 11.695312 17.507812 11.722656 17.503906 11.75 17.503906 C 12.363281 17.460938 12.847656 16.953125 12.847656 16.335938 C 12.847656 16.304688 12.84375 16.277344 12.84375 16.25 Z M 12.726562 16.371094 C 12.714844 16.371094 12.707031 16.367188 12.699219 16.371094 C 12.695312 16.371094 12.6875 16.367188 12.683594 16.367188 L 12.664062 16.367188 C 12.664062 16.367188 12.660156 16.367188 12.65625 16.371094 L 12.65625 16.367188 L 12.003906 16.382812 C 11.996094 16.480469 11.941406 16.566406 11.863281 16.621094 L 12.1875 17.171875 C 12.191406 17.171875 12.191406 17.171875 12.191406 17.171875 C 12.195312 17.175781 12.195312 17.179688 12.199219 17.1875 L 12.207031 17.203125 C 12.207031 17.203125 12.207031 17.207031 12.210938 17.210938 C 12.210938 17.214844 12.214844 17.222656 12.21875 17.230469 C 12.078125 17.316406 11.914062 17.371094 11.742188 17.386719 C 11.714844 17.386719 11.691406 17.386719 11.664062 17.386719 C 11.460938 17.386719 11.269531 17.328125 11.109375 17.230469 C 11.113281 17.222656 11.117188 17.214844 11.121094 17.207031 C 11.125 17.207031 11.125 17.203125 11.125 17.203125 L 11.128906 17.199219 C 11.132812 17.191406 11.136719 17.179688 11.140625 17.171875 C 11.140625 17.171875 11.144531 17.171875 11.144531 17.171875 L 11.472656 16.621094 C 11.398438 16.566406 11.34375 16.480469 11.335938 16.382812 L 10.636719 16.367188 C 10.628906 16.363281 10.617188 16.363281 10.605469 16.363281 C 10.605469 16.355469 10.605469 16.34375 10.605469 16.335938 C 10.605469 16.308594 10.605469 16.285156 10.609375 16.257812 C 10.632812 15.886719 10.859375 15.5625 11.179688 15.398438 C 11.179688 15.410156 11.183594 15.421875 11.1875 15.429688 C 11.191406 15.4375 11.195312 15.441406 11.199219 15.449219 C 11.203125 15.453125 11.203125 15.457031 11.207031 15.460938 C 11.203125 15.460938 11.203125 15.464844 11.203125 15.464844 L 11.53125 16.042969 C 11.574219 16.023438 11.621094 16.015625 11.671875 16.015625 C 11.714844 16.015625 11.757812 16.023438 11.800781 16.039062 L 12.15625 15.4375 C 12.15625 15.433594 12.160156 15.429688 12.160156 15.425781 C 12.164062 15.425781 12.164062 15.421875 12.164062 15.417969 C 12.164062 15.417969 12.167969 15.417969 12.167969 15.417969 C 12.167969 15.414062 12.167969 15.410156 12.171875 15.410156 C 12.480469 15.574219 12.699219 15.890625 12.722656 16.261719 C 12.726562 16.285156 12.726562 16.308594 12.726562 16.335938 C 12.726562 16.347656 12.726562 16.355469 12.726562 16.371094 Z M 12.726562 16.371094 " fill-opacity="1" fill-rule="nonzero"/><path fill="#000000" d="M 11.832031 16.347656 C 11.832031 16.261719 11.757812 16.1875 11.671875 16.1875 C 11.578125 16.1875 11.507812 16.261719 11.507812 16.347656 C 11.507812 16.4375 11.578125 16.511719 11.671875 16.511719 C 11.757812 16.511719 11.832031 16.4375 11.832031 16.347656 Z M 11.4375 16.347656 C 11.4375 16.222656 11.542969 16.121094 11.671875 16.121094 C 11.796875 16.121094 11.902344 16.222656 11.902344 16.347656 C 11.902344 16.476562 11.796875 16.578125 11.671875 16.578125 C 11.542969 16.578125 11.4375 16.476562 11.4375 16.347656 Z M 11.4375 16.347656 " fill-opacity="1" fill-rule="nonzero"/><g clip-path="url(#c465fd9a07)"><path fill="#000000" d="M 3.007812 15.441406 C 2.964844 15.40625 3.023438 15.347656 3.066406 15.378906 C 3.304688 15.570312 3.558594 15.738281 3.820312 15.890625 C 3.867188 15.917969 3.824219 15.992188 3.777344 15.964844 C 3.507812 15.808594 3.25 15.632812 3.007812 15.441406 Z M 8.085938 22.609375 C 8.019531 22.679688 7.953125 22.746094 7.886719 22.816406 C 7.871094 22.832031 7.871094 22.859375 7.886719 22.875 C 7.902344 22.890625 7.929688 22.890625 7.949219 22.875 C 8.011719 22.804688 8.078125 22.738281 8.144531 22.667969 C 8.160156 22.652344 8.164062 22.625 8.144531 22.609375 C 8.128906 22.59375 8.101562 22.59375 8.085938 22.609375 Z M 9.621094 25.285156 C 9.601562 25.273438 9.578125 25.28125 9.5625 25.300781 C 9.523438 25.371094 9.511719 25.457031 9.535156 25.539062 C 9.542969 25.558594 9.566406 25.574219 9.585938 25.566406 C 9.609375 25.558594 9.625 25.539062 9.617188 25.515625 C 9.613281 25.503906 9.613281 25.496094 9.609375 25.488281 C 9.609375 25.488281 9.609375 25.488281 9.609375 25.484375 C 9.609375 25.480469 9.609375 25.476562 9.609375 25.472656 C 9.609375 25.457031 9.609375 25.441406 9.609375 25.421875 C 9.609375 25.421875 9.609375 25.421875 9.609375 25.417969 C 9.613281 25.414062 9.613281 25.410156 9.613281 25.40625 C 9.617188 25.398438 9.617188 25.390625 9.621094 25.382812 C 9.621094 25.378906 9.625 25.375 9.625 25.371094 C 9.625 25.367188 9.625 25.367188 9.625 25.367188 C 9.628906 25.359375 9.632812 25.351562 9.636719 25.34375 C 9.648438 25.324219 9.644531 25.296875 9.621094 25.285156 Z M 9.335938 25.351562 C 9.328125 25.332031 9.308594 25.3125 9.285156 25.320312 C 9.261719 25.328125 9.242188 25.351562 9.253906 25.375 C 9.289062 25.460938 9.328125 25.550781 9.363281 25.636719 C 9.371094 25.660156 9.394531 25.675781 9.417969 25.667969 C 9.4375 25.660156 9.457031 25.636719 9.449219 25.617188 C 9.410156 25.527344 9.375 25.441406 9.335938 25.351562 Z M 10.992188 24.109375 C 10.988281 24.085938 10.960938 24.074219 10.9375 24.078125 C 10.914062 24.085938 10.90625 24.109375 10.910156 24.132812 C 10.933594 24.253906 10.957031 24.378906 10.984375 24.5 C 10.988281 24.523438 11.015625 24.535156 11.035156 24.53125 C 11.058594 24.523438 11.070312 24.5 11.066406 24.476562 C 11.042969 24.355469 11.015625 24.234375 10.992188 24.109375 Z M 10.058594 25.289062 C 9.953125 25.332031 9.867188 25.410156 9.804688 25.503906 C 9.792969 25.523438 9.800781 25.554688 9.820312 25.5625 C 9.839844 25.574219 9.867188 25.570312 9.878906 25.546875 C 9.886719 25.539062 9.894531 25.527344 9.902344 25.519531 C 9.902344 25.519531 9.902344 25.515625 9.90625 25.511719 C 9.90625 25.511719 9.90625 25.507812 9.910156 25.507812 C 9.914062 25.503906 9.917969 25.5 9.921875 25.492188 C 9.9375 25.472656 9.957031 25.457031 9.976562 25.441406 C 9.980469 25.433594 9.984375 25.433594 9.988281 25.425781 C 9.992188 25.425781 9.992188 25.425781 9.992188 25.425781 C 9.996094 25.425781 9.996094 25.421875 10 25.421875 C 10.007812 25.414062 10.019531 25.40625 10.03125 25.398438 C 10.054688 25.386719 10.074219 25.375 10.101562 25.363281 C 10.121094 25.355469 10.125 25.324219 10.117188 25.304688 C 10.101562 25.285156 10.078125 25.28125 10.058594 25.289062 Z M 13.625 25.832031 C 13.535156 25.917969 13.480469 26.039062 13.476562 26.164062 C 13.476562 26.1875 13.496094 26.207031 13.519531 26.207031 C 13.542969 26.207031 13.5625 26.1875 13.5625 26.164062 C 13.566406 26.0625 13.609375 25.964844 13.683594 25.890625 C 13.722656 25.851562 13.664062 25.792969 13.625 25.832031 Z M 13.191406 25.929688 C 13.191406 25.90625 13.167969 25.886719 13.148438 25.886719 C 13.121094 25.886719 13.105469 25.90625 13.105469 25.929688 C 13.09375 26.0625 13.121094 26.199219 13.179688 26.316406 C 13.1875 26.339844 13.21875 26.34375 13.238281 26.332031 C 13.257812 26.320312 13.265625 26.296875 13.253906 26.273438 C 13.199219 26.167969 13.179688 26.046875 13.191406 25.929688 Z M 11.300781 24.179688 C 11.277344 24.171875 11.253906 24.183594 11.246094 24.207031 C 11.222656 24.285156 11.199219 24.363281 11.175781 24.441406 C 11.167969 24.464844 11.183594 24.488281 11.207031 24.496094 C 11.230469 24.5 11.253906 24.488281 11.257812 24.464844 C 11.28125 24.386719 11.304688 24.308594 11.328125 24.230469 C 11.335938 24.210938 11.320312 24.183594 11.300781 24.179688 Z M 11.621094 24.25 C 11.519531 24.285156 11.4375 24.371094 11.417969 24.476562 C 11.414062 24.5 11.425781 24.523438 11.449219 24.527344 C 11.46875 24.535156 11.496094 24.523438 11.5 24.5 C 11.503906 24.488281 11.503906 24.476562 11.507812 24.46875 C 11.511719 24.460938 11.511719 24.457031 11.515625 24.453125 C 11.515625 24.449219 11.515625 24.445312 11.519531 24.445312 C 11.523438 24.433594 11.527344 24.425781 11.535156 24.417969 C 11.535156 24.414062 11.539062 24.40625 11.542969 24.402344 C 11.542969 24.402344 11.546875 24.398438 11.546875 24.394531 C 11.554688 24.386719 11.5625 24.378906 11.570312 24.371094 C 11.574219 24.371094 11.578125 24.367188 11.582031 24.363281 C 11.585938 24.359375 11.589844 24.359375 11.589844 24.355469 C 11.601562 24.351562 11.609375 24.347656 11.617188 24.339844 C 11.621094 24.339844 11.628906 24.335938 11.632812 24.335938 C 11.632812 24.335938 11.632812 24.335938 11.632812 24.332031 C 11.636719 24.332031 11.640625 24.332031 11.644531 24.332031 C 11.664062 24.324219 11.679688 24.300781 11.671875 24.277344 C 11.664062 24.257812 11.644531 24.242188 11.621094 24.25 Z M 14.042969 25.886719 C 14.019531 25.875 13.996094 25.886719 13.984375 25.902344 C 13.90625 26.003906 13.828125 26.109375 13.753906 26.210938 C 13.738281 26.226562 13.75 26.257812 13.765625 26.265625 C 13.789062 26.28125 13.8125 26.269531 13.824219 26.253906 C 13.902344 26.148438 13.980469 26.046875 14.054688 25.945312 C 14.070312 25.929688 14.058594 25.898438 14.042969 25.886719 Z M 3.171875 18.941406 C 3.148438 19.015625 3.136719 19.09375 3.132812 19.171875 C 3.132812 19.1875 3.148438 19.199219 3.160156 19.199219 C 3.175781 19.199219 3.191406 19.1875 3.191406 19.171875 C 3.191406 19.097656 3.203125 19.027344 3.226562 18.957031 C 3.234375 18.921875 3.179688 18.90625 3.171875 18.941406 Z M 2.964844 18.945312 C 2.953125 18.945312 2.933594 18.957031 2.9375 18.972656 C 2.945312 19.039062 2.953125 19.105469 2.957031 19.171875 C 2.960938 19.183594 2.96875 19.199219 2.988281 19.199219 C 3 19.199219 3.019531 19.1875 3.015625 19.171875 C 3.007812 19.105469 3 19.039062 2.996094 18.972656 C 2.992188 18.957031 2.980469 18.945312 2.964844 18.945312 Z M 7.734375 22.539062 C 7.714844 22.527344 7.691406 22.535156 7.675781 22.554688 C 7.601562 22.660156 7.582031 22.800781 7.613281 22.925781 C 7.628906 22.976562 7.710938 22.957031 7.695312 22.902344 C 7.667969 22.796875 7.6875 22.6875 7.75 22.597656 C 7.765625 22.578125 7.753906 22.550781 7.734375 22.539062 Z M 3.519531 18.871094 C 3.503906 18.863281 3.488281 18.867188 3.480469 18.878906 L 3.285156 19.144531 C 3.277344 19.15625 3.285156 19.175781 3.296875 19.183594 C 3.3125 19.191406 3.328125 19.183594 3.335938 19.171875 C 3.402344 19.085938 3.464844 18.996094 3.527344 18.910156 C 3.539062 18.894531 3.53125 18.875 3.519531 18.871094 Z M 3.695312 16.25 C 3.710938 16.261719 3.742188 16.25 3.753906 16.234375 C 3.765625 16.210938 3.757812 16.1875 3.738281 16.175781 C 3.566406 16.042969 3.378906 15.929688 3.183594 15.835938 C 3.132812 15.8125 3.089844 15.886719 3.140625 15.910156 C 3.335938 16.003906 3.519531 16.117188 3.695312 16.25 Z M 7.246094 22.59375 C 7.238281 22.570312 7.207031 22.566406 7.1875 22.578125 C 7.167969 22.589844 7.164062 22.613281 7.171875 22.636719 C 7.21875 22.726562 7.261719 22.816406 7.304688 22.902344 C 7.316406 22.925781 7.347656 22.929688 7.363281 22.917969 C 7.386719 22.90625 7.390625 22.882812 7.378906 22.859375 C 7.335938 22.773438 7.292969 22.683594 7.246094 22.59375 Z M 4.75 20.894531 C 4.746094 20.871094 4.71875 20.859375 4.695312 20.867188 C 4.671875 20.871094 4.660156 20.894531 4.667969 20.917969 C 4.691406 21.039062 4.714844 21.164062 4.742188 21.285156 C 4.746094 21.308594 4.773438 21.320312 4.792969 21.316406 C 4.816406 21.308594 4.828125 21.285156 4.824219 21.261719 Z M 5.40625 20.996094 C 5.382812 20.984375 5.359375 20.992188 5.347656 21.011719 L 5.179688 21.246094 C 5.164062 21.265625 5.175781 21.296875 5.195312 21.304688 C 5.214844 21.316406 5.238281 21.308594 5.253906 21.289062 C 5.308594 21.210938 5.363281 21.132812 5.421875 21.054688 C 5.433594 21.035156 5.425781 21.007812 5.40625 20.996094 Z M 5.078125 20.867188 C 5.054688 20.855469 5.03125 20.863281 5.019531 20.882812 C 4.957031 20.980469 4.917969 21.089844 4.90625 21.207031 C 4.902344 21.230469 4.929688 21.25 4.949219 21.25 C 4.972656 21.25 4.988281 21.230469 4.992188 21.207031 C 5.003906 21.109375 5.039062 21.011719 5.09375 20.925781 C 5.105469 20.90625 5.097656 20.878906 5.078125 20.867188 Z M 22.515625 23.082031 C 22.492188 23.066406 22.46875 23.078125 22.457031 23.09375 C 22.375 23.210938 22.3125 23.335938 22.273438 23.472656 C 22.257812 23.523438 22.34375 23.546875 22.355469 23.492188 C 22.394531 23.367188 22.453125 23.246094 22.53125 23.140625 C 22.542969 23.121094 22.53125 23.089844 22.515625 23.082031 Z M 26.125 17.71875 C 25.964844 18.03125 25.640625 18.246094 25.289062 18.269531 C 25.234375 18.273438 25.234375 18.359375 25.289062 18.355469 C 25.671875 18.328125 26.023438 18.101562 26.199219 17.761719 C 26.226562 17.714844 26.152344 17.671875 26.125 17.71875 Z M 24.792969 19.488281 C 24.789062 19.484375 24.789062 19.480469 24.785156 19.480469 C 24.785156 19.476562 24.785156 19.476562 24.78125 19.476562 C 24.773438 19.460938 24.765625 19.449219 24.757812 19.433594 C 24.753906 19.425781 24.75 19.421875 24.746094 19.414062 C 24.746094 19.410156 24.746094 19.410156 24.742188 19.40625 C 24.742188 19.402344 24.738281 19.402344 24.738281 19.398438 C 24.734375 19.382812 24.730469 19.367188 24.726562 19.351562 C 24.71875 19.332031 24.695312 19.316406 24.671875 19.324219 C 24.648438 19.328125 24.636719 19.351562 24.640625 19.375 C 24.660156 19.445312 24.695312 19.511719 24.75 19.566406 C 24.765625 19.582031 24.792969 19.582031 24.808594 19.566406 C 24.824219 19.546875 24.824219 19.523438 24.808594 19.503906 C 24.804688 19.5 24.796875 19.492188 24.792969 19.488281 Z M 24.851562 15.488281 C 25.125 15.457031 25.386719 15.371094 25.621094 15.234375 C 25.667969 15.207031 25.625 15.132812 25.578125 15.160156 C 25.355469 15.292969 25.109375 15.375 24.851562 15.402344 C 24.800781 15.410156 24.796875 15.496094 24.851562 15.488281 Z M 25.535156 19.324219 C 25.445312 19.394531 25.355469 19.460938 25.265625 19.527344 C 25.25 19.539062 25.238281 19.5625 25.25 19.585938 C 25.261719 19.601562 25.289062 19.613281 25.308594 19.601562 C 25.398438 19.53125 25.488281 19.464844 25.578125 19.398438 C 25.597656 19.386719 25.609375 19.363281 25.59375 19.339844 C 25.582031 19.324219 25.554688 19.3125 25.535156 19.324219 Z M 26.15625 14.589844 C 25.4375 14.96875 24.660156 15.238281 23.859375 15.378906 C 23.804688 15.390625 23.828125 15.472656 23.882812 15.460938 C 24.691406 15.316406 25.472656 15.046875 26.199219 14.660156 C 26.246094 14.636719 26.203125 14.5625 26.15625 14.589844 Z M 17.949219 15.277344 C 17.738281 15.191406 17.53125 15.09375 17.328125 14.992188 C 17.28125 14.96875 17.238281 15.039062 17.285156 15.066406 C 17.496094 15.171875 17.710938 15.269531 17.929688 15.359375 C 17.949219 15.367188 17.976562 15.347656 17.980469 15.328125 C 17.988281 15.304688 17.972656 15.285156 17.949219 15.277344 Z M 17.667969 16.320312 L 17.667969 17.582031 L 15.878906 17.878906 L 15.878906 16.636719 Z M 17.582031 16.421875 L 15.964844 16.707031 L 15.964844 17.777344 L 17.582031 17.511719 Z M 16.027344 24.289062 C 16.027344 24.265625 16.003906 24.246094 15.984375 24.246094 C 15.957031 24.246094 15.941406 24.265625 15.941406 24.289062 C 15.921875 24.414062 15.933594 24.546875 15.96875 24.667969 C 15.984375 24.722656 16.070312 24.699219 16.054688 24.644531 C 16.019531 24.527344 16.011719 24.410156 16.027344 24.289062 Z M 25.453125 17.917969 C 25.277344 18.039062 25.070312 18.109375 24.855469 18.125 C 24.800781 18.125 24.800781 18.210938 24.855469 18.207031 C 25.082031 18.195312 25.308594 18.121094 25.496094 17.992188 C 25.542969 17.964844 25.5 17.890625 25.453125 17.917969 Z M 25.089844 19.332031 C 25.03125 19.394531 25 19.480469 25.011719 19.566406 C 25.011719 19.585938 25.027344 19.609375 25.054688 19.609375 C 25.074219 19.605469 25.097656 19.589844 25.097656 19.566406 C 25.09375 19.546875 25.09375 19.53125 25.09375 19.511719 C 25.09375 19.511719 25.097656 19.507812 25.097656 19.507812 C 25.097656 19.503906 25.097656 19.5 25.097656 19.496094 C 25.101562 19.488281 25.101562 19.480469 25.105469 19.46875 C 25.109375 19.464844 25.109375 19.460938 25.109375 19.457031 C 25.109375 19.457031 25.113281 19.457031 25.113281 19.453125 C 25.117188 19.445312 25.121094 19.4375 25.125 19.429688 C 25.128906 19.421875 25.132812 19.417969 25.140625 19.410156 C 25.140625 19.40625 25.140625 19.40625 25.140625 19.40625 C 25.144531 19.402344 25.148438 19.398438 25.152344 19.394531 C 25.167969 19.378906 25.167969 19.351562 25.152344 19.335938 C 25.132812 19.320312 25.105469 19.316406 25.089844 19.332031 Z M 18.238281 24.980469 C 18.304688 25.09375 18.339844 25.226562 18.332031 25.359375 C 18.332031 25.414062 18.417969 25.414062 18.417969 25.359375 C 18.425781 25.210938 18.386719 25.0625 18.3125 24.9375 C 18.28125 24.890625 18.207031 24.933594 18.238281 24.980469 Z M 16.867188 24.195312 C 16.785156 24.28125 16.699219 24.367188 16.617188 24.449219 C 16.601562 24.46875 16.601562 24.496094 16.617188 24.511719 C 16.632812 24.527344 16.660156 24.527344 16.679688 24.511719 C 16.761719 24.425781 16.84375 24.339844 16.929688 24.257812 C 16.945312 24.242188 16.945312 24.210938 16.929688 24.195312 C 16.910156 24.179688 16.882812 24.179688 16.867188 24.195312 Z M 18.777344 25.054688 C 18.707031 25.144531 18.648438 25.242188 18.605469 25.347656 C 18.597656 25.371094 18.617188 25.398438 18.636719 25.402344 C 18.660156 25.40625 18.679688 25.394531 18.691406 25.371094 C 18.722656 25.285156 18.777344 25.191406 18.835938 25.117188 C 18.851562 25.097656 18.855469 25.074219 18.835938 25.054688 C 18.820312 25.039062 18.789062 25.039062 18.777344 25.054688 Z M 16.410156 24.21875 C 16.390625 24.207031 16.363281 24.214844 16.351562 24.234375 C 16.300781 24.332031 16.253906 24.429688 16.203125 24.53125 C 16.195312 24.550781 16.199219 24.574219 16.21875 24.585938 C 16.238281 24.597656 16.269531 24.59375 16.277344 24.574219 C 16.328125 24.472656 16.375 24.375 16.425781 24.277344 C 16.4375 24.257812 16.429688 24.230469 16.410156 24.21875 Z M 21.789062 23.136719 C 21.78125 23.117188 21.761719 23.101562 21.738281 23.109375 C 21.71875 23.113281 21.699219 23.136719 21.707031 23.160156 L 21.84375 23.496094 C 21.851562 23.515625 21.871094 23.53125 21.894531 23.523438 C 21.914062 23.519531 21.933594 23.496094 21.925781 23.472656 Z M 22.136719 23.136719 C 22.105469 23.246094 22.070312 23.359375 22.039062 23.472656 C 22.023438 23.523438 22.105469 23.546875 22.121094 23.492188 C 22.15625 23.382812 22.1875 23.269531 22.21875 23.15625 C 22.234375 23.105469 22.152344 23.082031 22.136719 23.136719 Z M 18.074219 15.117188 C 17.738281 14.910156 17.378906 14.730469 17.007812 14.585938 C 16.957031 14.566406 16.933594 14.648438 16.984375 14.671875 C 17.351562 14.808594 17.699219 14.984375 18.03125 15.191406 C 18.078125 15.222656 18.121094 15.148438 18.074219 15.117188 Z M 19.125 25.152344 C 19.035156 25.207031 18.953125 25.28125 18.886719 25.363281 C 18.871094 25.382812 18.867188 25.40625 18.886719 25.425781 C 18.902344 25.4375 18.933594 25.441406 18.945312 25.425781 C 18.980469 25.382812 19.015625 25.347656 19.050781 25.3125 C 19.0625 25.304688 19.070312 25.292969 19.082031 25.289062 C 19.085938 25.28125 19.089844 25.277344 19.097656 25.273438 C 19.101562 25.273438 19.101562 25.269531 19.105469 25.269531 C 19.125 25.253906 19.148438 25.238281 19.167969 25.222656 C 19.1875 25.210938 19.199219 25.1875 19.183594 25.164062 C 19.171875 25.148438 19.148438 25.136719 19.125 25.152344 Z M 24.785156 19.480469 C 24.78125 19.472656 24.785156 19.476562 24.785156 19.480469 Z M 26.742188 15.324219 C 26.742188 18.59375 25.460938 21.671875 23.132812 23.980469 C 20.804688 26.292969 17.707031 27.570312 14.414062 27.570312 C 11.121094 27.570312 8.027344 26.292969 5.699219 23.980469 C 3.371094 21.671875 2.085938 18.59375 2.085938 15.324219 C 2.085938 12.726562 2.898438 10.253906 4.398438 8.1875 C 4.328125 7.878906 4.363281 7.546875 4.523438 7.265625 C 4.765625 6.839844 5.261719 6.582031 5.75 6.613281 C 5.574219 6.238281 5.675781 5.78125 5.945312 5.472656 C 6.25 5.125 6.726562 4.988281 7.175781 4.996094 C 7.070312 4.632812 7.417969 4.222656 7.800781 4.289062 C 8.230469 3.492188 9.308594 3.144531 10.125 3.53125 C 10.527344 2.847656 11.574219 2.683594 12.171875 3.195312 C 12.359375 2.570312 13.164062 2.226562 13.75 2.527344 C 14.054688 2.183594 14.453125 1.886719 14.925781 1.847656 C 15.3125 1.816406 15.726562 1.980469 15.925781 2.316406 C 16.15625 1.964844 16.535156 1.722656 16.953125 1.664062 C 17.394531 1.605469 17.851562 1.765625 18.167969 2.070312 C 18.273438 1.847656 18.472656 1.6875 18.707031 1.609375 C 19.21875 1.4375 19.828125 1.683594 20.1875 2.054688 C 20.472656 2.351562 20.671875 2.792969 20.5 3.183594 C 20.679688 3.125 20.875 3.140625 21.050781 3.21875 C 21.441406 3.382812 21.75 3.800781 21.726562 4.230469 C 21.714844 4.539062 21.53125 4.898438 21.226562 4.972656 C 21.375 5.058594 21.496094 5.191406 21.574219 5.347656 C 21.585938 5.371094 21.597656 5.398438 21.605469 5.421875 C 21.609375 5.410156 21.609375 5.394531 21.609375 5.378906 C 22.144531 5.765625 22.652344 6.195312 23.132812 6.667969 C 25.460938 8.980469 26.742188 12.054688 26.742188 15.324219 Z M 21.339844 6.625 C 21.199219 6.789062 21.007812 6.925781 20.785156 6.945312 C 20.640625 6.957031 20.496094 6.917969 20.382812 6.832031 C 20.429688 7.277344 20.222656 7.742188 19.839844 7.988281 C 19.421875 8.257812 18.851562 8.214844 18.457031 7.921875 C 18.351562 8.234375 18.195312 8.546875 17.921875 8.742188 C 17.679688 8.914062 17.347656 8.976562 17.074219 8.847656 C 17.058594 9.253906 16.820312 9.640625 16.453125 9.820312 C 16.085938 10.003906 15.636719 9.964844 15.300781 9.738281 C 15.277344 10.007812 15.183594 10.289062 14.964844 10.464844 C 14.773438 10.613281 14.503906 10.667969 14.28125 10.558594 C 14.253906 10.796875 13.882812 11.015625 13.617188 10.984375 C 13.625 10.988281 13.628906 10.992188 13.632812 10.996094 C 13.730469 11.09375 13.785156 11.234375 13.785156 11.382812 C 13.777344 12.023438 13.800781 13.113281 13.808594 13.261719 C 13.847656 13.933594 13.921875 14.605469 14.027344 15.269531 L 14.398438 15.195312 L 16.578125 14.109375 L 19.195312 15.078125 L 19.195312 11.0625 C 19.097656 11.039062 19.027344 10.949219 19.027344 10.84375 C 19.027344 10.71875 19.128906 10.617188 19.257812 10.617188 L 20.3125 10.617188 C 20.4375 10.617188 20.539062 10.71875 20.539062 10.84375 C 20.539062 10.949219 20.46875 11.039062 20.371094 11.0625 L 20.371094 15.539062 L 20.382812 15.5 L 21.523438 15.8125 L 22.132812 15.726562 C 22.265625 15.6875 25.902344 14.558594 26.597656 14.125 C 26.324219 11.332031 25.09375 8.742188 23.070312 6.730469 C 22.617188 6.28125 22.136719 5.875 21.632812 5.507812 C 21.746094 5.894531 21.597656 6.324219 21.339844 6.625 Z M 20.664062 17.039062 L 22.277344 17.039062 C 22.351562 17.03125 22.410156 16.972656 22.410156 16.898438 C 22.410156 16.820312 22.34375 16.757812 22.265625 16.757812 L 20.664062 16.757812 C 20.585938 16.757812 20.523438 16.820312 20.523438 16.898438 C 20.523438 16.976562 20.585938 17.039062 20.664062 17.039062 Z M 20.707031 18.402344 C 20.964844 18.335938 21.238281 18.300781 21.519531 18.300781 C 21.761719 18.300781 22 18.328125 22.226562 18.378906 L 22.226562 17.125 L 20.707031 17.125 Z M 19.136719 19.425781 C 19.734375 19.699219 20.582031 19.871094 21.519531 19.871094 C 22.457031 19.871094 23.304688 19.699219 23.90625 19.425781 C 23.3125 18.789062 22.464844 18.386719 21.519531 18.386719 C 20.578125 18.386719 19.730469 18.789062 19.136719 19.425781 Z M 24.179688 21.917969 C 24.558594 21.828125 24.777344 21.722656 24.777344 21.621094 C 24.777344 21.007812 24.601562 20.433594 24.300781 19.941406 C 24.191406 20.015625 24.066406 20.082031 23.933594 20.144531 C 24.125 20.714844 24.207031 21.316406 24.179688 21.917969 Z M 22.488281 22.132812 C 22.839844 22.113281 23.160156 22.082031 23.441406 22.046875 C 23.441406 21.488281 23.335938 20.9375 23.136719 20.414062 C 22.890625 20.476562 22.625 20.523438 22.34375 20.554688 C 22.457031 21.070312 22.507812 21.601562 22.488281 22.132812 Z M 22.257812 20.5625 C 22.042969 20.585938 21.816406 20.597656 21.585938 20.597656 L 21.585938 22.148438 C 21.585938 22.152344 21.582031 22.152344 21.582031 22.15625 C 21.871094 22.15625 22.144531 22.148438 22.402344 22.136719 C 22.421875 21.605469 22.375 21.078125 22.257812 20.5625 Z M 23.527344 22.035156 C 23.738281 22.007812 23.929688 21.976562 24.09375 21.941406 C 24.125 21.34375 24.042969 20.746094 23.855469 20.179688 C 23.660156 20.261719 23.449219 20.332031 23.21875 20.394531 C 23.421875 20.917969 23.523438 21.476562 23.527344 22.035156 Z M 24.257812 19.875 C 24.171875 19.738281 24.070312 19.609375 23.960938 19.488281 C 23.347656 19.777344 22.480469 19.957031 21.519531 19.957031 C 20.5625 19.957031 19.695312 19.777344 19.078125 19.488281 C 19.046875 19.523438 19.015625 19.558594 18.984375 19.597656 C 19.242188 19.789062 19.476562 20.015625 19.675781 20.265625 C 20.203125 20.421875 20.835938 20.515625 21.519531 20.515625 C 22.109375 20.515625 22.660156 20.445312 23.136719 20.328125 C 23.144531 20.324219 23.152344 20.324219 23.160156 20.324219 C 23.601562 20.210938 23.976562 20.058594 24.257812 19.875 Z M 20.742188 22.140625 C 20.984375 22.148438 21.234375 22.15625 21.5 22.15625 C 21.5 22.152344 21.5 22.152344 21.5 22.148438 L 21.5 20.601562 C 21.246094 20.597656 20.996094 20.585938 20.761719 20.558594 C 20.671875 21.070312 20.671875 21.59375 20.757812 22.101562 C 20.757812 22.117188 20.753906 22.128906 20.742188 22.140625 Z M 18.730469 23.050781 C 18.730469 23.054688 18.726562 23.0625 18.722656 23.0625 C 19.09375 23.023438 19.414062 22.972656 19.671875 22.910156 C 19.671875 22.148438 19.511719 21.386719 19.203125 20.683594 C 18.96875 20.792969 18.703125 20.890625 18.40625 20.964844 C 18.40625 20.964844 18.410156 20.96875 18.410156 20.96875 C 18.515625 21.308594 18.585938 21.65625 18.648438 22.007812 C 18.707031 22.351562 18.78125 22.699219 18.730469 23.050781 Z M 17.683594 23.121094 C 17.683594 23.132812 17.679688 23.136719 17.675781 23.144531 C 18.035156 23.128906 18.367188 23.101562 18.667969 23.070312 C 18.652344 23.0625 18.644531 23.046875 18.648438 23.027344 C 18.699219 22.675781 18.617188 22.320312 18.554688 21.976562 C 18.496094 21.644531 18.429688 21.316406 18.328125 20.992188 C 18.328125 20.988281 18.328125 20.988281 18.328125 20.984375 C 18.09375 21.039062 17.847656 21.082031 17.585938 21.113281 C 17.585938 21.113281 17.585938 21.113281 17.585938 21.117188 C 17.640625 21.78125 17.675781 22.453125 17.683594 23.121094 Z M 13.570312 22.835938 C 13.625 22.066406 13.839844 21.3125 14.199219 20.628906 C 14.0625 20.558594 13.941406 20.484375 13.839844 20.402344 C 13.382812 21.007812 13.117188 21.753906 13.117188 22.5625 C 13.117188 22.65625 13.277344 22.753906 13.570312 22.839844 C 13.570312 22.839844 13.570312 22.835938 13.570312 22.835938 Z M 4.777344 14.101562 C 4.746094 14.695312 4.675781 15.289062 4.570312 15.867188 C 4.371094 16.957031 4.105469 18.035156 3.851562 19.039062 C 3.832031 19.121094 3.8125 19.195312 3.792969 19.269531 C 4.457031 19.515625 5.308594 19.664062 6.238281 19.664062 C 7.082031 19.664062 7.863281 19.542969 8.496094 19.335938 C 8.535156 19.179688 8.574219 19.019531 8.613281 18.863281 C 8.371094 17.90625 8.125 16.894531 7.941406 15.867188 L 7.925781 15.828125 L 7.933594 15.824219 C 7.832031 15.257812 7.761719 14.679688 7.730469 14.101562 C 7.726562 13.992188 7.707031 13.1875 7.710938 12.714844 C 7.714844 12.625 7.679688 12.542969 7.621094 12.484375 C 7.570312 12.429688 7.503906 12.402344 7.429688 12.402344 L 5.082031 12.402344 C 5.007812 12.402344 4.941406 12.429688 4.886719 12.484375 C 4.828125 12.542969 4.796875 12.625 4.796875 12.714844 C 4.804688 13.1875 4.785156 13.992188 4.777344 14.101562 Z M 8.554688 11.898438 C 8.429688 12.046875 8.265625 12.164062 8.089844 12.246094 C 8.003906 12.285156 7.914062 12.316406 7.824219 12.34375 C 7.78125 12.355469 7.722656 12.390625 7.667969 12.410156 C 7.671875 12.414062 7.675781 12.417969 7.683594 12.421875 C 7.757812 12.496094 7.800781 12.601562 7.796875 12.714844 C 7.792969 13.1875 7.808594 13.988281 7.816406 14.097656 C 7.847656 14.664062 7.914062 15.238281 8.015625 15.796875 L 9.375 15.308594 C 9.484375 14.632812 9.558594 13.945312 9.597656 13.261719 C 9.605469 13.109375 9.632812 12.023438 9.625 11.378906 C 9.621094 11.320312 9.632812 11.265625 9.648438 11.210938 C 9.441406 11.09375 9.421875 10.78125 9.597656 10.632812 C 9.5 10.449219 9.5 10.234375 9.578125 10.046875 C 9.464844 10.125 9.320312 10.148438 9.1875 10.101562 C 9.136719 10.421875 9.039062 10.785156 8.714844 10.917969 C 8.871094 11.242188 8.78125 11.628906 8.554688 11.898438 Z M 9.683594 13.265625 C 9.644531 13.957031 9.570312 14.644531 9.457031 15.324219 L 9.472656 15.363281 L 9.449219 15.371094 C 9.433594 15.472656 9.417969 15.566406 9.398438 15.664062 C 9.132812 17.144531 8.769531 18.605469 8.421875 19.972656 C 8.390625 20.109375 8.355469 20.238281 8.324219 20.363281 C 9.136719 20.734375 10.351562 20.972656 11.703125 20.972656 C 12.332031 20.972656 12.925781 20.921875 13.464844 20.828125 C 13.785156 20.234375 14.261719 19.738281 14.839844 19.390625 C 14.539062 18.191406 14.238281 16.9375 14.007812 15.664062 C 13.867188 14.875 13.769531 14.066406 13.726562 13.265625 C 13.71875 13.117188 13.691406 12.023438 13.699219 11.378906 C 13.703125 11.257812 13.65625 11.136719 13.574219 11.054688 C 13.5 10.980469 13.402344 10.941406 13.300781 10.941406 L 10.109375 10.941406 C 10.003906 10.941406 9.910156 10.980469 9.835938 11.054688 C 9.753906 11.136719 9.707031 11.257812 9.707031 11.378906 C 9.71875 12.023438 9.691406 13.117188 9.683594 13.265625 Z M 19.28125 10.988281 L 20.285156 10.988281 L 20.324219 10.984375 C 20.398438 10.980469 20.457031 10.917969 20.457031 10.84375 C 20.457031 10.765625 20.390625 10.703125 20.3125 10.703125 L 19.257812 10.703125 C 19.179688 10.703125 19.113281 10.765625 19.113281 10.84375 C 19.113281 10.917969 19.171875 10.980469 19.242188 10.984375 Z M 19.195312 19.242188 L 19.195312 18.640625 L 17.996094 19.070312 C 18.324219 19.1875 18.632812 19.347656 18.914062 19.546875 C 19.003906 19.441406 19.097656 19.339844 19.195312 19.242188 Z M 19.195312 18.597656 Z M 17.902344 19.015625 L 19.113281 18.582031 L 17.902344 18.355469 Z M 17.816406 18.332031 L 17.816406 18.179688 L 17.507812 18.230469 L 17.507812 18.472656 L 17.8125 18.429688 L 17.816406 18.472656 Z M 17.507812 18.558594 L 17.507812 18.9375 C 17.613281 18.960938 17.714844 18.984375 17.816406 19.015625 L 17.816406 18.515625 Z M 17.816406 18.09375 L 17.816406 16.132812 L 15.648438 16.507812 L 15.648438 18.441406 Z M 17.421875 18.484375 L 17.421875 18.242188 L 16.886719 18.328125 L 16.886719 18.5625 Z M 16.886719 18.648438 L 16.886719 18.863281 L 16.851562 18.863281 C 17.046875 18.867188 17.234375 18.886719 17.421875 18.921875 L 17.421875 18.570312 Z M 16.800781 18.574219 L 16.800781 18.34375 L 16.152344 18.449219 L 16.152344 18.667969 Z M 16.152344 18.753906 L 16.152344 18.910156 C 16.351562 18.878906 16.550781 18.863281 16.757812 18.863281 C 16.773438 18.863281 16.785156 18.863281 16.800781 18.863281 L 16.800781 18.660156 Z M 16.066406 18.679688 L 16.066406 18.460938 L 15.648438 18.527344 L 15.648438 18.742188 Z M 15.648438 18.828125 L 15.648438 19.03125 C 15.785156 18.988281 15.925781 18.953125 16.066406 18.925781 L 16.066406 18.765625 Z M 17.816406 16.089844 Z M 17.71875 16.0625 L 17.089844 15.890625 L 15.015625 16.140625 L 15.605469 16.429688 Z M 15.5625 18.742188 L 15.5625 18.53125 L 15.3125 18.5 L 15.3125 18.71875 Z M 15.3125 18.804688 L 15.3125 19.152344 C 15.394531 19.117188 15.476562 19.085938 15.5625 19.058594 L 15.5625 18.828125 Z M 15.5625 18.445312 L 15.5625 16.503906 L 14.980469 16.21875 L 14.980469 18.375 Z M 14.980469 19.308594 C 15.0625 19.265625 15.144531 19.226562 15.226562 19.1875 L 15.226562 18.796875 L 14.980469 18.777344 Z M 15.226562 18.714844 L 15.226562 18.488281 L 14.984375 18.460938 L 14.984375 18.695312 Z M 14.222656 16.328125 C 14.425781 17.328125 14.660156 18.316406 14.894531 19.265625 L 14.894531 16.199219 Z M 14.828125 16.125 L 14.15625 15.992188 C 14.175781 16.078125 14.191406 16.160156 14.207031 16.246094 Z M 14.261719 19.933594 C 14.867188 20.238281 15.761719 20.429688 16.757812 20.429688 C 17.753906 20.429688 18.644531 20.238281 19.25 19.933594 C 18.597656 19.320312 17.722656 18.945312 16.757812 18.945312 C 16.242188 18.945312 15.753906 19.054688 15.3125 19.246094 L 15.3125 19.261719 L 15.269531 19.261719 C 14.898438 19.429688 14.558594 19.65625 14.261719 19.933594 Z M 19.195312 15.128906 L 19.183594 15.164062 L 16.585938 14.203125 L 14.429688 15.277344 L 14.042969 15.355469 C 14.058594 15.453125 14.074219 15.550781 14.09375 15.648438 C 14.109375 15.734375 14.125 15.820312 14.140625 15.902344 L 14.941406 16.0625 L 17.097656 15.800781 L 17.902344 16.023438 L 17.902344 18.265625 L 19.195312 18.511719 Z M 9.316406 15.648438 C 9.328125 15.570312 9.34375 15.488281 9.359375 15.40625 L 8.027344 15.882812 C 8.203125 16.839844 8.429688 17.785156 8.65625 18.683594 C 8.898438 17.695312 9.128906 16.675781 9.316406 15.648438 Z M 3.773438 19.347656 C 3.722656 19.546875 3.671875 19.730469 3.625 19.90625 L 3.621094 19.914062 C 3.617188 19.925781 3.613281 19.941406 3.613281 19.953125 C 3.613281 20.242188 4.984375 20.449219 6.21875 20.457031 L 6.292969 20.457031 C 6.996094 20.453125 7.746094 20.382812 8.257812 20.269531 C 8.285156 20.167969 8.3125 20.0625 8.339844 19.953125 C 8.382812 19.78125 8.429688 19.605469 8.472656 19.429688 C 7.839844 19.628906 7.070312 19.75 6.238281 19.75 C 5.304688 19.75 4.445312 19.597656 3.773438 19.347656 Z M 8.117188 21.148438 L 8.113281 21.15625 C 8.105469 21.179688 8.097656 21.199219 8.097656 21.21875 C 8.097656 21.546875 9.527344 21.90625 11.652344 21.917969 L 11.753906 21.917969 C 12.242188 21.914062 12.691406 21.894531 13.097656 21.859375 C 13.160156 21.527344 13.269531 21.214844 13.417969 20.921875 C 12.886719 21.007812 12.3125 21.058594 11.703125 21.058594 C 10.347656 21.058594 9.132812 20.816406 8.304688 20.441406 C 8.242188 20.691406 8.179688 20.925781 8.117188 21.148438 Z M 13.644531 22.863281 C 13.855469 22.921875 14.121094 22.972656 14.433594 23.019531 C 14.441406 22.289062 14.542969 21.5625 14.742188 20.859375 C 14.574219 20.800781 14.417969 20.738281 14.273438 20.667969 C 13.929688 21.320312 13.722656 22.035156 13.660156 22.769531 C 13.664062 22.777344 13.664062 22.78125 13.664062 22.789062 C 13.660156 22.808594 13.65625 22.828125 13.652344 22.847656 C 13.652344 22.855469 13.648438 22.859375 13.644531 22.863281 Z M 14.519531 23.03125 C 14.8125 23.070312 15.148438 23.105469 15.515625 23.128906 C 15.546875 22.445312 15.605469 21.765625 15.695312 21.089844 C 15.695312 21.085938 15.695312 21.085938 15.695312 21.082031 C 15.382812 21.035156 15.089844 20.96875 14.824219 20.882812 C 14.628906 21.582031 14.527344 22.304688 14.519531 23.027344 C 14.519531 23.03125 14.519531 23.03125 14.519531 23.03125 Z M 15.601562 23.132812 C 15.90625 23.152344 16.234375 23.160156 16.582031 23.164062 C 16.59375 22.496094 16.609375 21.824219 16.621094 21.15625 C 16.328125 21.152344 16.046875 21.128906 15.777344 21.09375 C 15.691406 21.769531 15.628906 22.449219 15.601562 23.132812 Z M 16.757812 21.074219 C 17.988281 21.074219 19.058594 20.777344 19.625 20.339844 C 19.527344 20.21875 19.425781 20.101562 19.3125 19.988281 C 18.691406 20.3125 17.777344 20.515625 16.757812 20.515625 C 15.738281 20.515625 14.824219 20.3125 14.203125 19.988281 C 14.089844 20.101562 13.984375 20.21875 13.886719 20.339844 C 14.453125 20.777344 15.527344 21.074219 16.757812 21.074219 Z M 16.667969 23.164062 C 16.695312 23.164062 16.726562 23.164062 16.757812 23.164062 C 17.054688 23.164062 17.339844 23.160156 17.609375 23.148438 C 17.601562 23.140625 17.597656 23.132812 17.597656 23.121094 C 17.585938 22.453125 17.554688 21.789062 17.503906 21.121094 C 17.261719 21.144531 17.011719 21.160156 16.757812 21.160156 C 16.738281 21.160156 16.722656 21.160156 16.707031 21.160156 C 16.695312 21.828125 16.679688 22.496094 16.667969 23.164062 Z M 19.757812 22.890625 C 20.167969 22.792969 20.398438 22.675781 20.398438 22.5625 C 20.398438 21.753906 20.128906 21.007812 19.675781 20.402344 C 19.5625 20.492188 19.429688 20.574219 19.28125 20.648438 C 19.59375 21.355469 19.757812 22.121094 19.757812 22.890625 Z M 20.039062 20.816406 C 20.042969 20.695312 20.058594 20.574219 20.082031 20.453125 C 19.972656 20.429688 19.863281 20.402344 19.761719 20.375 C 19.863281 20.515625 19.957031 20.664062 20.039062 20.816406 Z M 20.457031 22.125 C 20.527344 22.128906 20.601562 22.132812 20.679688 22.136719 C 20.675781 22.132812 20.675781 22.128906 20.671875 22.125 C 20.585938 21.601562 20.585938 21.074219 20.675781 20.550781 C 20.5 20.53125 20.328125 20.503906 20.167969 20.472656 C 20.136719 20.632812 20.121094 20.792969 20.125 20.957031 C 20.125 20.964844 20.125 20.96875 20.121094 20.972656 C 20.292969 21.332031 20.40625 21.71875 20.457031 22.125 Z M 23.96875 17.816406 C 24.039062 17.804688 24.089844 17.746094 24.089844 17.675781 C 24.089844 17.597656 24.023438 17.535156 23.945312 17.535156 L 22.617188 17.535156 C 22.535156 17.535156 22.472656 17.597656 22.472656 17.675781 C 22.472656 17.746094 22.523438 17.804688 22.589844 17.816406 L 22.609375 17.820312 L 23.953125 17.820312 Z M 22.625 18.488281 C 23.128906 18.664062 23.574219 18.953125 23.933594 19.328125 L 23.933594 17.90625 L 22.625 17.90625 Z M 20.285156 18.539062 L 20.285156 11.074219 L 19.28125 11.074219 L 19.28125 19.160156 C 19.574219 18.898438 19.914062 18.6875 20.285156 18.539062 Z M 13.683594 2.929688 C 13.667969 2.988281 13.65625 3.050781 13.648438 3.109375 C 13.636719 3.175781 13.640625 3.246094 13.625 3.308594 C 13.613281 3.351562 13.574219 3.359375 13.539062 3.378906 C 13.488281 3.402344 13.441406 3.425781 13.390625 3.453125 C 13.292969 3.503906 13.195312 3.558594 13.101562 3.617188 C 12.75 3.851562 12.429688 4.277344 12.609375 4.714844 C 12.621094 4.746094 12.585938 4.78125 12.558594 4.769531 C 12.0625 4.578125 11.558594 4.96875 11.246094 5.316406 C 11.078125 5.503906 10.96875 5.722656 10.984375 5.976562 C 11 6.203125 11.101562 6.417969 11.277344 6.5625 C 11.304688 6.585938 11.285156 6.625 11.257812 6.632812 C 10.710938 6.832031 10.429688 7.535156 10.691406 8.046875 C 10.710938 8.082031 10.679688 8.117188 10.644531 8.109375 C 10.339844 8.050781 10.066406 8.300781 9.980469 8.574219 C 9.867188 8.921875 10.011719 9.300781 10.160156 9.617188 C 10.171875 9.636719 10.164062 9.675781 10.132812 9.679688 C 9.71875 9.738281 9.464844 10.265625 9.6875 10.621094 C 9.699219 10.644531 9.691406 10.667969 9.671875 10.679688 C 9.519531 10.78125 9.535156 11.03125 9.679688 11.128906 C 9.703125 11.078125 9.738281 11.035156 9.773438 10.996094 C 9.863281 10.90625 9.984375 10.855469 10.105469 10.855469 L 13.296875 10.855469 C 13.367188 10.855469 13.4375 10.871094 13.496094 10.898438 C 13.503906 10.898438 13.515625 10.898438 13.527344 10.90625 C 13.75 11.015625 14.214844 10.726562 14.199219 10.488281 C 14.195312 10.457031 14.238281 10.433594 14.261719 10.449219 C 14.472656 10.589844 14.761719 10.535156 14.941406 10.371094 C 15.136719 10.1875 15.207031 9.914062 15.21875 9.65625 C 15.21875 9.617188 15.261719 9.605469 15.292969 9.625 C 15.609375 9.875 16.074219 9.925781 16.433594 9.734375 C 16.78125 9.550781 17 9.167969 16.992188 8.777344 C 16.988281 8.746094 17.027344 8.726562 17.054688 8.742188 C 17.324219 8.902344 17.675781 8.832031 17.910156 8.644531 C 18.164062 8.441406 18.300781 8.136719 18.394531 7.839844 C 18.402344 7.808594 18.441406 7.800781 18.464844 7.820312 C 18.832031 8.128906 19.390625 8.171875 19.796875 7.914062 C 20.1875 7.664062 20.378906 7.160156 20.273438 6.71875 C 20.261719 6.667969 20.324219 6.644531 20.355469 6.683594 C 20.503906 6.890625 20.800781 6.898438 21.011719 6.785156 C 21.234375 6.664062 21.398438 6.4375 21.496094 6.210938 C 21.59375 5.972656 21.621094 5.703125 21.53125 5.460938 C 21.445312 5.238281 21.265625 5.050781 21.03125 4.980469 C 20.976562 4.964844 21 4.890625 21.054688 4.898438 C 21.292969 4.933594 21.476562 4.753906 21.566406 4.550781 C 21.664062 4.332031 21.667969 4.089844 21.578125 3.867188 C 21.40625 3.449219 20.890625 3.070312 20.433594 3.300781 C 20.394531 3.320312 20.347656 3.28125 20.375 3.242188 C 20.6875 2.753906 20.273438 2.15625 19.851562 1.890625 C 19.566406 1.710938 19.207031 1.59375 18.867188 1.65625 C 18.589844 1.707031 18.328125 1.882812 18.222656 2.15625 C 18.210938 2.183594 18.175781 2.199219 18.152344 2.171875 C 17.851562 1.859375 17.402344 1.691406 16.96875 1.75 C 16.550781 1.804688 16.175781 2.0625 15.960938 2.421875 C 15.945312 2.449219 15.902344 2.453125 15.886719 2.421875 C 15.710938 2.0625 15.289062 1.894531 14.902344 1.9375 C 14.453125 1.980469 14.074219 2.28125 13.789062 2.609375 C 13.789062 2.613281 13.785156 2.613281 13.78125 2.617188 C 13.742188 2.71875 13.707031 2.824219 13.683594 2.929688 Z M 4.703125 8.65625 C 4.722656 8.679688 4.71875 8.71875 4.683594 8.726562 C 4.246094 8.828125 3.886719 9.21875 3.847656 9.667969 C 3.808594 10.121094 4.089844 10.570312 4.507812 10.742188 C 4.519531 10.75 4.527344 10.75 4.539062 10.757812 C 4.582031 10.78125 4.550781 10.851562 4.503906 10.835938 C 4.5 10.832031 4.5 10.832031 4.496094 10.832031 C 4.410156 10.789062 4.316406 10.816406 4.25 10.878906 C 4.175781 10.949219 4.152344 11.054688 4.15625 11.152344 C 4.15625 11.316406 4.214844 11.492188 4.289062 11.640625 C 4.429688 11.9375 4.664062 12.179688 4.953125 12.335938 C 4.953125 12.339844 4.953125 12.339844 4.953125 12.339844 C 4.992188 12.324219 5.035156 12.316406 5.078125 12.316406 L 7.425781 12.316406 C 7.464844 12.316406 7.5 12.320312 7.53125 12.332031 C 7.539062 12.328125 7.546875 12.332031 7.558594 12.339844 C 7.558594 12.339844 7.5625 12.339844 7.5625 12.34375 C 7.566406 12.34375 7.570312 12.347656 7.574219 12.347656 C 7.644531 12.363281 7.882812 12.238281 7.929688 12.21875 C 8.003906 12.191406 8.078125 12.15625 8.148438 12.121094 C 8.285156 12.042969 8.414062 11.941406 8.515625 11.816406 C 8.710938 11.566406 8.78125 11.203125 8.617188 10.917969 C 8.605469 10.894531 8.617188 10.863281 8.644531 10.855469 C 8.992188 10.746094 9.066406 10.339844 9.113281 10.027344 C 9.117188 10 9.15625 9.992188 9.175781 10.003906 C 9.300781 10.070312 9.457031 10.046875 9.5625 9.949219 C 9.582031 9.929688 9.605469 9.9375 9.621094 9.953125 C 9.714844 9.785156 9.871094 9.652344 10.0625 9.605469 C 9.90625 9.265625 9.769531 8.859375 9.917969 8.492188 C 10.027344 8.226562 10.289062 8.003906 10.585938 8.019531 C 10.367188 7.484375 10.636719 6.8125 11.167969 6.578125 C 11.03125 6.441406 10.941406 6.261719 10.910156 6.070312 C 10.882812 5.886719 10.910156 5.695312 10.992188 5.53125 C 11.09375 5.332031 11.261719 5.164062 11.433594 5.019531 C 11.722656 4.773438 12.117188 4.558594 12.503906 4.660156 C 12.425781 4.382812 12.527344 4.082031 12.703125 3.859375 C 12.921875 3.589844 13.238281 3.429688 13.542969 3.28125 C 13.5625 3.046875 13.613281 2.816406 13.699219 2.59375 C 13.136719 2.316406 12.371094 2.675781 12.238281 3.285156 C 12.230469 3.316406 12.1875 3.328125 12.164062 3.304688 C 11.605469 2.761719 10.550781 2.921875 10.179688 3.609375 C 10.167969 3.628906 10.140625 3.632812 10.121094 3.621094 C 9.328125 3.222656 8.265625 3.574219 7.859375 4.355469 C 7.851562 4.375 7.832031 4.378906 7.8125 4.375 C 7.472656 4.296875 7.128906 4.699219 7.273438 5.019531 C 7.285156 5.046875 7.269531 5.085938 7.234375 5.082031 C 6.804688 5.0625 6.347656 5.175781 6.042969 5.492188 C 5.753906 5.789062 5.648438 6.269531 5.859375 6.636719 C 5.871094 6.664062 5.855469 6.707031 5.820312 6.703125 C 5.347656 6.648438 4.855469 6.875 4.613281 7.289062 C 4.359375 7.707031 4.402344 8.273438 4.703125 8.65625 Z M 2.175781 15.050781 C 2.3125 15.054688 2.765625 15.058594 3.054688 15.058594 L 3.066406 15.058594 L 4.277344 15.804688 L 4.488281 15.8125 L 4.484375 15.855469 C 4.589844 15.277344 4.660156 14.6875 4.695312 14.097656 C 4.699219 13.988281 4.71875 13.1875 4.710938 12.714844 C 4.710938 12.605469 4.753906 12.5 4.828125 12.425781 C 4.839844 12.410156 4.855469 12.398438 4.867188 12.386719 C 4.527344 12.191406 4.265625 11.871094 4.136719 11.5 C 4.074219 11.3125 4.023438 11.070312 4.132812 10.890625 C 4.175781 10.820312 4.242188 10.765625 4.320312 10.742188 C 3.960938 10.519531 3.726562 10.097656 3.761719 9.667969 C 3.804688 9.203125 4.152344 8.792969 4.605469 8.660156 C 4.527344 8.550781 4.464844 8.425781 4.425781 8.292969 C 3.015625 10.261719 2.230469 12.59375 2.175781 15.050781 Z M 24.835938 21.714844 C 26.023438 19.8125 26.65625 17.617188 26.65625 15.324219 C 26.65625 14.953125 26.640625 14.585938 26.605469 14.21875 C 25.808594 14.679688 22.3125 15.761719 22.15625 15.808594 L 22.152344 15.808594 L 21.519531 15.898438 L 20.371094 15.585938 L 20.371094 18.503906 C 20.453125 18.476562 20.535156 18.449219 20.621094 18.425781 L 20.621094 17.121094 C 20.515625 17.101562 20.4375 17.007812 20.4375 16.898438 C 20.4375 16.773438 20.539062 16.671875 20.667969 16.671875 L 22.265625 16.671875 C 22.390625 16.671875 22.496094 16.773438 22.496094 16.898438 C 22.496094 17.007812 22.414062 17.101562 22.3125 17.121094 L 22.3125 18.394531 C 22.390625 18.414062 22.464844 18.4375 22.539062 18.460938 L 22.539062 17.890625 C 22.449219 17.859375 22.386719 17.773438 22.386719 17.675781 C 22.386719 17.550781 22.488281 17.449219 22.617188 17.449219 L 23.945312 17.449219 C 24.070312 17.449219 24.175781 17.550781 24.175781 17.675781 C 24.175781 17.773438 24.113281 17.859375 24.019531 17.890625 L 24.019531 19.417969 C 24.542969 20.007812 24.863281 20.777344 24.863281 21.621094 C 24.863281 21.652344 24.851562 21.683594 24.832031 21.710938 C 24.59375 22.054688 23.015625 22.242188 21.519531 22.242188 C 21.167969 22.242188 20.8125 22.230469 20.464844 22.210938 C 20.476562 22.324219 20.484375 22.441406 20.484375 22.5625 C 20.484375 23.007812 18.5625 23.25 16.757812 23.25 C 16.355469 23.25 15.949219 23.238281 15.5625 23.214844 C 15.554688 23.21875 15.542969 23.214844 15.535156 23.214844 C 14.179688 23.132812 13.03125 22.90625 13.03125 22.5625 C 13.03125 22.339844 13.050781 22.125 13.089844 21.914062 C 13.089844 21.914062 13.085938 21.914062 13.085938 21.917969 L 13.074219 21.945312 C 12.660156 21.980469 12.226562 22 11.796875 22.003906 L 11.613281 22.003906 C 9.859375 21.988281 8.011719 21.710938 8.011719 21.21875 C 8.011719 21.1875 8.019531 21.152344 8.039062 21.121094 C 8.101562 20.882812 8.167969 20.632812 8.238281 20.363281 C 7.726562 20.472656 7.023438 20.535156 6.335938 20.542969 L 6.175781 20.542969 C 4.882812 20.53125 3.527344 20.320312 3.527344 19.953125 C 3.527344 19.929688 3.53125 19.902344 3.542969 19.878906 C 3.613281 19.621094 3.6875 19.339844 3.769531 19.019531 C 4.019531 18.027344 4.28125 16.96875 4.476562 15.894531 L 4.25 15.886719 L 3.042969 15.144531 C 2.8125 15.144531 2.339844 15.144531 2.175781 15.132812 C 2.175781 15.199219 2.171875 15.261719 2.171875 15.324219 C 2.171875 18.574219 3.445312 21.625 5.757812 23.921875 C 8.070312 26.21875 11.144531 27.484375 14.414062 27.484375 C 17.683594 27.484375 20.757812 26.21875 23.070312 23.921875 C 23.75 23.246094 24.339844 22.507812 24.835938 21.714844 Z M 4.957031 16.480469 C 4.957031 15.796875 5.515625 15.242188 6.203125 15.242188 C 6.890625 15.242188 7.453125 15.796875 7.453125 16.480469 C 7.453125 17.164062 6.890625 17.722656 6.203125 17.722656 C 5.515625 17.722656 4.957031 17.164062 4.957031 16.480469 Z M 5.023438 16.480469 C 5.023438 17.128906 5.550781 17.652344 6.203125 17.652344 C 6.230469 17.652344 6.261719 17.652344 6.289062 17.648438 C 6.898438 17.609375 7.382812 17.101562 7.382812 16.480469 C 7.382812 16.453125 7.382812 16.425781 7.378906 16.398438 C 7.335938 15.789062 6.824219 15.308594 6.203125 15.308594 C 5.582031 15.308594 5.070312 15.789062 5.027344 16.398438 C 5.023438 16.425781 5.023438 16.453125 5.023438 16.480469 Z M 10.417969 16.335938 C 10.417969 15.652344 10.976562 15.09375 11.664062 15.09375 C 12.355469 15.09375 12.914062 15.652344 12.914062 16.335938 C 12.914062 17.019531 12.355469 17.574219 11.664062 17.574219 C 10.976562 17.574219 10.417969 17.019531 10.417969 16.335938 Z M 10.484375 16.335938 C 10.484375 16.980469 11.015625 17.507812 11.664062 17.507812 C 11.695312 17.507812 11.722656 17.503906 11.75 17.503906 C 12.363281 17.460938 12.847656 16.953125 12.847656 16.335938 C 12.847656 16.304688 12.84375 16.277344 12.84375 16.25 C 12.800781 15.644531 12.289062 15.164062 11.664062 15.164062 C 11.042969 15.164062 10.53125 15.640625 10.488281 16.25 C 10.488281 16.277344 10.484375 16.304688 10.484375 16.335938 Z M 10.484375 16.335938 " fill-opacity="1" fill-rule="nonzero"/></g><path fill="#000000" d="M 11.859375 16.074219 C 11.9375 16.125 11.996094 16.214844 12.003906 16.316406 L 12.65625 16.300781 C 12.644531 15.964844 12.464844 15.671875 12.195312 15.5 Z M 11.53125 16.652344 L 11.203125 17.203125 C 11.339844 17.277344 11.5 17.320312 11.664062 17.320312 C 11.832031 17.320312 11.992188 17.277344 12.128906 17.203125 L 11.804688 16.65625 C 11.761719 16.671875 11.71875 16.683594 11.671875 16.683594 C 11.621094 16.683594 11.574219 16.671875 11.53125 16.652344 Z M 11.671875 16.082031 C 11.523438 16.082031 11.402344 16.203125 11.402344 16.347656 C 11.402344 16.496094 11.523438 16.617188 11.671875 16.617188 C 11.816406 16.617188 11.9375 16.496094 11.9375 16.347656 C 11.9375 16.203125 11.816406 16.082031 11.671875 16.082031 Z M 11.144531 15.496094 C 10.871094 15.664062 10.6875 15.960938 10.675781 16.300781 L 11.335938 16.316406 C 11.34375 16.21875 11.398438 16.132812 11.472656 16.078125 Z M 10.609375 16.257812 C 10.632812 15.886719 10.859375 15.5625 11.179688 15.398438 C 11.179688 15.410156 11.183594 15.421875 11.1875 15.429688 C 11.191406 15.4375 11.195312 15.441406 11.199219 15.449219 C 11.203125 15.453125 11.203125 15.457031 11.207031 15.460938 C 11.203125 15.460938 11.203125 15.464844 11.203125 15.464844 L 11.53125 16.042969 C 11.574219 16.023438 11.621094 16.015625 11.671875 16.015625 C 11.714844 16.015625 11.757812 16.023438 11.800781 16.039062 L 12.15625 15.4375 C 12.15625 15.433594 12.160156 15.429688 12.160156 15.425781 C 12.164062 15.425781 12.164062 15.421875 12.164062 15.417969 C 12.164062 15.417969 12.167969 15.417969 12.167969 15.417969 C 12.167969 15.414062 12.167969 15.410156 12.171875 15.410156 C 12.480469 15.574219 12.699219 15.890625 12.722656 16.261719 C 12.726562 16.285156 12.726562 16.308594 12.726562 16.335938 C 12.726562 16.347656 12.726562 16.355469 12.726562 16.371094 C 12.714844 16.371094 12.707031 16.367188 12.699219 16.371094 C 12.695312 16.371094 12.6875 16.367188 12.683594 16.367188 L 12.664062 16.367188 C 12.664062 16.367188 12.660156 16.367188 12.65625 16.371094 L 12.65625 16.367188 L 12.003906 16.382812 C 11.996094 16.480469 11.941406 16.566406 11.863281 16.621094 L 12.1875 17.171875 C 12.191406 17.171875 12.191406 17.171875 12.191406 17.171875 C 12.195312 17.175781 12.195312 17.179688 12.199219 17.1875 L 12.207031 17.203125 C 12.207031 17.203125 12.207031 17.207031 12.210938 17.210938 C 12.210938 17.214844 12.214844 17.222656 12.21875 17.230469 C 12.078125 17.316406 11.914062 17.371094 11.742188 17.386719 C 11.714844 17.386719 11.691406 17.386719 11.664062 17.386719 C 11.460938 17.386719 11.269531 17.328125 11.109375 17.230469 C 11.113281 17.222656 11.117188 17.214844 11.121094 17.207031 C 11.125 17.207031 11.125 17.203125 11.125 17.203125 L 11.128906 17.199219 C 11.132812 17.191406 11.136719 17.179688 11.140625 17.171875 C 11.140625 17.171875 11.144531 17.171875 11.144531 17.171875 L 11.472656 16.621094 C 11.398438 16.566406 11.34375 16.480469 11.335938 16.382812 L 10.636719 16.367188 C 10.628906 16.363281 10.617188 16.363281 10.605469 16.363281 C 10.605469 16.355469 10.605469 16.34375 10.605469 16.335938 C 10.605469 16.308594 10.605469 16.285156 10.609375 16.257812 Z M 10.609375 16.257812 " fill-opacity="1" fill-rule="nonzero"/></svg>