<svg xmlns="http://www.w3.org/2000/svg" xmlns:xlink="http://www.w3.org/1999/xlink" width="40" zoomAndPan="magnify" viewBox="0 0 30 30.000001" height="40" preserveAspectRatio="xMidYMid meet" version="1.0"><defs><clipPath id="f226417965"><path d="M 11 22 L 15 22 L 15 29.03125 L 11 29.03125 Z M 11 22 " clip-rule="nonzero"/></clipPath><clipPath id="474dda8142"><path d="M 15 22 L 19 22 L 19 29.03125 L 15 29.03125 Z M 15 22 " clip-rule="nonzero"/></clipPath><clipPath id="9d31c95b84"><path d="M 17 2.902344 L 20 2.902344 L 20 8 L 17 8 Z M 17 2.902344 " clip-rule="nonzero"/></clipPath><clipPath id="02a7ccdc52"><path d="M 4.871094 20 L 9 20 L 9 24 L 4.871094 24 Z M 4.871094 20 " clip-rule="nonzero"/></clipPath><clipPath id="e5065e9646"><path d="M 21 20 L 25.191406 20 L 25.191406 24 L 21 24 Z M 21 20 " clip-rule="nonzero"/></clipPath></defs><path fill="#f3b17b" d="M 6.226562 20.695312 C 5.984375 20.960938 6.003906 21.371094 6.269531 21.613281 C 6.929688 22.210938 7.589844 22.808594 8.25 23.40625 C 8.515625 23.644531 8.933594 23.625 9.171875 23.359375 C 9.414062 23.09375 9.394531 22.679688 9.128906 22.441406 C 8.464844 21.84375 7.804688 21.246094 7.144531 20.648438 C 6.878906 20.410156 6.464844 20.429688 6.226562 20.695312 " fill-opacity="1" fill-rule="evenodd"/><path fill="#f8bc84" d="M 5.550781 20.640625 C 5.308594 20.90625 5.332031 21.316406 5.597656 21.558594 C 6.257812 22.15625 6.917969 22.753906 7.578125 23.351562 C 7.84375 23.589844 8.257812 23.570312 8.496094 23.304688 C 8.738281 23.039062 8.71875 22.625 8.453125 22.386719 C 7.792969 21.789062 7.132812 21.191406 6.472656 20.59375 C 6.207031 20.355469 5.792969 20.375 5.550781 20.640625 " fill-opacity="1" fill-rule="evenodd"/><path fill="#fec88e" d="M 11.574219 21.882812 C 11.960938 21.859375 12.296875 22.132812 12.316406 22.484375 C 12.335938 22.839844 12.039062 23.148438 11.652344 23.167969 L 7.699219 23.402344 C 7.308594 23.425781 6.976562 23.15625 6.957031 22.800781 C 6.933594 22.449219 7.234375 22.140625 7.621094 22.117188 L 11.574219 21.882812 " fill-opacity="1" fill-rule="evenodd"/><g clip-path="url(#f226417965)"><path fill="#fec88e" d="M 11.464844 22.417969 L 14.730469 22.5625 L 14.871094 29.03125 L 11.703125 29.03125 L 11.464844 22.417969 " fill-opacity="1" fill-rule="evenodd"/></g><g clip-path="url(#474dda8142)"><path fill="#fec88e" d="M 18.597656 22.417969 L 15.332031 22.5625 L 15.191406 29.03125 L 18.359375 29.03125 L 18.597656 22.417969 " fill-opacity="1" fill-rule="evenodd"/></g><path fill="#f3b17b" d="M 23.835938 20.695312 C 24.078125 20.960938 24.058594 21.371094 23.792969 21.613281 C 23.132812 22.210938 22.472656 22.808594 21.8125 23.40625 C 21.546875 23.644531 21.128906 23.625 20.890625 23.359375 C 20.648438 23.09375 20.667969 22.679688 20.933594 22.441406 C 21.59375 21.84375 22.257812 21.246094 22.917969 20.648438 C 23.183594 20.410156 23.597656 20.429688 23.835938 20.695312 " fill-opacity="1" fill-rule="evenodd"/><path fill="#f8bc84" d="M 24.511719 20.640625 C 24.753906 20.90625 24.730469 21.316406 24.464844 21.558594 C 23.804688 22.15625 23.144531 22.753906 22.484375 23.351562 C 22.21875 23.589844 21.804688 23.570312 21.566406 23.304688 C 21.324219 23.039062 21.34375 22.625 21.609375 22.386719 C 22.269531 21.789062 22.929688 21.191406 23.589844 20.59375 C 23.855469 20.355469 24.269531 20.375 24.511719 20.640625 " fill-opacity="1" fill-rule="evenodd"/><path fill="#fec88e" d="M 17.417969 22.886719 C 16.945312 22.949219 16.605469 23.335938 16.660156 23.742188 C 16.71875 24.148438 17.148438 24.425781 17.617188 24.363281 L 22.425781 23.714844 C 22.894531 23.652344 23.234375 23.265625 23.179688 22.859375 C 23.125 22.453125 22.695312 22.171875 22.226562 22.238281 L 17.417969 22.886719 " fill-opacity="1" fill-rule="evenodd"/><path fill="#dcdef0" d="M 11.855469 13.796875 C 13.035156 14.195312 13.886719 15.328125 13.886719 16.660156 C 13.886719 18.328125 12.558594 19.679688 10.921875 19.679688 C 9.285156 19.679688 7.957031 18.328125 7.957031 16.660156 C 7.957031 15.328125 8.808594 14.195312 9.988281 13.796875 L 11.855469 13.796875 " fill-opacity="1" fill-rule="evenodd"/><path fill="#6cc2d8" d="M 13.882812 16.480469 C 13.882812 16.542969 13.886719 16.601562 13.886719 16.660156 C 13.886719 16.707031 13.886719 16.75 13.882812 16.792969 L 7.960938 16.792969 C 7.960938 16.75 7.957031 16.707031 7.957031 16.660156 C 7.957031 16.601562 7.960938 16.542969 7.964844 16.480469 L 13.882812 16.480469 " fill-opacity="1" fill-rule="evenodd"/><path fill="#bfbfbf" d="M 11.855469 13.796875 C 13.035156 14.195312 13.886719 15.328125 13.886719 16.660156 C 13.886719 18.328125 12.558594 19.679688 10.921875 19.679688 L 10.921875 13.796875 L 11.855469 13.796875 " fill-opacity="1" fill-rule="evenodd"/><path fill="#6cc2d8" d="M 13.882812 16.480469 C 13.882812 16.542969 13.886719 16.601562 13.886719 16.660156 C 13.886719 16.707031 13.886719 16.75 13.882812 16.792969 L 10.921875 16.792969 L 10.921875 16.480469 L 13.882812 16.480469 " fill-opacity="1" fill-rule="evenodd"/><path fill="#ffcc00" d="M 9.960938 17.601562 C 10.015625 17.601562 10.058594 17.648438 10.058594 17.703125 L 10.058594 20.367188 L 9.859375 20.367188 L 9.859375 17.703125 C 9.859375 17.648438 9.902344 17.601562 9.960938 17.601562 " fill-opacity="1" fill-rule="evenodd"/><path fill="#edb91d" d="M 11.886719 17.601562 C 11.941406 17.601562 11.984375 17.648438 11.984375 17.703125 L 11.984375 20.367188 L 11.785156 20.367188 L 11.785156 17.703125 C 11.785156 17.648438 11.832031 17.601562 11.886719 17.601562 " fill-opacity="1" fill-rule="evenodd"/><path fill="#ffcc00" d="M 7.976562 16.90625 C 8.03125 16.90625 8.074219 16.953125 8.074219 17.007812 L 8.074219 20.367188 L 7.875 20.367188 L 7.875 17.007812 C 7.875 16.953125 7.921875 16.90625 7.976562 16.90625 " fill-opacity="1" fill-rule="evenodd"/><path fill="#edb91d" d="M 13.785156 16.90625 C 13.839844 16.90625 13.886719 16.953125 13.886719 17.007812 L 13.886719 20.367188 L 13.6875 20.367188 L 13.6875 17.007812 C 13.6875 16.953125 13.730469 16.90625 13.785156 16.90625 " fill-opacity="1" fill-rule="evenodd"/><path fill="#009de2" d="M 10.574219 20.367188 C 10.546875 20.367188 10.527344 20.34375 10.527344 20.316406 L 10.527344 13.8125 C 10.527344 13.78125 10.546875 13.761719 10.574219 13.761719 C 10.601562 13.761719 10.625 13.78125 10.625 13.8125 L 10.625 14.222656 L 11.21875 14.222656 L 11.21875 13.8125 C 11.21875 13.78125 11.242188 13.761719 11.269531 13.761719 C 11.296875 13.761719 11.320312 13.78125 11.320312 13.8125 L 11.320312 20.316406 C 11.320312 20.34375 11.296875 20.367188 11.269531 20.367188 C 11.046875 20.367188 10.800781 20.367188 10.574219 20.367188 Z M 10.625 14.324219 L 10.625 14.726562 L 11.21875 14.726562 L 11.21875 14.324219 Z M 10.625 14.828125 L 10.625 15.226562 L 11.21875 15.226562 L 11.21875 14.828125 Z M 10.625 15.328125 L 10.625 15.730469 L 11.21875 15.730469 L 11.21875 15.328125 Z M 10.625 15.832031 L 10.625 16.234375 L 11.21875 16.234375 L 11.21875 15.832031 Z M 10.625 16.335938 L 10.625 16.734375 L 11.21875 16.734375 L 11.21875 16.335938 Z M 10.625 16.835938 L 10.625 17.238281 L 11.21875 17.238281 L 11.21875 16.835938 Z M 10.625 17.339844 L 10.625 17.742188 L 11.21875 17.742188 L 11.21875 17.339844 Z M 10.625 17.84375 L 10.625 18.242188 L 11.21875 18.242188 L 11.21875 17.84375 Z M 10.625 18.34375 L 10.625 18.746094 L 11.21875 18.746094 L 11.21875 18.34375 Z M 10.625 18.847656 L 10.625 19.25 L 11.21875 19.25 L 11.21875 18.847656 Z M 10.625 19.351562 L 10.625 19.75 L 11.21875 19.75 L 11.21875 19.351562 Z M 10.625 19.851562 L 10.625 20.253906 L 11.21875 20.253906 L 11.21875 19.851562 L 10.625 19.851562 " fill-opacity="1" fill-rule="nonzero"/><path fill="#009de2" d="M 10.921875 14.222656 L 11.21875 14.222656 L 11.21875 13.8125 C 11.21875 13.78125 11.242188 13.761719 11.269531 13.761719 C 11.296875 13.761719 11.320312 13.78125 11.320312 13.8125 L 11.320312 20.316406 C 11.320312 20.34375 11.296875 20.367188 11.269531 20.367188 L 10.921875 20.367188 L 10.921875 20.253906 L 11.21875 20.253906 L 11.21875 19.851562 L 10.921875 19.851562 L 10.921875 19.75 L 11.21875 19.75 L 11.21875 19.351562 L 10.921875 19.351562 L 10.921875 19.25 L 11.21875 19.25 L 11.21875 18.847656 L 10.921875 18.847656 L 10.921875 18.746094 L 11.21875 18.746094 L 11.21875 18.34375 L 10.921875 18.34375 L 10.921875 18.242188 L 11.21875 18.242188 L 11.21875 17.84375 L 10.921875 17.84375 L 10.921875 17.742188 L 11.21875 17.742188 L 11.21875 17.339844 L 10.921875 17.339844 L 10.921875 17.238281 L 11.21875 17.238281 L 11.21875 16.835938 L 10.921875 16.835938 L 10.921875 16.734375 L 11.21875 16.734375 L 11.21875 16.335938 L 10.921875 16.335938 L 10.921875 16.234375 L 11.21875 16.234375 L 11.21875 15.832031 L 10.921875 15.832031 L 10.921875 15.730469 L 11.21875 15.730469 L 11.21875 15.328125 L 10.921875 15.328125 L 10.921875 15.226562 L 11.21875 15.226562 L 11.21875 14.828125 L 10.921875 14.828125 L 10.921875 14.726562 L 11.21875 14.726562 L 11.21875 14.324219 L 10.921875 14.324219 L 10.921875 14.222656 " fill-opacity="1" fill-rule="nonzero"/><path fill="#009de2" d="M 10.46875 13.796875 L 11.828125 13.796875 C 11.835938 13.796875 11.84375 13.796875 11.851562 13.792969 C 11.867188 13.785156 11.878906 13.765625 11.878906 13.746094 C 11.878906 13.511719 11.878906 13.273438 11.878906 13.039062 C 11.878906 13.011719 11.855469 12.988281 11.828125 12.988281 L 10.015625 12.988281 C 9.988281 12.988281 9.964844 13.011719 9.964844 13.039062 C 9.964844 13.273438 9.964844 13.511719 9.964844 13.746094 C 9.964844 13.765625 9.976562 13.785156 9.992188 13.792969 C 10 13.796875 10.007812 13.796875 10.015625 13.796875 Z M 10.519531 13.695312 L 10.519531 13.089844 L 10.871094 13.089844 L 10.871094 13.695312 Z M 10.417969 13.089844 L 10.417969 13.695312 L 10.066406 13.695312 L 10.066406 13.089844 Z M 11.777344 13.089844 L 11.777344 13.695312 L 11.425781 13.695312 L 11.425781 13.089844 Z M 10.972656 13.089844 L 11.324219 13.089844 L 11.324219 13.695312 L 10.972656 13.695312 L 10.972656 13.089844 " fill-opacity="1" fill-rule="nonzero"/><path fill="#009de2" d="M 10.921875 13.796875 L 11.828125 13.796875 C 11.835938 13.796875 11.84375 13.796875 11.851562 13.792969 C 11.867188 13.785156 11.878906 13.765625 11.878906 13.746094 C 11.878906 13.511719 11.878906 13.273438 11.878906 13.039062 C 11.878906 13.011719 11.855469 12.988281 11.828125 12.988281 L 10.921875 12.988281 Z M 11.777344 13.089844 L 11.777344 13.695312 L 11.425781 13.695312 L 11.425781 13.089844 Z M 10.972656 13.089844 L 11.324219 13.089844 L 11.324219 13.695312 L 10.972656 13.695312 L 10.972656 13.089844 " fill-opacity="1" fill-rule="nonzero"/><path fill="#78d8f0" d="M 14.535156 11.605469 L 14.738281 11.605469 L 15.011719 20.367188 L 14.261719 20.367188 L 14.535156 11.605469 " fill-opacity="1" fill-rule="evenodd"/><path fill="#6cc2d8" d="M 14.738281 11.605469 L 14.636719 11.605469 L 14.636719 20.367188 L 15.011719 20.367188 L 14.738281 11.605469 " fill-opacity="1" fill-rule="evenodd"/><path fill="#78d8f0" d="M 15.4375 7.832031 L 14.65625 11.40625 C 13.941406 11.277344 15.28125 7.773438 15.4375 7.832031 " fill-opacity="1" fill-rule="evenodd"/><path fill="#6cc2d8" d="M 15.4375 7.832031 L 14.65625 11.40625 C 15.355469 11.597656 15.601562 7.84375 15.4375 7.832031 " fill-opacity="1" fill-rule="evenodd"/><path fill="#6cc2d8" d="M 17.304688 13.882812 L 14.65625 11.40625 C 15.121094 10.839844 17.433594 13.773438 17.304688 13.882812 " fill-opacity="1" fill-rule="evenodd"/><path fill="#78d8f0" d="M 17.304688 13.882812 L 14.65625 11.40625 C 14.140625 11.925781 17.210938 14.019531 17.304688 13.882812 " fill-opacity="1" fill-rule="evenodd"/><path fill="#6cc2d8" d="M 11.222656 12.503906 L 14.65625 11.40625 C 14.902344 12.101562 11.253906 12.671875 11.222656 12.503906 " fill-opacity="1" fill-rule="evenodd"/><path fill="#78d8f0" d="M 11.222656 12.503906 L 14.65625 11.40625 C 14.46875 10.691406 11.15625 12.351562 11.222656 12.503906 " fill-opacity="1" fill-rule="evenodd"/><path fill="#c0c1d3" d="M 14.851562 11.03125 C 15.039062 11.144531 15.105469 11.386719 14.996094 11.578125 C 14.886719 11.769531 14.648438 11.835938 14.460938 11.726562 C 14.269531 11.617188 14.207031 11.371094 14.316406 11.179688 C 14.421875 10.988281 14.664062 10.921875 14.851562 11.03125 " fill-opacity="1" fill-rule="evenodd"/><path fill="#78d8f0" d="M 17.78125 8.21875 L 18.058594 8.21875 L 18.441406 20.367188 L 17.398438 20.367188 L 17.78125 8.21875 " fill-opacity="1" fill-rule="evenodd"/><path fill="#6cc2d8" d="M 18.058594 8.21875 L 17.917969 8.21875 L 17.917969 20.367188 L 18.441406 20.367188 L 18.058594 8.21875 " fill-opacity="1" fill-rule="evenodd"/><g clip-path="url(#9d31c95b84)"><path fill="#78d8f0" d="M 19.027344 2.984375 L 17.945312 7.941406 C 16.957031 7.761719 18.8125 2.902344 19.027344 2.984375 " fill-opacity="1" fill-rule="evenodd"/><path fill="#6cc2d8" d="M 19.027344 2.984375 L 17.945312 7.941406 C 18.917969 8.207031 19.257812 3.003906 19.027344 2.984375 " fill-opacity="1" fill-rule="evenodd"/></g><path fill="#6cc2d8" d="M 21.621094 11.375 L 17.945312 7.941406 C 18.59375 7.15625 21.796875 11.222656 21.621094 11.375 " fill-opacity="1" fill-rule="evenodd"/><path fill="#78d8f0" d="M 21.621094 11.375 L 17.945312 7.941406 C 17.234375 8.664062 21.488281 11.566406 21.621094 11.375 " fill-opacity="1" fill-rule="evenodd"/><path fill="#6cc2d8" d="M 13.1875 9.464844 L 17.945312 7.941406 C 18.289062 8.902344 13.230469 9.695312 13.1875 9.464844 " fill-opacity="1" fill-rule="evenodd"/><path fill="#78d8f0" d="M 13.1875 9.464844 L 17.945312 7.941406 C 17.6875 6.949219 13.09375 9.253906 13.1875 9.464844 " fill-opacity="1" fill-rule="evenodd"/><path fill="#c0c1d3" d="M 18.21875 7.421875 C 18.480469 7.578125 18.570312 7.917969 18.417969 8.183594 C 18.265625 8.445312 17.933594 8.539062 17.671875 8.386719 C 17.414062 8.230469 17.324219 7.890625 17.472656 7.625 C 17.625 7.363281 17.957031 7.269531 18.21875 7.421875 " fill-opacity="1" fill-rule="evenodd"/><path fill="#78d8f0" d="M 21.769531 11.605469 L 21.96875 11.605469 L 22.242188 20.367188 L 21.492188 20.367188 L 21.769531 11.605469 " fill-opacity="1" fill-rule="evenodd"/><path fill="#6cc2d8" d="M 21.96875 11.605469 L 21.867188 11.605469 L 21.867188 20.367188 L 22.242188 20.367188 L 21.96875 11.605469 " fill-opacity="1" fill-rule="evenodd"/><path fill="#78d8f0" d="M 22.667969 7.832031 L 21.886719 11.40625 C 21.171875 11.277344 22.511719 7.773438 22.667969 7.832031 " fill-opacity="1" fill-rule="evenodd"/><path fill="#6cc2d8" d="M 22.667969 7.832031 L 21.886719 11.40625 C 22.589844 11.597656 22.832031 7.84375 22.667969 7.832031 " fill-opacity="1" fill-rule="evenodd"/><path fill="#6cc2d8" d="M 24.539062 13.882812 L 21.886719 11.40625 C 22.355469 10.839844 24.664062 13.773438 24.539062 13.882812 " fill-opacity="1" fill-rule="evenodd"/><path fill="#78d8f0" d="M 24.539062 13.882812 L 21.886719 11.40625 C 21.375 11.925781 24.441406 14.019531 24.539062 13.882812 " fill-opacity="1" fill-rule="evenodd"/><path fill="#6cc2d8" d="M 18.457031 12.503906 L 21.886719 11.40625 C 22.136719 12.101562 18.484375 12.671875 18.457031 12.503906 " fill-opacity="1" fill-rule="evenodd"/><path fill="#78d8f0" d="M 18.457031 12.503906 L 21.886719 11.40625 C 21.699219 10.691406 18.386719 12.351562 18.457031 12.503906 " fill-opacity="1" fill-rule="evenodd"/><path fill="#c0c1d3" d="M 22.082031 11.03125 C 22.273438 11.144531 22.335938 11.386719 22.226562 11.578125 C 22.121094 11.769531 21.878906 11.835938 21.691406 11.726562 C 21.503906 11.617188 21.4375 11.371094 21.546875 11.179688 C 21.65625 10.988281 21.894531 10.921875 22.082031 11.03125 " fill-opacity="1" fill-rule="evenodd"/><path fill="#71a538" d="M 7.144531 18.601562 L 7.148438 19.597656 L 7.324219 19.417969 C 6.90625 18.574219 8.296875 18.402344 8.515625 18.425781 C 8.542969 18.652344 8.367188 20.121094 7.496094 19.613281 L 7.148438 19.964844 L 7.148438 20.367188 L 6.890625 20.367188 L 6.890625 19.96875 L 6.542969 19.613281 C 5.671875 20.121094 5.496094 18.652344 5.519531 18.425781 C 5.738281 18.402344 7.132812 18.574219 6.714844 19.417969 L 6.890625 19.597656 L 6.886719 18.601562 C 5.964844 18.316406 6.847656 17.175781 7.019531 17.035156 C 7.191406 17.175781 8.074219 18.320312 7.144531 18.601562 " fill-opacity="1" fill-rule="evenodd"/><path fill="#5c9538" d="M 7.144531 18.601562 L 7.148438 19.597656 L 7.324219 19.417969 C 6.90625 18.574219 8.296875 18.402344 8.515625 18.425781 C 8.542969 18.652344 8.367188 20.121094 7.496094 19.613281 L 7.148438 19.964844 L 7.148438 20.367188 L 7.019531 20.367188 L 7.019531 17.035156 C 7.191406 17.175781 8.074219 18.320312 7.144531 18.601562 " fill-opacity="1" fill-rule="evenodd"/><path fill="#dcdef0" d="M 17.222656 14 L 17.191406 17.460938 L 19.449219 18.121094 C 19.441406 18.863281 19.441406 19.601562 19.441406 20.34375 L 19.941406 20.34375 C 19.941406 19.652344 19.945312 18.957031 19.949219 18.265625 L 22.210938 18.921875 L 22.242188 15.460938 L 17.222656 14 " fill-opacity="1" fill-rule="evenodd"/><path fill="#31b0e8" d="M 17.457031 14.273438 L 18.902344 14.691406 L 18.890625 16.167969 L 17.445312 15.75 L 17.457031 14.273438 " fill-opacity="1" fill-rule="evenodd"/><path fill="#31b0e8" d="M 20.453125 15.144531 L 19.007812 14.722656 L 18.992188 16.199219 L 20.4375 16.617188 L 20.453125 15.144531 " fill-opacity="1" fill-rule="evenodd"/><path fill="#31b0e8" d="M 22 15.59375 L 20.554688 15.171875 L 20.542969 16.648438 L 21.988281 17.070312 L 22 15.59375 " fill-opacity="1" fill-rule="evenodd"/><path fill="#31b0e8" d="M 17.429688 17.328125 L 18.875 17.75 L 18.890625 16.273438 L 17.445312 15.851562 L 17.429688 17.328125 " fill-opacity="1" fill-rule="evenodd"/><path fill="#31b0e8" d="M 20.425781 18.199219 L 18.980469 17.777344 L 18.992188 16.304688 L 20.4375 16.722656 L 20.425781 18.199219 " fill-opacity="1" fill-rule="evenodd"/><path fill="#31b0e8" d="M 21.972656 18.648438 L 20.527344 18.230469 L 20.542969 16.753906 L 21.988281 17.175781 L 21.972656 18.648438 " fill-opacity="1" fill-rule="evenodd"/><path fill="#009de2" d="M 18.894531 15.9375 L 18.890625 16.167969 L 18.621094 16.089844 C 18.707031 16.035156 18.800781 15.984375 18.894531 15.9375 " fill-opacity="1" fill-rule="evenodd"/><path fill="#009de2" d="M 18.996094 15.882812 L 18.992188 16.199219 L 20.4375 16.617188 L 20.449219 15.5 C 19.921875 15.542969 19.425781 15.679688 18.996094 15.882812 " fill-opacity="1" fill-rule="evenodd"/><path fill="#009de2" d="M 20.554688 15.492188 L 20.542969 16.648438 L 21.988281 17.070312 L 22 15.628906 C 21.652344 15.539062 21.277344 15.488281 20.890625 15.484375 C 20.777344 15.480469 20.664062 15.484375 20.554688 15.492188 " fill-opacity="1" fill-rule="evenodd"/><path fill="#009de2" d="M 17.503906 17.351562 L 18.875 17.75 L 18.890625 16.273438 L 18.507812 16.164062 C 18.046875 16.480469 17.695312 16.886719 17.503906 17.351562 " fill-opacity="1" fill-rule="evenodd"/><path fill="#009de2" d="M 20.425781 18.199219 L 18.980469 17.777344 L 18.992188 16.304688 L 20.4375 16.722656 L 20.425781 18.199219 " fill-opacity="1" fill-rule="evenodd"/><path fill="#009de2" d="M 21.972656 18.648438 L 20.527344 18.230469 L 20.542969 16.753906 L 21.988281 17.175781 L 21.972656 18.648438 " fill-opacity="1" fill-rule="evenodd"/><path fill="#dcdef0" d="M 15.347656 15.121094 L 15.328125 17.3125 L 16.757812 17.726562 C 16.746094 18.597656 16.75 19.46875 16.75 20.34375 L 17.066406 20.34375 L 17.074219 17.820312 L 18.503906 18.234375 L 18.523438 16.042969 L 15.347656 15.121094 " fill-opacity="1" fill-rule="evenodd"/><path fill="#31b0e8" d="M 15.496094 15.292969 L 16.410156 15.558594 L 16.402344 16.492188 L 15.488281 16.226562 L 15.496094 15.292969 " fill-opacity="1" fill-rule="evenodd"/><path fill="#31b0e8" d="M 17.390625 15.84375 L 16.476562 15.578125 L 16.46875 16.511719 L 17.382812 16.777344 L 17.390625 15.84375 " fill-opacity="1" fill-rule="evenodd"/><path fill="#31b0e8" d="M 18.371094 16.128906 L 17.457031 15.863281 L 17.449219 16.796875 L 18.363281 17.0625 L 18.371094 16.128906 " fill-opacity="1" fill-rule="evenodd"/><path fill="#31b0e8" d="M 15.480469 17.226562 L 16.394531 17.492188 L 16.402344 16.558594 L 15.488281 16.292969 L 15.480469 17.226562 " fill-opacity="1" fill-rule="evenodd"/><path fill="#31b0e8" d="M 17.371094 17.777344 L 16.457031 17.511719 L 16.46875 16.578125 L 17.382812 16.84375 L 17.371094 17.777344 " fill-opacity="1" fill-rule="evenodd"/><path fill="#31b0e8" d="M 18.351562 18.0625 L 17.4375 17.796875 L 17.445312 16.863281 L 18.359375 17.128906 L 18.351562 18.0625 " fill-opacity="1" fill-rule="evenodd"/><path fill="#009de2" d="M 16.402344 16.34375 L 16.402344 16.492188 L 16.230469 16.441406 C 16.289062 16.410156 16.34375 16.375 16.402344 16.34375 " fill-opacity="1" fill-rule="evenodd"/><path fill="#009de2" d="M 16.46875 16.3125 L 16.46875 16.511719 L 17.382812 16.777344 L 17.390625 16.070312 C 17.054688 16.097656 16.742188 16.183594 16.46875 16.3125 " fill-opacity="1" fill-rule="evenodd"/><path fill="#009de2" d="M 17.453125 16.0625 L 17.449219 16.796875 L 18.363281 17.0625 L 18.371094 16.152344 C 18.148438 16.09375 17.914062 16.0625 17.667969 16.058594 C 17.59375 16.058594 17.523438 16.058594 17.453125 16.0625 " fill-opacity="1" fill-rule="evenodd"/><path fill="#009de2" d="M 15.527344 17.238281 L 16.394531 17.492188 L 16.402344 16.558594 L 16.160156 16.488281 C 15.871094 16.6875 15.648438 16.945312 15.527344 17.238281 " fill-opacity="1" fill-rule="evenodd"/><path fill="#009de2" d="M 17.371094 17.777344 L 16.457031 17.511719 L 16.46875 16.578125 L 17.382812 16.84375 L 17.371094 17.777344 " fill-opacity="1" fill-rule="evenodd"/><path fill="#009de2" d="M 18.351562 18.0625 L 17.4375 17.796875 L 17.445312 16.863281 L 18.359375 17.128906 L 18.351562 18.0625 " fill-opacity="1" fill-rule="evenodd"/><path fill="#71a538" d="M 22.253906 18.601562 L 22.257812 19.597656 L 22.433594 19.417969 C 22.015625 18.574219 23.410156 18.402344 23.625 18.425781 C 23.652344 18.652344 23.476562 20.121094 22.605469 19.613281 L 22.257812 19.964844 L 22.257812 20.367188 L 22 20.367188 L 22 19.96875 L 21.652344 19.613281 C 20.78125 20.121094 20.605469 18.652344 20.628906 18.425781 C 20.847656 18.402344 22.242188 18.574219 21.824219 19.417969 L 22 19.597656 L 21.996094 18.601562 C 21.074219 18.316406 21.957031 17.175781 22.128906 17.035156 C 22.300781 17.175781 23.183594 18.320312 22.253906 18.601562 " fill-opacity="1" fill-rule="evenodd"/><path fill="#5c9538" d="M 22.253906 18.601562 L 22.257812 19.597656 L 22.433594 19.417969 C 22.015625 18.574219 23.410156 18.402344 23.625 18.425781 C 23.652344 18.652344 23.476562 20.121094 22.605469 19.613281 L 22.257812 19.964844 L 22.257812 20.367188 L 22.128906 20.367188 L 22.128906 17.035156 C 22.300781 17.175781 23.183594 18.320312 22.253906 18.601562 " fill-opacity="1" fill-rule="evenodd"/><path fill="#78d8f0" d="M 8.359375 10.195312 C 8.390625 10.195312 8.417969 10.199219 8.445312 10.207031 C 8.449219 9.949219 8.65625 9.742188 8.910156 9.742188 C 8.925781 9.742188 8.941406 9.742188 8.953125 9.746094 C 8.953125 9.714844 8.949219 9.683594 8.949219 9.65625 C 8.949219 9.136719 9.367188 8.710938 9.875 8.710938 C 10.257812 8.710938 10.582031 8.945312 10.726562 9.277344 C 10.820312 9.230469 10.925781 9.203125 11.039062 9.203125 C 11.375 9.203125 11.65625 9.441406 11.734375 9.757812 C 11.757812 9.75 11.785156 9.75 11.8125 9.75 C 12.058594 9.75 12.261719 9.953125 12.261719 10.203125 C 12.261719 10.253906 12.25 10.304688 12.234375 10.351562 C 12.269531 10.339844 12.308594 10.332031 12.347656 10.332031 C 12.511719 10.332031 12.640625 10.464844 12.640625 10.632812 C 12.640625 10.796875 12.511719 10.929688 12.347656 10.929688 C 11.351562 10.929688 9.484375 10.929688 8.359375 10.929688 C 8.160156 10.929688 8 10.765625 8 10.5625 C 8 10.359375 8.160156 10.195312 8.359375 10.195312 " fill-opacity="1" fill-rule="evenodd"/><path fill="#71a538" d="M 6.578125 21.941406 C 12.933594 23.125 18.625 23.035156 23.484375 21.941406 C 23.648438 21.902344 23.792969 20.847656 23.792969 20.675781 C 23.792969 20.507812 23.652344 20.367188 23.484375 20.367188 L 6.578125 20.367188 C 6.410156 20.367188 6.269531 20.507812 6.269531 20.675781 C 6.269531 20.84375 6.410156 21.910156 6.578125 21.941406 " fill-opacity="1" fill-rule="evenodd"/><path fill="#5c9538" d="M 23.75 20.523438 C 23.695312 20.429688 23.589844 20.367188 23.472656 20.367188 L 6.585938 20.367188 C 6.46875 20.367188 6.367188 20.429688 6.3125 20.523438 C 6.367188 20.613281 6.46875 20.675781 6.585938 20.675781 L 23.472656 20.675781 C 23.589844 20.675781 23.695312 20.613281 23.75 20.523438 " fill-opacity="1" fill-rule="evenodd"/><path fill="#fec88e" d="M 11.121094 22.058594 L 11.074219 21.363281 C 11.015625 20.542969 11.625 19.957031 12.425781 20.066406 L 13.125 20.160156 C 13.921875 20.269531 14.625 21.027344 14.679688 21.847656 L 14.730469 22.546875 C 14.785156 23.367188 14.179688 23.949219 13.378906 23.839844 L 12.679688 23.746094 C 11.878906 23.636719 11.179688 22.878906 11.121094 22.058594 " fill-opacity="1" fill-rule="evenodd"/><path fill="#fec88e" d="M 8.496094 20.351562 C 8.449219 20.75 8.738281 21.113281 9.136719 21.160156 L 12.203125 21.511719 C 12.601562 21.558594 12.96875 21.269531 13.015625 20.871094 C 13.0625 20.472656 12.773438 20.105469 12.375 20.058594 L 9.308594 19.707031 C 8.90625 19.664062 8.542969 19.949219 8.496094 20.351562 " fill-opacity="1" fill-rule="evenodd"/><path fill="#fed3a3" d="M 9.023438 20.902344 C 8.867188 20.757812 8.78125 20.5625 8.808594 20.359375 C 8.835938 20.160156 8.972656 19.992188 9.160156 19.898438 L 9.464844 19.9375 C 9.792969 19.984375 10.027344 20.246094 9.992188 20.519531 C 9.953125 20.796875 9.65625 20.988281 9.332031 20.941406 L 9.023438 20.902344 " fill-opacity="1" fill-rule="evenodd"/><path fill="#fec88e" d="M 12.644531 22.886719 C 13.117188 22.949219 13.457031 23.335938 13.398438 23.742188 C 13.34375 24.148438 12.914062 24.425781 12.445312 24.363281 L 7.636719 23.714844 C 7.167969 23.652344 6.824219 23.265625 6.882812 22.859375 C 6.9375 22.453125 7.367188 22.171875 7.835938 22.238281 L 12.644531 22.886719 " fill-opacity="1" fill-rule="evenodd"/><g clip-path="url(#02a7ccdc52)"><path fill="#fec88e" d="M 5.125 20.796875 C 4.882812 21.058594 4.902344 21.472656 5.167969 21.714844 C 5.828125 22.3125 6.492188 22.90625 7.152344 23.503906 C 7.417969 23.746094 7.832031 23.726562 8.070312 23.460938 C 8.3125 23.195312 8.292969 22.78125 8.027344 22.542969 C 7.367188 21.945312 6.707031 21.347656 6.046875 20.75 C 5.78125 20.507812 5.363281 20.53125 5.125 20.796875 " fill-opacity="1" fill-rule="evenodd"/></g><path fill="#fec88e" d="M 18.941406 22.058594 L 18.988281 21.363281 C 19.046875 20.542969 18.4375 19.957031 17.636719 20.066406 L 16.9375 20.160156 C 16.140625 20.269531 15.4375 21.027344 15.382812 21.847656 L 15.332031 22.546875 C 15.277344 23.367188 15.882812 23.949219 16.683594 23.839844 L 17.382812 23.746094 C 18.183594 23.636719 18.882812 22.878906 18.941406 22.058594 " fill-opacity="1" fill-rule="evenodd"/><g clip-path="url(#e5065e9646)"><path fill="#fec88e" d="M 24.9375 20.796875 C 25.179688 21.058594 25.160156 21.472656 24.894531 21.714844 C 24.234375 22.3125 23.570312 22.90625 22.910156 23.503906 C 22.644531 23.746094 22.230469 23.726562 21.992188 23.460938 C 21.75 23.195312 21.769531 22.78125 22.035156 22.542969 C 22.695312 21.945312 23.355469 21.347656 24.015625 20.75 C 24.28125 20.507812 24.699219 20.53125 24.9375 20.796875 " fill-opacity="1" fill-rule="evenodd"/></g><path fill="#fec88e" d="M 18.488281 21.882812 C 18.101562 21.859375 17.765625 22.132812 17.746094 22.484375 C 17.726562 22.839844 18.023438 23.148438 18.410156 23.167969 L 22.363281 23.402344 C 22.753906 23.425781 23.085938 23.15625 23.105469 22.800781 C 23.128906 22.449219 22.828125 22.140625 22.441406 22.117188 L 18.488281 21.882812 " fill-opacity="1" fill-rule="evenodd"/><path fill="#fec88e" d="M 21.566406 20.351562 C 21.613281 20.75 21.324219 21.113281 20.925781 21.160156 L 17.859375 21.511719 C 17.457031 21.558594 17.09375 21.269531 17.046875 20.871094 C 17 20.472656 17.289062 20.105469 17.6875 20.058594 L 20.753906 19.707031 C 21.15625 19.664062 21.519531 19.949219 21.566406 20.351562 " fill-opacity="1" fill-rule="evenodd"/><path fill="#fed3a3" d="M 21.039062 20.902344 C 21.195312 20.757812 21.28125 20.5625 21.253906 20.359375 C 21.226562 20.160156 21.089844 19.992188 20.902344 19.898438 L 20.597656 19.9375 C 20.269531 19.984375 20.035156 20.246094 20.070312 20.519531 C 20.109375 20.796875 20.40625 20.988281 20.730469 20.941406 L 21.039062 20.902344 " fill-opacity="1" fill-rule="evenodd"/></svg>