<svg xmlns="http://www.w3.org/2000/svg" xmlns:xlink="http://www.w3.org/1999/xlink" width="40" zoomAndPan="magnify" viewBox="0 0 30 30.000001" height="40" preserveAspectRatio="xMidYMid meet" version="1.0"><defs><clipPath id="b0bc47bd27"><path d="M 14 2.902344 L 17 2.902344 L 17 5 L 14 5 Z M 14 2.902344 " clip-rule="nonzero"/></clipPath><clipPath id="37976f2a55"><path d="M 1.921875 23 L 5 23 L 5 25 L 1.921875 25 Z M 1.921875 23 " clip-rule="nonzero"/></clipPath><clipPath id="974327536e"><path d="M 25.917969 21.667969 L 28.046875 21.667969 L 28.046875 23.753906 L 25.917969 23.753906 Z M 25.917969 21.667969 " clip-rule="nonzero"/></clipPath><clipPath id="4e6889adc7"><path d="M 26 21.785156 L 28 21.785156 L 28 23.753906 L 26 23.753906 Z M 26 21.785156 " clip-rule="nonzero"/></clipPath><clipPath id="cc27410009"><path d="M 13 24 L 19 24 L 19 28.304688 L 13 28.304688 Z M 13 24 " clip-rule="nonzero"/></clipPath><clipPath id="11f4f1c2e4"><path d="M 13.167969 24.5625 L 18.996094 24.5625 L 18.996094 28.296875 L 13.167969 28.296875 Z M 13.167969 24.5625 " clip-rule="nonzero"/></clipPath></defs><path fill="#577527" d="M 14.757812 4.800781 C 14.738281 4.800781 14.722656 4.800781 14.707031 4.800781 C 14.84375 4.820312 14.945312 4.933594 14.945312 5.074219 C 14.945312 5.214844 14.84375 5.328125 14.707031 5.347656 C 14.722656 5.347656 14.738281 5.347656 14.757812 5.347656 C 14.90625 5.347656 15.03125 5.226562 15.03125 5.074219 C 15.03125 4.921875 14.90625 4.800781 14.757812 4.800781 " fill-opacity="1" fill-rule="nonzero"/><path fill="#577527" d="M 14.382812 4.914062 C 14.382812 4.914062 14.546875 4.792969 14.734375 4.84375 C 14.734375 4.84375 14.800781 4.875 14.84375 4.941406 C 14.84375 4.941406 14.648438 4.804688 14.382812 4.914062 Z M 14.390625 5.195312 C 14.332031 5.195312 14.289062 5.140625 14.289062 5.070312 C 14.289062 5 14.332031 4.945312 14.390625 4.945312 C 14.445312 4.945312 14.488281 5 14.488281 5.070312 C 14.488281 5.140625 14.445312 5.195312 14.390625 5.195312 Z M 14.640625 4.800781 C 14.425781 4.800781 14.257812 4.921875 14.257812 5.074219 C 14.257812 5.226562 14.421875 5.347656 14.640625 5.347656 C 14.789062 5.347656 14.914062 5.226562 14.914062 5.074219 C 14.914062 4.921875 14.789062 4.800781 14.640625 4.800781 " fill-opacity="1" fill-rule="nonzero"/><path fill="#577527" d="M 14.410156 5.070312 C 14.410156 5.113281 14.386719 5.144531 14.359375 5.144531 C 14.332031 5.144531 14.308594 5.113281 14.308594 5.070312 C 14.308594 5.03125 14.332031 4.996094 14.359375 4.996094 C 14.386719 4.996094 14.410156 5.03125 14.410156 5.070312 " fill-opacity="1" fill-rule="nonzero"/><g clip-path="url(#b0bc47bd27)"><path fill="#577527" d="M 15.417969 4.695312 C 15.417969 4.695312 15.417969 4.699219 15.410156 4.707031 C 15.390625 4.730469 15.335938 4.792969 15.265625 4.847656 C 15.191406 4.902344 15.105469 4.949219 15.019531 4.949219 C 15.007812 4.949219 14.996094 4.949219 14.988281 4.949219 C 14.976562 4.933594 14.957031 4.90625 14.929688 4.882812 C 14.914062 4.863281 14.894531 4.84375 14.878906 4.828125 C 14.871094 4.820312 14.867188 4.816406 14.863281 4.8125 L 16.777344 2.988281 Z M 16.835938 2.929688 C 16.828125 2.917969 16.8125 2.914062 16.804688 2.914062 C 16.789062 2.914062 16.78125 2.917969 16.773438 2.921875 C 16.769531 2.925781 16.765625 2.929688 16.765625 2.929688 L 16.761719 2.929688 L 14.78125 4.820312 L 14.800781 4.828125 L 14.8125 4.832031 L 14.820312 4.839844 C 14.820312 4.839844 14.820312 4.839844 14.828125 4.84375 L 14.828125 4.847656 C 14.851562 4.859375 14.878906 4.890625 14.90625 4.921875 L 14.910156 4.925781 C 14.921875 4.941406 14.929688 4.960938 14.9375 4.96875 C 14.945312 4.980469 14.953125 4.988281 14.953125 4.988281 L 14.957031 4.996094 L 14.96875 4.996094 C 14.984375 5 15 5 15.019531 5 C 15.136719 5 15.246094 4.929688 15.328125 4.863281 C 15.40625 4.796875 15.460938 4.726562 15.460938 4.726562 L 16.839844 2.992188 L 16.84375 2.984375 C 16.84375 2.976562 16.84375 2.96875 16.84375 2.964844 C 16.84375 2.953125 16.839844 2.941406 16.835938 2.929688 " fill-opacity="1" fill-rule="nonzero"/><path fill="#577527" d="M 14.914062 4.871094 L 16.816406 2.953125 L 15.472656 4.675781 C 15.472656 4.675781 15.222656 5.007812 14.972656 4.972656 L 14.914062 4.871094 " fill-opacity="1" fill-rule="nonzero"/></g><path fill="#577527" d="M 11.757812 4.125 L 11.753906 4.113281 C 11.753906 4.113281 11.75 4.105469 11.75 4.09375 C 11.75 4.085938 11.753906 4.074219 11.761719 4.0625 C 11.769531 4.050781 11.785156 4.042969 11.800781 4.042969 C 11.804688 4.042969 11.808594 4.042969 11.8125 4.046875 C 11.816406 4.046875 11.824219 4.046875 11.832031 4.050781 C 11.851562 4.050781 11.875 4.054688 11.90625 4.0625 C 11.96875 4.074219 12.058594 4.089844 12.160156 4.109375 C 12.371094 4.148438 12.644531 4.199219 12.917969 4.25 C 13.464844 4.351562 14.007812 4.457031 14.007812 4.457031 C 14.015625 4.457031 14.089844 4.472656 14.183594 4.523438 C 14.28125 4.574219 14.394531 4.671875 14.472656 4.835938 L 14.425781 4.859375 C 14.292969 4.570312 14.03125 4.515625 14 4.507812 C 14 4.507812 13.996094 4.507812 13.996094 4.507812 C 13.996094 4.507812 13.894531 4.488281 13.734375 4.457031 C 13.574219 4.425781 13.355469 4.386719 13.121094 4.34375 C 12.65625 4.253906 12.132812 4.15625 11.910156 4.117188 C 11.890625 4.113281 11.871094 4.109375 11.855469 4.105469 L 14.296875 4.953125 L 14.277344 5 L 11.757812 4.125 " fill-opacity="1" fill-rule="nonzero"/><path fill="#577527" d="M 14.359375 4.910156 L 11.816406 4.085938 L 14.007812 4.480469 C 14.007812 4.480469 14.390625 4.585938 14.441406 4.863281 L 14.359375 4.910156 " fill-opacity="1" fill-rule="nonzero"/><path fill="#577527" d="M 14.355469 8.058594 C 14.332031 8.058594 14.320312 8.046875 14.304688 8.027344 C 14.300781 8.019531 14.296875 8.019531 14.296875 8.015625 C 14.296875 8.011719 14.296875 8.007812 14.292969 8.003906 C 14.292969 7.996094 14.292969 7.988281 14.292969 7.980469 C 14.289062 7.960938 14.289062 7.933594 14.285156 7.902344 C 14.28125 7.835938 14.277344 7.746094 14.277344 7.636719 C 14.269531 7.421875 14.265625 7.140625 14.261719 6.863281 C 14.257812 6.316406 14.257812 5.777344 14.257812 5.75 C 14.257812 5.746094 14.253906 5.742188 14.253906 5.730469 C 14.253906 5.695312 14.257812 5.613281 14.289062 5.523438 C 14.320312 5.433594 14.382812 5.332031 14.492188 5.261719 L 14.519531 5.304688 C 14.421875 5.371094 14.367188 5.457031 14.339844 5.539062 C 14.3125 5.621094 14.308594 5.699219 14.308594 5.730469 C 14.308594 5.742188 14.308594 5.746094 14.308594 5.746094 L 14.308594 5.75 C 14.308594 5.75 14.308594 5.867188 14.308594 6.046875 C 14.308594 6.230469 14.3125 6.476562 14.3125 6.730469 C 14.320312 7.246094 14.328125 7.800781 14.339844 7.960938 C 14.34375 7.976562 14.34375 7.992188 14.347656 7.996094 L 14.671875 5.28125 L 14.722656 5.289062 L 14.394531 8.027344 C 14.394531 8.03125 14.394531 8.035156 14.386719 8.042969 C 14.382812 8.050781 14.371094 8.058594 14.355469 8.058594 " fill-opacity="1" fill-rule="nonzero"/><path fill="#577527" d="M 14.589844 5.3125 L 14.332031 8.027344 L 14.296875 7.738281 L 14.273438 5.71875 C 14.273438 5.71875 14.292969 5.378906 14.5 5.289062 L 14.589844 5.3125 " fill-opacity="1" fill-rule="nonzero"/><path fill="#577527" d="M 15.980469 4.839844 L 15.382812 4.839844 C 15.382812 4.839844 15.367188 4.859375 15.335938 4.886719 L 15.953125 4.886719 C 15.953125 4.886719 16.035156 4.886719 16.066406 4.925781 L 15.289062 4.925781 C 15.269531 4.941406 15.242188 4.957031 15.214844 4.972656 L 16.070312 4.972656 C 16.070312 4.972656 16.0625 5.03125 16.039062 5.058594 L 15.054688 5.058594 C 15.058594 5.125 15.042969 5.273438 14.863281 5.339844 L 15.039062 5.339844 C 15.039062 5.332031 15.042969 5.328125 15.042969 5.324219 C 15.046875 5.320312 15.050781 5.320312 15.050781 5.320312 C 15.054688 5.316406 15.0625 5.3125 15.066406 5.3125 C 15.074219 5.308594 15.085938 5.308594 15.101562 5.304688 C 15.128906 5.300781 15.164062 5.300781 15.207031 5.300781 C 15.265625 5.300781 15.316406 5.304688 15.34375 5.3125 C 15.351562 5.3125 15.359375 5.3125 15.371094 5.324219 C 15.371094 5.328125 15.375 5.332031 15.375 5.339844 L 15.789062 5.339844 C 15.789062 5.339844 15.976562 5.324219 16.089844 5.078125 C 16.203125 4.832031 15.980469 4.839844 15.980469 4.839844 " fill-opacity="1" fill-rule="nonzero"/><path fill="#577527" d="M 15.105469 5.367188 L 15.140625 5.363281 L 15.078125 13.050781 L 15.429688 13.054688 L 15.355469 5.339844 C 15.355469 5.328125 15.289062 5.320312 15.207031 5.320312 C 15.125 5.320312 15.058594 5.328125 15.058594 5.339844 L 14.929688 13.046875 L 14.996094 13.046875 L 15.105469 5.367188 " fill-opacity="1" fill-rule="nonzero"/><path fill="#577527" d="M 4.578125 24.199219 C 4.585938 24.214844 4.59375 24.226562 4.605469 24.238281 C 4.550781 24.113281 4.597656 23.964844 4.71875 23.894531 C 4.839844 23.824219 4.992188 23.859375 5.074219 23.96875 C 5.066406 23.953125 5.058594 23.9375 5.050781 23.925781 C 4.976562 23.792969 4.808594 23.75 4.679688 23.824219 C 4.546875 23.898438 4.503906 24.066406 4.578125 24.199219 " fill-opacity="1" fill-rule="nonzero"/><path fill="#577527" d="M 4.863281 24.464844 C 4.863281 24.464844 4.675781 24.386719 4.625 24.195312 C 4.625 24.195312 4.621094 24.125 4.65625 24.050781 C 4.65625 24.050781 4.636719 24.289062 4.863281 24.464844 Z M 5.101562 24.320312 C 5.132812 24.367188 5.105469 24.433594 5.046875 24.46875 C 4.984375 24.503906 4.914062 24.492188 4.886719 24.445312 C 4.859375 24.398438 4.886719 24.328125 4.945312 24.292969 C 5.003906 24.261719 5.074219 24.273438 5.101562 24.320312 Z M 4.636719 24.300781 C 4.742188 24.484375 4.933594 24.570312 5.0625 24.496094 C 5.195312 24.417969 5.21875 24.214844 5.109375 24.027344 C 5.035156 23.894531 4.867188 23.851562 4.738281 23.925781 C 4.605469 24.003906 4.5625 24.167969 4.636719 24.300781 " fill-opacity="1" fill-rule="nonzero"/><path fill="#577527" d="M 4.984375 24.363281 C 5.019531 24.34375 5.058594 24.347656 5.074219 24.371094 C 5.089844 24.394531 5.070312 24.433594 5.035156 24.453125 C 5 24.472656 4.960938 24.46875 4.945312 24.445312 C 4.933594 24.421875 4.949219 24.382812 4.984375 24.363281 " fill-opacity="1" fill-rule="nonzero"/><g clip-path="url(#37976f2a55)"><path fill="#577527" d="M 4.15625 23.675781 C 4.15625 23.675781 4.160156 23.675781 4.167969 23.675781 C 4.199219 23.683594 4.28125 23.699219 4.363281 23.734375 C 4.449219 23.769531 4.535156 23.820312 4.578125 23.894531 C 4.582031 23.90625 4.585938 23.914062 4.589844 23.925781 C 4.582031 23.941406 4.570312 23.972656 4.558594 24.007812 C 4.550781 24.03125 4.542969 24.054688 4.539062 24.078125 C 4.539062 24.085938 4.539062 24.09375 4.539062 24.101562 L 2.003906 23.347656 Z M 1.925781 23.328125 C 1.917969 23.339844 1.921875 23.355469 1.925781 23.363281 C 1.933594 23.375 1.941406 23.378906 1.949219 23.382812 C 1.953125 23.386719 1.957031 23.390625 1.960938 23.390625 L 4.585938 24.167969 L 4.582031 24.144531 L 4.578125 24.132812 L 4.582031 24.125 C 4.582031 24.125 4.582031 24.121094 4.582031 24.113281 L 4.582031 24.109375 C 4.582031 24.085938 4.59375 24.046875 4.609375 24.007812 L 4.613281 24.003906 C 4.617188 23.984375 4.628906 23.96875 4.632812 23.957031 C 4.640625 23.941406 4.640625 23.933594 4.640625 23.933594 L 4.644531 23.925781 L 4.644531 23.914062 C 4.636719 23.898438 4.628906 23.882812 4.621094 23.871094 C 4.5625 23.765625 4.445312 23.707031 4.347656 23.671875 C 4.25 23.636719 4.164062 23.625 4.164062 23.625 L 1.976562 23.292969 L 1.96875 23.292969 C 1.960938 23.296875 1.957031 23.300781 1.949219 23.300781 C 1.9375 23.308594 1.929688 23.316406 1.925781 23.328125 " fill-opacity="1" fill-rule="nonzero"/><path fill="#577527" d="M 4.5625 24.023438 L 1.957031 23.332031 L 4.113281 23.640625 C 4.113281 23.640625 4.523438 23.691406 4.617188 23.925781 L 4.5625 24.023438 " fill-opacity="1" fill-rule="nonzero"/></g><path fill="#577527" d="M 5.496094 27.140625 L 5.488281 27.152344 C 5.484375 27.152344 5.480469 27.15625 5.472656 27.164062 C 5.464844 27.167969 5.453125 27.171875 5.441406 27.171875 C 5.425781 27.171875 5.410156 27.160156 5.402344 27.144531 C 5.402344 27.140625 5.402344 27.140625 5.398438 27.132812 C 5.398438 27.128906 5.394531 27.121094 5.390625 27.113281 C 5.386719 27.097656 5.375 27.074219 5.367188 27.042969 C 5.34375 26.984375 5.3125 26.898438 5.277344 26.800781 C 5.207031 26.597656 5.117188 26.335938 5.023438 26.070312 C 4.839844 25.546875 4.65625 25.023438 4.65625 25.023438 C 4.652344 25.015625 4.628906 24.941406 4.625 24.835938 C 4.621094 24.726562 4.648438 24.574219 4.75 24.429688 L 4.792969 24.457031 C 4.613281 24.714844 4.695312 24.972656 4.703125 25 C 4.703125 25.003906 4.707031 25.003906 4.707031 25.003906 C 4.707031 25.003906 4.738281 25.105469 4.792969 25.257812 C 4.847656 25.414062 4.921875 25.625 5 25.847656 C 5.15625 26.296875 5.332031 26.800781 5.410156 27.015625 C 5.417969 27.035156 5.425781 27.050781 5.429688 27.066406 L 4.941406 24.523438 L 4.992188 24.511719 L 5.496094 27.140625 " fill-opacity="1" fill-rule="nonzero"/><path fill="#577527" d="M 4.871094 24.488281 L 5.433594 27.113281 L 4.679688 25.007812 C 4.679688 25.007812 4.578125 24.625 4.789062 24.441406 L 4.871094 24.488281 " fill-opacity="1" fill-rule="nonzero"/><path fill="#577527" d="M 7.59375 22.917969 C 7.601562 22.9375 7.597656 22.957031 7.589844 22.980469 C 7.585938 22.984375 7.582031 22.988281 7.582031 22.992188 C 7.578125 22.992188 7.578125 22.996094 7.574219 22.996094 C 7.570312 23 7.5625 23.007812 7.554688 23.011719 C 7.539062 23.023438 7.515625 23.039062 7.488281 23.058594 C 7.433594 23.09375 7.359375 23.140625 7.265625 23.199219 C 7.085938 23.308594 6.84375 23.453125 6.605469 23.597656 C 6.136719 23.875 5.671875 24.144531 5.648438 24.160156 C 5.644531 24.160156 5.640625 24.164062 5.632812 24.167969 C 5.601562 24.1875 5.527344 24.222656 5.433594 24.242188 C 5.34375 24.261719 5.226562 24.257812 5.109375 24.199219 L 5.132812 24.152344 C 5.238281 24.207031 5.339844 24.207031 5.425781 24.191406 C 5.511719 24.175781 5.578125 24.140625 5.605469 24.125 C 5.613281 24.117188 5.621094 24.113281 5.621094 24.113281 C 5.621094 24.113281 5.722656 24.054688 5.878906 23.964844 C 6.035156 23.871094 6.246094 23.746094 6.46875 23.617188 C 6.90625 23.355469 7.382812 23.070312 7.511719 22.980469 C 7.527344 22.96875 7.539062 22.960938 7.542969 22.957031 L 5.035156 24.03125 L 5.015625 23.984375 L 7.542969 22.898438 C 7.546875 22.898438 7.550781 22.898438 7.558594 22.898438 C 7.570312 22.898438 7.582031 22.902344 7.59375 22.917969 " fill-opacity="1" fill-rule="nonzero"/><path fill="#577527" d="M 5.101562 24.089844 L 7.574219 22.953125 L 7.34375 23.128906 L 5.613281 24.160156 C 5.613281 24.160156 5.308594 24.3125 5.128906 24.175781 L 5.101562 24.089844 " fill-opacity="1" fill-rule="nonzero"/><path fill="#577527" d="M 4 23.113281 L 4.300781 23.632812 C 4.300781 23.632812 4.324219 23.636719 4.363281 23.648438 L 4.054688 23.117188 C 4.054688 23.117188 4.015625 23.042969 4.03125 22.996094 L 4.421875 23.671875 C 4.445312 23.683594 4.46875 23.695312 4.496094 23.710938 L 4.070312 22.972656 C 4.070312 22.972656 4.125 22.945312 4.160156 22.957031 L 4.652344 23.808594 C 4.707031 23.773438 4.84375 23.710938 4.992188 23.835938 L 4.902344 23.683594 C 4.898438 23.6875 4.890625 23.6875 4.886719 23.6875 C 4.882812 23.683594 4.878906 23.683594 4.878906 23.683594 C 4.871094 23.679688 4.871094 23.675781 4.867188 23.671875 C 4.859375 23.667969 4.851562 23.65625 4.84375 23.648438 C 4.824219 23.625 4.804688 23.59375 4.785156 23.558594 C 4.753906 23.507812 4.734375 23.460938 4.726562 23.433594 C 4.722656 23.421875 4.71875 23.417969 4.722656 23.402344 C 4.726562 23.398438 4.730469 23.394531 4.734375 23.390625 L 4.53125 23.03125 C 4.53125 23.03125 4.421875 22.878906 4.152344 22.902344 C 3.882812 22.925781 4 23.113281 4 23.113281 " fill-opacity="1" fill-rule="nonzero"/><path fill="#577527" d="M 4.890625 23.609375 L 4.871094 23.582031 L 11.535156 19.792969 L 11.367188 19.484375 L 4.746094 23.410156 C 4.734375 23.414062 4.761719 23.476562 4.800781 23.546875 C 4.84375 23.617188 4.882812 23.671875 4.890625 23.664062 L 11.609375 19.925781 L 11.578125 19.867188 L 4.890625 23.609375 " fill-opacity="1" fill-rule="nonzero"/><path fill="#577527" d="M 25.90625 23.984375 C 25.917969 23.972656 25.921875 23.957031 25.929688 23.941406 C 25.847656 24.050781 25.695312 24.085938 25.574219 24.015625 C 25.457031 23.945312 25.40625 23.796875 25.460938 23.671875 C 25.453125 23.683594 25.441406 23.695312 25.433594 23.710938 C 25.359375 23.84375 25.402344 24.011719 25.535156 24.085938 C 25.664062 24.164062 25.832031 24.117188 25.90625 23.984375 " fill-opacity="1" fill-rule="nonzero"/><path fill="#577527" d="M 25.996094 23.605469 C 25.996094 23.605469 26.019531 23.808594 25.882812 23.945312 C 25.882812 23.945312 25.820312 23.988281 25.742188 23.992188 C 25.742188 23.992188 25.957031 23.890625 25.996094 23.605469 Z M 25.75 23.46875 C 25.777344 23.421875 25.847656 23.410156 25.90625 23.445312 C 25.96875 23.480469 25.992188 23.546875 25.964844 23.59375 C 25.9375 23.640625 25.867188 23.652344 25.808594 23.617188 C 25.746094 23.585938 25.722656 23.515625 25.75 23.46875 Z M 25.96875 23.882812 C 26.074219 23.699219 26.050781 23.492188 25.921875 23.414062 C 25.789062 23.339844 25.601562 23.417969 25.492188 23.609375 C 25.417969 23.742188 25.460938 23.910156 25.59375 23.984375 C 25.722656 24.058594 25.890625 24.015625 25.96875 23.882812 " fill-opacity="1" fill-rule="nonzero"/><path fill="#577527" d="M 25.847656 23.550781 C 25.8125 23.53125 25.792969 23.492188 25.808594 23.46875 C 25.824219 23.445312 25.863281 23.441406 25.898438 23.460938 C 25.933594 23.480469 25.949219 23.519531 25.9375 23.542969 C 25.921875 23.566406 25.882812 23.570312 25.847656 23.550781 " fill-opacity="1" fill-rule="nonzero"/><path fill="#577527" d="M 25.667969 24.613281 C 25.667969 24.613281 25.664062 24.609375 25.660156 24.601562 C 25.652344 24.574219 25.625 24.492188 25.613281 24.402344 C 25.601562 24.3125 25.605469 24.210938 25.648438 24.136719 C 25.652344 24.128906 25.660156 24.121094 25.664062 24.113281 C 25.679688 24.109375 25.714844 24.105469 25.75 24.097656 C 25.777344 24.09375 25.800781 24.085938 25.824219 24.078125 C 25.832031 24.074219 25.835938 24.074219 25.84375 24.070312 L 26.460938 26.648438 Z M 26.484375 26.726562 C 26.496094 26.726562 26.507812 26.714844 26.511719 26.707031 C 26.519531 26.695312 26.519531 26.6875 26.519531 26.679688 C 26.519531 26.671875 26.519531 26.667969 26.519531 26.667969 L 26.519531 26.664062 L 25.878906 23.996094 L 25.859375 24.011719 L 25.84375 24.019531 C 25.84375 24.019531 25.839844 24.023438 25.835938 24.027344 L 25.832031 24.027344 C 25.808594 24.039062 25.769531 24.046875 25.726562 24.054688 L 25.722656 24.054688 C 25.703125 24.058594 25.683594 24.058594 25.671875 24.058594 C 25.65625 24.0625 25.648438 24.0625 25.648438 24.0625 L 25.636719 24.0625 L 25.632812 24.070312 C 25.621094 24.085938 25.609375 24.097656 25.601562 24.113281 C 25.542969 24.214844 25.550781 24.347656 25.566406 24.449219 C 25.585938 24.554688 25.617188 24.632812 25.617188 24.632812 L 26.425781 26.703125 L 26.429688 26.707031 C 26.4375 26.710938 26.441406 26.714844 26.449219 26.71875 C 26.460938 26.722656 26.46875 26.726562 26.484375 26.726562 " fill-opacity="1" fill-rule="nonzero"/><path fill="#577527" d="M 25.765625 24.089844 L 26.46875 26.699219 L 25.660156 24.671875 C 25.660156 24.671875 25.496094 24.285156 25.652344 24.089844 L 25.765625 24.089844 " fill-opacity="1" fill-rule="nonzero"/><g clip-path="url(#974327536e)"><path fill="#577527" d="M 27.988281 21.714844 L 28 21.71875 C 28.003906 21.71875 28.011719 21.722656 28.019531 21.726562 C 28.027344 21.730469 28.035156 21.738281 28.042969 21.75 C 28.046875 21.761719 28.046875 21.78125 28.039062 21.792969 C 28.035156 21.800781 28.035156 21.800781 28.03125 21.804688 C 28.027344 21.808594 28.023438 21.8125 28.015625 21.820312 C 28.003906 21.835938 27.988281 21.855469 27.96875 21.878906 C 27.929688 21.929688 27.871094 21.996094 27.800781 22.078125 C 27.664062 22.238281 27.484375 22.449219 27.300781 22.664062 C 26.941406 23.085938 26.578125 23.507812 26.578125 23.507812 C 26.574219 23.511719 26.523438 23.570312 26.433594 23.625 C 26.339844 23.683594 26.199219 23.738281 26.019531 23.722656 L 26.023438 23.667969 C 26.335938 23.699219 26.519531 23.5 26.539062 23.476562 C 26.539062 23.472656 26.539062 23.472656 26.539062 23.472656 C 26.539062 23.472656 26.609375 23.394531 26.714844 23.269531 C 26.820312 23.144531 26.964844 22.976562 27.121094 22.792969 C 27.429688 22.433594 27.773438 22.03125 27.921875 21.851562 C 27.933594 21.839844 27.945312 21.824219 27.957031 21.8125 L 26.007812 23.507812 L 25.972656 23.46875 L 27.988281 21.714844 " fill-opacity="1" fill-rule="nonzero"/></g><g clip-path="url(#4e6889adc7)"><path fill="#577527" d="M 26.011719 23.585938 L 27.996094 21.785156 L 26.558594 23.492188 C 26.558594 23.492188 26.273438 23.777344 26.011719 23.683594 L 26.011719 23.585938 " fill-opacity="1" fill-rule="nonzero"/></g><path fill="#577527" d="M 23.296875 22.007812 C 23.304688 21.988281 23.324219 21.984375 23.351562 21.980469 C 23.355469 21.976562 23.359375 21.980469 23.363281 21.980469 C 23.367188 21.980469 23.371094 21.980469 23.375 21.984375 C 23.378906 21.984375 23.386719 21.988281 23.394531 21.992188 C 23.414062 22 23.4375 22.011719 23.46875 22.027344 C 23.527344 22.054688 23.605469 22.097656 23.699219 22.148438 C 23.886719 22.25 24.132812 22.390625 24.375 22.527344 C 24.847656 22.792969 25.316406 23.0625 25.339844 23.078125 C 25.339844 23.078125 25.347656 23.082031 25.355469 23.085938 C 25.386719 23.105469 25.453125 23.148438 25.515625 23.21875 C 25.578125 23.292969 25.636719 23.394531 25.640625 23.523438 L 25.589844 23.527344 C 25.585938 23.410156 25.535156 23.320312 25.476562 23.253906 C 25.421875 23.1875 25.355469 23.148438 25.328125 23.128906 C 25.320312 23.125 25.316406 23.121094 25.316406 23.121094 L 25.3125 23.121094 C 25.3125 23.121094 25.210938 23.0625 25.054688 22.972656 C 24.898438 22.882812 24.683594 22.761719 24.460938 22.636719 C 24.015625 22.382812 23.535156 22.113281 23.386719 22.046875 C 23.371094 22.039062 23.359375 22.03125 23.355469 22.03125 C 23.355469 22.03125 23.351562 22.03125 23.351562 22.03125 L 25.535156 23.671875 L 25.503906 23.714844 L 23.304688 22.058594 C 23.300781 22.058594 23.296875 22.054688 23.292969 22.042969 C 23.289062 22.039062 23.285156 22.023438 23.296875 22.007812 " fill-opacity="1" fill-rule="nonzero"/><path fill="#577527" d="M 25.550781 23.585938 L 23.335938 22.007812 L 23.601562 22.117188 L 25.359375 23.105469 C 25.359375 23.105469 25.640625 23.292969 25.613281 23.519531 L 25.550781 23.585938 " fill-opacity="1" fill-rule="nonzero"/><path fill="#577527" d="M 25.257812 25.03125 L 25.558594 24.511719 C 25.558594 24.511719 25.550781 24.484375 25.542969 24.445312 L 25.234375 24.980469 C 25.234375 24.980469 25.191406 25.054688 25.144531 25.0625 L 25.53125 24.386719 C 25.53125 24.359375 25.527344 24.332031 25.527344 24.300781 L 25.101562 25.039062 C 25.101562 25.039062 25.054688 25.003906 25.042969 24.96875 L 25.535156 24.117188 C 25.476562 24.085938 25.355469 24 25.386719 23.808594 L 25.300781 23.960938 C 25.304688 23.964844 25.308594 23.96875 25.3125 23.972656 C 25.3125 23.976562 25.3125 23.980469 25.3125 23.984375 C 25.3125 23.988281 25.3125 23.992188 25.3125 24 C 25.308594 24.007812 25.304688 24.019531 25.300781 24.03125 C 25.289062 24.058594 25.273438 24.089844 25.25 24.128906 C 25.222656 24.179688 25.195312 24.21875 25.171875 24.242188 C 25.164062 24.246094 25.164062 24.253906 25.148438 24.257812 C 25.144531 24.257812 25.136719 24.257812 25.132812 24.253906 L 25.128906 24.253906 L 24.925781 24.613281 C 24.925781 24.613281 24.847656 24.78125 25 25.003906 C 25.15625 25.226562 25.257812 25.03125 25.257812 25.03125 " fill-opacity="1" fill-rule="nonzero"/><path fill="#577527" d="M 25.242188 24.007812 L 25.226562 24.039062 L 18.628906 20.140625 L 18.445312 20.441406 L 25.144531 24.234375 C 25.152344 24.242188 25.191406 24.1875 25.234375 24.117188 C 25.273438 24.046875 25.300781 23.984375 25.289062 23.980469 L 18.707031 20.011719 L 18.671875 20.070312 L 25.242188 24.007812 " fill-opacity="1" fill-rule="nonzero"/><path fill="#577527" d="M 7.011719 18.691406 C 7.011719 18.691406 7.160156 18.234375 6.804688 18.09375 C 6.804688 18.09375 6.492188 17.496094 6.144531 18.101562 C 6.144531 18.101562 5.816406 17.925781 5.824219 18.34375 C 5.824219 18.34375 5.488281 18.269531 5.566406 18.644531 C 5.566406 18.644531 4.976562 18.585938 5.25 19.167969 C 5.25 19.167969 4.957031 19.316406 5.0625 19.675781 C 5.171875 20.03125 5.410156 20.117188 5.410156 20.117188 C 5.410156 20.117188 5.253906 20.308594 5.421875 20.59375 C 5.59375 20.882812 5.863281 20.738281 5.863281 20.738281 C 5.863281 20.738281 6.058594 21.171875 6.53125 20.875 C 6.53125 20.875 6.601562 21.136719 6.851562 21.171875 C 7.105469 21.207031 7.386719 20.933594 7.210938 20.390625 C 7.210938 20.390625 7.335938 19.945312 7.023438 19.84375 C 7.023438 19.84375 7.085938 19.539062 6.914062 19.25 C 6.914062 19.25 7.25 19.007812 7.011719 18.691406 " fill-opacity="1" fill-rule="nonzero"/><path fill="#577527" d="M 7.039062 18.90625 C 7.039062 18.90625 7.21875 19.230469 7.589844 19.203125 C 7.964844 19.175781 8.5 18.996094 8.5 18.996094 L 8.59375 19.386719 C 8.59375 19.386719 7.789062 19.324219 7.519531 19.65625 C 7.25 19.992188 7.136719 20.121094 7.136719 20.121094 L 7.035156 20.042969 C 7.035156 20.042969 7.390625 19.800781 7.335938 19.59375 C 7.285156 19.386719 6.886719 19.554688 6.886719 19.554688 L 6.828125 19.378906 C 6.828125 19.378906 7.28125 19.390625 7.242188 19.269531 C 7.203125 19.148438 6.90625 19.078125 6.90625 19.078125 L 7.039062 18.90625 " fill-opacity="1" fill-rule="nonzero"/><path fill="#577527" d="M 19.933594 24.414062 C 19.933594 24.414062 19.464844 24.515625 19.519531 24.890625 C 19.519531 24.890625 19.164062 25.460938 19.855469 25.460938 C 19.855469 25.460938 19.867188 25.835938 20.226562 25.621094 C 20.226562 25.621094 20.332031 25.949219 20.613281 25.695312 C 20.613281 25.695312 20.859375 26.234375 21.226562 25.707031 C 21.226562 25.707031 21.5 25.886719 21.753906 25.613281 C 22.011719 25.34375 21.964844 25.09375 21.964844 25.09375 C 21.964844 25.09375 22.207031 25.132812 22.371094 24.84375 C 22.535156 24.550781 22.273438 24.386719 22.273438 24.386719 C 22.273438 24.386719 22.550781 24.003906 22.058594 23.738281 C 22.058594 23.738281 22.25 23.546875 22.152344 23.3125 C 22.054688 23.074219 21.679688 22.96875 21.300781 23.390625 C 21.300781 23.390625 20.851562 23.503906 20.921875 23.824219 C 20.921875 23.824219 20.628906 23.925781 20.464844 24.21875 C 20.464844 24.21875 20.085938 24.050781 19.933594 24.414062 " fill-opacity="1" fill-rule="nonzero"/><path fill="#577527" d="M 20.101562 24.28125 C 20.101562 24.28125 20.292969 23.964844 20.085938 23.652344 C 19.875 23.34375 19.449219 22.96875 19.449219 22.96875 L 19.742188 22.6875 C 19.742188 22.6875 20.089844 23.421875 20.511719 23.488281 C 20.933594 23.554688 21.105469 23.589844 21.105469 23.589844 L 21.085938 23.71875 C 21.085938 23.71875 20.699219 23.53125 20.546875 23.679688 C 20.394531 23.828125 20.738281 24.089844 20.738281 24.089844 L 20.621094 24.230469 C 20.621094 24.230469 20.402344 23.832031 20.316406 23.925781 C 20.230469 24.019531 20.320312 24.3125 20.320312 24.3125 L 20.101562 24.28125 " fill-opacity="1" fill-rule="nonzero"/><path fill="#577527" d="M 18.222656 10.234375 C 18.222656 10.234375 18.546875 10.59375 18.84375 10.355469 C 18.84375 10.355469 19.515625 10.382812 19.167969 9.78125 C 19.167969 9.78125 19.484375 9.582031 19.121094 9.378906 C 19.121094 9.378906 19.351562 9.121094 18.992188 9.003906 C 18.992188 9.003906 19.335938 8.523438 18.695312 8.46875 C 18.695312 8.46875 18.710938 8.140625 18.351562 8.054688 C 17.988281 7.96875 17.796875 8.132812 17.796875 8.132812 C 17.796875 8.132812 17.710938 7.898438 17.375 7.90625 C 17.042969 7.910156 17.03125 8.214844 17.03125 8.214844 C 17.03125 8.214844 16.558594 8.167969 16.582031 8.726562 C 16.582031 8.726562 16.320312 8.65625 16.164062 8.859375 C 16.007812 9.0625 16.105469 9.441406 16.660156 9.558594 C 16.660156 9.558594 16.980469 9.894531 17.222656 9.671875 C 17.222656 9.671875 17.457031 9.878906 17.789062 9.875 C 17.789062 9.875 17.835938 10.285156 18.222656 10.234375 " fill-opacity="1" fill-rule="nonzero"/><path fill="#577527" d="M 18.027344 10.15625 C 18.027344 10.15625 17.65625 10.148438 17.492188 10.484375 C 17.332031 10.824219 17.21875 11.378906 17.21875 11.378906 L 16.832031 11.265625 C 16.832031 11.265625 17.289062 10.597656 17.136719 10.195312 C 16.984375 9.796875 16.925781 9.632812 16.925781 9.632812 L 17.050781 9.582031 C 17.050781 9.582031 17.078125 10.011719 17.285156 10.070312 C 17.488281 10.128906 17.542969 9.699219 17.542969 9.699219 L 17.722656 9.734375 C 17.722656 9.734375 17.488281 10.121094 17.609375 10.148438 C 17.734375 10.175781 17.941406 9.953125 17.941406 9.953125 L 18.027344 10.15625 " fill-opacity="1" fill-rule="nonzero"/><path fill="#577527" d="M 7.511719 10.777344 L 7.847656 11.050781 C 7.875 11.027344 7.898438 11 7.914062 10.964844 C 7.964844 10.851562 7.914062 10.71875 7.800781 10.671875 C 7.691406 10.621094 7.5625 10.671875 7.511719 10.777344 " fill-opacity="1" fill-rule="nonzero"/><path fill="#577527" d="M 7.804688 10.972656 L 7.820312 10.832031 L 12.488281 11.269531 L 12.472656 11.410156 L 7.804688 10.972656 " fill-opacity="1" fill-rule="nonzero"/><path fill="#577527" d="M 6.441406 15.160156 L 6.457031 15.015625 L 9.257812 15.304688 L 9.242188 15.445312 L 6.441406 15.160156 " fill-opacity="1" fill-rule="nonzero"/><path fill="#577527" d="M 9.949219 13.792969 L 9.230469 13.179688 L 9.320312 13.070312 L 10.042969 13.683594 L 10 13.71875 L 9.949219 13.792969 " fill-opacity="1" fill-rule="nonzero"/><path fill="#577527" d="M 8.292969 17.617188 L 7.574219 16.800781 L 7.679688 16.703125 L 8.402344 17.523438 L 8.324219 17.589844 L 8.292969 17.617188 " fill-opacity="1" fill-rule="nonzero"/><path fill="#ffffff" d="M 7.070312 10.625 L 5.6875 15.132812 L 7.371094 17.273438 L 9.515625 12.5625 L 7.070312 10.625 " fill-opacity="1" fill-rule="nonzero"/><path fill="#577527" d="M 8.410156 12.820312 L 7.921875 12.394531 L 7.738281 12.878906 L 8.21875 13.304688 Z M 7.171875 12.492188 L 6.765625 12.136719 L 6.625 12.570312 L 7.011719 12.933594 Z M 8.285156 13.363281 L 8.742188 13.761719 L 8.941406 13.285156 L 8.476562 12.878906 Z M 7.886719 12.253906 L 8.082031 11.734375 L 7.660156 11.382812 L 7.476562 11.894531 Z M 8.0625 13.921875 L 8.5 14.332031 L 8.707031 13.84375 L 8.253906 13.445312 Z M 7.378906 11.917969 L 6.957031 11.550781 L 6.792969 12.050781 L 7.203125 12.40625 Z M 7.269531 12.46875 L 7.671875 12.820312 L 7.855469 12.335938 L 7.445312 11.976562 Z M 8.445312 12.738281 L 8.652344 12.210938 L 8.148438 11.789062 L 7.953125 12.3125 Z M 7.40625 11.835938 L 7.589844 11.324219 L 7.148438 10.957031 L 6.984375 11.464844 Z M 6.226562 15.113281 L 5.921875 14.746094 L 5.808594 15.09375 L 6.097656 15.464844 Z M 8.511719 12.796875 L 8.976562 13.203125 L 9.203125 12.667969 L 8.722656 12.265625 Z M 7.84375 14.484375 L 8.261719 14.898438 L 8.464844 14.414062 L 8.03125 14.003906 Z M 7.605469 15.078125 L 8.007812 15.511719 L 8.226562 14.980469 L 7.808594 14.566406 Z M 7.390625 15.621094 L 7.773438 16.0625 L 7.96875 15.59375 L 7.574219 15.164062 Z M 7.183594 16.140625 L 7.554688 16.585938 L 7.738281 16.148438 L 7.355469 15.707031 Z M 7.347656 17.070312 L 7.515625 16.675781 L 7.148438 16.230469 L 6.996094 16.617188 Z M 8.1875 13.386719 L 7.707031 12.964844 L 7.535156 13.421875 L 8 13.859375 Z M 7.964844 13.945312 L 7.503906 13.507812 L 7.328125 13.972656 L 7.777344 14.417969 Z M 7.078125 12.992188 L 7.46875 13.359375 L 7.640625 12.902344 L 7.238281 12.550781 Z M 7.746094 14.503906 L 7.292969 14.058594 L 7.113281 14.542969 L 7.542969 15.011719 Z M 6.6875 14.082031 L 7.050781 14.476562 L 7.230469 13.996094 L 6.851562 13.621094 Z M 6.882812 13.535156 L 7.261719 13.910156 L 7.4375 13.445312 L 7.046875 13.078125 Z M 6.503906 14.59375 L 6.851562 14.996094 L 7.015625 14.5625 L 6.65625 14.171875 Z M 6.289062 15.1875 L 6.160156 15.542969 L 6.488281 15.964844 L 6.625 15.597656 Z M 6.589844 14.101562 L 6.25 13.730469 L 6.117188 14.144531 L 6.441406 14.519531 Z M 6.789062 13.558594 L 6.421875 13.195312 L 6.277344 13.640625 L 6.621094 14.011719 Z M 6.40625 14.609375 L 6.085938 14.238281 L 5.953125 14.652344 L 6.257812 15.023438 Z M 7.511719 15.09375 L 7.078125 14.628906 L 6.914062 15.070312 L 7.332031 15.546875 Z M 7.296875 15.636719 L 6.882812 15.15625 L 6.722656 15.582031 L 7.125 16.070312 Z M 6.6875 15.671875 L 6.546875 16.042969 L 6.9375 16.542969 L 7.089844 16.15625 Z M 6.820312 15.085938 L 6.46875 14.683594 L 6.320312 15.097656 L 6.660156 15.507812 Z M 6.980469 13.015625 L 6.597656 12.65625 L 6.453125 13.109375 L 6.820312 13.46875 L 6.980469 13.015625 " fill-opacity="1" fill-rule="nonzero"/><path fill="#577527" d="M 7.375 17.222656 L 5.734375 15.121094 L 7.09375 10.738281 L 9.382812 12.628906 Z M 7.347656 17.324219 L 7.445312 17.269531 L 9.558594 12.617188 L 9.597656 12.527344 L 7.148438 10.539062 L 7.03125 10.535156 L 5.652344 15.152344 L 7.347656 17.324219 " fill-opacity="1" fill-rule="nonzero"/><path fill="#577527" d="M 13.238281 27.757812 L 13.304688 27.332031 C 13.269531 27.316406 13.234375 27.3125 13.195312 27.316406 C 13.074219 27.328125 12.984375 27.441406 13 27.5625 C 13.011719 27.679688 13.117188 27.769531 13.238281 27.757812 " fill-opacity="1" fill-rule="nonzero"/><path fill="#577527" d="M 13.257812 27.40625 L 13.128906 27.464844 L 11.171875 23.1875 L 11.300781 23.128906 L 13.257812 27.40625 " fill-opacity="1" fill-rule="nonzero"/><path fill="#577527" d="M 17.550781 26.496094 L 17.421875 26.558594 L 16.269531 23.980469 L 16.398438 23.921875 L 17.550781 26.496094 " fill-opacity="1" fill-rule="nonzero"/><path fill="#577527" d="M 14.621094 24.132812 L 14.449219 25.066406 L 14.308594 25.039062 L 14.480469 24.105469 L 14.527344 24.125 L 14.621094 24.132812 " fill-opacity="1" fill-rule="nonzero"/><path fill="#577527" d="M 18.746094 23.660156 L 18.402344 24.695312 L 18.265625 24.648438 L 18.613281 23.613281 L 18.710938 23.644531 L 18.746094 23.660156 " fill-opacity="1" fill-rule="nonzero"/><g clip-path="url(#cc27410009)"><path fill="#ffffff" d="M 13.328125 28.21875 L 17.910156 27.167969 L 18.910156 24.636719 L 13.773438 25.125 L 13.328125 28.21875 " fill-opacity="1" fill-rule="nonzero"/></g><path fill="#577527" d="M 14.550781 25.957031 L 14.425781 26.59375 L 14.9375 26.511719 L 15.0625 25.878906 Z M 14.886719 27.199219 L 14.78125 27.726562 L 15.222656 27.632812 L 15.34375 27.117188 Z M 15.078125 25.792969 L 15.195312 25.199219 L 14.6875 25.261719 L 14.566406 25.867188 Z M 14.320312 26.695312 L 13.777344 26.785156 L 13.683594 27.328125 L 14.21875 27.234375 Z M 15.671875 25.707031 L 15.808594 25.121094 L 15.28125 25.1875 L 15.164062 25.78125 Z M 14.289062 27.304688 L 14.179688 27.855469 L 14.691406 27.746094 L 14.796875 27.214844 Z M 14.816406 27.125 L 14.917969 26.597656 L 14.410156 26.683594 L 14.304688 27.21875 Z M 14.464844 25.96875 L 13.902344 26.050781 L 13.792969 26.699219 L 14.339844 26.609375 Z M 14.199219 27.320312 L 13.667969 27.414062 L 13.574219 27.984375 L 14.09375 27.875 Z M 17.621094 26.707031 L 17.453125 27.160156 L 17.8125 27.082031 L 17.988281 26.644531 Z M 14.480469 25.882812 L 14.597656 25.273438 L 14.019531 25.347656 L 13.914062 25.964844 Z M 16.269531 25.621094 L 16.417969 25.046875 L 15.898438 25.109375 L 15.761719 25.695312 Z M 16.898438 25.527344 L 17.074219 24.964844 L 16.503906 25.035156 L 16.355469 25.605469 Z M 17.472656 25.441406 L 17.664062 24.890625 L 17.164062 24.953125 L 16.992188 25.515625 Z M 18.027344 25.363281 L 18.230469 24.816406 L 17.757812 24.878906 L 17.566406 25.429688 Z M 18.75 24.753906 L 18.320312 24.808594 L 18.121094 25.347656 L 18.535156 25.289062 Z M 15.148438 25.867188 L 15.023438 26.496094 L 15.507812 26.417969 L 15.652344 25.792969 Z M 15.742188 25.78125 L 15.597656 26.402344 L 16.085938 26.320312 L 16.246094 25.707031 Z M 15.367188 27.027344 L 15.488281 26.503906 L 15.007812 26.585938 L 14.902344 27.109375 Z M 16.335938 25.695312 L 16.175781 26.308594 L 16.683594 26.222656 L 16.871094 25.617188 Z M 16.5 26.824219 L 16.65625 26.3125 L 16.152344 26.394531 L 16.019531 26.910156 Z M 15.929688 26.925781 L 16.0625 26.410156 L 15.574219 26.492188 L 15.453125 27.011719 Z M 17.03125 26.730469 L 17.207031 26.222656 L 16.75 26.296875 L 16.59375 26.808594 Z M 17.652344 26.617188 L 18.023438 26.550781 L 18.226562 26.054688 L 17.839844 26.117188 Z M 16.5625 26.898438 L 16.417969 27.378906 L 16.839844 27.289062 L 17 26.820312 Z M 15.996094 27 L 15.867188 27.496094 L 16.324219 27.398438 L 16.472656 26.914062 Z M 17.09375 26.800781 L 16.933594 27.269531 L 17.359375 27.179688 L 17.527344 26.726562 Z M 16.964844 25.601562 L 16.777344 26.207031 L 17.238281 26.132812 L 17.445312 25.53125 Z M 17.535156 25.519531 L 17.332031 26.117188 L 17.777344 26.042969 L 17.996094 25.449219 Z M 17.871094 26.027344 L 18.261719 25.964844 L 18.496094 25.378906 L 18.089844 25.4375 Z M 17.300781 26.207031 L 17.125 26.710938 L 17.558594 26.636719 L 17.742188 26.132812 Z M 15.433594 27.101562 L 15.3125 27.613281 L 15.777344 27.515625 L 15.90625 27.015625 L 15.433594 27.101562 " fill-opacity="1" fill-rule="nonzero"/><g clip-path="url(#11f4f1c2e4)"><path fill="#577527" d="M 18.863281 24.65625 L 17.875 27.132812 L 13.410156 28.140625 L 13.898438 25.207031 Z M 18.964844 24.628906 L 18.871094 24.570312 L 13.800781 25.058594 L 13.800781 25.0625 L 13.796875 25.058594 L 13.703125 25.070312 L 13.210938 28.191406 L 13.265625 28.296875 L 17.941406 27.1875 L 18.964844 24.628906 " fill-opacity="1" fill-rule="nonzero"/></g><path fill="#577527" d="M 25.015625 14.351562 L 24.613281 14.503906 C 24.617188 14.542969 24.628906 14.578125 24.652344 14.609375 C 24.726562 14.707031 24.863281 14.726562 24.960938 14.65625 C 25.058594 14.585938 25.082031 14.449219 25.015625 14.351562 " fill-opacity="1" fill-rule="nonzero"/><path fill="#577527" d="M 24.699219 14.507812 L 24.816406 14.59375 L 22.101562 18.429688 L 21.988281 18.347656 L 24.699219 14.507812 " fill-opacity="1" fill-rule="nonzero"/><path fill="#577527" d="M 21.769531 11.230469 L 21.882812 11.3125 L 20.238281 13.605469 L 20.121094 13.523438 L 21.769531 11.230469 " fill-opacity="1" fill-rule="nonzero"/><path fill="#577527" d="M 21.191406 14.960938 L 22.082031 14.644531 L 22.128906 14.777344 L 21.242188 15.097656 L 21.230469 15.042969 L 21.191406 14.960938 " fill-opacity="1" fill-rule="nonzero"/><path fill="#577527" d="M 18.722656 11.613281 L 19.785156 11.394531 L 19.816406 11.535156 L 18.75 11.75 L 18.726562 11.652344 L 18.722656 11.613281 " fill-opacity="1" fill-rule="nonzero"/><path fill="#ffffff" d="M 25.367188 14.042969 L 22.167969 10.585938 L 19.480469 10.980469 L 22.472656 15.199219 L 25.367188 14.042969 " fill-opacity="1" fill-rule="nonzero"/><path fill="#577527" d="M 22.800781 14.109375 L 23.414062 13.898438 L 23.085938 13.496094 L 22.480469 13.703125 Z M 23.707031 13.199219 L 24.214844 13.023438 L 23.910156 12.6875 L 23.40625 12.839844 Z M 22.398438 13.734375 L 21.824219 13.929688 L 22.136719 14.339844 L 22.71875 14.140625 Z M 23.554688 13.9375 L 23.90625 14.367188 L 24.417969 14.175781 L 24.070312 13.761719 Z M 22.023438 13.257812 L 21.453125 13.433594 L 21.773438 13.859375 L 22.34375 13.664062 Z M 24.097656 13.664062 L 24.625 13.480469 L 24.273438 13.089844 L 23.761719 13.265625 Z M 23.679688 13.296875 L 23.171875 13.46875 L 23.5 13.871094 L 24.011719 13.691406 Z M 22.855469 14.179688 L 23.207031 14.628906 L 23.824219 14.398438 L 23.472656 13.96875 Z M 24.152344 13.734375 L 24.5 14.144531 L 25.039062 13.945312 L 24.6875 13.550781 Z M 21.914062 11.066406 L 22.386719 10.984375 L 22.144531 10.710938 L 21.675781 10.777344 Z M 22.773438 14.207031 L 22.1875 14.410156 L 22.539062 14.875 L 23.125 14.65625 Z M 21.652344 12.785156 L 21.082031 12.945312 L 21.398438 13.363281 L 21.96875 13.1875 Z M 21.257812 12.285156 L 20.683594 12.414062 L 21.027344 12.871094 L 21.597656 12.714844 Z M 20.894531 11.824219 L 20.324219 11.9375 L 20.628906 12.339844 L 21.199219 12.210938 Z M 20.550781 11.382812 L 19.980469 11.480469 L 20.269531 11.863281 L 20.839844 11.753906 Z M 19.664062 11.0625 L 19.921875 11.40625 L 20.492188 11.308594 L 20.234375 10.984375 Z M 22.425781 13.636719 L 23.03125 13.429688 L 22.722656 13.046875 L 22.109375 13.234375 Z M 22.054688 13.164062 L 22.664062 12.976562 L 22.347656 12.59375 L 21.738281 12.761719 Z M 23.320312 12.867188 L 22.808594 13.023438 L 23.113281 13.398438 L 23.621094 13.226562 Z M 21.683594 12.691406 L 22.292969 12.523438 L 21.964844 12.121094 L 21.347656 12.261719 Z M 22.574219 11.980469 L 22.054688 12.101562 L 22.378906 12.496094 L 22.890625 12.355469 Z M 22.949219 12.425781 L 22.4375 12.570312 L 22.75 12.953125 L 23.261719 12.796875 Z M 22.226562 11.566406 L 21.703125 11.667969 L 21.996094 12.027344 L 22.515625 11.910156 Z M 21.820312 11.082031 L 21.578125 10.792969 L 21.050781 10.867188 L 21.296875 11.171875 Z M 22.605469 11.890625 L 23.097656 11.777344 L 22.808594 11.453125 L 22.320312 11.546875 Z M 22.980469 12.332031 L 23.472656 12.195312 L 23.160156 11.847656 L 22.667969 11.960938 Z M 22.257812 11.476562 L 22.742188 11.382812 L 22.453125 11.058594 L 21.976562 11.140625 Z M 21.289062 12.191406 L 21.90625 12.050781 L 21.609375 11.6875 L 20.988281 11.808594 Z M 20.929688 11.734375 L 21.550781 11.613281 L 21.265625 11.261719 L 20.640625 11.367188 Z M 21.203125 11.1875 L 20.953125 10.882812 L 20.328125 10.96875 L 20.582031 11.292969 Z M 21.644531 11.59375 L 22.167969 11.492188 L 21.882812 11.15625 L 21.359375 11.246094 Z M 23.347656 12.769531 L 23.851562 12.617188 L 23.535156 12.265625 L 23.039062 12.402344 L 23.347656 12.769531 " fill-opacity="1" fill-rule="nonzero"/><path fill="#577527" d="M 19.523438 11.011719 L 22.152344 10.632812 L 25.257812 14.007812 L 22.480469 15.050781 Z M 19.449219 10.9375 L 19.445312 11.050781 L 22.402344 15.210938 L 22.40625 15.210938 L 22.402344 15.210938 L 22.460938 15.289062 L 25.402344 14.15625 L 25.464844 14.058594 L 22.167969 10.546875 L 19.449219 10.9375 " fill-opacity="1" fill-rule="nonzero"/><path fill="#577527" d="M 22.191406 17.679688 C 22.191406 21.546875 19.070312 24.679688 15.21875 24.679688 C 11.367188 24.679688 8.246094 21.546875 8.246094 17.679688 C 8.246094 13.816406 11.367188 10.683594 15.21875 10.683594 C 19.070312 10.683594 22.191406 13.816406 22.191406 17.679688 " fill-opacity="1" fill-rule="nonzero"/><path fill="#ffffff" d="M 19.640625 21 C 19.113281 21.34375 19.488281 21.4375 19.300781 21.625 C 19.113281 21.8125 18.957031 22.46875 19.394531 21.9375 C 19.828125 21.40625 20.078125 20.5625 20.078125 20.5625 C 19.828125 20.5625 20.171875 20.65625 19.640625 21 " fill-opacity="1" fill-rule="nonzero"/><path fill="#ffffff" d="M 13.4375 11.585938 C 13.949219 11.441406 14.3125 11.296875 14.550781 11.183594 C 13.921875 11.257812 13.320312 11.417969 12.757812 11.65625 C 12.277344 11.9375 12.257812 12.03125 12.257812 12.03125 C 12.257812 12.03125 12.328125 11.902344 13.4375 11.585938 " fill-opacity="1" fill-rule="nonzero"/><path fill="#ffffff" d="M 14.035156 12.710938 C 14.488281 12.734375 14.5 12.628906 14.5 12.628906 C 14.488281 12.464844 14.410156 12.417969 14.292969 12.3125 C 14.175781 12.207031 14.328125 12.171875 14.328125 12.171875 C 14.046875 12.125 14.164062 12.335938 14.210938 12.417969 C 14.257812 12.5 14.035156 12.710938 14.035156 12.710938 " fill-opacity="1" fill-rule="nonzero"/><path fill="#ffffff" d="M 13.648438 12.640625 C 13.929688 12.722656 13.988281 12.441406 13.988281 12.441406 C 14.070312 12.289062 13.367188 12.558594 13.648438 12.640625 " fill-opacity="1" fill-rule="nonzero"/><path fill="#ffffff" d="M 9.8125 20.21875 C 9.953125 19.71875 9.859375 19.5625 9.859375 19.5625 L 9.65625 19.53125 C 9.546875 19.09375 9.097656 19.015625 9.097656 19.015625 C 9.066406 18.640625 8.832031 18.609375 8.832031 18.609375 C 8.976562 18.191406 8.792969 17.863281 8.675781 17.714844 C 8.675781 17.746094 8.675781 17.773438 8.675781 17.804688 C 8.675781 19.179688 9.089844 20.457031 9.800781 21.519531 C 9.859375 21.421875 9.96875 21.453125 9.96875 21.453125 C 9.875 21.328125 9.671875 20.71875 9.8125 20.21875 " fill-opacity="1" fill-rule="nonzero"/><path fill="#ffffff" d="M 17.832031 13.683594 C 17.796875 13.671875 17.679688 13.542969 17.433594 13.648438 C 17.1875 13.753906 16.757812 13.601562 17.199219 13.144531 C 17.199219 13.144531 17.398438 13.074219 17.46875 13.289062 C 17.46875 13.289062 17.480469 13.074219 17.832031 13.027344 C 17.832031 13.027344 17.667969 13.121094 17.726562 13.238281 C 17.738281 13.261719 17.742188 13.277344 17.746094 13.289062 C 17.902344 13.335938 18.441406 13.507812 18.308594 13.648438 C 18.15625 13.8125 17.984375 13.753906 17.832031 13.683594 Z M 14.6875 18.6875 C 14.6875 18.6875 15.3125 18.4375 15.21875 19.1875 C 15.125 19.9375 15.25 19.65625 15.4375 19.9375 C 15.621094 20.21875 15.871094 20.53125 15.558594 21.28125 C 15.25 22.03125 16.027344 22.09375 16.089844 22.875 C 16.152344 23.65625 16.777344 23.15625 16.960938 23.15625 C 17.148438 23.15625 17.929688 22.71875 17.992188 22.375 C 18.054688 22.03125 18.054688 22.28125 18.054688 22.28125 C 18.054688 22.28125 18.457031 22.125 18.332031 21.71875 C 18.332031 21.71875 19.203125 21.125 19.144531 20.78125 C 19.082031 20.4375 18.582031 19.875 19.515625 19.03125 C 20.453125 18.1875 20.171875 17.6875 20.203125 17.375 L 19.578125 17.59375 C 19.578125 17.59375 18.894531 16.53125 18.644531 16.34375 C 18.394531 16.15625 18.207031 15.34375 17.992188 15.125 C 17.992188 15.125 18.957031 15.875 19.546875 17.25 C 19.546875 17.25 20.636719 16.71875 20.574219 15.9375 C 20.515625 15.152344 20.015625 15.839844 19.828125 15.59375 C 19.640625 15.34375 19.238281 14.90625 19.488281 14.90625 C 19.734375 14.90625 20.109375 15.53125 20.792969 15.402344 C 20.792969 15.402344 21.574219 15.839844 21.761719 17.25 C 21.761719 17.25 21.808594 16.765625 21.730469 16.066406 C 21.136719 13.867188 19.449219 12.113281 17.289062 11.4375 C 17.140625 11.574219 16.945312 11.738281 16.808594 11.808594 C 16.808594 11.808594 16.683594 11.621094 16.277344 11.558594 C 15.871094 11.496094 15.714844 11.371094 15.34375 11.714844 C 14.96875 12.058594 14.96875 11.871094 14.96875 11.871094 C 14.96875 11.871094 14.9375 12.183594 15.3125 12.058594 C 15.3125 12.058594 15.3125 12.371094 15.683594 12.277344 C 16.058594 12.183594 15.40625 11.996094 15.839844 11.777344 C 16.277344 11.558594 15.902344 11.714844 16.058594 11.996094 C 16.214844 12.277344 16.714844 12.371094 15.996094 12.464844 C 15.28125 12.558594 15.28125 12.308594 14.75 12.652344 C 14.222656 12.996094 14.003906 12.933594 14.003906 12.933594 C 14.003906 12.933594 14.625 13.683594 13.410156 13.464844 C 13.410156 13.464844 13.253906 13.558594 13.285156 14.058594 C 13.316406 14.558594 13.316406 14.152344 13.316406 14.152344 C 13.316406 14.152344 13.316406 14.058594 13.660156 14.214844 C 14.003906 14.371094 14.066406 13.808594 14.34375 13.683594 C 14.625 13.558594 14.410156 13.496094 15.1875 13.339844 C 15.1875 13.339844 15.40625 13.683594 15.746094 13.808594 C 16.089844 13.933594 15.839844 14.027344 15.839844 14.027344 C 15.839844 14.027344 16.027344 14.121094 16.058594 13.839844 C 16.058594 13.839844 15.125 13.246094 15.589844 13.277344 C 16.058594 13.308594 16.246094 13.871094 16.714844 14.214844 C 16.714844 14.214844 16.464844 13.527344 16.960938 13.808594 C 17.460938 14.089844 17.460938 14.027344 18.085938 14.183594 C 18.085938 14.183594 18.425781 15.058594 17.585938 14.871094 C 16.746094 14.683594 16.835938 14.683594 16.652344 14.78125 C 16.464844 14.871094 16.652344 15.25 16.027344 14.9375 C 15.40625 14.621094 15.0625 14.527344 15.25 14.3125 C 15.25 14.3125 14.78125 14.058594 14.441406 14.277344 C 14.097656 14.496094 13.785156 14.527344 13.503906 14.4375 C 13.503906 14.4375 12.976562 14.589844 12.882812 15 C 12.789062 15.402344 12.007812 15.5 11.824219 16.4375 C 11.636719 17.375 11.851562 17.9375 12.664062 18.625 C 12.664062 18.625 13.316406 18.46875 13.597656 18.625 C 13.597656 18.625 14.097656 18.125 14.6875 18.6875 " fill-opacity="1" fill-rule="nonzero"/><path fill="#577527" d="M 10.792969 8.671875 C 10.632812 8.742188 10.5625 8.925781 10.628906 9.082031 C 10.628906 9.082031 10.632812 9.085938 10.632812 9.085938 C 10.617188 9.089844 10.601562 9.09375 10.589844 9.097656 C 10.535156 9.121094 10.492188 9.167969 10.472656 9.226562 C 10.46875 9.226562 10.460938 9.230469 10.460938 9.230469 C 10.445312 9.238281 10.429688 9.246094 10.414062 9.257812 C 10.390625 9.257812 10.367188 9.261719 10.34375 9.273438 C 10.277344 9.300781 10.230469 9.363281 10.222656 9.433594 C 10.183594 9.445312 10.144531 9.460938 10.105469 9.476562 C 10.074219 9.492188 9.789062 9.621094 9.835938 9.726562 C 9.878906 9.835938 10.167969 9.710938 10.203125 9.699219 C 10.273438 9.667969 10.339844 9.628906 10.386719 9.59375 C 10.453125 9.660156 10.550781 9.683594 10.640625 9.644531 C 10.707031 9.617188 10.753906 9.554688 10.769531 9.484375 C 10.953125 9.59375 11.175781 9.609375 11.371094 9.523438 C 11.464844 9.484375 11.546875 9.421875 11.613281 9.34375 C 11.707031 9.378906 11.8125 9.375 11.902344 9.335938 C 12.019531 9.285156 12.101562 9.183594 12.128906 9.0625 C 12.179688 9.0625 12.230469 9.050781 12.277344 9.03125 C 12.390625 8.980469 12.472656 8.882812 12.5 8.761719 C 12.601562 8.738281 12.722656 8.699219 12.84375 8.644531 C 13.046875 8.558594 13.375 8.375 13.320312 8.257812 C 13.269531 8.136719 12.914062 8.25 12.714844 8.339844 C 12.65625 8.363281 12.605469 8.390625 12.554688 8.417969 C 12.550781 8.410156 12.546875 8.398438 12.542969 8.390625 C 12.496094 8.277344 12.375 8.210938 12.253906 8.226562 C 12.246094 8.203125 12.242188 8.183594 12.234375 8.167969 C 12.15625 7.988281 11.949219 7.90625 11.769531 7.980469 C 11.734375 7.996094 11.703125 8.019531 11.675781 8.042969 C 11.511719 7.917969 11.292969 7.890625 11.105469 7.972656 C 10.835938 8.089844 10.703125 8.398438 10.792969 8.671875 " fill-opacity="1" fill-rule="nonzero"/><path fill="#577527" d="M 10.054688 8.242188 C 10.164062 8.195312 10.292969 8.246094 10.339844 8.355469 C 10.339844 8.355469 10.339844 8.355469 10.34375 8.359375 C 10.351562 8.351562 10.359375 8.347656 10.371094 8.34375 C 10.40625 8.324219 10.449219 8.328125 10.488281 8.34375 C 10.492188 8.34375 10.496094 8.339844 10.496094 8.339844 C 10.507812 8.335938 10.519531 8.332031 10.53125 8.328125 C 10.546875 8.316406 10.558594 8.308594 10.574219 8.300781 C 10.621094 8.28125 10.675781 8.285156 10.714844 8.316406 C 10.738281 8.300781 10.765625 8.289062 10.792969 8.277344 C 10.816406 8.265625 11.019531 8.179688 11.050781 8.257812 C 11.082031 8.332031 10.882812 8.421875 10.859375 8.429688 C 10.808594 8.453125 10.757812 8.46875 10.71875 8.476562 C 10.722656 8.542969 10.683594 8.601562 10.621094 8.628906 C 10.574219 8.652344 10.519531 8.644531 10.476562 8.621094 C 10.445312 8.765625 10.347656 8.886719 10.210938 8.949219 C 10.144531 8.976562 10.074219 8.988281 10.003906 8.984375 C 9.976562 9.050781 9.925781 9.101562 9.859375 9.128906 C 9.777344 9.164062 9.6875 9.160156 9.613281 9.113281 C 9.585938 9.140625 9.558594 9.160156 9.527344 9.175781 C 9.445312 9.207031 9.355469 9.203125 9.28125 9.160156 C 9.222656 9.199219 9.144531 9.242188 9.058594 9.28125 C 8.917969 9.339844 8.667969 9.421875 8.632812 9.339844 C 8.59375 9.253906 8.824219 9.128906 8.964844 9.066406 C 9.003906 9.050781 9.042969 9.035156 9.082031 9.023438 C 9.078125 9.015625 9.074219 9.011719 9.074219 9.003906 C 9.039062 8.925781 9.0625 8.832031 9.128906 8.777344 C 9.121094 8.765625 9.113281 8.75 9.105469 8.738281 C 9.050781 8.613281 9.109375 8.464844 9.234375 8.414062 C 9.261719 8.402344 9.285156 8.394531 9.3125 8.394531 C 9.328125 8.25 9.417969 8.125 9.546875 8.066406 C 9.738281 7.984375 9.957031 8.0625 10.054688 8.242188 " fill-opacity="1" fill-rule="nonzero"/><path fill="#577527" d="M 9.910156 25.878906 C 9.910156 25.878906 9.910156 25.882812 9.910156 25.882812 C 10.046875 25.984375 10.242188 25.953125 10.34375 25.816406 C 10.34375 25.816406 10.347656 25.816406 10.347656 25.8125 C 10.355469 25.824219 10.367188 25.835938 10.378906 25.84375 C 10.425781 25.878906 10.488281 25.890625 10.546875 25.878906 C 10.550781 25.886719 10.558594 25.890625 10.558594 25.890625 C 10.570312 25.902344 10.585938 25.910156 10.601562 25.914062 C 10.617188 25.9375 10.632812 25.957031 10.652344 25.96875 C 10.710938 26.015625 10.785156 26.023438 10.851562 25.996094 C 10.882812 26.023438 10.914062 26.046875 10.945312 26.074219 C 10.976562 26.09375 11.230469 26.28125 11.296875 26.1875 C 11.367188 26.09375 11.117188 25.902344 11.089844 25.878906 C 11.027344 25.835938 10.964844 25.796875 10.90625 25.773438 C 10.933594 25.683594 10.902344 25.585938 10.824219 25.527344 C 10.765625 25.484375 10.6875 25.472656 10.621094 25.496094 C 10.625 25.28125 10.527344 25.078125 10.355469 24.949219 C 10.273438 24.890625 10.175781 24.847656 10.078125 24.832031 C 10.058594 24.730469 10.007812 24.644531 9.925781 24.582031 C 9.824219 24.507812 9.695312 24.488281 9.578125 24.523438 C 9.550781 24.480469 9.515625 24.441406 9.476562 24.410156 C 9.375 24.335938 9.25 24.316406 9.132812 24.355469 C 9.0625 24.277344 8.96875 24.191406 8.859375 24.109375 C 8.683594 23.980469 8.363281 23.785156 8.285156 23.890625 C 8.207031 23.996094 8.484375 24.246094 8.660156 24.378906 C 8.710938 24.414062 8.761719 24.449219 8.808594 24.476562 C 8.800781 24.484375 8.796875 24.492188 8.792969 24.5 C 8.714844 24.597656 8.71875 24.738281 8.792969 24.835938 C 8.777344 24.847656 8.765625 24.863281 8.753906 24.878906 C 8.636719 25.039062 8.667969 25.261719 8.824219 25.375 C 8.855469 25.398438 8.890625 25.417969 8.925781 25.429688 C 8.898438 25.628906 8.984375 25.835938 9.148438 25.957031 C 9.382812 26.132812 9.71875 26.097656 9.910156 25.878906 " fill-opacity="1" fill-rule="nonzero"/><path fill="#577527" d="M 9.90625 26.738281 C 9.90625 26.738281 9.90625 26.734375 9.90625 26.734375 C 9.808594 26.664062 9.789062 26.527344 9.863281 26.429688 C 9.855469 26.425781 9.84375 26.417969 9.835938 26.414062 C 9.800781 26.386719 9.78125 26.351562 9.777344 26.308594 C 9.773438 26.304688 9.769531 26.304688 9.769531 26.304688 C 9.757812 26.296875 9.75 26.289062 9.742188 26.277344 C 9.726562 26.273438 9.710938 26.265625 9.695312 26.257812 C 9.65625 26.226562 9.632812 26.175781 9.640625 26.125 C 9.617188 26.113281 9.59375 26.097656 9.566406 26.078125 C 9.546875 26.0625 9.375 25.929688 9.421875 25.863281 C 9.46875 25.800781 9.648438 25.929688 9.667969 25.941406 C 9.710938 25.976562 9.75 26.011719 9.777344 26.042969 C 9.832031 26.007812 9.902344 26.007812 9.957031 26.050781 C 10 26.082031 10.023438 26.128906 10.019531 26.179688 C 10.160156 26.136719 10.316406 26.160156 10.4375 26.25 C 10.496094 26.292969 10.542969 26.347656 10.574219 26.410156 C 10.644531 26.402344 10.714844 26.421875 10.769531 26.460938 C 10.839844 26.515625 10.882812 26.597656 10.878906 26.683594 C 10.914062 26.695312 10.949219 26.710938 10.976562 26.730469 C 11.046875 26.78125 11.085938 26.863281 11.085938 26.949219 C 11.148438 26.980469 11.226562 27.027344 11.300781 27.085938 C 11.425781 27.175781 11.621094 27.351562 11.566406 27.425781 C 11.511719 27.5 11.285156 27.363281 11.164062 27.269531 C 11.128906 27.246094 11.097656 27.21875 11.066406 27.191406 C 11.0625 27.199219 11.058594 27.203125 11.058594 27.207031 C 11.003906 27.28125 10.910156 27.304688 10.832031 27.277344 C 10.824219 27.289062 10.816406 27.300781 10.808594 27.3125 C 10.726562 27.421875 10.574219 27.445312 10.464844 27.363281 C 10.441406 27.347656 10.425781 27.328125 10.410156 27.308594 C 10.277344 27.367188 10.125 27.351562 10.007812 27.265625 C 9.84375 27.140625 9.800781 26.910156 9.90625 26.738281 " fill-opacity="1" fill-rule="nonzero"/><path fill="#577527" d="M 24.628906 19.058594 C 24.648438 18.886719 24.523438 18.730469 24.355469 18.710938 C 24.355469 18.710938 24.351562 18.710938 24.351562 18.710938 C 24.355469 18.699219 24.359375 18.683594 24.363281 18.667969 C 24.371094 18.609375 24.347656 18.550781 24.308594 18.503906 C 24.3125 18.5 24.3125 18.492188 24.3125 18.492188 C 24.316406 18.472656 24.3125 18.457031 24.3125 18.4375 C 24.324219 18.417969 24.332031 18.394531 24.335938 18.367188 C 24.34375 18.296875 24.3125 18.226562 24.253906 18.179688 C 24.265625 18.144531 24.269531 18.101562 24.277344 18.058594 C 24.28125 18.023438 24.3125 17.710938 24.199219 17.699219 C 24.082031 17.683594 24.042969 17.996094 24.039062 18.03125 C 24.03125 18.109375 24.027344 18.183594 24.035156 18.246094 C 23.945312 18.269531 23.875 18.34375 23.867188 18.4375 C 23.855469 18.511719 23.886719 18.585938 23.941406 18.632812 C 23.753906 18.738281 23.628906 18.921875 23.601562 19.136719 C 23.589844 19.238281 23.605469 19.339844 23.640625 19.4375 C 23.5625 19.5 23.511719 19.59375 23.5 19.691406 C 23.484375 19.820312 23.53125 19.941406 23.625 20.023438 C 23.597656 20.070312 23.582031 20.117188 23.578125 20.167969 C 23.5625 20.292969 23.609375 20.414062 23.699219 20.496094 C 23.667969 20.597656 23.640625 20.722656 23.625 20.855469 C 23.601562 21.074219 23.59375 21.449219 23.722656 21.464844 C 23.851562 21.480469 23.929688 21.113281 23.957031 20.894531 C 23.960938 20.832031 23.964844 20.773438 23.96875 20.714844 C 23.976562 20.71875 23.984375 20.71875 23.996094 20.722656 C 24.117188 20.734375 24.238281 20.664062 24.285156 20.550781 C 24.304688 20.558594 24.324219 20.5625 24.34375 20.5625 C 24.539062 20.585938 24.714844 20.445312 24.734375 20.253906 C 24.738281 20.214844 24.738281 20.175781 24.730469 20.140625 C 24.917969 20.0625 25.050781 19.886719 25.074219 19.679688 C 25.109375 19.386719 24.910156 19.117188 24.628906 19.058594 " fill-opacity="1" fill-rule="nonzero"/><path fill="#577527" d="M 25.367188 18.632812 C 25.355469 18.753906 25.246094 18.839844 25.128906 18.824219 C 25.125 18.824219 25.125 18.824219 25.125 18.824219 C 25.125 18.835938 25.125 18.84375 25.125 18.855469 C 25.121094 18.898438 25.097656 18.933594 25.0625 18.957031 C 25.0625 18.964844 25.0625 18.96875 25.0625 18.96875 C 25.0625 18.980469 25.058594 18.992188 25.054688 19.003906 C 25.058594 19.019531 25.058594 19.039062 25.058594 19.054688 C 25.050781 19.105469 25.019531 19.148438 24.976562 19.171875 C 24.976562 19.199219 24.972656 19.226562 24.96875 19.257812 C 24.96875 19.28125 24.941406 19.5 24.859375 19.492188 C 24.777344 19.480469 24.800781 19.261719 24.804688 19.238281 C 24.808594 19.183594 24.820312 19.132812 24.835938 19.089844 C 24.777344 19.0625 24.742188 19 24.75 18.933594 C 24.757812 18.878906 24.789062 18.835938 24.832031 18.8125 C 24.722656 18.710938 24.664062 18.5625 24.683594 18.414062 C 24.691406 18.34375 24.714844 18.277344 24.753906 18.214844 C 24.710938 18.160156 24.691406 18.089844 24.699219 18.019531 C 24.710938 17.929688 24.761719 17.855469 24.835938 17.8125 C 24.828125 17.777344 24.824219 17.742188 24.828125 17.707031 C 24.839844 17.621094 24.890625 17.546875 24.964844 17.503906 C 24.957031 17.429688 24.960938 17.339844 24.972656 17.246094 C 24.988281 17.09375 25.042969 16.835938 25.132812 16.847656 C 25.226562 16.859375 25.21875 17.121094 25.203125 17.273438 C 25.195312 17.316406 25.191406 17.355469 25.183594 17.398438 C 25.1875 17.398438 25.195312 17.398438 25.199219 17.398438 C 25.289062 17.40625 25.355469 17.476562 25.371094 17.558594 C 25.386719 17.558594 25.398438 17.558594 25.414062 17.558594 C 25.550781 17.574219 25.648438 17.699219 25.632812 17.835938 C 25.628906 17.863281 25.621094 17.886719 25.609375 17.910156 C 25.726562 17.996094 25.789062 18.136719 25.773438 18.28125 C 25.75 18.484375 25.570312 18.636719 25.367188 18.632812 " fill-opacity="1" fill-rule="nonzero"/></svg>