<svg xmlns="http://www.w3.org/2000/svg" xmlns:xlink="http://www.w3.org/1999/xlink" width="200" zoomAndPan="magnify" viewBox="0 0 150 149.999998" height="200" preserveAspectRatio="xMidYMid meet" version="1.0"><defs><clipPath id="92220ba7b8"><path d="M 18 21 L 131.851562 21 L 131.851562 135.585938 L 18 135.585938 Z M 18 21 " clip-rule="nonzero"/></clipPath><clipPath id="2917e75ba6"><path d="M 18 73 L 131.851562 73 L 131.851562 135.585938 L 18 135.585938 Z M 18 73 " clip-rule="nonzero"/></clipPath><clipPath id="dfdcc9928a"><path d="M 17.851562 14.085938 L 131.851562 14.085938 L 131.851562 135.585938 L 17.851562 135.585938 Z M 17.851562 14.085938 " clip-rule="nonzero"/></clipPath></defs><g clip-path="url(#92220ba7b8)"><path fill="#91c5eb" d="M 131.582031 78.652344 C 131.582031 109.988281 106.179688 135.386719 74.847656 135.386719 C 43.519531 135.386719 18.117188 109.988281 18.117188 78.652344 C 18.117188 47.320312 43.515625 21.921875 74.847656 21.921875 C 106.183594 21.921875 131.582031 47.320312 131.582031 78.652344 Z M 131.582031 78.652344 " fill-opacity="1" fill-rule="nonzero"/></g><g clip-path="url(#2917e75ba6)"><path fill="#3e9556" d="M 74.847656 135.386719 C 44.328125 135.386719 19.441406 111.285156 18.167969 81.078125 C 18.128906 79.632812 18.125 78.476562 18.125 77.941406 C 18.125 77.832031 18.125 77.722656 18.128906 77.617188 L 22.382812 77.617188 L 27.964844 81.074219 L 44.699219 81.074219 L 52.082031 78.65625 C 52.082031 78.65625 69.898438 78.519531 72.777344 78.65625 C 75.65625 78.792969 85.011719 73.128906 85.011719 73.128906 C 85.011719 73.128906 103.007812 80.316406 107.148438 81.074219 C 111.28125 81.832031 131.246094 73.164062 131.316406 73.128906 C 131.492188 74.949219 131.585938 76.792969 131.585938 78.652344 C 131.582031 109.988281 106.183594 135.386719 74.847656 135.386719 Z M 74.847656 135.386719 " fill-opacity="1" fill-rule="nonzero"/></g><path fill="#969696" d="M 72.71875 81.410156 L 77.089844 82.28125 L 87.03125 81.074219 L 90.574219 82.054688 L 90.574219 92.496094 L 97.386719 93.789062 L 96.945312 99.542969 L 90.988281 100.695312 L 82.0625 100.695312 L 75.804688 100.347656 L 73.824219 97.65625 C 73.824219 97.65625 72.339844 85.875 72.414062 85.691406 C 72.488281 85.503906 72.71875 81.410156 72.71875 81.410156 Z M 72.71875 81.410156 " fill-opacity="1" fill-rule="nonzero"/><path fill="#f9bdbd" d="M 102.753906 57.820312 C 102.753906 58.265625 102.410156 58.632812 101.976562 58.671875 L 101.976562 104.257812 L 96.941406 104.257812 L 96.941406 58.671875 C 96.507812 58.628906 96.164062 58.265625 96.164062 57.820312 C 96.164062 57.347656 96.550781 56.960938 97.023438 56.960938 L 101.894531 56.960938 C 102.367188 56.960938 102.753906 57.347656 102.753906 57.820312 Z M 110.917969 85.113281 L 103.53125 85.113281 C 103.054688 85.113281 102.667969 85.5 102.667969 85.972656 C 102.667969 86.441406 103.046875 86.824219 103.515625 86.832031 L 103.515625 97.429688 L 110.929688 97.429688 L 110.929688 86.832031 C 111.394531 86.824219 111.773438 86.441406 111.773438 85.972656 C 111.773438 85.5 111.386719 85.113281 110.917969 85.113281 Z M 77.875 100.238281 C 76.210938 93.621094 74.585938 86.941406 73.367188 80.210938 C 72.707031 76.539062 72.269531 72.820312 72.0625 69.082031 C 72.027344 68.441406 71.902344 63.347656 71.945312 60.324219 C 71.960938 59.089844 71.046875 58.082031 69.910156 58.082031 C 69.902344 58.082031 69.894531 58.082031 69.886719 58.082031 C 67.511719 58.082031 65.136719 58.082031 62.761719 58.082031 C 62.605469 58.082031 62.453125 58.082031 62.296875 58.082031 C 59.917969 58.082031 57.546875 58.082031 55.167969 58.082031 C 55.164062 58.082031 55.15625 58.082031 55.148438 58.082031 C 54.011719 58.082031 53.097656 59.089844 53.113281 60.324219 C 53.15625 63.347656 53.03125 68.445312 52.996094 69.082031 C 52.785156 72.820312 52.351562 76.539062 51.6875 80.210938 C 50.785156 85.210938 49.65625 90.175781 48.453125 95.113281 C 47.300781 90.5 46.179688 85.847656 45.335938 81.15625 C 44.847656 78.457031 44.527344 75.71875 44.375 72.96875 C 44.347656 72.496094 44.253906 68.746094 44.289062 66.523438 C 44.300781 65.617188 43.625 64.875 42.789062 64.875 C 42.785156 64.875 42.777344 64.875 42.773438 64.875 C 41.027344 64.875 39.277344 64.875 37.53125 64.875 C 37.414062 64.875 37.300781 64.875 37.1875 64.875 C 35.4375 64.875 33.691406 64.875 31.941406 64.875 C 31.9375 64.875 31.929688 64.875 31.925781 64.875 C 31.089844 64.875 30.417969 65.617188 30.429688 66.523438 C 30.460938 68.75 30.367188 72.496094 30.339844 72.96875 C 30.1875 75.71875 29.867188 78.457031 29.382812 81.15625 C 28.484375 86.117188 27.289062 91.027344 26.0625 95.898438 C 25.726562 97.238281 25.382812 98.578125 25.027344 99.914062 C 24.976562 100.003906 24.953125 100.09375 24.953125 100.1875 C 24.953125 101.566406 30.398438 102.691406 37.183594 102.726562 L 37.183594 102.730469 C 37.242188 102.730469 37.296875 102.730469 37.355469 102.730469 C 37.414062 102.730469 37.46875 102.730469 37.527344 102.730469 L 37.527344 102.726562 C 41.234375 102.707031 44.535156 102.363281 46.773438 101.828125 C 46.445312 103.117188 46.113281 104.40625 45.769531 105.695312 C 45.703125 105.816406 45.671875 105.941406 45.671875 106.066406 C 45.671875 107.945312 53.070312 109.472656 62.292969 109.519531 L 62.292969 109.523438 C 62.371094 109.523438 62.449219 109.523438 62.523438 109.523438 C 62.601562 109.523438 62.679688 109.523438 62.757812 109.523438 L 62.757812 109.519531 C 71.976562 109.46875 79.378906 107.941406 79.378906 106.066406 C 79.378906 105.941406 79.34375 105.820312 79.28125 105.695312 C 78.800781 103.878906 78.332031 102.0625 77.875 100.238281 Z M 118.671875 88.726562 L 112.53125 88.726562 C 112.058594 88.726562 111.671875 89.117188 111.671875 89.589844 C 111.671875 90.011719 111.980469 90.363281 112.382812 90.4375 L 112.382812 102.316406 L 118.816406 102.316406 L 118.816406 90.4375 C 119.222656 90.367188 119.53125 90.011719 119.53125 89.589844 C 119.53125 89.117188 119.144531 88.726562 118.671875 88.726562 Z M 81.8125 84.914062 L 81.8125 90.3125 C 81.8125 90.3125 89.46875 89.292969 89.667969 89.113281 C 89.867188 88.929688 89.667969 83.347656 89.667969 83.347656 Z M 81.8125 84.914062 " fill-opacity="1" fill-rule="nonzero"/><path fill="#969696" d="M 107.492188 92.695312 C 102.617188 92.695312 98.28125 94.988281 95.492188 98.546875 C 92.6875 96.503906 89.230469 95.292969 85.492188 95.292969 C 76.097656 95.292969 68.480469 102.910156 68.480469 112.304688 C 68.480469 113.960938 76.097656 115.308594 85.492188 115.308594 C 94.886719 115.308594 102.503906 113.960938 102.503906 112.304688 C 102.503906 111.679688 102.46875 111.066406 102.402344 110.460938 C 103.992188 110.5625 105.707031 110.617188 107.492188 110.617188 C 115.90625 110.617188 122.726562 109.410156 122.726562 107.925781 C 122.726562 99.515625 115.90625 92.695312 107.492188 92.695312 Z M 107.492188 92.695312 " fill-opacity="1" fill-rule="nonzero"/><path fill="#969696" d="M 107.695312 32.789062 C 108.117188 33.917969 107.984375 35.167969 107.53125 36.265625 C 107.089844 37.328125 106.328125 38.386719 105.296875 38.945312 C 104.324219 39.472656 102.953125 39.4375 102.257812 38.472656 C 102.125 38.296875 101.839844 38.394531 101.894531 38.625 C 102.378906 40.695312 101.488281 43.023438 99.6875 44.1875 C 97.816406 45.390625 95.222656 45.1875 93.53125 43.757812 C 93.417969 43.660156 93.25 43.695312 93.199219 43.84375 C 92.769531 45.230469 92.136719 46.648438 90.980469 47.582031 C 89.882812 48.46875 88.269531 48.796875 87.023438 48.042969 C 86.894531 47.964844 86.722656 48.066406 86.722656 48.214844 C 86.765625 50.03125 85.765625 51.804688 84.152344 52.664062 C 82.488281 53.550781 80.339844 53.316406 78.875 52.15625 C 78.742188 52.054688 78.542969 52.117188 78.535156 52.296875 C 78.496094 53.496094 78.167969 54.769531 77.261719 55.609375 C 76.425781 56.382812 75.101562 56.636719 74.125 55.984375 C 74.003906 55.902344 73.8125 56.007812 73.824219 56.15625 C 73.914062 57.269531 71.753906 58.605469 70.730469 58.101562 C 70.671875 58.074219 70.625 58.066406 70.589844 58.074219 C 70.304688 57.941406 69.992188 57.867188 69.667969 57.867188 L 54.933594 57.867188 C 54.363281 57.867188 53.816406 58.097656 53.402344 58.519531 C 53.222656 58.703125 53.078125 58.914062 52.964844 59.148438 C 52.285156 58.691406 52.214844 57.527344 52.933594 57.054688 C 53.019531 57 53.0625 56.882812 53.003906 56.789062 C 51.972656 55.125 53.140625 52.675781 55.0625 52.398438 C 55.203125 52.378906 55.230469 52.207031 55.183594 52.105469 C 54.496094 50.640625 53.828125 48.882812 54.34375 47.257812 C 54.75 45.996094 56.015625 44.828125 57.414062 45.109375 C 57.585938 45.144531 57.71875 44.976562 57.636719 44.820312 C 56.433594 42.425781 57.726562 39.15625 60.25 38.238281 C 60.378906 38.191406 60.457031 38.011719 60.335938 37.90625 C 59.535156 37.226562 59.054688 36.238281 58.988281 35.191406 C 58.921875 34.007812 59.429688 32.988281 60.199219 32.121094 C 61.632812 30.503906 63.96875 28.6875 66.253906 29.566406 C 66.386719 29.617188 66.550781 29.457031 66.496094 29.324219 C 65.664062 27.285156 67.148438 25.304688 68.773438 24.21875 C 69.199219 23.933594 69.644531 23.679688 70.101562 23.445312 C 70.328125 23.324219 70.558594 23.210938 70.789062 23.097656 C 70.953125 23.011719 71.128906 22.972656 71.179688 22.777344 C 71.253906 22.492188 71.234375 22.152344 71.285156 21.855469 C 71.324219 21.574219 71.378906 21.292969 71.449219 21.019531 C 71.566406 20.519531 71.722656 20.03125 71.90625 19.554688 C 71.917969 19.542969 71.9375 19.535156 71.945312 19.523438 C 73.261719 18 75.011719 16.601562 77.082031 16.390625 C 78.867188 16.207031 80.8125 16.984375 81.632812 18.652344 C 81.699219 18.789062 81.902344 18.773438 81.976562 18.652344 C 82.953125 16.980469 84.6875 15.789062 86.617188 15.53125 C 88.628906 15.253906 90.695312 16.027344 92.089844 17.496094 C 92.199219 17.613281 92.367188 17.542969 92.417969 17.40625 C 92.894531 16.152344 94.109375 15.328125 95.398438 15.09375 C 96.960938 14.808594 98.617188 15.355469 99.933594 16.179688 C 101.890625 17.414062 103.792969 20.203125 102.351562 22.472656 C 102.238281 22.652344 102.457031 22.828125 102.621094 22.742188 C 104.730469 21.664062 107.113281 23.421875 107.910156 25.371094 C 108.332031 26.402344 108.3125 27.542969 107.859375 28.554688 C 107.4375 29.496094 106.601562 30.335938 105.496094 30.171875 C 105.25 30.136719 105.140625 30.480469 105.390625 30.550781 C 106.464844 30.875 107.304688 31.746094 107.695312 32.789062 Z M 52.691406 53.675781 C 53.128906 52.890625 53.84375 52.273438 54.730469 52.066406 C 54.007812 50.476562 53.371094 48.582031 54.0625 46.886719 C 54.570312 45.640625 55.773438 44.613281 57.140625 44.679688 C 56.128906 42.195312 57.382812 39.078125 59.835938 37.980469 C 59.195312 37.347656 58.777344 36.511719 58.640625 35.617188 C 58.507812 34.757812 58.632812 33.886719 59.023438 33.109375 C 59.492188 32.1875 60.265625 31.398438 61.050781 30.734375 C 62.390625 29.585938 64.207031 28.589844 65.992188 29.070312 C 65.632812 27.773438 66.101562 26.371094 66.929688 25.335938 C 67.921875 24.089844 69.394531 23.347656 70.796875 22.652344 C 70.886719 21.554688 71.128906 20.484375 71.519531 19.457031 C 68.929688 18.175781 65.394531 19.835938 64.773438 22.675781 C 64.738281 22.824219 64.542969 22.863281 64.4375 22.761719 C 61.851562 20.230469 56.980469 20.984375 55.273438 24.171875 C 55.21875 24.265625 55.09375 24.289062 55.003906 24.242188 C 51.34375 22.382812 46.429688 24.003906 44.5625 27.648438 C 44.523438 27.730469 44.421875 27.761719 44.339844 27.742188 C 42.761719 27.367188 41.175781 29.238281 41.839844 30.726562 C 41.898438 30.855469 41.835938 31.035156 41.671875 31.023438 C 39.6875 30.9375 37.574219 31.46875 36.160156 32.9375 C 34.835938 34.320312 34.339844 36.550781 35.316406 38.257812 C 35.382812 38.375 35.300781 38.574219 35.144531 38.554688 C 32.953125 38.300781 30.691406 39.367188 29.554688 41.277344 C 28.394531 43.230469 28.597656 45.851562 29.984375 47.632812 C 30.070312 47.746094 30.058594 47.929688 29.894531 47.96875 C 27.867188 48.4375 26.214844 50.25 26.03125 52.347656 C 25.84375 54.445312 27.148438 56.535156 29.078125 57.347656 C 29.128906 57.367188 29.171875 57.382812 29.214844 57.40625 C 29.414062 57.511719 29.273438 57.851562 29.0625 57.769531 C 29.046875 57.765625 29.035156 57.757812 29.019531 57.75 C 28.632812 57.550781 28.1875 57.6875 27.886719 57.972656 C 27.539062 58.296875 27.4375 58.785156 27.445312 59.242188 C 27.457031 60.019531 27.730469 60.820312 28.058594 61.515625 C 28.714844 62.890625 29.789062 64.023438 31.125 64.757812 C 31.128906 64.757812 31.132812 64.765625 31.136719 64.769531 C 31.320312 64.699219 31.515625 64.65625 31.714844 64.65625 L 42.558594 64.65625 C 42.730469 64.65625 42.894531 64.683594 43.046875 64.734375 C 43.074219 64.714844 43.109375 64.722656 43.167969 64.773438 C 43.171875 64.777344 43.175781 64.777344 43.183594 64.777344 C 43.199219 64.785156 43.214844 64.796875 43.230469 64.800781 C 43.566406 64.878906 44.664062 64.292969 44.886719 64.207031 C 45.230469 64.078125 45.566406 63.921875 45.886719 63.742188 C 46.53125 63.382812 47.117188 62.917969 47.578125 62.335938 C 48.496094 61.171875 48.808594 59.484375 48.058594 58.15625 C 47.992188 58.042969 48.054688 57.902344 48.175781 57.863281 C 49.792969 57.359375 50.128906 55.472656 50.347656 54.023438 C 50.371094 53.890625 50.542969 53.851562 50.640625 53.902344 C 51.222656 54.21875 51.941406 54.113281 52.414062 53.65625 C 52.503906 53.566406 52.621094 53.597656 52.691406 53.675781 Z M 52.691406 53.675781 " fill-opacity="1" fill-rule="nonzero"/><path fill="#969696" d="M 42.359375 83.644531 C 42.164062 80.816406 39.800781 78.582031 36.925781 78.582031 C 34.054688 78.582031 31.695312 80.816406 31.492188 83.636719 C 31.480469 83.769531 31.476562 83.898438 31.476562 84.03125 C 31.476562 87.039062 33.917969 89.484375 36.925781 89.484375 C 37.058594 89.484375 37.191406 89.476562 37.320312 89.464844 C 40.144531 89.269531 42.378906 86.90625 42.378906 84.03125 C 42.378906 83.902344 42.375 83.769531 42.359375 83.644531 Z M 41.816406 84.195312 C 41.777344 84.195312 41.742188 84.191406 41.703125 84.195312 C 41.675781 84.195312 41.652344 84.191406 41.628906 84.191406 L 41.546875 84.191406 C 41.53125 84.191406 41.515625 84.191406 41.503906 84.195312 L 41.503906 84.191406 L 38.492188 84.253906 C 38.445312 84.714844 38.199219 85.117188 37.839844 85.371094 L 39.34375 87.921875 C 39.347656 87.921875 39.351562 87.921875 39.355469 87.917969 C 39.363281 87.945312 39.375 87.96875 39.386719 87.992188 C 39.386719 87.996094 39.390625 88 39.390625 88.003906 L 39.425781 88.0625 L 39.421875 88.066406 C 39.425781 88.078125 39.429688 88.085938 39.4375 88.097656 C 39.453125 88.132812 39.46875 88.167969 39.484375 88.207031 C 38.832031 88.605469 38.082031 88.863281 37.277344 88.917969 C 37.160156 88.925781 37.042969 88.929688 36.925781 88.929688 C 35.984375 88.929688 35.105469 88.65625 34.359375 88.195312 C 34.378906 88.164062 34.398438 88.128906 34.417969 88.097656 C 34.421875 88.085938 34.429688 88.074219 34.433594 88.066406 L 34.441406 88.054688 C 34.464844 88.011719 34.488281 87.964844 34.507812 87.917969 C 34.511719 87.921875 34.515625 87.921875 34.515625 87.925781 L 36.035156 85.359375 C 35.6875 85.105469 35.445312 84.707031 35.398438 84.253906 L 32.183594 84.191406 L 32.183594 84.175781 C 32.132812 84.175781 32.082031 84.171875 32.03125 84.171875 C 32.03125 84.125 32.027344 84.078125 32.027344 84.03125 C 32.027344 83.914062 32.03125 83.796875 32.039062 83.679688 C 32.164062 81.941406 33.203125 80.453125 34.675781 79.683594 C 34.6875 79.734375 34.703125 79.78125 34.726562 79.828125 C 34.738281 79.855469 34.757812 79.878906 34.773438 79.910156 C 34.785156 79.929688 34.792969 79.949219 34.804688 79.972656 C 34.796875 79.976562 34.789062 79.980469 34.785156 79.980469 L 36.308594 82.679688 C 36.507812 82.59375 36.71875 82.542969 36.945312 82.542969 C 37.15625 82.542969 37.359375 82.589844 37.542969 82.664062 L 39.183594 79.859375 L 39.1875 79.859375 C 39.195312 79.84375 39.207031 79.824219 39.214844 79.808594 C 39.222656 79.796875 39.226562 79.789062 39.234375 79.777344 C 39.234375 79.773438 39.238281 79.769531 39.238281 79.765625 C 39.246094 79.753906 39.253906 79.738281 39.257812 79.726562 C 40.691406 80.503906 41.695312 81.976562 41.816406 83.6875 C 41.820312 83.800781 41.828125 83.917969 41.828125 84.03125 C 41.828125 84.085938 41.820312 84.140625 41.816406 84.195312 Z M 41.816406 84.195312 " fill-opacity="1" fill-rule="nonzero"/><path fill="#000000" d="M 37.695312 84.101562 C 37.695312 83.6875 37.359375 83.347656 36.945312 83.347656 C 36.53125 83.347656 36.195312 83.6875 36.195312 84.101562 C 36.195312 84.515625 36.53125 84.851562 36.945312 84.851562 C 37.359375 84.851562 37.695312 84.515625 37.695312 84.101562 Z M 35.878906 84.101562 C 35.878906 83.511719 36.359375 83.03125 36.945312 83.03125 C 37.53125 83.03125 38.011719 83.511719 38.011719 84.101562 C 38.011719 84.6875 37.53125 85.164062 36.945312 85.164062 C 36.359375 85.164062 35.878906 84.6875 35.878906 84.101562 Z M 35.878906 84.101562 " fill-opacity="1" fill-rule="nonzero"/><path fill="#000000" d="M 37.820312 82.816406 C 38.1875 83.066406 38.445312 83.472656 38.492188 83.941406 L 41.503906 83.878906 C 41.453125 82.316406 40.617188 80.945312 39.375 80.160156 Z M 36.308594 85.515625 L 34.789062 88.078125 C 35.425781 88.421875 36.15625 88.617188 36.925781 88.617188 C 37.703125 88.617188 38.433594 88.421875 39.074219 88.078125 L 37.5625 85.523438 C 37.375 85.605469 37.164062 85.652344 36.945312 85.652344 C 36.71875 85.652344 36.503906 85.605469 36.308594 85.515625 Z M 36.945312 82.859375 C 36.261719 82.859375 35.707031 83.414062 35.707031 84.101562 C 35.707031 84.78125 36.261719 85.339844 36.945312 85.339844 C 37.628906 85.339844 38.183594 84.78125 38.183594 84.101562 C 38.183594 83.414062 37.628906 82.859375 36.945312 82.859375 Z M 34.511719 80.140625 C 33.253906 80.921875 32.402344 82.300781 32.347656 83.878906 L 35.398438 83.941406 C 35.445312 83.484375 35.6875 83.089844 36.039062 82.839844 Z M 32.039062 83.679688 C 32.164062 81.941406 33.203125 80.453125 34.675781 79.683594 C 34.6875 79.734375 34.703125 79.78125 34.726562 79.828125 C 34.738281 79.855469 34.757812 79.878906 34.773438 79.910156 C 34.785156 79.929688 34.792969 79.949219 34.804688 79.972656 C 34.796875 79.976562 34.789062 79.980469 34.785156 79.980469 L 36.308594 82.679688 C 36.507812 82.59375 36.71875 82.542969 36.945312 82.542969 C 37.15625 82.542969 37.359375 82.589844 37.542969 82.664062 L 39.183594 79.859375 L 39.1875 79.859375 C 39.195312 79.84375 39.207031 79.824219 39.214844 79.808594 C 39.222656 79.796875 39.226562 79.789062 39.234375 79.777344 C 39.234375 79.773438 39.238281 79.769531 39.238281 79.765625 C 39.246094 79.753906 39.253906 79.738281 39.257812 79.726562 C 40.691406 80.503906 41.695312 81.976562 41.816406 83.6875 C 41.820312 83.800781 41.828125 83.917969 41.828125 84.03125 C 41.828125 84.085938 41.820312 84.140625 41.816406 84.195312 C 41.777344 84.195312 41.742188 84.191406 41.703125 84.195312 C 41.675781 84.195312 41.652344 84.191406 41.628906 84.191406 L 41.546875 84.191406 C 41.53125 84.191406 41.515625 84.191406 41.503906 84.195312 L 41.503906 84.191406 L 38.492188 84.253906 C 38.445312 84.714844 38.199219 85.117188 37.839844 85.371094 L 39.34375 87.921875 C 39.347656 87.921875 39.351562 87.921875 39.355469 87.917969 C 39.363281 87.945312 39.375 87.96875 39.386719 87.992188 C 39.386719 87.996094 39.390625 88 39.390625 88.003906 L 39.425781 88.0625 L 39.421875 88.066406 C 39.425781 88.078125 39.429688 88.085938 39.4375 88.097656 C 39.453125 88.132812 39.46875 88.167969 39.484375 88.207031 C 38.832031 88.605469 38.082031 88.863281 37.277344 88.917969 C 37.160156 88.925781 37.042969 88.929688 36.925781 88.929688 C 35.984375 88.929688 35.105469 88.65625 34.359375 88.195312 C 34.378906 88.164062 34.398438 88.128906 34.417969 88.097656 C 34.421875 88.085938 34.429688 88.074219 34.433594 88.066406 L 34.441406 88.054688 C 34.464844 88.011719 34.488281 87.964844 34.507812 87.917969 C 34.511719 87.921875 34.515625 87.921875 34.515625 87.925781 L 36.035156 85.359375 C 35.6875 85.105469 35.445312 84.707031 35.398438 84.253906 L 32.183594 84.191406 L 32.183594 84.175781 C 32.132812 84.175781 32.082031 84.171875 32.03125 84.171875 C 32.03125 84.125 32.027344 84.078125 32.027344 84.03125 C 32.027344 83.914062 32.03125 83.796875 32.039062 83.679688 Z M 32.039062 83.679688 " fill-opacity="1" fill-rule="nonzero"/><path fill="#969696" d="M 67.589844 82.957031 C 67.390625 80.132812 65.027344 77.898438 62.15625 77.898438 C 59.28125 77.898438 56.921875 80.128906 56.71875 82.953125 C 56.707031 83.082031 56.703125 83.214844 56.703125 83.347656 C 56.703125 86.351562 59.148438 88.796875 62.15625 88.796875 C 62.285156 88.796875 62.417969 88.792969 62.546875 88.78125 C 65.371094 88.582031 67.605469 86.222656 67.605469 83.347656 C 67.605469 83.21875 67.601562 83.085938 67.589844 82.957031 Z M 67.042969 83.507812 C 67.003906 83.507812 66.96875 83.507812 66.929688 83.507812 C 66.902344 83.507812 66.878906 83.507812 66.855469 83.503906 L 66.773438 83.507812 C 66.757812 83.507812 66.746094 83.507812 66.730469 83.507812 L 63.71875 83.566406 C 63.675781 84.03125 63.425781 84.429688 63.066406 84.6875 L 64.570312 87.238281 C 64.574219 87.238281 64.578125 87.234375 64.582031 87.234375 C 64.589844 87.257812 64.601562 87.285156 64.613281 87.308594 C 64.617188 87.3125 64.617188 87.316406 64.617188 87.316406 L 64.652344 87.378906 L 64.648438 87.378906 C 64.652344 87.394531 64.660156 87.402344 64.664062 87.414062 C 64.679688 87.449219 64.699219 87.484375 64.710938 87.519531 C 64.058594 87.921875 63.308594 88.175781 62.503906 88.234375 C 62.386719 88.242188 62.269531 88.246094 62.15625 88.246094 C 61.210938 88.246094 60.332031 87.972656 59.585938 87.507812 C 59.605469 87.476562 59.625 87.445312 59.644531 87.414062 C 59.652344 87.402344 59.65625 87.390625 59.660156 87.378906 L 59.667969 87.367188 C 59.691406 87.324219 59.714844 87.28125 59.734375 87.234375 C 59.738281 87.234375 59.742188 87.238281 59.746094 87.242188 L 61.265625 84.671875 C 60.914062 84.417969 60.671875 84.023438 60.625 83.566406 L 57.410156 83.503906 L 57.410156 83.492188 C 57.359375 83.492188 57.308594 83.488281 57.261719 83.484375 C 57.257812 83.441406 57.253906 83.394531 57.253906 83.347656 C 57.253906 83.230469 57.261719 83.113281 57.265625 82.996094 C 57.390625 81.257812 58.429688 79.765625 59.902344 79 C 59.917969 79.046875 59.929688 79.097656 59.953125 79.144531 C 59.964844 79.171875 59.984375 79.195312 60 79.226562 C 60.011719 79.246094 60.019531 79.265625 60.03125 79.289062 C 60.027344 79.289062 60.019531 79.296875 60.011719 79.296875 L 61.539062 81.996094 C 61.734375 81.90625 61.945312 81.859375 62.175781 81.859375 C 62.382812 81.859375 62.585938 81.902344 62.773438 81.980469 L 64.410156 79.175781 L 64.414062 79.175781 C 64.425781 79.15625 64.433594 79.140625 64.445312 79.125 C 64.449219 79.113281 64.457031 79.105469 64.460938 79.09375 C 64.460938 79.089844 64.464844 79.085938 64.464844 79.078125 C 64.472656 79.066406 64.480469 79.054688 64.488281 79.042969 C 65.917969 79.820312 66.921875 81.292969 67.042969 83 C 67.050781 83.117188 67.054688 83.230469 67.054688 83.347656 C 67.054688 83.402344 67.046875 83.453125 67.042969 83.507812 Z M 67.042969 83.507812 " fill-opacity="1" fill-rule="nonzero"/><path fill="#000000" d="M 62.925781 83.414062 C 62.925781 83 62.585938 82.664062 62.175781 82.664062 C 61.757812 82.664062 61.421875 83 61.421875 83.414062 C 61.421875 83.828125 61.757812 84.164062 62.175781 84.164062 C 62.585938 84.164062 62.925781 83.828125 62.925781 83.414062 Z M 61.105469 83.414062 C 61.105469 82.828125 61.585938 82.347656 62.175781 82.347656 C 62.757812 82.347656 63.238281 82.828125 63.238281 83.414062 C 63.238281 84.003906 62.757812 84.480469 62.175781 84.480469 C 61.585938 84.480469 61.105469 84.003906 61.105469 83.414062 Z M 61.105469 83.414062 " fill-opacity="1" fill-rule="nonzero"/><g clip-path="url(#dfdcc9928a)"><path fill="#000000" d="M 22.164062 79.195312 C 21.964844 79.035156 22.246094 78.753906 22.445312 78.914062 C 23.539062 79.785156 24.703125 80.574219 25.917969 81.277344 C 26.136719 81.40625 25.9375 81.75 25.714844 81.621094 C 24.472656 80.898438 23.289062 80.085938 22.164062 79.195312 Z M 45.617188 112.523438 C 45.3125 112.84375 45.003906 113.160156 44.699219 113.480469 C 44.628906 113.554688 44.621094 113.6875 44.699219 113.761719 C 44.777344 113.832031 44.902344 113.839844 44.980469 113.761719 C 45.285156 113.441406 45.589844 113.125 45.894531 112.804688 C 45.96875 112.730469 45.976562 112.601562 45.894531 112.523438 C 45.820312 112.453125 45.691406 112.445312 45.617188 112.523438 Z M 52.71875 124.972656 C 52.625 124.921875 52.503906 124.949219 52.449219 125.042969 C 52.257812 125.371094 52.207031 125.777344 52.3125 126.140625 C 52.339844 126.242188 52.453125 126.3125 52.558594 126.277344 C 52.660156 126.246094 52.726562 126.140625 52.695312 126.035156 C 52.683594 125.992188 52.671875 125.953125 52.664062 125.910156 C 52.664062 125.910156 52.664062 125.902344 52.664062 125.898438 C 52.660156 125.878906 52.660156 125.859375 52.660156 125.839844 C 52.652344 125.765625 52.65625 125.6875 52.664062 125.613281 C 52.664062 125.605469 52.664062 125.597656 52.664062 125.59375 C 52.671875 125.570312 52.671875 125.550781 52.679688 125.527344 C 52.683594 125.492188 52.695312 125.457031 52.707031 125.421875 C 52.714844 125.402344 52.722656 125.382812 52.730469 125.363281 C 52.730469 125.355469 52.730469 125.355469 52.730469 125.355469 C 52.730469 125.351562 52.730469 125.355469 52.734375 125.351562 C 52.75 125.3125 52.769531 125.273438 52.792969 125.238281 C 52.84375 125.152344 52.8125 125.023438 52.71875 124.972656 Z M 51.394531 125.277344 C 51.355469 125.183594 51.261719 125.101562 51.152344 125.140625 C 51.058594 125.167969 50.96875 125.28125 51.011719 125.382812 C 51.183594 125.792969 51.355469 126.203125 51.527344 126.609375 C 51.566406 126.703125 51.660156 126.785156 51.769531 126.75 C 51.863281 126.71875 51.953125 126.609375 51.910156 126.503906 C 51.738281 126.09375 51.566406 125.6875 51.394531 125.277344 Z M 59.042969 119.503906 C 59.023438 119.398438 58.898438 119.339844 58.800781 119.363281 C 58.691406 119.394531 58.640625 119.503906 58.660156 119.609375 C 58.773438 120.175781 58.886719 120.746094 59.003906 121.316406 C 59.027344 121.421875 59.148438 121.480469 59.25 121.453125 C 59.359375 121.425781 59.410156 121.316406 59.386719 121.210938 C 59.269531 120.640625 59.15625 120.074219 59.042969 119.503906 Z M 54.726562 124.988281 C 54.246094 125.195312 53.839844 125.554688 53.5625 125.992188 C 53.507812 126.082031 53.542969 126.214844 53.632812 126.265625 C 53.730469 126.316406 53.847656 126.285156 53.90625 126.195312 C 53.9375 126.144531 53.96875 126.097656 54 126.050781 C 54.003906 126.050781 54.015625 126.03125 54.019531 126.027344 C 54.027344 126.019531 54.03125 126.011719 54.039062 126.003906 C 54.058594 125.980469 54.078125 125.960938 54.09375 125.9375 C 54.171875 125.847656 54.257812 125.765625 54.347656 125.6875 C 54.367188 125.667969 54.390625 125.648438 54.414062 125.628906 C 54.417969 125.628906 54.417969 125.625 54.421875 125.625 C 54.421875 125.625 54.421875 125.625 54.425781 125.625 C 54.4375 125.617188 54.449219 125.609375 54.457031 125.597656 C 54.503906 125.566406 54.554688 125.53125 54.601562 125.503906 C 54.707031 125.4375 54.8125 125.382812 54.921875 125.332031 C 55.015625 125.292969 55.046875 125.144531 54.992188 125.0625 C 54.933594 124.960938 54.828125 124.945312 54.726562 124.988281 Z M 71.195312 127.507812 C 70.78125 127.917969 70.542969 128.472656 70.515625 129.050781 C 70.511719 129.15625 70.609375 129.25 70.714844 129.25 C 70.824219 129.25 70.910156 129.15625 70.914062 129.050781 C 70.933594 128.585938 71.136719 128.125 71.472656 127.789062 C 71.652344 127.605469 71.375 127.328125 71.195312 127.507812 Z M 69.195312 127.964844 C 69.203125 127.855469 69.097656 127.765625 68.996094 127.765625 C 68.882812 127.765625 68.808594 127.855469 68.796875 127.964844 C 68.746094 128.585938 68.871094 129.210938 69.144531 129.773438 C 69.191406 129.871094 69.328125 129.894531 69.414062 129.84375 C 69.515625 129.785156 69.535156 129.667969 69.484375 129.570312 C 69.242188 129.074219 69.148438 128.515625 69.195312 127.964844 Z M 60.460938 119.820312 C 60.355469 119.796875 60.25 119.851562 60.214844 119.960938 C 60.109375 120.324219 60 120.683594 59.890625 121.046875 C 59.863281 121.144531 59.929688 121.265625 60.03125 121.289062 C 60.136719 121.316406 60.242188 121.257812 60.273438 121.152344 C 60.382812 120.789062 60.492188 120.429688 60.601562 120.066406 C 60.628906 119.964844 60.566406 119.84375 60.460938 119.820312 Z M 61.941406 120.152344 C 61.476562 120.3125 61.101562 120.71875 61.007812 121.207031 C 60.988281 121.308594 61.035156 121.425781 61.144531 121.453125 C 61.242188 121.472656 61.367188 121.421875 61.390625 121.316406 C 61.398438 121.265625 61.410156 121.214844 61.429688 121.164062 C 61.4375 121.140625 61.445312 121.117188 61.453125 121.09375 C 61.457031 121.078125 61.464844 121.066406 61.46875 121.054688 C 61.492188 121.011719 61.515625 120.96875 61.542969 120.925781 C 61.550781 120.914062 61.566406 120.886719 61.582031 120.871094 C 61.582031 120.871094 61.582031 120.871094 61.585938 120.863281 C 61.59375 120.855469 61.601562 120.84375 61.613281 120.832031 C 61.644531 120.796875 61.679688 120.761719 61.71875 120.726562 C 61.734375 120.710938 61.753906 120.695312 61.773438 120.679688 C 61.785156 120.671875 61.796875 120.664062 61.808594 120.652344 C 61.851562 120.628906 61.890625 120.601562 61.933594 120.578125 C 61.953125 120.570312 61.976562 120.558594 61.996094 120.550781 C 62 120.546875 62.003906 120.546875 62.007812 120.546875 C 62.023438 120.539062 62.035156 120.535156 62.046875 120.53125 C 62.144531 120.496094 62.21875 120.394531 62.1875 120.285156 C 62.15625 120.195312 62.046875 120.121094 61.941406 120.152344 Z M 73.125 127.773438 C 73.023438 127.714844 72.917969 127.757812 72.851562 127.84375 C 72.496094 128.320312 72.144531 128.792969 71.789062 129.265625 C 71.722656 129.347656 71.773438 129.488281 71.859375 129.535156 C 71.960938 129.59375 72.066406 129.550781 72.128906 129.464844 C 72.484375 128.992188 72.839844 128.515625 73.195312 128.046875 C 73.261719 127.957031 73.210938 127.824219 73.125 127.773438 Z M 22.917969 95.472656 C 22.816406 95.816406 22.757812 96.171875 22.746094 96.53125 C 22.746094 96.605469 22.808594 96.667969 22.878906 96.667969 C 22.953125 96.667969 23.011719 96.605469 23.011719 96.53125 C 23.023438 96.195312 23.078125 95.867188 23.175781 95.542969 C 23.222656 95.382812 22.96875 95.3125 22.917969 95.472656 Z M 21.972656 95.484375 C 21.90625 95.484375 21.832031 95.542969 21.839844 95.617188 C 21.875 95.921875 21.90625 96.226562 21.941406 96.53125 C 21.949219 96.601562 21.996094 96.667969 22.074219 96.667969 C 22.140625 96.667969 22.214844 96.605469 22.207031 96.53125 C 22.171875 96.226562 22.140625 95.921875 22.105469 95.617188 C 22.097656 95.546875 22.046875 95.484375 21.972656 95.484375 Z M 44.003906 112.203125 C 43.90625 112.144531 43.792969 112.1875 43.734375 112.273438 C 43.390625 112.769531 43.289062 113.410156 43.441406 113.992188 C 43.503906 114.238281 43.886719 114.132812 43.824219 113.882812 C 43.695312 113.402344 43.789062 112.886719 44.074219 112.472656 C 44.132812 112.382812 44.089844 112.253906 44.003906 112.203125 Z M 24.527344 95.136719 C 24.460938 95.097656 24.390625 95.128906 24.347656 95.1875 L 23.457031 96.40625 C 23.417969 96.464844 23.449219 96.554688 23.507812 96.589844 C 23.574219 96.628906 23.644531 96.597656 23.6875 96.539062 C 23.984375 96.132812 24.277344 95.726562 24.574219 95.320312 C 24.617188 95.257812 24.582031 95.167969 24.527344 95.136719 Z M 25.339844 82.945312 C 25.421875 83.011719 25.558594 82.957031 25.609375 82.875 C 25.667969 82.773438 25.625 82.671875 25.539062 82.605469 C 24.742188 81.996094 23.882812 81.46875 22.980469 81.035156 C 22.75 80.921875 22.550781 81.265625 22.78125 81.375 C 23.683594 81.8125 24.539062 82.339844 25.339844 82.945312 Z M 41.75 112.445312 C 41.703125 112.351562 41.5625 112.320312 41.476562 112.375 C 41.382812 112.4375 41.355469 112.546875 41.40625 112.644531 C 41.609375 113.0625 41.816406 113.480469 42.019531 113.898438 C 42.066406 113.992188 42.207031 114.023438 42.292969 113.96875 C 42.386719 113.90625 42.414062 113.796875 42.359375 113.695312 C 42.15625 113.28125 41.953125 112.863281 41.75 112.445312 Z M 30.210938 104.554688 C 30.1875 104.453125 30.066406 104.390625 29.964844 104.417969 C 29.859375 104.445312 29.808594 104.554688 29.828125 104.664062 C 29.945312 105.230469 30.058594 105.800781 30.175781 106.367188 C 30.195312 106.472656 30.320312 106.53125 30.417969 106.503906 C 30.527344 106.476562 30.578125 106.367188 30.558594 106.261719 Z M 33.242188 105.027344 C 33.140625 104.972656 33.035156 105.007812 32.972656 105.097656 L 32.195312 106.191406 C 32.132812 106.277344 32.179688 106.417969 32.265625 106.460938 C 32.367188 106.515625 32.472656 106.480469 32.535156 106.390625 C 32.792969 106.027344 33.054688 105.664062 33.3125 105.296875 C 33.375 105.214844 33.332031 105.074219 33.242188 105.027344 Z M 31.722656 104.433594 C 31.625 104.375 31.511719 104.414062 31.453125 104.503906 C 31.164062 104.953125 30.992188 105.46875 30.9375 106 C 30.925781 106.105469 31.035156 106.199219 31.136719 106.199219 C 31.25 106.199219 31.320312 106.105469 31.332031 106 C 31.378906 105.546875 31.542969 105.09375 31.792969 104.703125 C 31.851562 104.613281 31.8125 104.484375 31.722656 104.433594 Z M 112.257812 114.71875 C 112.15625 114.660156 112.046875 114.699219 111.984375 114.789062 C 111.609375 115.316406 111.328125 115.90625 111.148438 116.53125 C 111.078125 116.777344 111.460938 116.882812 111.53125 116.636719 C 111.699219 116.046875 111.972656 115.492188 112.328125 114.988281 C 112.390625 114.902344 112.34375 114.769531 112.257812 114.71875 Z M 128.9375 89.789062 C 128.195312 91.234375 126.703125 92.238281 125.078125 92.347656 C 124.824219 92.363281 124.824219 92.761719 125.078125 92.746094 C 126.839844 92.625 128.472656 91.5625 129.277344 89.988281 C 129.394531 89.761719 129.050781 89.5625 128.9375 89.789062 Z M 122.78125 98.007812 C 122.769531 97.996094 122.757812 97.980469 122.75 97.96875 C 122.75 97.96875 122.75 97.96875 122.753906 97.972656 C 122.746094 97.964844 122.742188 97.957031 122.734375 97.949219 C 122.691406 97.890625 122.648438 97.828125 122.613281 97.761719 C 122.597656 97.730469 122.582031 97.699219 122.566406 97.667969 C 122.5625 97.65625 122.554688 97.648438 122.550781 97.640625 C 122.550781 97.636719 122.546875 97.628906 122.542969 97.625 C 122.542969 97.617188 122.535156 97.605469 122.535156 97.601562 C 122.507812 97.527344 122.484375 97.453125 122.464844 97.378906 C 122.441406 97.277344 122.320312 97.210938 122.222656 97.242188 C 122.117188 97.277344 122.058594 97.378906 122.085938 97.488281 C 122.164062 97.820312 122.335938 98.128906 122.574219 98.375 C 122.644531 98.449219 122.78125 98.453125 122.855469 98.375 C 122.925781 98.292969 122.929688 98.171875 122.855469 98.09375 C 122.832031 98.066406 122.804688 98.039062 122.78125 98.007812 Z M 123.058594 79.417969 C 124.3125 79.277344 125.519531 78.875 126.605469 78.230469 C 126.820312 78.101562 126.621094 77.757812 126.402344 77.890625 C 125.382812 78.496094 124.238281 78.890625 123.058594 79.023438 C 122.808594 79.050781 122.804688 79.449219 123.058594 79.417969 Z M 126.214844 97.257812 C 125.796875 97.570312 125.382812 97.878906 124.96875 98.191406 C 124.886719 98.253906 124.835938 98.363281 124.898438 98.460938 C 124.953125 98.542969 125.078125 98.597656 125.167969 98.53125 C 125.585938 98.21875 126 97.90625 126.414062 97.597656 C 126.496094 97.535156 126.546875 97.421875 126.484375 97.328125 C 126.433594 97.246094 126.300781 97.191406 126.214844 97.257812 Z M 129.070312 75.226562 C 125.753906 77.003906 122.167969 78.246094 118.464844 78.910156 C 118.214844 78.957031 118.320312 79.335938 118.570312 79.292969 C 122.308594 78.621094 125.925781 77.363281 129.273438 75.570312 C 129.492188 75.449219 129.292969 75.105469 129.070312 75.226562 Z M 91.179688 78.425781 C 90.207031 78.023438 89.25 77.585938 88.3125 77.105469 C 88.082031 76.988281 87.882812 77.332031 88.109375 77.445312 C 89.082031 77.941406 90.070312 78.394531 91.078125 78.804688 C 91.175781 78.847656 91.292969 78.761719 91.320312 78.667969 C 91.351562 78.554688 91.277344 78.464844 91.179688 78.425781 Z M 89.867188 83.285156 L 89.867188 89.15625 L 81.617188 90.523438 L 81.617188 84.746094 Z M 89.46875 83.757812 L 82.015625 85.078125 L 82.015625 90.054688 L 89.46875 88.820312 Z M 82.289062 120.332031 C 82.304688 120.226562 82.1875 120.132812 82.089844 120.132812 C 81.972656 120.132812 81.90625 120.226562 81.890625 120.332031 C 81.816406 120.921875 81.867188 121.53125 82.03125 122.101562 C 82.105469 122.34375 82.488281 122.242188 82.414062 121.996094 C 82.257812 121.453125 82.214844 120.890625 82.289062 120.332031 Z M 125.835938 90.71875 C 125.011719 91.277344 124.054688 91.605469 123.0625 91.664062 C 122.808594 91.679688 122.808594 92.078125 123.0625 92.0625 C 124.121094 92 125.15625 91.65625 126.035156 91.0625 C 126.246094 90.921875 126.046875 90.578125 125.835938 90.71875 Z M 124.15625 97.296875 C 123.886719 97.578125 123.738281 97.980469 123.78125 98.371094 C 123.792969 98.472656 123.863281 98.574219 123.980469 98.566406 C 124.078125 98.5625 124.191406 98.480469 124.179688 98.371094 C 124.167969 98.289062 124.167969 98.207031 124.175781 98.128906 C 124.175781 98.125 124.179688 98.109375 124.179688 98.109375 C 124.183594 98.089844 124.1875 98.070312 124.191406 98.050781 C 124.203125 98.007812 124.210938 97.96875 124.226562 97.929688 C 124.234375 97.910156 124.238281 97.894531 124.246094 97.875 C 124.246094 97.871094 124.246094 97.867188 124.25 97.863281 C 124.25 97.859375 124.253906 97.859375 124.253906 97.851562 C 124.269531 97.816406 124.289062 97.78125 124.308594 97.746094 C 124.332031 97.710938 124.355469 97.679688 124.378906 97.644531 C 124.382812 97.640625 124.390625 97.632812 124.394531 97.625 C 124.410156 97.609375 124.421875 97.59375 124.4375 97.578125 C 124.511719 97.503906 124.519531 97.371094 124.4375 97.296875 C 124.355469 97.226562 124.230469 97.214844 124.15625 97.296875 Z M 92.5 123.546875 C 92.816406 124.082031 92.972656 124.691406 92.949219 125.3125 C 92.941406 125.566406 93.335938 125.566406 93.347656 125.3125 C 93.371094 124.625 93.195312 123.941406 92.84375 123.347656 C 92.710938 123.128906 92.367188 123.328125 92.5 123.546875 Z M 86.175781 119.90625 C 85.792969 120.300781 85.40625 120.695312 85.019531 121.089844 C 84.949219 121.164062 84.941406 121.296875 85.019531 121.371094 C 85.097656 121.441406 85.222656 121.449219 85.300781 121.371094 C 85.6875 120.976562 86.070312 120.582031 86.457031 120.1875 C 86.53125 120.113281 86.539062 119.980469 86.457031 119.90625 C 86.378906 119.835938 86.253906 119.828125 86.175781 119.90625 Z M 94.992188 123.902344 C 94.667969 124.320312 94.410156 124.773438 94.210938 125.265625 C 94.171875 125.363281 94.253906 125.488281 94.351562 125.507812 C 94.464844 125.535156 94.554688 125.476562 94.59375 125.371094 C 94.753906 124.96875 95.003906 124.523438 95.273438 124.179688 C 95.339844 124.097656 95.355469 123.984375 95.273438 123.902344 C 95.203125 123.832031 95.058594 123.816406 94.992188 123.902344 Z M 84.066406 120.011719 C 83.976562 119.960938 83.84375 119.988281 83.792969 120.082031 C 83.566406 120.539062 83.339844 120.996094 83.113281 121.453125 C 83.066406 121.550781 83.085938 121.671875 83.183594 121.726562 C 83.273438 121.777344 83.40625 121.75 83.457031 121.65625 C 83.683594 121.199219 83.910156 120.742188 84.136719 120.28125 C 84.183594 120.183594 84.160156 120.066406 84.066406 120.011719 Z M 108.914062 114.980469 C 108.875 114.882812 108.78125 114.8125 108.667969 114.84375 C 108.574219 114.871094 108.488281 114.984375 108.53125 115.085938 L 109.152344 116.644531 C 109.191406 116.746094 109.285156 116.816406 109.398438 116.78125 C 109.492188 116.757812 109.574219 116.640625 109.535156 116.539062 Z M 110.515625 114.972656 C 110.363281 115.492188 110.210938 116.011719 110.058594 116.53125 C 109.988281 116.777344 110.371094 116.882812 110.441406 116.636719 C 110.59375 116.117188 110.746094 115.597656 110.898438 115.078125 C 110.96875 114.832031 110.585938 114.726562 110.515625 114.972656 Z M 91.757812 77.695312 C 90.195312 76.714844 88.542969 75.890625 86.824219 75.226562 C 86.585938 75.132812 86.480469 75.515625 86.71875 75.609375 C 88.40625 76.257812 90.023438 77.074219 91.558594 78.039062 C 91.777344 78.171875 91.972656 77.832031 91.757812 77.695312 Z M 96.613281 124.34375 C 96.1875 124.605469 95.808594 124.941406 95.5 125.332031 C 95.4375 125.414062 95.417969 125.535156 95.5 125.613281 C 95.570312 125.679688 95.714844 125.699219 95.78125 125.613281 C 95.925781 125.425781 96.089844 125.25 96.269531 125.089844 C 96.3125 125.050781 96.355469 125.015625 96.398438 124.976562 C 96.421875 124.957031 96.449219 124.9375 96.46875 124.917969 C 96.472656 124.917969 96.472656 124.917969 96.472656 124.917969 C 96.472656 124.914062 96.472656 124.914062 96.480469 124.914062 C 96.488281 124.90625 96.5 124.898438 96.507812 124.890625 C 96.605469 124.816406 96.707031 124.75 96.8125 124.683594 C 96.898438 124.632812 96.941406 124.503906 96.882812 124.414062 C 96.824219 124.328125 96.707031 124.285156 96.613281 124.34375 Z M 122.746094 97.96875 C 122.726562 97.933594 122.738281 97.957031 122.746094 97.96875 Z M 131.785156 78.652344 C 131.785156 93.863281 125.859375 108.15625 115.109375 118.910156 C 104.355469 129.664062 90.058594 135.585938 74.847656 135.585938 C 59.644531 135.585938 45.34375 129.664062 34.59375 118.910156 C 23.839844 108.15625 17.914062 93.863281 17.914062 78.652344 C 17.914062 66.574219 21.65625 55.074219 28.582031 45.460938 C 28.261719 44.027344 28.4375 42.488281 29.171875 41.183594 C 30.289062 39.203125 32.570312 38.007812 34.828125 38.136719 C 34.027344 36.394531 34.492188 34.265625 35.742188 32.832031 C 37.136719 31.230469 39.339844 30.589844 41.414062 30.621094 C 40.933594 28.929688 42.539062 27.035156 44.3125 27.328125 C 46.289062 23.628906 51.261719 22.023438 55.042969 23.8125 C 56.890625 20.632812 61.722656 19.863281 64.492188 22.253906 C 65.359375 19.347656 69.074219 17.746094 71.78125 19.136719 C 73.183594 17.546875 75.035156 16.15625 77.214844 15.984375 C 78.988281 15.839844 80.902344 16.605469 81.835938 18.160156 C 82.898438 16.539062 84.648438 15.398438 86.582031 15.140625 C 88.617188 14.859375 90.714844 15.59375 92.183594 17.015625 C 92.671875 15.988281 93.589844 15.242188 94.675781 14.878906 C 97.035156 14.078125 99.847656 15.226562 101.511719 16.953125 C 102.824219 18.320312 103.753906 20.386719 102.957031 22.195312 C 103.789062 21.929688 104.679688 21.996094 105.507812 22.351562 C 107.304688 23.121094 108.722656 25.074219 108.628906 27.070312 C 108.558594 28.5 107.726562 30.171875 106.304688 30.515625 C 106.996094 30.914062 107.554688 31.523438 107.914062 32.253906 C 107.96875 32.371094 108.019531 32.488281 108.0625 32.605469 C 108.070312 32.542969 108.074219 32.476562 108.074219 32.414062 C 110.546875 34.199219 112.902344 36.195312 115.105469 38.394531 C 125.859375 49.148438 131.785156 63.445312 131.785156 78.652344 Z M 106.824219 38.199219 C 106.175781 38.957031 105.296875 39.589844 104.277344 39.683594 C 103.601562 39.742188 102.925781 39.566406 102.40625 39.160156 C 102.636719 41.230469 101.679688 43.386719 99.914062 44.53125 C 97.972656 45.785156 95.332031 45.597656 93.515625 44.222656 C 93.03125 45.679688 92.316406 47.128906 91.046875 48.042969 C 89.929688 48.851562 88.398438 49.136719 87.136719 48.542969 C 87.058594 50.414062 85.960938 52.214844 84.265625 53.066406 C 82.566406 53.917969 80.488281 53.722656 78.933594 52.671875 C 78.828125 53.929688 78.402344 55.238281 77.386719 56.046875 C 76.503906 56.746094 75.253906 56.992188 74.234375 56.496094 C 74.105469 57.59375 72.390625 58.609375 71.175781 58.46875 C 71.195312 58.488281 71.21875 58.503906 71.238281 58.523438 C 71.695312 58.988281 71.949219 59.640625 71.941406 60.316406 C 71.898438 63.300781 72.019531 68.367188 72.058594 69.0625 C 72.230469 72.183594 72.570312 75.316406 73.0625 78.398438 L 74.78125 78.050781 L 84.847656 73.003906 L 96.929688 77.507812 L 96.929688 58.839844 C 96.472656 58.714844 96.148438 58.308594 96.148438 57.824219 C 96.148438 57.242188 96.625 56.765625 97.210938 56.765625 L 102.082031 56.765625 C 102.664062 56.765625 103.140625 57.238281 103.140625 57.824219 C 103.140625 58.308594 102.816406 58.714844 102.359375 58.839844 L 102.359375 79.65625 L 102.414062 79.46875 L 107.679688 80.917969 L 110.5 80.515625 C 111.101562 80.332031 127.902344 75.089844 131.109375 73.074219 C 129.84375 60.082031 124.171875 48.035156 114.824219 38.679688 C 112.742188 36.597656 110.523438 34.703125 108.191406 32.996094 C 108.703125 34.796875 108.027344 36.792969 106.824219 38.199219 Z M 103.707031 86.625 L 111.171875 86.625 C 111.503906 86.59375 111.769531 86.3125 111.769531 85.96875 C 111.769531 85.605469 111.46875 85.308594 111.105469 85.308594 L 103.71875 85.308594 C 103.351562 85.308594 103.054688 85.605469 103.054688 85.96875 C 103.054688 86.328125 103.347656 86.625 103.707031 86.628906 Z M 103.90625 92.96875 C 105.109375 92.664062 106.371094 92.496094 107.667969 92.496094 C 108.785156 92.496094 109.875 92.617188 110.921875 92.847656 L 110.921875 87.023438 L 103.90625 87.023438 Z M 96.648438 97.71875 C 99.425781 99 103.335938 99.796875 107.667969 99.796875 C 112 99.796875 115.914062 98.996094 118.691406 97.714844 C 115.9375 94.753906 112.019531 92.890625 107.667969 92.890625 C 103.3125 92.890625 99.398438 94.753906 96.648438 97.71875 Z M 119.941406 109.320312 C 121.707031 108.894531 122.703125 108.402344 122.703125 107.929688 C 122.703125 105.074219 121.902344 102.398438 120.515625 100.125 C 120.007812 100.460938 119.433594 100.769531 118.808594 101.058594 C 119.695312 103.714844 120.082031 106.519531 119.941406 109.320312 Z M 112.140625 110.300781 C 113.757812 110.214844 115.238281 110.078125 116.535156 109.914062 C 116.535156 107.316406 116.050781 104.746094 115.125 102.316406 C 113.988281 102.601562 112.765625 102.820312 111.476562 102.96875 C 111.996094 105.375 112.222656 107.839844 112.140625 110.300781 Z M 111.082031 103.007812 C 110.074219 103.113281 109.035156 103.171875 107.960938 103.179688 L 107.960938 110.382812 C 107.960938 110.394531 107.957031 110.40625 107.953125 110.417969 C 109.28125 110.414062 110.546875 110.382812 111.742188 110.324219 C 111.828125 107.867188 111.609375 105.414062 111.082031 103.007812 Z M 116.933594 109.863281 C 117.914062 109.726562 118.792969 109.574219 119.542969 109.410156 C 119.691406 106.632812 119.316406 103.855469 118.441406 101.21875 C 117.558594 101.601562 116.574219 101.9375 115.511719 102.222656 C 116.441406 104.65625 116.925781 107.25 116.933594 109.863281 Z M 120.316406 99.8125 C 119.902344 99.175781 119.445312 98.570312 118.945312 98.003906 C 116.101562 99.351562 112.097656 100.195312 107.667969 100.195312 C 103.238281 100.195312 99.234375 99.351562 96.390625 98.003906 C 96.238281 98.171875 96.09375 98.34375 95.953125 98.519531 C 97.148438 99.414062 98.21875 100.464844 99.144531 101.628906 C 101.578125 102.355469 104.507812 102.789062 107.667969 102.789062 C 110.382812 102.789062 112.929688 102.46875 115.136719 101.921875 C 115.167969 101.902344 115.199219 101.898438 115.230469 101.894531 C 117.269531 101.378906 119.011719 100.664062 120.316406 99.8125 Z M 104.082031 110.34375 C 105.1875 110.390625 106.351562 110.417969 107.574219 110.417969 C 107.574219 110.40625 107.566406 110.394531 107.566406 110.382812 L 107.566406 103.179688 C 106.394531 103.179688 105.253906 103.113281 104.152344 102.996094 C 103.753906 105.371094 103.746094 107.796875 104.136719 110.171875 C 104.152344 110.242188 104.125 110.300781 104.082031 110.34375 Z M 94.78125 114.574219 C 94.777344 114.601562 94.765625 114.625 94.753906 114.640625 C 96.46875 114.449219 97.9375 114.207031 99.125 113.933594 C 99.132812 110.375 98.398438 106.835938 96.960938 103.578125 C 95.890625 104.089844 94.652344 104.527344 93.289062 104.875 C 93.289062 104.882812 93.296875 104.890625 93.300781 104.902344 C 93.792969 106.480469 94.109375 108.101562 94.394531 109.726562 C 94.679688 111.328125 95.019531 112.949219 94.78125 114.574219 Z M 89.953125 114.902344 C 89.953125 114.953125 89.933594 114.984375 89.914062 115.015625 C 91.574219 114.941406 93.105469 114.820312 94.488281 114.671875 C 94.425781 114.628906 94.382812 114.558594 94.398438 114.46875 C 94.636719 112.839844 94.253906 111.183594 93.96875 109.585938 C 93.699219 108.042969 93.390625 106.507812 92.921875 105.011719 C 92.914062 104.992188 92.917969 104.984375 92.914062 104.972656 C 91.847656 105.226562 90.703125 105.429688 89.5 105.566406 C 89.5 105.570312 89.503906 105.574219 89.503906 105.578125 C 89.753906 108.683594 89.902344 111.792969 89.953125 114.902344 Z M 70.945312 113.574219 C 71.203125 109.996094 72.191406 106.503906 73.84375 103.320312 C 73.226562 102.996094 72.667969 102.640625 72.1875 102.269531 C 70.09375 105.074219 68.851562 108.546875 68.851562 112.308594 C 68.851562 112.742188 69.601562 113.195312 70.953125 113.605469 C 70.953125 113.597656 70.945312 113.585938 70.945312 113.574219 Z M 30.347656 72.96875 C 30.195312 75.71875 29.871094 78.480469 29.382812 81.179688 C 28.464844 86.25 27.238281 91.246094 26.0625 95.933594 C 25.96875 96.300781 25.878906 96.652344 25.792969 96.996094 C 28.863281 98.140625 32.800781 98.828125 37.089844 98.828125 C 40.988281 98.828125 44.585938 98.261719 47.511719 97.304688 C 47.695312 96.574219 47.875 95.839844 48.058594 95.101562 C 46.941406 90.652344 45.804688 85.949219 44.945312 81.179688 L 44.878906 80.992188 L 44.910156 80.980469 C 44.445312 78.34375 44.132812 75.648438 43.980469 72.96875 C 43.953125 72.453125 43.867188 68.71875 43.894531 66.507812 C 43.898438 66.101562 43.75 65.710938 43.476562 65.4375 C 43.238281 65.195312 42.925781 65.058594 42.597656 65.058594 L 31.75 65.058594 C 31.40625 65.058594 31.09375 65.195312 30.855469 65.4375 C 30.582031 65.714844 30.429688 66.101562 30.433594 66.507812 C 30.46875 68.707031 30.375 72.449219 30.347656 72.96875 Z M 47.789062 62.722656 C 47.210938 63.414062 46.449219 63.949219 45.636719 64.328125 C 45.242188 64.519531 44.832031 64.671875 44.410156 64.796875 C 44.21875 64.851562 43.945312 65.015625 43.6875 65.089844 C 43.710938 65.113281 43.734375 65.132812 43.757812 65.15625 C 44.101562 65.503906 44.296875 66 44.289062 66.511719 C 44.261719 68.714844 44.347656 72.429688 44.375 72.941406 C 44.523438 75.585938 44.832031 78.242188 45.292969 80.839844 L 51.570312 78.578125 C 52.082031 75.433594 52.429688 72.238281 52.605469 69.054688 C 52.640625 68.359375 52.765625 63.292969 52.722656 60.308594 C 52.71875 60.039062 52.757812 59.769531 52.835938 59.515625 C 51.890625 58.980469 51.796875 57.523438 52.601562 56.828125 C 52.148438 55.984375 52.160156 54.980469 52.507812 54.101562 C 51.992188 54.480469 51.316406 54.578125 50.710938 54.355469 C 50.472656 55.847656 50.027344 57.546875 48.523438 58.164062 C 49.242188 59.664062 48.839844 61.472656 47.789062 62.722656 Z M 53 69.082031 C 52.824219 72.285156 52.472656 75.496094 51.960938 78.65625 L 52.027344 78.839844 L 51.921875 78.875 C 51.847656 79.332031 51.769531 79.785156 51.691406 80.230469 C 50.449219 87.113281 48.78125 93.90625 47.179688 100.273438 C 47.027344 100.898438 46.871094 101.5 46.722656 102.082031 C 50.472656 103.8125 56.078125 104.910156 62.332031 104.910156 C 65.226562 104.910156 67.972656 104.671875 70.464844 104.25 C 71.933594 101.484375 74.136719 99.167969 76.808594 97.554688 C 75.425781 91.988281 74.042969 86.144531 72.976562 80.230469 C 72.316406 76.5625 71.875 72.808594 71.667969 69.074219 C 71.628906 68.378906 71.503906 63.296875 71.550781 60.304688 C 71.558594 59.730469 71.34375 59.183594 70.960938 58.796875 C 70.617188 58.453125 70.175781 58.261719 69.714844 58.261719 L 54.972656 58.261719 C 54.488281 58.261719 54.046875 58.453125 53.707031 58.796875 C 53.324219 59.183594 53.109375 59.734375 53.117188 60.304688 C 53.160156 63.300781 53.039062 68.382812 53 69.082031 Z M 97.332031 58.492188 L 101.96875 58.492188 L 102.148438 58.476562 C 102.484375 58.441406 102.75 58.15625 102.75 57.820312 C 102.75 57.457031 102.449219 57.15625 102.085938 57.15625 L 97.214844 57.15625 C 96.847656 57.15625 96.550781 57.457031 96.550781 57.820312 C 96.550781 58.15625 96.816406 58.441406 97.152344 58.476562 Z M 96.933594 96.867188 L 96.933594 94.078125 L 91.382812 96.078125 C 92.90625 96.621094 94.339844 97.367188 95.632812 98.289062 C 96.035156 97.789062 96.472656 97.316406 96.933594 96.867188 Z M 96.933594 93.867188 Z M 90.960938 95.808594 L 96.550781 93.796875 L 90.960938 92.738281 Z M 90.566406 92.632812 L 90.566406 91.925781 L 89.140625 92.15625 L 89.140625 93.289062 L 90.539062 93.085938 L 90.566406 93.285156 Z M 89.140625 93.691406 L 89.140625 95.453125 C 89.625 95.554688 90.097656 95.675781 90.566406 95.816406 L 90.566406 93.484375 Z M 90.566406 91.527344 L 90.566406 82.402344 L 80.550781 84.15625 L 80.550781 93.148438 Z M 88.746094 93.347656 L 88.746094 92.222656 L 86.269531 92.625 L 86.269531 93.710938 Z M 86.269531 94.109375 L 86.269531 95.109375 L 86.097656 95.109375 C 86.996094 95.128906 87.878906 95.222656 88.746094 95.378906 L 88.746094 93.75 Z M 85.871094 93.765625 L 85.871094 92.691406 L 82.878906 93.175781 L 82.878906 94.203125 Z M 82.878906 94.601562 L 82.878906 95.324219 C 83.785156 95.175781 84.71875 95.097656 85.667969 95.097656 C 85.734375 95.097656 85.804688 95.101562 85.871094 95.101562 L 85.871094 94.164062 Z M 82.484375 94.257812 L 82.484375 93.238281 L 80.550781 93.550781 L 80.550781 94.539062 Z M 80.550781 94.9375 L 80.550781 95.878906 C 81.179688 95.683594 81.824219 95.523438 82.484375 95.398438 L 82.484375 94.65625 Z M 90.566406 82.203125 Z M 90.117188 82.078125 L 87.203125 81.277344 L 77.628906 82.441406 L 80.351562 83.789062 Z M 80.15625 94.539062 L 80.15625 93.566406 L 78.996094 93.421875 L 78.996094 94.441406 Z M 78.992188 94.839844 L 78.992188 96.449219 C 79.375 96.289062 79.761719 96.140625 80.152344 96.007812 L 80.152344 94.9375 Z M 80.15625 93.164062 L 80.15625 84.132812 L 77.46875 82.804688 L 77.46875 92.828125 Z M 77.46875 97.1875 C 77.835938 96.984375 78.214844 96.792969 78.597656 96.621094 L 78.597656 94.804688 L 77.46875 94.714844 Z M 78.601562 94.410156 L 78.601562 93.371094 L 77.472656 93.226562 L 77.472656 94.316406 Z M 73.96875 83.320312 C 74.894531 87.972656 75.976562 92.5625 77.074219 96.984375 L 77.074219 82.722656 Z M 76.757812 82.378906 L 73.664062 81.761719 C 73.738281 82.148438 73.8125 82.539062 73.890625 82.929688 Z M 74.148438 100.078125 C 76.941406 101.496094 81.066406 102.398438 85.667969 102.398438 C 90.265625 102.398438 94.390625 101.496094 97.183594 100.078125 C 94.171875 97.238281 90.121094 95.496094 85.667969 95.496094 C 83.296875 95.496094 81.042969 95.992188 78.996094 96.882812 L 78.996094 96.964844 L 78.804688 96.964844 C 77.082031 97.742188 75.507812 98.796875 74.148438 100.078125 Z M 96.933594 77.746094 L 96.875 77.902344 L 84.875 73.433594 L 74.914062 78.425781 L 73.128906 78.789062 C 73.207031 79.25 73.285156 79.707031 73.367188 80.160156 C 73.4375 80.554688 73.511719 80.949219 73.585938 81.34375 L 77.285156 82.082031 L 87.234375 80.871094 L 90.960938 81.902344 L 90.960938 92.332031 L 96.933594 93.464844 Z M 51.296875 80.160156 C 51.367188 79.785156 51.433594 79.410156 51.496094 79.035156 L 45.359375 81.242188 C 46.167969 85.691406 47.214844 90.089844 48.257812 94.269531 C 49.367188 89.683594 50.4375 84.941406 51.296875 80.160156 Z M 25.703125 97.367188 C 25.464844 98.289062 25.242188 99.144531 25.027344 99.953125 L 25.007812 99.992188 C 24.976562 100.054688 24.957031 100.113281 24.957031 100.171875 C 24.957031 101.515625 31.300781 102.484375 36.992188 102.515625 L 37.332031 102.515625 C 40.585938 102.496094 44.050781 102.171875 46.421875 101.648438 C 46.542969 101.167969 46.671875 100.679688 46.796875 100.179688 C 46.996094 99.371094 47.203125 98.554688 47.40625 97.734375 C 44.476562 98.671875 40.925781 99.222656 37.089844 99.222656 C 32.78125 99.222656 28.816406 98.527344 25.703125 97.367188 Z M 45.769531 105.734375 L 45.753906 105.773438 C 45.703125 105.871094 45.675781 105.964844 45.675781 106.054688 C 45.675781 107.582031 52.277344 109.257812 62.097656 109.308594 L 62.5625 109.308594 C 64.820312 109.296875 66.898438 109.195312 68.769531 109.035156 C 69.066406 107.503906 69.566406 106.039062 70.242188 104.675781 C 67.800781 105.082031 65.132812 105.308594 62.328125 105.308594 C 56.066406 105.308594 50.445312 104.191406 46.628906 102.4375 C 46.335938 103.601562 46.046875 104.6875 45.769531 105.734375 Z M 71.300781 113.707031 C 72.265625 113.972656 73.488281 114.222656 74.941406 114.433594 C 74.96875 111.039062 75.449219 107.652344 76.355469 104.382812 C 75.578125 104.117188 74.855469 103.820312 74.199219 103.496094 C 72.617188 106.53125 71.652344 109.863281 71.367188 113.273438 C 71.375 113.300781 71.378906 113.332031 71.375 113.367188 C 71.363281 113.453125 71.347656 113.542969 71.335938 113.628906 C 71.332031 113.664062 71.320312 113.6875 71.300781 113.707031 Z M 75.332031 114.488281 C 76.691406 114.671875 78.234375 114.828125 79.929688 114.9375 C 80.070312 111.769531 80.339844 108.601562 80.753906 105.457031 C 80.757812 105.445312 80.761719 105.4375 80.765625 105.425781 C 79.316406 105.207031 77.960938 104.894531 76.738281 104.503906 C 75.835938 107.753906 75.363281 111.105469 75.335938 114.476562 C 75.335938 114.480469 75.332031 114.484375 75.332031 114.488281 Z M 80.324219 114.957031 C 81.738281 115.042969 83.257812 115.09375 84.859375 115.105469 C 84.917969 111.996094 84.976562 108.882812 85.039062 105.773438 C 83.691406 105.75 82.386719 105.648438 81.148438 105.476562 C 80.738281 108.628906 80.464844 111.789062 80.324219 114.957031 Z M 85.667969 105.386719 C 91.347656 105.386719 96.304688 104.011719 98.921875 101.980469 C 98.46875 101.40625 97.984375 100.855469 97.464844 100.34375 C 94.597656 101.839844 90.375 102.792969 85.667969 102.792969 C 80.957031 102.792969 76.734375 101.839844 73.867188 100.34375 C 73.347656 100.855469 72.863281 101.402344 72.414062 101.980469 C 75.027344 104.011719 79.984375 105.386719 85.667969 105.386719 Z M 85.253906 115.113281 C 85.390625 115.113281 85.527344 115.113281 85.664062 115.113281 C 87.042969 115.113281 88.355469 115.085938 89.605469 115.03125 C 89.578125 115 89.554688 114.957031 89.550781 114.90625 C 89.503906 111.800781 89.355469 108.703125 89.109375 105.609375 C 88 105.722656 86.847656 105.785156 85.664062 105.785156 C 85.585938 105.785156 85.507812 105.78125 85.433594 105.78125 C 85.375 108.890625 85.316406 112 85.253906 115.113281 Z M 99.523438 113.839844 C 101.414062 113.371094 102.480469 112.828125 102.480469 112.308594 C 102.480469 108.546875 101.242188 105.074219 99.148438 102.269531 C 98.621094 102.675781 98.003906 103.054688 97.316406 103.410156 C 98.761719 106.691406 99.519531 110.25 99.523438 113.839844 Z M 100.828125 104.1875 C 100.851562 103.621094 100.917969 103.058594 101.03125 102.5 C 100.515625 102.390625 100.019531 102.273438 99.539062 102.136719 C 100.015625 102.789062 100.445312 103.472656 100.828125 104.1875 Z M 102.75 110.273438 C 103.085938 110.296875 103.429688 110.3125 103.777344 110.328125 C 103.769531 110.3125 103.757812 110.296875 103.753906 110.273438 C 103.351562 107.847656 103.355469 105.378906 103.761719 102.953125 C 102.953125 102.855469 102.167969 102.734375 101.414062 102.582031 C 101.265625 103.328125 101.203125 104.082031 101.21875 104.839844 C 101.21875 104.871094 101.214844 104.898438 101.203125 104.921875 C 101.996094 106.578125 102.527344 108.378906 102.75 110.273438 Z M 118.976562 90.242188 C 119.292969 90.183594 119.523438 89.910156 119.523438 89.589844 C 119.523438 89.222656 119.226562 88.925781 118.863281 88.925781 L 112.722656 88.925781 C 112.359375 88.925781 112.058594 89.222656 112.058594 89.589844 C 112.058594 89.910156 112.289062 90.183594 112.609375 90.242188 L 112.691406 90.253906 L 118.894531 90.253906 Z M 112.773438 93.367188 C 115.085938 94.179688 117.148438 95.53125 118.8125 97.269531 L 118.8125 90.652344 L 112.773438 90.652344 Z M 101.96875 93.597656 L 101.96875 58.890625 L 97.332031 58.890625 L 97.332031 96.492188 C 98.679688 95.269531 100.25 94.28125 101.96875 93.597656 Z M 71.46875 21.019531 C 71.402344 21.296875 71.347656 21.574219 71.300781 21.855469 C 71.253906 22.152344 71.273438 22.492188 71.199219 22.777344 C 71.148438 22.972656 70.972656 23.011719 70.804688 23.097656 C 70.578125 23.210938 70.347656 23.324219 70.121094 23.445312 C 69.664062 23.679688 69.21875 23.933594 68.792969 24.21875 C 67.164062 25.304688 65.683594 27.285156 66.515625 29.324219 C 66.570312 29.457031 66.402344 29.617188 66.273438 29.566406 C 63.988281 28.6875 61.652344 30.503906 60.21875 32.121094 C 59.449219 32.988281 58.9375 34.007812 59.007812 35.191406 C 59.074219 36.234375 59.554688 37.226562 60.355469 37.90625 C 60.476562 38.011719 60.394531 38.191406 60.265625 38.238281 C 57.746094 39.15625 56.453125 42.425781 57.65625 44.820312 C 57.738281 44.980469 57.605469 45.144531 57.433594 45.109375 C 56.035156 44.828125 54.769531 45.996094 54.363281 47.257812 C 53.847656 48.882812 54.515625 50.640625 55.203125 52.105469 C 55.25 52.210938 55.21875 52.378906 55.082031 52.398438 C 53.160156 52.675781 51.992188 55.125 53.019531 56.789062 C 53.078125 56.882812 53.039062 57 52.953125 57.054688 C 52.234375 57.527344 52.308594 58.691406 52.984375 59.148438 C 53.097656 58.914062 53.242188 58.703125 53.421875 58.519531 C 53.835938 58.097656 54.382812 57.867188 54.953125 57.867188 L 69.691406 57.867188 C 70.015625 57.867188 70.328125 57.941406 70.609375 58.074219 C 70.648438 58.066406 70.695312 58.074219 70.753906 58.101562 C 71.777344 58.609375 73.933594 57.269531 73.847656 56.15625 C 73.839844 56.007812 74.027344 55.902344 74.144531 55.984375 C 75.121094 56.636719 76.449219 56.382812 77.285156 55.609375 C 78.191406 54.769531 78.515625 53.496094 78.558594 52.296875 C 78.5625 52.117188 78.765625 52.054688 78.898438 52.15625 C 80.363281 53.3125 82.511719 53.550781 84.175781 52.664062 C 85.785156 51.804688 86.785156 50.03125 86.746094 48.214844 C 86.742188 48.066406 86.917969 47.964844 87.042969 48.042969 C 88.289062 48.796875 89.90625 48.46875 91 47.582031 C 92.15625 46.644531 92.789062 45.230469 93.222656 43.84375 C 93.269531 43.695312 93.441406 43.660156 93.554688 43.757812 C 95.246094 45.1875 97.839844 45.390625 99.710938 44.1875 C 101.507812 43.027344 102.402344 40.695312 101.914062 38.625 C 101.859375 38.394531 102.148438 38.292969 102.277344 38.472656 C 102.976562 39.441406 104.34375 39.476562 105.320312 38.945312 C 106.351562 38.382812 107.109375 37.328125 107.554688 36.265625 C 108.007812 35.167969 108.136719 33.917969 107.71875 32.789062 C 107.324219 31.746094 106.488281 30.875 105.410156 30.554688 C 105.15625 30.480469 105.269531 30.136719 105.515625 30.175781 C 106.621094 30.335938 107.457031 29.496094 107.878906 28.558594 C 108.332031 27.546875 108.347656 26.402344 107.929688 25.375 C 107.132812 23.425781 104.75 21.667969 102.640625 22.746094 C 102.472656 22.832031 102.257812 22.652344 102.371094 22.476562 C 103.8125 20.203125 101.910156 17.414062 99.953125 16.183594 C 98.636719 15.355469 96.980469 14.8125 95.417969 15.09375 C 94.128906 15.328125 92.914062 16.15625 92.4375 17.410156 C 92.386719 17.542969 92.21875 17.613281 92.105469 17.496094 C 90.71875 16.03125 88.652344 15.257812 86.636719 15.53125 C 84.707031 15.792969 82.972656 16.984375 81.992188 18.65625 C 81.925781 18.777344 81.71875 18.792969 81.652344 18.65625 C 80.832031 16.988281 78.890625 16.210938 77.101562 16.394531 C 75.03125 16.605469 73.28125 18.003906 71.964844 19.523438 C 71.957031 19.539062 71.9375 19.546875 71.925781 19.554688 C 71.742188 20.03125 71.585938 20.519531 71.46875 21.019531 Z M 30.003906 47.636719 C 30.089844 47.75 30.078125 47.933594 29.914062 47.972656 C 27.886719 48.445312 26.234375 50.253906 26.050781 52.351562 C 25.867188 54.449219 27.167969 56.542969 29.097656 57.351562 C 29.144531 57.371094 29.191406 57.386719 29.234375 57.414062 C 29.433594 57.515625 29.292969 57.855469 29.082031 57.773438 C 29.066406 57.769531 29.054688 57.761719 29.039062 57.753906 C 28.652344 57.558594 28.207031 57.691406 27.90625 57.976562 C 27.558594 58.300781 27.457031 58.792969 27.464844 59.25 C 27.476562 60.023438 27.746094 60.824219 28.078125 61.519531 C 28.734375 62.894531 29.808594 64.027344 31.144531 64.761719 C 31.148438 64.765625 31.152344 64.769531 31.15625 64.773438 C 31.339844 64.703125 31.535156 64.664062 31.734375 64.664062 L 42.578125 64.664062 C 42.75 64.664062 42.914062 64.691406 43.066406 64.738281 C 43.09375 64.722656 43.128906 64.726562 43.1875 64.777344 C 43.191406 64.78125 43.195312 64.78125 43.203125 64.785156 C 43.21875 64.792969 43.234375 64.800781 43.25 64.804688 C 43.585938 64.886719 44.683594 64.296875 44.902344 64.214844 C 45.25 64.082031 45.585938 63.925781 45.90625 63.75 C 46.550781 63.386719 47.136719 62.921875 47.597656 62.339844 C 48.515625 61.175781 48.824219 59.492188 48.074219 58.160156 C 48.011719 58.046875 48.074219 57.90625 48.195312 57.871094 C 49.8125 57.363281 50.148438 55.476562 50.367188 54.027344 C 50.390625 53.894531 50.5625 53.855469 50.660156 53.910156 C 51.242188 54.222656 51.960938 54.121094 52.433594 53.660156 C 52.527344 53.566406 52.644531 53.597656 52.714844 53.671875 C 53.152344 52.886719 53.867188 52.269531 54.753906 52.066406 C 54.03125 50.476562 53.394531 48.582031 54.085938 46.882812 C 54.59375 45.636719 55.800781 44.609375 57.164062 44.679688 C 56.15625 42.191406 57.40625 39.074219 59.859375 37.980469 C 59.21875 37.347656 58.800781 36.507812 58.664062 35.617188 C 58.53125 34.757812 58.65625 33.882812 59.046875 33.105469 C 59.515625 32.183594 60.292969 31.398438 61.074219 30.730469 C 62.414062 29.582031 64.230469 28.589844 66.015625 29.066406 C 65.65625 27.773438 66.128906 26.371094 66.953125 25.332031 C 67.945312 24.089844 69.417969 23.34375 70.820312 22.648438 C 70.910156 21.550781 71.152344 20.484375 71.542969 19.453125 C 68.957031 18.171875 65.417969 19.835938 64.796875 22.671875 C 64.761719 22.824219 64.566406 22.863281 64.460938 22.757812 C 61.875 20.230469 57.007812 20.980469 55.296875 24.167969 C 55.246094 24.265625 55.117188 24.285156 55.027344 24.238281 C 51.363281 22.382812 46.449219 24.003906 44.582031 27.648438 C 44.542969 27.730469 44.441406 27.761719 44.355469 27.742188 C 42.78125 27.367188 41.195312 29.238281 41.859375 30.726562 C 41.917969 30.855469 41.855469 31.035156 41.691406 31.023438 C 39.707031 30.9375 37.59375 31.46875 36.179688 32.9375 C 34.855469 34.320312 34.359375 36.550781 35.335938 38.257812 C 35.402344 38.375 35.316406 38.574219 35.164062 38.554688 C 32.972656 38.300781 30.710938 39.367188 29.574219 41.277344 C 28.414062 43.230469 28.617188 45.855469 30.003906 47.636719 Z M 18.328125 77.375 C 18.949219 77.40625 21.042969 77.421875 22.382812 77.421875 L 22.441406 77.421875 L 28.023438 80.882812 L 29 80.914062 L 28.996094 81.113281 C 29.480469 78.429688 29.800781 75.6875 29.953125 72.949219 C 29.980469 72.4375 30.070312 68.710938 30.039062 66.519531 C 30.035156 66.003906 30.226562 65.511719 30.574219 65.164062 C 30.632812 65.101562 30.695312 65.050781 30.761719 65 C 29.191406 64.078125 27.972656 62.597656 27.386719 60.863281 C 27.09375 59.992188 26.851562 58.878906 27.355469 58.035156 C 27.558594 57.703125 27.875 57.457031 28.234375 57.34375 C 26.566406 56.300781 25.484375 54.351562 25.65625 52.355469 C 25.847656 50.179688 27.460938 48.277344 29.542969 47.667969 C 29.179688 47.148438 28.90625 46.566406 28.714844 45.957031 C 22.203125 55.105469 18.582031 65.957031 18.328125 77.375 Z M 122.972656 108.363281 C 128.457031 99.519531 131.386719 89.3125 131.386719 78.652344 C 131.386719 76.925781 131.304688 75.207031 131.15625 73.511719 C 127.476562 75.652344 111.320312 80.679688 110.609375 80.898438 L 110.578125 80.902344 L 107.65625 81.316406 L 102.367188 79.863281 L 102.367188 93.4375 C 102.742188 93.300781 103.121094 93.179688 103.507812 93.070312 L 103.507812 87.003906 C 103.027344 86.90625 102.660156 86.476562 102.660156 85.96875 C 102.660156 85.386719 103.136719 84.910156 103.71875 84.910156 L 111.105469 84.910156 C 111.691406 84.910156 112.167969 85.382812 112.167969 85.96875 C 112.167969 86.476562 111.800781 86.90625 111.320312 87.003906 L 111.320312 92.933594 C 111.679688 93.019531 112.03125 93.121094 112.378906 93.230469 L 112.378906 90.585938 C 111.957031 90.441406 111.667969 90.042969 111.667969 89.585938 C 111.667969 89.003906 112.140625 88.527344 112.726562 88.527344 L 118.863281 88.527344 C 119.445312 88.527344 119.921875 89 119.921875 89.585938 C 119.921875 90.042969 119.632812 90.441406 119.210938 90.585938 L 119.210938 97.695312 C 121.628906 100.421875 123.101562 104.003906 123.101562 107.925781 C 123.101562 108.070312 123.054688 108.214844 122.960938 108.347656 C 121.863281 109.957031 114.570312 110.816406 107.667969 110.816406 C 106.035156 110.816406 104.386719 110.765625 102.796875 110.667969 C 102.851562 111.207031 102.875 111.753906 102.875 112.304688 C 102.875 114.382812 94.007812 115.507812 85.667969 115.507812 C 83.816406 115.507812 81.941406 115.453125 80.144531 115.34375 C 80.109375 115.351562 80.066406 115.347656 80.03125 115.335938 C 73.765625 114.953125 68.457031 113.914062 68.457031 112.304688 C 68.457031 111.277344 68.554688 110.269531 68.726562 109.289062 C 68.722656 109.296875 68.71875 109.300781 68.714844 109.308594 L 68.652344 109.441406 C 66.75 109.601562 64.746094 109.691406 62.765625 109.703125 L 62.570312 109.707031 L 61.90625 109.707031 L 61.90625 109.703125 C 53.808594 109.640625 45.285156 108.347656 45.285156 106.054688 C 45.285156 105.90625 45.324219 105.757812 45.398438 105.613281 C 45.691406 104.496094 45.996094 103.328125 46.320312 102.078125 C 43.964844 102.597656 40.710938 102.886719 37.535156 102.914062 L 36.792969 102.914062 C 30.828125 102.859375 24.5625 101.890625 24.5625 100.175781 C 24.5625 100.0625 24.59375 99.945312 24.648438 99.832031 C 24.96875 98.628906 25.308594 97.320312 25.683594 95.839844 C 26.839844 91.21875 28.046875 86.296875 28.957031 81.3125 L 27.902344 81.273438 L 22.324219 77.816406 C 21.261719 77.816406 19.089844 77.808594 18.324219 77.769531 C 18.320312 78.0625 18.316406 78.359375 18.316406 78.652344 C 18.316406 93.753906 24.195312 107.953125 34.875 118.628906 C 45.550781 129.308594 59.753906 135.191406 74.851562 135.191406 C 89.953125 135.191406 104.152344 129.308594 114.832031 118.628906 C 117.96875 115.488281 120.691406 112.046875 122.972656 108.363281 Z M 31.160156 84.03125 C 31.160156 80.851562 33.75 78.265625 36.925781 78.265625 C 40.105469 78.265625 42.691406 80.851562 42.691406 84.03125 C 42.691406 87.210938 40.105469 89.796875 36.925781 89.796875 C 33.75 89.796875 31.160156 87.210938 31.160156 84.03125 Z M 31.476562 84.03125 C 31.476562 87.039062 33.917969 89.484375 36.925781 89.484375 C 37.058594 89.484375 37.191406 89.476562 37.320312 89.464844 C 40.144531 89.269531 42.378906 86.90625 42.378906 84.03125 C 42.378906 83.902344 42.375 83.769531 42.359375 83.644531 C 42.164062 80.816406 39.800781 78.582031 36.925781 78.582031 C 34.054688 78.582031 31.695312 80.816406 31.492188 83.636719 C 31.480469 83.769531 31.476562 83.898438 31.476562 84.03125 Z M 56.390625 83.347656 C 56.390625 80.167969 58.976562 77.582031 62.15625 77.582031 C 65.332031 77.582031 67.921875 80.167969 67.921875 83.347656 C 67.921875 86.527344 65.332031 89.113281 62.15625 89.113281 C 58.976562 89.113281 56.390625 86.527344 56.390625 83.347656 Z M 56.703125 83.347656 C 56.703125 86.351562 59.148438 88.796875 62.15625 88.796875 C 62.285156 88.796875 62.417969 88.792969 62.546875 88.78125 C 65.371094 88.582031 67.605469 86.222656 67.605469 83.347656 C 67.605469 83.21875 67.601562 83.085938 67.589844 82.957031 C 67.390625 80.132812 65.027344 77.898438 62.15625 77.898438 C 59.28125 77.898438 56.921875 80.128906 56.71875 82.953125 C 56.707031 83.082031 56.703125 83.214844 56.703125 83.347656 Z M 56.703125 83.347656 " fill-opacity="1" fill-rule="nonzero"/></g><path fill="#000000" d="M 63.046875 82.128906 C 63.414062 82.382812 63.671875 82.789062 63.71875 83.253906 L 66.730469 83.191406 C 66.679688 81.628906 65.84375 80.261719 64.601562 79.472656 Z M 61.535156 84.832031 L 60.015625 87.394531 C 60.65625 87.738281 61.382812 87.933594 62.15625 87.933594 C 62.929688 87.933594 63.660156 87.738281 64.300781 87.394531 L 62.792969 84.839844 C 62.601562 84.921875 62.390625 84.96875 62.175781 84.96875 C 61.945312 84.96875 61.730469 84.921875 61.535156 84.832031 Z M 62.175781 82.175781 C 61.488281 82.175781 60.933594 82.730469 60.933594 83.414062 C 60.933594 84.097656 61.488281 84.652344 62.175781 84.652344 C 62.855469 84.652344 63.414062 84.097656 63.414062 83.414062 C 63.414062 82.730469 62.855469 82.175781 62.175781 82.175781 Z M 59.738281 79.453125 C 58.480469 80.238281 57.628906 81.617188 57.574219 83.191406 L 60.625 83.253906 C 60.675781 82.800781 60.914062 82.40625 61.265625 82.15625 Z M 57.265625 82.996094 C 57.390625 81.257812 58.429688 79.765625 59.902344 79 C 59.917969 79.046875 59.929688 79.097656 59.953125 79.144531 C 59.964844 79.171875 59.984375 79.195312 60 79.226562 C 60.011719 79.246094 60.019531 79.265625 60.03125 79.289062 C 60.027344 79.289062 60.019531 79.296875 60.011719 79.296875 L 61.539062 81.996094 C 61.734375 81.90625 61.945312 81.859375 62.175781 81.859375 C 62.382812 81.859375 62.585938 81.902344 62.773438 81.980469 L 64.410156 79.175781 L 64.414062 79.175781 C 64.425781 79.15625 64.433594 79.140625 64.445312 79.125 C 64.449219 79.113281 64.457031 79.105469 64.460938 79.09375 C 64.460938 79.089844 64.464844 79.085938 64.464844 79.078125 C 64.472656 79.066406 64.480469 79.054688 64.488281 79.042969 C 65.917969 79.820312 66.921875 81.292969 67.042969 83 C 67.050781 83.117188 67.054688 83.230469 67.054688 83.347656 C 67.054688 83.402344 67.046875 83.453125 67.042969 83.507812 C 67.003906 83.507812 66.96875 83.507812 66.929688 83.507812 C 66.902344 83.507812 66.878906 83.507812 66.855469 83.503906 L 66.773438 83.507812 C 66.757812 83.507812 66.746094 83.507812 66.730469 83.507812 L 63.71875 83.566406 C 63.675781 84.03125 63.425781 84.429688 63.066406 84.6875 L 64.570312 87.238281 C 64.574219 87.238281 64.578125 87.234375 64.582031 87.234375 C 64.589844 87.257812 64.601562 87.285156 64.613281 87.308594 C 64.617188 87.3125 64.617188 87.316406 64.617188 87.316406 L 64.652344 87.378906 L 64.648438 87.378906 C 64.652344 87.394531 64.660156 87.402344 64.664062 87.414062 C 64.679688 87.449219 64.699219 87.484375 64.710938 87.519531 C 64.058594 87.921875 63.308594 88.175781 62.503906 88.234375 C 62.386719 88.242188 62.269531 88.246094 62.15625 88.246094 C 61.210938 88.246094 60.332031 87.972656 59.585938 87.507812 C 59.605469 87.476562 59.625 87.445312 59.644531 87.414062 C 59.652344 87.402344 59.65625 87.390625 59.660156 87.378906 L 59.667969 87.367188 C 59.691406 87.324219 59.714844 87.28125 59.734375 87.234375 C 59.738281 87.234375 59.742188 87.238281 59.746094 87.242188 L 61.265625 84.671875 C 60.914062 84.417969 60.671875 84.023438 60.625 83.566406 L 57.410156 83.503906 L 57.410156 83.492188 C 57.359375 83.492188 57.308594 83.488281 57.261719 83.484375 C 57.257812 83.441406 57.253906 83.394531 57.253906 83.347656 C 57.253906 83.230469 57.261719 83.113281 57.265625 82.996094 Z M 57.265625 82.996094 " fill-opacity="1" fill-rule="nonzero"/></svg>