<svg xmlns="http://www.w3.org/2000/svg" xmlns:xlink="http://www.w3.org/1999/xlink" width="200" zoomAndPan="magnify" viewBox="0 0 150 149.999998" height="200" preserveAspectRatio="xMidYMid meet" version="1.0"><defs><clipPath id="8570f44738"><path d="M 11.238281 11.238281 L 138.738281 11.238281 L 138.738281 138.738281 L 11.238281 138.738281 Z M 11.238281 11.238281 " clip-rule="nonzero"/></clipPath><clipPath id="6a3118ac39"><path d="M 27 79 L 138.738281 79 L 138.738281 138.738281 L 27 138.738281 Z M 27 79 " clip-rule="nonzero"/></clipPath><clipPath id="18164730b4"><path d="M 11.238281 76 L 106 76 L 106 138.738281 L 11.238281 138.738281 Z M 11.238281 76 " clip-rule="nonzero"/></clipPath><clipPath id="5bc2f555f3"><path d="M 11.238281 76 L 106 76 L 106 137 L 11.238281 137 Z M 11.238281 76 " clip-rule="nonzero"/></clipPath><clipPath id="c2ebb4ac47"><path d="M 71 136 L 74 136 L 74 138.738281 L 71 138.738281 Z M 71 136 " clip-rule="nonzero"/></clipPath></defs><g clip-path="url(#8570f44738)"><path fill="#8bd2f6" d="M 138.769531 75.011719 C 138.769531 76.054688 138.742188 77.097656 138.691406 78.140625 C 138.640625 79.183594 138.5625 80.222656 138.460938 81.261719 C 138.359375 82.300781 138.230469 83.335938 138.078125 84.367188 C 137.925781 85.398438 137.746094 86.425781 137.542969 87.449219 C 137.339844 88.472656 137.109375 89.492188 136.855469 90.503906 C 136.605469 91.515625 136.324219 92.523438 136.023438 93.519531 C 135.71875 94.519531 135.390625 95.507812 135.042969 96.492188 C 134.691406 97.472656 134.3125 98.445312 133.914062 99.410156 C 133.515625 100.375 133.09375 101.328125 132.648438 102.273438 C 132.199219 103.214844 131.730469 104.148438 131.238281 105.066406 C 130.746094 105.988281 130.234375 106.894531 129.699219 107.789062 C 129.160156 108.683594 128.601562 109.566406 128.023438 110.433594 C 127.445312 111.300781 126.84375 112.152344 126.222656 112.992188 C 125.601562 113.828125 124.957031 114.652344 124.296875 115.457031 C 123.632812 116.265625 122.953125 117.054688 122.253906 117.828125 C 121.550781 118.601562 120.832031 119.355469 120.09375 120.09375 C 119.355469 120.832031 118.601562 121.550781 117.828125 122.253906 C 117.054688 122.953125 116.265625 123.632812 115.457031 124.296875 C 114.652344 124.957031 113.828125 125.601562 112.992188 126.222656 C 112.152344 126.84375 111.300781 127.445312 110.433594 128.023438 C 109.566406 128.601562 108.683594 129.160156 107.789062 129.699219 C 106.894531 130.234375 105.988281 130.746094 105.066406 131.238281 C 104.148438 131.730469 103.214844 132.199219 102.273438 132.648438 C 101.328125 133.09375 100.375 133.515625 99.410156 133.914062 C 98.445312 134.3125 97.472656 134.691406 96.492188 135.042969 C 95.507812 135.390625 94.519531 135.71875 93.519531 136.023438 C 92.523438 136.324219 91.515625 136.605469 90.503906 136.855469 C 89.492188 137.109375 88.472656 137.339844 87.449219 137.542969 C 86.425781 137.746094 85.398438 137.925781 84.367188 138.078125 C 83.335938 138.230469 82.300781 138.359375 81.261719 138.460938 C 80.222656 138.5625 79.183594 138.640625 78.140625 138.691406 C 77.097656 138.742188 76.054688 138.769531 75.011719 138.769531 C 73.96875 138.769531 72.925781 138.742188 71.882812 138.691406 C 70.84375 138.640625 69.800781 138.5625 68.765625 138.460938 C 67.726562 138.359375 66.691406 138.230469 65.65625 138.078125 C 64.625 137.925781 63.597656 137.746094 62.574219 137.542969 C 61.550781 137.339844 60.535156 137.109375 59.523438 136.855469 C 58.507812 136.605469 57.503906 136.324219 56.503906 136.023438 C 55.507812 135.71875 54.515625 135.390625 53.535156 135.042969 C 52.550781 134.691406 51.578125 134.3125 50.613281 133.914062 C 49.652344 133.515625 48.699219 133.09375 47.753906 132.648438 C 46.8125 132.199219 45.878906 131.730469 44.960938 131.238281 C 44.039062 130.746094 43.132812 130.234375 42.234375 129.699219 C 41.339844 129.160156 40.460938 128.601562 39.59375 128.023438 C 38.726562 127.445312 37.871094 126.84375 37.035156 126.222656 C 36.195312 125.601562 35.375 124.957031 34.566406 124.296875 C 33.761719 123.632812 32.972656 122.953125 32.199219 122.253906 C 31.425781 121.550781 30.667969 120.832031 29.929688 120.09375 C 29.195312 119.355469 28.472656 118.601562 27.773438 117.828125 C 27.074219 117.054688 26.390625 116.265625 25.730469 115.457031 C 25.066406 114.652344 24.425781 113.828125 23.804688 112.992188 C 23.183594 112.152344 22.582031 111.300781 22.003906 110.433594 C 21.421875 109.566406 20.863281 108.683594 20.328125 107.789062 C 19.792969 106.894531 19.277344 105.988281 18.785156 105.066406 C 18.292969 104.148438 17.824219 103.214844 17.378906 102.273438 C 16.933594 101.328125 16.511719 100.375 16.109375 99.410156 C 15.710938 98.445312 15.335938 97.472656 14.984375 96.492188 C 14.632812 95.507812 14.304688 94.519531 14.003906 93.519531 C 13.699219 92.523438 13.421875 91.515625 13.167969 90.503906 C 12.914062 89.492188 12.6875 88.472656 12.484375 87.449219 C 12.28125 86.425781 12.101562 85.398438 11.949219 84.367188 C 11.792969 83.335938 11.667969 82.300781 11.566406 81.261719 C 11.460938 80.222656 11.386719 79.183594 11.335938 78.140625 C 11.285156 77.097656 11.257812 76.054688 11.257812 75.011719 C 11.257812 73.96875 11.285156 72.925781 11.335938 71.882812 C 11.386719 70.84375 11.460938 69.800781 11.566406 68.765625 C 11.667969 67.726562 11.792969 66.691406 11.949219 65.65625 C 12.101562 64.625 12.28125 63.597656 12.484375 62.574219 C 12.6875 61.550781 12.914062 60.535156 13.167969 59.523438 C 13.421875 58.507812 13.699219 57.503906 14.003906 56.503906 C 14.304688 55.507812 14.632812 54.515625 14.984375 53.535156 C 15.335938 52.550781 15.710938 51.578125 16.109375 50.613281 C 16.511719 49.652344 16.933594 48.699219 17.378906 47.753906 C 17.824219 46.8125 18.292969 45.878906 18.785156 44.960938 C 19.277344 44.039062 19.792969 43.132812 20.328125 42.234375 C 20.863281 41.339844 21.421875 40.460938 22.003906 39.59375 C 22.582031 38.726562 23.183594 37.871094 23.804688 37.035156 C 24.425781 36.195312 25.066406 35.375 25.730469 34.566406 C 26.390625 33.761719 27.074219 32.972656 27.773438 32.199219 C 28.472656 31.425781 29.195312 30.667969 29.929688 29.929688 C 30.667969 29.195312 31.425781 28.472656 32.199219 27.773438 C 32.972656 27.074219 33.761719 26.390625 34.566406 25.730469 C 35.375 25.066406 36.195312 24.425781 37.035156 23.804688 C 37.871094 23.183594 38.726562 22.582031 39.59375 22.003906 C 40.460938 21.421875 41.339844 20.863281 42.234375 20.328125 C 43.132812 19.792969 44.039062 19.277344 44.960938 18.785156 C 45.878906 18.292969 46.8125 17.824219 47.753906 17.378906 C 48.699219 16.933594 49.652344 16.511719 50.613281 16.109375 C 51.578125 15.710938 52.550781 15.335938 53.535156 14.984375 C 54.515625 14.632812 55.507812 14.304688 56.503906 14.003906 C 57.503906 13.699219 58.507812 13.421875 59.523438 13.167969 C 60.535156 12.914062 61.550781 12.6875 62.574219 12.484375 C 63.597656 12.28125 64.625 12.101562 65.65625 11.949219 C 66.691406 11.792969 67.726562 11.667969 68.765625 11.566406 C 69.800781 11.460938 70.84375 11.386719 71.882812 11.335938 C 72.925781 11.285156 73.96875 11.257812 75.011719 11.257812 C 76.054688 11.257812 77.097656 11.285156 78.140625 11.335938 C 79.183594 11.386719 80.222656 11.460938 81.261719 11.566406 C 82.300781 11.667969 83.335938 11.792969 84.367188 11.949219 C 85.398438 12.101562 86.425781 12.28125 87.449219 12.484375 C 88.472656 12.6875 89.492188 12.914062 90.503906 13.167969 C 91.515625 13.421875 92.523438 13.699219 93.519531 14.003906 C 94.519531 14.304688 95.507812 14.632812 96.492188 14.984375 C 97.472656 15.335938 98.445312 15.710938 99.410156 16.109375 C 100.375 16.511719 101.328125 16.933594 102.273438 17.378906 C 103.214844 17.824219 104.148438 18.292969 105.066406 18.785156 C 105.988281 19.277344 106.894531 19.792969 107.789062 20.328125 C 108.683594 20.863281 109.566406 21.421875 110.433594 22.003906 C 111.300781 22.582031 112.152344 23.183594 112.992188 23.804688 C 113.828125 24.425781 114.652344 25.066406 115.457031 25.730469 C 116.265625 26.390625 117.054688 27.074219 117.828125 27.773438 C 118.601562 28.472656 119.355469 29.195312 120.09375 29.929688 C 120.832031 30.667969 121.550781 31.425781 122.253906 32.199219 C 122.953125 32.972656 123.632812 33.761719 124.296875 34.566406 C 124.957031 35.375 125.601562 36.195312 126.222656 37.035156 C 126.84375 37.871094 127.445312 38.726562 128.023438 39.59375 C 128.601562 40.460938 129.160156 41.339844 129.699219 42.234375 C 130.234375 43.132812 130.746094 44.039062 131.238281 44.960938 C 131.730469 45.878906 132.199219 46.8125 132.648438 47.753906 C 133.09375 48.699219 133.515625 49.652344 133.914062 50.613281 C 134.3125 51.578125 134.691406 52.550781 135.042969 53.535156 C 135.390625 54.515625 135.71875 55.507812 136.023438 56.503906 C 136.324219 57.503906 136.605469 58.507812 136.855469 59.523438 C 137.109375 60.535156 137.339844 61.550781 137.542969 62.574219 C 137.746094 63.597656 137.925781 64.625 138.078125 65.65625 C 138.230469 66.691406 138.359375 67.726562 138.460938 68.765625 C 138.5625 69.800781 138.640625 70.84375 138.691406 71.882812 C 138.742188 72.925781 138.769531 73.96875 138.769531 75.011719 Z M 138.769531 75.011719 " fill-opacity="1" fill-rule="nonzero"/></g><g clip-path="url(#6a3118ac39)"><path fill="#7da34f" d="M 77.726562 90.285156 C 59.804688 96.753906 42.242188 105.402344 27.191406 117.175781 C 38.871094 130.417969 55.964844 138.769531 75.007812 138.769531 C 108.839844 138.769531 136.507812 112.417969 138.628906 79.121094 C 117.964844 78.5625 97.402344 83.183594 77.726562 90.285156 Z M 77.726562 90.285156 " fill-opacity="1" fill-rule="nonzero"/><path fill="#729549" d="M 95.464844 97.328125 C 96.449219 82.636719 123.453125 83.453125 138.089844 84.304688 C 138.339844 82.601562 138.523438 80.871094 138.632812 79.125 C 117.964844 78.566406 97.402344 83.183594 77.730469 90.285156 C 59.808594 96.753906 42.246094 105.402344 27.195312 117.175781 C 38.878906 130.417969 55.96875 138.769531 75.011719 138.769531 C 88.382812 138.769531 100.789062 134.648438 111.035156 127.617188 C 109.773438 124.828125 94.535156 111.207031 95.464844 97.328125 Z M 95.464844 97.328125 " fill-opacity="1" fill-rule="nonzero"/></g><g clip-path="url(#18164730b4)"><path fill="#b8d15c" d="M 104.339844 129.171875 C 95.394531 112.703125 82.410156 98.722656 65.65625 90.0625 C 48.742188 81.316406 30.003906 78.738281 11.289062 76.878906 C 12.273438 111.222656 40.425781 138.769531 75.011719 138.769531 C 86 138.769531 96.339844 135.988281 105.359375 131.097656 C 105.027344 130.453125 104.6875 129.8125 104.339844 129.171875 Z M 104.339844 129.171875 " fill-opacity="1" fill-rule="nonzero"/></g><g clip-path="url(#5bc2f555f3)"><path fill="#9cc549" d="M 34.105469 86.152344 C 52.132812 90.6875 70.058594 100.039062 81.660156 114.898438 C 86.617188 121.246094 90.3125 128.585938 92 136.472656 C 96.695312 135.179688 101.171875 133.371094 105.367188 131.097656 C 105.03125 130.453125 104.691406 129.8125 104.347656 129.175781 C 95.398438 112.707031 82.414062 98.730469 65.660156 90.066406 C 48.75 81.320312 30.011719 78.742188 11.292969 76.882812 C 11.351562 78.964844 11.511719 81.019531 11.769531 83.050781 C 19.292969 83.234375 26.8125 84.320312 34.105469 86.152344 Z M 34.105469 86.152344 " fill-opacity="1" fill-rule="nonzero"/></g><path fill="#ffffff" d="M 106.46875 34.3125 C 106.46875 31.789062 104.675781 29.6875 102.296875 29.207031 C 102.082031 26.355469 99.707031 24.113281 96.804688 24.113281 C 95.34375 24.113281 94.019531 24.675781 93.035156 25.601562 C 91.960938 24.800781 90.632812 24.332031 89.1875 24.332031 C 86.160156 24.332031 83.621094 26.417969 82.917969 29.230469 C 82.550781 29.152344 82.171875 29.105469 81.773438 29.105469 C 78.894531 29.105469 76.566406 31.441406 76.566406 34.3125 C 76.566406 37.101562 78.761719 39.382812 81.519531 39.515625 L 81.519531 39.523438 L 101.722656 39.523438 L 101.722656 39.5 C 104.382812 39.265625 106.46875 37.03125 106.46875 34.3125 Z M 106.46875 34.3125 " fill-opacity="0.42" fill-rule="nonzero"/><path fill="#ffffff" d="M 69.488281 40.703125 C 69.488281 38.175781 67.695312 36.074219 65.316406 35.59375 C 65.101562 32.746094 62.726562 30.5 59.824219 30.5 C 58.363281 30.5 57.039062 31.066406 56.054688 31.988281 C 54.980469 31.191406 53.652344 30.71875 52.207031 30.71875 C 49.179688 30.71875 46.640625 32.804688 45.9375 35.617188 C 45.570312 35.539062 45.191406 35.492188 44.792969 35.492188 C 41.914062 35.492188 39.585938 37.828125 39.585938 40.703125 C 39.585938 43.492188 41.78125 45.769531 44.539062 45.90625 L 44.539062 45.910156 L 64.742188 45.910156 L 64.742188 45.890625 C 67.40625 45.65625 69.488281 43.421875 69.488281 40.703125 Z M 69.488281 40.703125 " fill-opacity="0.42" fill-rule="nonzero"/><path fill="#ffffff" d="M 125.363281 52.042969 L 125.019531 52.042969 C 124.953125 48.867188 121.335938 47.84375 119.851562 48.984375 C 119.636719 46.132812 117.261719 43.890625 114.359375 43.890625 C 112.898438 43.890625 111.574219 44.453125 110.589844 45.378906 C 109.515625 44.578125 108.183594 44.109375 106.742188 44.109375 C 103.710938 44.109375 101.171875 46.195312 100.472656 49.007812 C 100.101562 48.929688 99.722656 48.882812 99.328125 48.882812 C 96.449219 48.882812 94.121094 51.21875 94.121094 54.089844 C 94.121094 56.878906 96.316406 59.160156 99.074219 59.292969 L 99.074219 59.300781 L 125.363281 59.300781 C 127.367188 59.300781 128.992188 57.675781 128.992188 55.671875 C 128.992188 53.667969 127.367188 52.042969 125.363281 52.042969 Z M 125.363281 52.042969 " fill-opacity="0.42" fill-rule="nonzero"/><path fill="#fff6a0" d="M 24.171875 99.9375 C 25.136719 99.9375 25.136719 98.4375 24.171875 98.4375 C 23.207031 98.4375 23.207031 99.9375 24.171875 99.9375 Z M 24.171875 99.9375 " fill-opacity="1" fill-rule="nonzero"/><path fill="#fff6a0" d="M 23.726562 108.359375 C 24.691406 108.359375 24.691406 106.859375 23.726562 106.859375 C 22.761719 106.859375 22.761719 108.359375 23.726562 108.359375 Z M 23.726562 108.359375 " fill-opacity="1" fill-rule="nonzero"/><path fill="#fff6a0" d="M 30.378906 102.871094 C 30.304688 102.871094 30.230469 102.871094 30.160156 102.871094 C 29.769531 102.871094 29.390625 103.21875 29.410156 103.621094 C 29.429688 104.027344 29.742188 104.371094 30.160156 104.371094 C 30.234375 104.371094 30.308594 104.371094 30.378906 104.371094 C 30.769531 104.371094 31.148438 104.027344 31.128906 103.621094 C 31.109375 103.210938 30.800781 102.871094 30.378906 102.871094 Z M 30.378906 102.871094 " fill-opacity="1" fill-rule="nonzero"/><path fill="#fff6a0" d="M 29.050781 113.011719 C 30.015625 113.011719 30.015625 111.511719 29.050781 111.511719 C 28.085938 111.511719 28.082031 113.011719 29.050781 113.011719 Z M 29.050781 113.011719 " fill-opacity="1" fill-rule="nonzero"/><path fill="#fff6a0" d="M 35.253906 108.628906 C 35.179688 108.628906 35.105469 108.628906 35.035156 108.628906 C 34.644531 108.628906 34.265625 108.976562 34.285156 109.378906 C 34.304688 109.785156 34.613281 110.128906 35.035156 110.128906 C 35.109375 110.128906 35.183594 110.128906 35.253906 110.128906 C 35.644531 110.128906 36.023438 109.785156 36.003906 109.378906 C 35.984375 108.976562 35.671875 108.628906 35.253906 108.628906 Z M 35.253906 108.628906 " fill-opacity="1" fill-rule="nonzero"/><path fill="#fff6a0" d="M 37.246094 120.988281 C 38.210938 120.988281 38.210938 119.492188 37.246094 119.492188 C 36.28125 119.492188 36.28125 120.988281 37.246094 120.988281 Z M 37.246094 120.988281 " fill-opacity="1" fill-rule="nonzero"/><path fill="#fff6a0" d="M 43.011719 115.453125 C 43.976562 115.453125 43.976562 113.953125 43.011719 113.953125 C 42.046875 113.953125 42.046875 115.453125 43.011719 115.453125 Z M 43.011719 115.453125 " fill-opacity="1" fill-rule="nonzero"/><path fill="#fff6a0" d="M 52.761719 128.527344 C 53.726562 128.527344 53.726562 127.027344 52.761719 127.027344 C 51.796875 127.027344 51.792969 128.527344 52.761719 128.527344 Z M 52.761719 128.527344 " fill-opacity="1" fill-rule="nonzero"/><path fill="#fff6a0" d="M 59.1875 122.765625 C 60.152344 122.765625 60.152344 121.265625 59.1875 121.265625 C 58.222656 121.265625 58.21875 122.765625 59.1875 122.765625 Z M 59.1875 122.765625 " fill-opacity="1" fill-rule="nonzero"/><path fill="#fff6a0" d="M 60.738281 129.410156 C 61.703125 129.410156 61.703125 127.914062 60.738281 127.914062 C 59.773438 127.914062 59.773438 129.410156 60.738281 129.410156 Z M 60.738281 129.410156 " fill-opacity="1" fill-rule="nonzero"/><path fill="#fff6a0" d="M 46.03125 120.460938 C 46.03125 120.535156 46.03125 120.609375 46.03125 120.679688 C 46.03125 121.070312 46.375 121.449219 46.777344 121.429688 C 47.183594 121.410156 47.527344 121.101562 47.527344 120.679688 C 47.527344 120.605469 47.527344 120.53125 47.527344 120.460938 C 47.527344 120.070312 47.183594 119.691406 46.777344 119.710938 C 46.371094 119.730469 46.03125 120.039062 46.03125 120.460938 Z M 46.03125 120.460938 " fill-opacity="1" fill-rule="nonzero"/><path fill="#fff6a0" d="M 17.96875 92.847656 C 18.933594 92.847656 18.933594 91.347656 17.96875 91.347656 C 17.003906 91.347656 17 92.847656 17.96875 92.847656 Z M 17.96875 92.847656 " fill-opacity="1" fill-rule="nonzero"/><path fill="#fff6a0" d="M 19.074219 99.101562 C 19 99.101562 18.925781 99.101562 18.855469 99.101562 C 18.464844 99.101562 18.085938 99.449219 18.105469 99.851562 C 18.125 100.257812 18.433594 100.601562 18.855469 100.601562 C 18.929688 100.601562 19.003906 100.601562 19.074219 100.601562 C 19.464844 100.601562 19.84375 100.257812 19.824219 99.851562 C 19.808594 99.449219 19.496094 99.101562 19.074219 99.101562 Z M 19.074219 99.101562 " fill-opacity="1" fill-rule="nonzero"/><path fill="#fff6a0" d="M 73.367188 133.398438 C 74.332031 133.398438 74.332031 131.902344 73.367188 131.902344 C 72.402344 131.902344 72.402344 133.398438 73.367188 133.398438 Z M 73.367188 133.398438 " fill-opacity="1" fill-rule="nonzero"/><path fill="#fff6a0" d="M 58.964844 132.957031 C 59.929688 132.957031 59.929688 131.457031 58.964844 131.457031 C 58 131.457031 58 132.957031 58.964844 132.957031 Z M 58.964844 132.957031 " fill-opacity="1" fill-rule="nonzero"/><path fill="#fff6a0" d="M 42.789062 125.421875 C 43.753906 125.421875 43.753906 123.921875 42.789062 123.921875 C 41.824219 123.921875 41.820312 125.421875 42.789062 125.421875 Z M 42.789062 125.421875 " fill-opacity="1" fill-rule="nonzero"/><path fill="#fff6a0" d="M 34.808594 114.835938 C 34.734375 114.835938 34.660156 114.835938 34.589844 114.835938 C 34.199219 114.835938 33.820312 115.183594 33.839844 115.585938 C 33.859375 115.992188 34.167969 116.335938 34.589844 116.335938 C 34.664062 116.335938 34.738281 116.335938 34.808594 116.335938 C 35.199219 116.335938 35.578125 115.992188 35.558594 115.585938 C 35.542969 115.183594 35.230469 114.835938 34.808594 114.835938 Z M 34.808594 114.835938 " fill-opacity="1" fill-rule="nonzero"/><path fill="#fff6a0" d="M 84.894531 132.289062 C 85.859375 132.289062 85.859375 130.792969 84.894531 130.792969 C 83.929688 130.792969 83.929688 132.289062 84.894531 132.289062 Z M 84.894531 132.289062 " fill-opacity="1" fill-rule="nonzero"/><path fill="#fff6a0" d="M 64.28125 136.722656 C 65.246094 136.722656 65.246094 135.222656 64.28125 135.222656 C 63.316406 135.222656 63.316406 136.722656 64.28125 136.722656 Z M 64.28125 136.722656 " fill-opacity="1" fill-rule="nonzero"/><path fill="#fff6a0" d="M 67.832031 129.855469 C 68.796875 129.855469 68.796875 128.355469 67.832031 128.355469 C 66.867188 128.355469 66.867188 129.855469 67.832031 129.855469 Z M 67.832031 129.855469 " fill-opacity="1" fill-rule="nonzero"/><path fill="#fff6a0" d="M 80.6875 137.609375 C 81.648438 137.609375 81.648438 136.109375 80.6875 136.109375 C 79.714844 136.109375 79.714844 137.609375 80.6875 137.609375 Z M 80.6875 137.609375 " fill-opacity="1" fill-rule="nonzero"/><g clip-path="url(#c2ebb4ac47)"><path fill="#fff6a0" d="M 72.703125 138.273438 C 73.667969 138.273438 73.667969 136.773438 72.703125 136.773438 C 71.738281 136.773438 71.738281 138.273438 72.703125 138.273438 Z M 72.703125 138.273438 " fill-opacity="1" fill-rule="nonzero"/></g><path fill="#fff6a0" d="M 47.664062 129.855469 C 48.628906 129.855469 48.628906 128.355469 47.664062 128.355469 C 46.699219 128.355469 46.699219 129.855469 47.664062 129.855469 Z M 47.664062 129.855469 " fill-opacity="1" fill-rule="nonzero"/><path fill="#fff6a0" d="M 15.3125 87.527344 C 16.277344 87.527344 16.277344 86.027344 15.3125 86.027344 C 14.347656 86.027344 14.339844 87.527344 15.3125 87.527344 Z M 15.3125 87.527344 " fill-opacity="1" fill-rule="nonzero"/><path fill="#fff6a0" d="M 53.207031 121.433594 C 54.171875 121.433594 54.171875 119.933594 53.207031 119.933594 C 52.238281 119.933594 52.238281 121.433594 53.207031 121.433594 Z M 53.207031 121.433594 " fill-opacity="1" fill-rule="nonzero"/><path fill="#fff6a0" d="M 80.019531 132.070312 C 80.984375 132.070312 80.984375 130.570312 80.019531 130.570312 C 79.050781 130.570312 79.050781 132.070312 80.019531 132.070312 Z M 80.019531 132.070312 " fill-opacity="1" fill-rule="nonzero"/><path fill="#fff6a0" d="M 23.726562 105.035156 C 24.691406 105.035156 24.691406 103.535156 23.726562 103.535156 C 22.761719 103.535156 22.761719 105.035156 23.726562 105.035156 Z M 23.726562 105.035156 " fill-opacity="1" fill-rule="nonzero"/><path fill="#fff6a0" d="M 112.953125 121.570312 C 112.953125 121.644531 112.953125 121.71875 112.953125 121.789062 C 112.953125 122.179688 113.296875 122.558594 113.703125 122.539062 C 114.109375 122.519531 114.453125 122.210938 114.453125 121.789062 C 114.453125 121.714844 114.453125 121.640625 114.453125 121.570312 C 114.453125 121.179688 114.109375 120.800781 113.703125 120.820312 C 113.296875 120.839844 112.953125 121.148438 112.953125 121.570312 Z M 112.953125 121.570312 " fill-opacity="1" fill-rule="nonzero"/><path fill="#fff6a0" d="M 119.378906 116.804688 C 119.378906 116.882812 119.378906 116.957031 119.378906 117.027344 C 119.378906 117.417969 119.726562 117.796875 120.128906 117.777344 C 120.535156 117.757812 120.878906 117.445312 120.878906 117.027344 C 120.878906 116.953125 120.878906 116.875 120.878906 116.804688 C 120.878906 116.417969 120.535156 116.035156 120.128906 116.058594 C 119.726562 116.070312 119.378906 116.386719 119.378906 116.804688 Z M 119.378906 116.804688 " fill-opacity="1" fill-rule="nonzero"/><path fill="#fff6a0" d="M 122.570312 110.128906 C 123.535156 110.128906 123.535156 108.628906 122.570312 108.628906 C 121.605469 108.628906 121.601562 110.128906 122.570312 110.128906 Z M 122.570312 110.128906 " fill-opacity="1" fill-rule="nonzero"/><path fill="#fff6a0" d="M 130.234375 93.871094 C 130.234375 93.945312 130.234375 94.019531 130.234375 94.089844 C 130.234375 94.480469 130.582031 94.859375 130.984375 94.839844 C 131.390625 94.820312 131.734375 94.511719 131.734375 94.089844 C 131.734375 94.015625 131.734375 93.941406 131.734375 93.871094 C 131.734375 93.480469 131.390625 93.101562 130.984375 93.121094 C 130.582031 93.136719 130.234375 93.449219 130.234375 93.871094 Z M 130.234375 93.871094 " fill-opacity="1" fill-rule="nonzero"/><path fill="#fff6a0" d="M 122.570312 101.710938 C 123.535156 101.710938 123.535156 100.214844 122.570312 100.214844 C 121.605469 100.214844 121.601562 101.710938 122.570312 101.710938 Z M 122.570312 101.710938 " fill-opacity="1" fill-rule="nonzero"/><path fill="#fff6a0" d="M 128.328125 106.140625 C 129.292969 106.140625 129.292969 104.640625 128.328125 104.640625 C 127.363281 104.640625 127.363281 106.140625 128.328125 106.140625 Z M 128.328125 106.140625 " fill-opacity="1" fill-rule="nonzero"/><path fill="#fff6a0" d="M 115.917969 110.355469 C 116.882812 110.355469 116.882812 108.855469 115.917969 108.855469 C 114.953125 108.855469 114.953125 110.355469 115.917969 110.355469 Z M 115.917969 110.355469 " fill-opacity="1" fill-rule="nonzero"/><path fill="#fff6a0" d="M 111.042969 117.667969 C 112.007812 117.667969 112.007812 116.167969 111.042969 116.167969 C 110.078125 116.167969 110.078125 117.667969 111.042969 117.667969 Z M 111.042969 117.667969 " fill-opacity="1" fill-rule="nonzero"/><path fill="#fff6a0" d="M 129.125 98.660156 C 129.050781 98.734375 128.976562 98.808594 128.90625 98.878906 C 128.621094 99.164062 128.621094 99.652344 128.90625 99.9375 C 129.191406 100.222656 129.679688 100.222656 129.964844 99.9375 C 130.042969 99.863281 130.117188 99.789062 130.1875 99.71875 C 130.472656 99.433594 130.472656 98.945312 130.1875 98.660156 C 129.902344 98.367188 129.417969 98.367188 129.125 98.660156 Z M 129.125 98.660156 " fill-opacity="1" fill-rule="nonzero"/><path fill="#fff6a0" d="M 133.785156 87.441406 C 133.785156 87.519531 133.785156 87.59375 133.785156 87.664062 C 133.785156 88.054688 134.128906 88.433594 134.535156 88.414062 C 134.9375 88.394531 135.285156 88.082031 135.285156 87.664062 C 135.285156 87.589844 135.285156 87.511719 135.285156 87.441406 C 135.285156 87.054688 134.9375 86.671875 134.535156 86.691406 C 134.128906 86.714844 133.785156 87.023438 133.785156 87.441406 Z M 133.785156 87.441406 " fill-opacity="1" fill-rule="nonzero"/><path fill="#e9e9e9" d="M 38.570312 92.261719 L 33.917969 92.261719 L 34.933594 60.292969 L 37.5625 60.292969 Z M 38.570312 92.261719 " fill-opacity="1" fill-rule="nonzero"/><path fill="#ffffff" d="M 37.316406 60.132812 L 30.359375 41.601562 C 30.210938 41.203125 29.609375 41.339844 29.65625 41.765625 L 31.066406 54.886719 C 31.207031 56.195312 31.875 57.390625 32.917969 58.195312 L 36.113281 60.660156 " fill-opacity="1" fill-rule="nonzero"/><path fill="#ffffff" d="M 35.714844 61.433594 L 55.054688 57.226562 C 55.476562 57.136719 55.421875 56.519531 54.992188 56.503906 L 41.800781 56.003906 C 40.488281 55.957031 39.207031 56.445312 38.257812 57.359375 L 35.359375 60.164062 " fill-opacity="1" fill-rule="nonzero"/><path fill="#ffffff" d="M 35.308594 59.699219 L 19.261719 71.289062 C 18.910156 71.539062 19.210938 72.078125 19.605469 71.925781 L 31.894531 67.109375 C 33.121094 66.632812 34.097656 65.671875 34.597656 64.453125 L 36.132812 60.722656 " fill-opacity="1" fill-rule="nonzero"/><path fill="#c8c8c8" d="M 38.511719 60.367188 C 38.511719 60.667969 38.453125 60.957031 38.339844 61.234375 C 38.226562 61.511719 38.0625 61.757812 37.847656 61.96875 C 37.636719 62.183594 37.390625 62.34375 37.113281 62.460938 C 36.835938 62.574219 36.546875 62.632812 36.25 62.632812 C 35.949219 62.632812 35.660156 62.574219 35.382812 62.460938 C 35.105469 62.34375 34.859375 62.183594 34.648438 61.96875 C 34.433594 61.757812 34.269531 61.511719 34.15625 61.234375 C 34.042969 60.957031 33.984375 60.667969 33.984375 60.367188 C 33.984375 60.070312 34.042969 59.78125 34.15625 59.503906 C 34.269531 59.226562 34.433594 58.980469 34.648438 58.769531 C 34.859375 58.554688 35.105469 58.390625 35.382812 58.277344 C 35.660156 58.160156 35.949219 58.105469 36.25 58.105469 C 36.546875 58.105469 36.835938 58.160156 37.113281 58.277344 C 37.390625 58.390625 37.636719 58.554688 37.847656 58.769531 C 38.0625 58.980469 38.226562 59.226562 38.339844 59.503906 C 38.453125 59.78125 38.511719 60.070312 38.511719 60.367188 Z M 38.511719 60.367188 " fill-opacity="1" fill-rule="nonzero"/><path fill="#e9e9e9" d="M 113.703125 93.136719 L 118.355469 93.136719 L 117.347656 61.167969 L 114.71875 61.167969 Z M 113.703125 93.136719 " fill-opacity="1" fill-rule="nonzero"/><path fill="#ffffff" d="M 115.011719 61.507812 L 116.945312 41.804688 C 116.988281 41.382812 117.605469 41.359375 117.671875 41.785156 L 119.699219 54.824219 C 119.90625 56.125 119.566406 57.453125 118.765625 58.503906 L 116.316406 61.707031 " fill-opacity="1" fill-rule="nonzero"/><path fill="#ffffff" d="M 116.796875 61.574219 L 97.503906 66.011719 C 97.085938 66.105469 96.875 65.527344 97.253906 65.332031 L 108.96875 59.257812 C 110.140625 58.65625 111.503906 58.550781 112.753906 58.972656 L 116.570312 60.277344 " fill-opacity="1" fill-rule="nonzero"/><path fill="#ffffff" d="M 116.972656 60.574219 L 133.019531 72.164062 C 133.371094 72.414062 133.070312 72.953125 132.675781 72.796875 L 120.386719 67.984375 C 119.160156 67.507812 118.179688 66.546875 117.679688 65.328125 L 116.148438 61.597656 " fill-opacity="1" fill-rule="nonzero"/><path fill="#c8c8c8" d="M 118.296875 61.242188 C 118.296875 61.542969 118.238281 61.832031 118.125 62.109375 C 118.007812 62.386719 117.84375 62.632812 117.632812 62.84375 C 117.421875 63.054688 117.175781 63.21875 116.898438 63.335938 C 116.621094 63.449219 116.332031 63.507812 116.03125 63.507812 C 115.730469 63.507812 115.441406 63.449219 115.164062 63.335938 C 114.886719 63.21875 114.644531 63.054688 114.429688 62.84375 C 114.21875 62.632812 114.054688 62.386719 113.941406 62.109375 C 113.824219 61.832031 113.769531 61.542969 113.769531 61.242188 C 113.769531 60.941406 113.824219 60.652344 113.941406 60.375 C 114.054688 60.097656 114.21875 59.855469 114.429688 59.640625 C 114.644531 59.429688 114.886719 59.265625 115.164062 59.152344 C 115.441406 59.035156 115.730469 58.980469 116.03125 58.980469 C 116.332031 58.980469 116.621094 59.035156 116.898438 59.152344 C 117.175781 59.265625 117.421875 59.429688 117.632812 59.640625 C 117.84375 59.855469 118.007812 60.097656 118.125 60.375 C 118.238281 60.652344 118.296875 60.941406 118.296875 61.242188 Z M 118.296875 61.242188 " fill-opacity="1" fill-rule="nonzero"/><path fill="#e9e9e9" d="M 80.4375 116.371094 L 73.046875 116.371094 L 74.65625 65.648438 L 78.828125 65.648438 Z M 80.4375 116.371094 " fill-opacity="1" fill-rule="nonzero"/><path fill="#ffffff" d="M 78.828125 65.648438 L 78.828125 34.234375 C 78.828125 33.554688 77.855469 33.429688 77.6875 34.089844 L 72.464844 54.371094 C 71.945312 56.394531 72.269531 58.542969 73.375 60.324219 L 76.746094 65.761719 " fill-opacity="1" fill-rule="nonzero"/><path fill="#ffffff" d="M 75.78125 65.460938 L 101.96875 82.816406 C 102.53125 83.191406 103.171875 82.449219 102.71875 81.945312 L 88.699219 66.386719 C 87.296875 64.832031 85.324219 63.917969 83.234375 63.855469 L 76.835938 63.664062 " fill-opacity="1" fill-rule="nonzero"/><path fill="#ffffff" d="M 76.082031 63.878906 L 45.78125 72.148438 C 45.125 72.328125 45.257812 73.296875 45.9375 73.289062 L 66.882812 72.988281 C 68.96875 72.957031 70.960938 72.078125 72.382812 70.542969 L 76.746094 65.863281 " fill-opacity="1" fill-rule="nonzero"/><path fill="#c8c8c8" d="M 80.332031 65.761719 C 80.332031 66.238281 80.238281 66.695312 80.058594 67.136719 C 79.875 67.574219 79.617188 67.960938 79.28125 68.300781 C 78.941406 68.636719 78.554688 68.894531 78.117188 69.078125 C 77.675781 69.257812 77.21875 69.351562 76.742188 69.351562 C 76.265625 69.351562 75.808594 69.257812 75.367188 69.078125 C 74.929688 68.894531 74.542969 68.636719 74.203125 68.300781 C 73.867188 67.960938 73.609375 67.574219 73.425781 67.136719 C 73.246094 66.695312 73.152344 66.238281 73.152344 65.761719 C 73.152344 65.285156 73.246094 64.828125 73.425781 64.386719 C 73.609375 63.949219 73.867188 63.558594 74.203125 63.222656 C 74.542969 62.886719 74.929688 62.628906 75.367188 62.445312 C 75.808594 62.265625 76.265625 62.171875 76.742188 62.171875 C 77.21875 62.171875 77.675781 62.265625 78.117188 62.445312 C 78.554688 62.628906 78.941406 62.886719 79.28125 63.222656 C 79.617188 63.558594 79.875 63.949219 80.058594 64.386719 C 80.238281 64.828125 80.332031 65.285156 80.332031 65.761719 Z M 80.332031 65.761719 " fill-opacity="1" fill-rule="nonzero"/></svg>