<svg xmlns="http://www.w3.org/2000/svg" xmlns:xlink="http://www.w3.org/1999/xlink" width="40" zoomAndPan="magnify" viewBox="0 0 30 30.000001" height="40" preserveAspectRatio="xMidYMid meet" version="1.0"><defs><clipPath id="2c037bc2e8"><path d="M 1.433594 2.902344 L 28 2.902344 L 28 22 L 1.433594 22 Z M 1.433594 2.902344 " clip-rule="nonzero"/></clipPath><clipPath id="2cf532a751"><path d="M 1.433594 14 L 28.289062 14 L 28.289062 27.582031 L 1.433594 27.582031 Z M 1.433594 14 " clip-rule="nonzero"/></clipPath><clipPath id="d0326f0e09"><path d="M 1.433594 14 L 28 14 L 28 15 L 1.433594 15 Z M 1.433594 14 " clip-rule="nonzero"/></clipPath><clipPath id="2bf451cff6"><path d="M 1.433594 21 L 28.289062 21 L 28.289062 27.582031 L 1.433594 27.582031 Z M 1.433594 21 " clip-rule="nonzero"/></clipPath><clipPath id="b5cfedadb3"><path d="M 1.433594 2.902344 L 28 2.902344 L 28 22 L 1.433594 22 Z M 1.433594 2.902344 " clip-rule="nonzero"/></clipPath></defs><g clip-path="url(#2c037bc2e8)"><path fill="#91c5eb" d="M 25.679688 21.863281 C 26.648438 20.054688 27.195312 17.984375 27.195312 15.789062 C 27.195312 8.707031 21.507812 2.96875 14.488281 2.96875 C 7.46875 2.96875 1.777344 8.707031 1.777344 15.789062 C 1.777344 17.984375 2.328125 20.054688 3.292969 21.863281 Z M 25.679688 21.863281 " fill-opacity="1" fill-rule="nonzero"/></g><g clip-path="url(#2cf532a751)"><path fill="#5daa5b" d="M 28.21875 21.539062 L 27.179688 23.273438 L 22.398438 27.527344 L 8.980469 27.382812 L 2.152344 23.199219 L 1.464844 21.527344 L 3.109375 21.527344 C 2.257812 19.820312 1.777344 17.894531 1.777344 15.855469 C 1.777344 15.425781 1.800781 15.003906 1.839844 14.589844 L 27.132812 14.589844 C 27.175781 15.003906 27.195312 15.425781 27.195312 15.855469 C 27.195312 17.894531 26.714844 19.820312 25.863281 21.527344 Z M 28.21875 21.539062 " fill-opacity="1" fill-rule="nonzero"/></g><g clip-path="url(#d0326f0e09)"><path stroke-linecap="butt" transform="matrix(0.0537312, 0, 0, 0.054201, 1.432547, 2.922046)" fill="none" stroke-linejoin="miter" d="M 7.580271 215.052779 L 479.257118 215.052779 " stroke="#000000" stroke-width="1.5" stroke-opacity="1" stroke-miterlimit="10"/></g><g clip-path="url(#2bf451cff6)"><path fill="#000000" d="M 1.433594 21.5 L 2.144531 23.1875 L 2.152344 23.199219 L 8.9375 27.410156 L 8.949219 27.417969 L 22.449219 27.566406 L 22.464844 27.566406 L 27.296875 23.203125 L 28.285156 21.5 Z M 27.238281 23.144531 L 22.433594 27.488281 L 8.972656 27.335938 L 2.214844 23.144531 L 1.554688 21.582031 L 28.144531 21.582031 Z M 27.238281 23.144531 " fill-opacity="1" fill-rule="nonzero"/></g><path fill="#000000" d="M 22.824219 11.890625 C 22.953125 11.875 23.078125 11.847656 23.199219 11.808594 C 23.632812 11.667969 24.019531 11.378906 24.273438 10.996094 C 24.285156 10.980469 24.308594 10.996094 24.296875 11.011719 C 24.226562 11.121094 24.144531 11.222656 24.050781 11.3125 C 23.722656 11.644531 23.289062 11.863281 22.824219 11.917969 C 22.808594 11.921875 22.808594 11.890625 22.824219 11.890625 Z M 21.324219 12.320312 C 21.519531 12.273438 21.707031 12.203125 21.882812 12.113281 C 21.984375 12.058594 22.085938 11.996094 22.179688 11.929688 C 22.191406 11.917969 22.179688 11.894531 22.164062 11.90625 C 21.84375 12.136719 21.457031 12.296875 21.0625 12.332031 C 20.941406 12.34375 20.816406 12.339844 20.699219 12.304688 C 20.683594 12.300781 20.675781 12.328125 20.695312 12.332031 C 20.898438 12.390625 21.117188 12.367188 21.324219 12.320312 Z M 18.988281 12.824219 C 19.046875 12.816406 19.105469 12.8125 19.164062 12.804688 C 19.28125 12.792969 19.394531 12.785156 19.507812 12.761719 C 19.707031 12.726562 19.890625 12.644531 20.050781 12.519531 C 20.136719 12.449219 20.21875 12.375 20.289062 12.285156 C 20.300781 12.273438 20.277344 12.253906 20.269531 12.265625 C 20.152344 12.40625 20.011719 12.527344 19.851562 12.617188 C 19.769531 12.660156 19.683594 12.695312 19.589844 12.714844 C 19.484375 12.742188 19.378906 12.753906 19.273438 12.765625 C 19.210938 12.773438 19.148438 12.777344 19.085938 12.785156 C 19.058594 12.789062 19.027344 12.792969 19 12.792969 C 18.980469 12.796875 18.9375 12.808594 18.929688 12.785156 C 18.925781 12.765625 18.898438 12.773438 18.902344 12.792969 C 18.914062 12.828125 18.957031 12.828125 18.988281 12.824219 Z M 20.28125 12.433594 C 20.019531 12.714844 19.664062 12.90625 19.285156 12.980469 C 19.179688 13 19.070312 13.007812 18.960938 13.007812 C 18.941406 13.007812 18.941406 13.035156 18.960938 13.035156 C 19.351562 13.039062 19.742188 12.90625 20.054688 12.671875 C 20.144531 12.605469 20.226562 12.535156 20.300781 12.453125 C 20.3125 12.4375 20.292969 12.417969 20.28125 12.433594 Z M 22.242188 12.027344 C 21.921875 12.3125 21.503906 12.484375 21.078125 12.507812 C 20.957031 12.511719 20.835938 12.507812 20.71875 12.492188 C 20.699219 12.488281 20.691406 12.515625 20.710938 12.519531 C 21.140625 12.582031 21.589844 12.488281 21.964844 12.265625 C 22.070312 12.203125 22.171875 12.128906 22.261719 12.046875 C 22.277344 12.035156 22.253906 12.015625 22.242188 12.027344 Z M 24.355469 11.152344 C 24.207031 11.378906 24.019531 11.578125 23.800781 11.734375 C 23.574219 11.898438 23.320312 12.007812 23.046875 12.054688 C 22.863281 12.089844 22.675781 12.097656 22.488281 12.105469 C 22.46875 12.109375 22.46875 12.136719 22.488281 12.136719 C 22.804688 12.121094 23.125 12.101562 23.421875 11.976562 C 23.675781 11.875 23.898438 11.71875 24.089844 11.527344 C 24.199219 11.417969 24.296875 11.296875 24.378906 11.167969 C 24.390625 11.152344 24.367188 11.136719 24.355469 11.152344 Z M 24.355469 11.152344 " fill-opacity="1" fill-rule="nonzero"/><path fill="#4281c3" d="M 25.140625 10.996094 L 25.226562 10.996094 C 25.273438 10.996094 25.3125 10.957031 25.3125 10.90625 C 25.3125 10.859375 25.273438 10.820312 25.226562 10.820312 L 25.015625 10.820312 L 25.015625 10.53125 L 25.042969 10.53125 C 25.09375 10.53125 25.132812 10.492188 25.132812 10.441406 C 25.132812 10.394531 25.09375 10.355469 25.042969 10.355469 L 24.402344 10.355469 C 24.351562 10.355469 24.3125 10.394531 24.3125 10.441406 C 24.3125 10.492188 24.351562 10.53125 24.402344 10.53125 L 24.429688 10.53125 L 24.429688 10.820312 L 24.21875 10.820312 C 24.171875 10.820312 24.132812 10.859375 24.132812 10.90625 C 24.132812 10.957031 24.171875 10.996094 24.21875 10.996094 L 24.304688 10.996094 C 24.214844 11.488281 23.675781 14.558594 23.695312 14.589844 L 25.753906 14.589844 C 25.769531 14.558594 25.230469 11.488281 25.140625 10.996094 Z M 24.53125 10.53125 L 24.914062 10.53125 L 24.914062 10.820312 L 24.53125 10.820312 Z M 24.53125 10.53125 " fill-opacity="1" fill-rule="nonzero"/><path fill="#4281c3" d="M 22.835938 11.867188 L 22.898438 11.867188 C 22.933594 11.867188 22.964844 11.835938 22.964844 11.800781 C 22.964844 11.761719 22.933594 11.730469 22.898438 11.730469 L 22.738281 11.730469 L 22.738281 11.511719 L 22.757812 11.511719 C 22.796875 11.511719 22.824219 11.480469 22.824219 11.445312 C 22.824219 11.40625 22.796875 11.375 22.757812 11.375 L 22.269531 11.375 C 22.230469 11.375 22.203125 11.40625 22.203125 11.445312 C 22.203125 11.480469 22.230469 11.511719 22.269531 11.511719 L 22.292969 11.511719 L 22.292969 11.730469 L 22.132812 11.730469 C 22.09375 11.730469 22.0625 11.761719 22.0625 11.800781 C 22.0625 11.835938 22.09375 11.867188 22.132812 11.867188 L 22.195312 11.867188 C 22.128906 12.242188 21.714844 14.582031 21.726562 14.605469 L 23.300781 14.605469 C 23.3125 14.582031 22.898438 12.242188 22.835938 11.867188 Z M 22.367188 11.511719 L 22.660156 11.511719 L 22.660156 11.734375 L 22.367188 11.734375 Z M 22.367188 11.511719 " fill-opacity="1" fill-rule="nonzero"/><path fill="#000000" d="M 23.292969 14.621094 L 23.304688 14.601562 L 23.296875 14.597656 C 23.285156 14.441406 23.011719 12.882812 22.839844 11.886719 L 22.84375 11.886719 L 22.835938 11.875 L 22.886719 11.875 C 22.929688 11.875 22.964844 11.839844 22.964844 11.796875 C 22.964844 11.753906 22.929688 11.71875 22.886719 11.71875 L 22.738281 11.71875 L 22.738281 11.523438 L 22.75 11.523438 C 22.792969 11.523438 22.828125 11.488281 22.828125 11.445312 C 22.828125 11.402344 22.792969 11.367188 22.75 11.367188 L 22.257812 11.367188 C 22.214844 11.367188 22.179688 11.402344 22.179688 11.445312 C 22.179688 11.488281 22.214844 11.523438 22.257812 11.523438 L 22.269531 11.523438 L 22.269531 11.71875 L 22.121094 11.71875 C 22.078125 11.71875 22.042969 11.753906 22.042969 11.796875 C 22.042969 11.839844 22.078125 11.875 22.121094 11.875 L 22.171875 11.875 L 22.164062 11.886719 L 22.167969 11.886719 C 21.992188 12.882812 21.71875 14.445312 21.707031 14.597656 L 21.703125 14.601562 L 21.714844 14.621094 L 21.722656 14.617188 L 23.285156 14.617188 Z M 22.46875 12.460938 L 22.066406 12.59375 C 22.082031 12.507812 22.09375 12.425781 22.109375 12.347656 Z M 22.117188 12.324219 L 22.492188 12.097656 L 22.492188 12.449219 Z M 22.492188 12.476562 L 22.492188 12.753906 L 22.097656 12.605469 Z M 22.0625 12.617188 L 22.472656 12.769531 L 22.003906 12.945312 C 22.023438 12.835938 22.042969 12.726562 22.0625 12.617188 Z M 22.492188 12.785156 L 22.492188 13.125 L 22.035156 12.957031 Z M 22.472656 13.140625 L 21.9375 13.332031 C 21.957031 13.210938 21.980469 13.089844 22 12.96875 Z M 22.492188 13.15625 L 22.492188 13.578125 L 21.941406 13.351562 Z M 22.472656 13.59375 L 21.847656 13.851562 C 21.871094 13.703125 21.902344 13.542969 21.929688 13.371094 Z M 22.492188 13.613281 L 22.492188 14.183594 L 21.871094 13.867188 Z M 22.191406 11.875 L 22.492188 11.875 L 22.492188 12.058594 Z M 23.074219 13.371094 C 23.105469 13.542969 23.132812 13.703125 23.15625 13.851562 L 22.53125 13.59375 Z M 22.511719 13.578125 L 22.511719 13.152344 L 23.0625 13.351562 Z M 22.535156 13.140625 L 23.003906 12.96875 C 23.027344 13.089844 23.046875 13.210938 23.066406 13.332031 Z M 22.511719 13.125 L 22.511719 12.785156 L 22.972656 12.957031 Z M 22.535156 12.769531 L 22.945312 12.617188 C 22.960938 12.726562 22.980469 12.835938 23 12.945312 Z M 22.511719 12.753906 L 22.511719 12.476562 L 22.910156 12.605469 Z M 22.539062 12.460938 L 22.898438 12.347656 C 22.910156 12.425781 22.925781 12.507812 22.941406 12.59375 Z M 22.511719 12.449219 L 22.511719 12.097656 L 22.890625 12.324219 Z M 22.511719 11.875 L 22.8125 11.875 L 22.511719 12.058594 Z M 22.511719 13.613281 L 23.132812 13.867188 L 22.511719 14.183594 Z M 23.160156 13.878906 C 23.222656 14.242188 23.269531 14.515625 23.277344 14.585938 L 22.527344 14.203125 Z M 22.886719 12.300781 L 22.523438 12.078125 L 22.820312 11.898438 C 22.839844 12.023438 22.863281 12.15625 22.886719 12.300781 Z M 22.257812 11.5 C 22.226562 11.5 22.203125 11.472656 22.203125 11.441406 C 22.203125 11.410156 22.226562 11.386719 22.257812 11.386719 L 22.75 11.386719 C 22.777344 11.386719 22.804688 11.410156 22.804688 11.441406 C 22.804688 11.472656 22.777344 11.5 22.75 11.5 Z M 22.714844 11.519531 L 22.714844 11.71875 L 22.660156 11.71875 L 22.660156 11.519531 Z M 22.636719 11.519531 L 22.636719 11.71875 L 22.367188 11.71875 L 22.367188 11.519531 Z M 22.347656 11.519531 L 22.347656 11.71875 L 22.292969 11.71875 L 22.292969 11.519531 Z M 22.0625 11.796875 C 22.0625 11.765625 22.089844 11.742188 22.121094 11.742188 L 22.886719 11.742188 C 22.917969 11.742188 22.941406 11.765625 22.941406 11.796875 C 22.941406 11.828125 22.917969 11.855469 22.886719 11.855469 L 22.121094 11.855469 C 22.089844 11.855469 22.0625 11.828125 22.0625 11.796875 Z M 22.480469 12.078125 L 22.117188 12.300781 C 22.140625 12.15625 22.164062 12.023438 22.1875 11.898438 Z M 21.84375 13.875 L 22.480469 14.203125 L 21.730469 14.585938 C 21.738281 14.515625 21.78125 14.242188 21.84375 13.875 Z M 21.761719 14.59375 L 22.492188 14.21875 L 22.492188 14.59375 Z M 22.511719 14.59375 L 22.511719 14.21875 L 23.242188 14.59375 Z M 22.511719 14.59375 " fill-opacity="1" fill-rule="nonzero"/><path fill="#4281c3" d="M 20.824219 12.292969 L 20.878906 12.292969 C 20.910156 12.292969 20.933594 12.265625 20.933594 12.234375 C 20.933594 12.203125 20.910156 12.179688 20.878906 12.179688 L 20.742188 12.179688 L 20.742188 11.992188 L 20.761719 11.992188 C 20.792969 11.992188 20.816406 11.96875 20.816406 11.9375 C 20.816406 11.90625 20.792969 11.878906 20.761719 11.878906 L 20.347656 11.878906 C 20.316406 11.878906 20.292969 11.90625 20.292969 11.9375 C 20.292969 11.96875 20.316406 11.992188 20.347656 11.992188 L 20.367188 11.992188 L 20.367188 12.179688 L 20.234375 12.179688 C 20.203125 12.179688 20.175781 12.203125 20.175781 12.234375 C 20.175781 12.265625 20.203125 12.292969 20.234375 12.292969 L 20.285156 12.292969 C 20.230469 12.605469 19.882812 14.582031 19.894531 14.601562 L 21.21875 14.601562 C 21.226562 14.582031 20.882812 12.605469 20.824219 12.292969 Z M 20.433594 11.992188 L 20.679688 11.992188 L 20.679688 12.179688 L 20.433594 12.179688 Z M 20.433594 11.992188 " fill-opacity="1" fill-rule="nonzero"/><path fill="#000000" d="M 21.210938 14.613281 L 21.21875 14.597656 L 21.214844 14.59375 C 21.207031 14.464844 20.976562 13.148438 20.828125 12.308594 L 20.832031 12.308594 L 20.828125 12.300781 L 20.871094 12.300781 C 20.90625 12.300781 20.933594 12.269531 20.933594 12.234375 C 20.933594 12.199219 20.90625 12.167969 20.871094 12.167969 L 20.742188 12.167969 L 20.742188 12 L 20.753906 12 C 20.789062 12 20.816406 11.972656 20.816406 11.933594 C 20.816406 11.898438 20.789062 11.867188 20.753906 11.867188 L 20.339844 11.867188 C 20.304688 11.867188 20.273438 11.898438 20.273438 11.933594 C 20.273438 11.972656 20.304688 12 20.339844 12 L 20.351562 12 L 20.351562 12.167969 L 20.222656 12.167969 C 20.1875 12.167969 20.160156 12.199219 20.160156 12.234375 C 20.160156 12.269531 20.1875 12.300781 20.222656 12.300781 L 20.265625 12.300781 L 20.261719 12.308594 L 20.265625 12.308594 C 20.117188 13.148438 19.886719 14.464844 19.875 14.59375 L 19.871094 14.597656 L 19.878906 14.613281 L 19.886719 14.609375 L 21.207031 14.609375 Z M 20.515625 12.792969 L 20.179688 12.902344 C 20.191406 12.832031 20.203125 12.761719 20.214844 12.695312 Z M 20.222656 12.679688 L 20.539062 12.488281 L 20.539062 12.78125 Z M 20.539062 12.808594 L 20.539062 13.039062 L 20.203125 12.914062 Z M 20.175781 12.921875 L 20.519531 13.054688 L 20.125 13.203125 C 20.140625 13.109375 20.160156 13.015625 20.175781 12.921875 Z M 20.539062 13.066406 L 20.539062 13.351562 L 20.152344 13.210938 Z M 20.519531 13.363281 L 20.070312 13.523438 C 20.085938 13.425781 20.105469 13.324219 20.121094 13.222656 Z M 20.539062 13.375 L 20.539062 13.734375 L 20.074219 13.542969 Z M 20.523438 13.75 L 19.992188 13.964844 C 20.015625 13.839844 20.039062 13.703125 20.0625 13.558594 Z M 20.539062 13.761719 L 20.539062 14.246094 L 20.015625 13.976562 Z M 20.285156 12.300781 L 20.535156 12.300781 L 20.535156 12.453125 Z M 21.027344 13.558594 C 21.054688 13.703125 21.078125 13.839844 21.097656 13.964844 L 20.570312 13.75 Z M 20.554688 13.734375 L 20.554688 13.375 L 21.019531 13.542969 Z M 20.574219 13.363281 L 20.96875 13.222656 C 20.988281 13.324219 21.003906 13.425781 21.023438 13.523438 Z M 20.554688 13.351562 L 20.554688 13.066406 L 20.941406 13.210938 Z M 20.574219 13.054688 L 20.917969 12.921875 C 20.933594 13.015625 20.949219 13.109375 20.964844 13.203125 Z M 20.554688 13.039062 L 20.554688 12.808594 L 20.890625 12.914062 Z M 20.578125 12.792969 L 20.878906 12.695312 C 20.890625 12.761719 20.902344 12.832031 20.914062 12.902344 Z M 20.554688 12.78125 L 20.554688 12.488281 L 20.871094 12.679688 Z M 20.554688 12.300781 L 20.808594 12.300781 L 20.554688 12.453125 Z M 20.554688 13.761719 L 21.078125 13.976562 L 20.554688 14.246094 Z M 21.101562 13.984375 C 21.152344 14.292969 21.191406 14.527344 21.199219 14.585938 L 20.566406 14.261719 Z M 20.871094 12.65625 L 20.5625 12.46875 L 20.8125 12.320312 C 20.832031 12.421875 20.851562 12.535156 20.871094 12.65625 Z M 20.339844 11.980469 C 20.3125 11.980469 20.292969 11.960938 20.292969 11.933594 C 20.292969 11.910156 20.3125 11.886719 20.339844 11.886719 L 20.753906 11.886719 C 20.777344 11.886719 20.800781 11.910156 20.800781 11.933594 C 20.800781 11.960938 20.777344 11.980469 20.753906 11.980469 Z M 20.726562 12 L 20.726562 12.167969 L 20.679688 12.167969 L 20.679688 12 Z M 20.660156 12 L 20.660156 12.167969 L 20.433594 12.167969 L 20.433594 12 Z M 20.414062 12 L 20.414062 12.167969 L 20.367188 12.167969 L 20.367188 12 Z M 20.175781 12.234375 C 20.175781 12.207031 20.195312 12.1875 20.222656 12.1875 L 20.867188 12.1875 C 20.894531 12.1875 20.914062 12.207031 20.914062 12.234375 C 20.914062 12.261719 20.894531 12.28125 20.867188 12.28125 L 20.222656 12.28125 C 20.195312 12.28125 20.175781 12.261719 20.175781 12.234375 Z M 20.527344 12.46875 L 20.222656 12.65625 C 20.242188 12.535156 20.261719 12.421875 20.28125 12.320312 Z M 19.992188 13.984375 L 20.527344 14.261719 L 19.894531 14.585938 C 19.902344 14.527344 19.9375 14.292969 19.992188 13.984375 Z M 19.921875 14.589844 L 20.539062 14.277344 L 20.539062 14.589844 Z M 20.554688 14.589844 L 20.554688 14.277344 L 21.171875 14.589844 Z M 20.554688 14.589844 " fill-opacity="1" fill-rule="nonzero"/><path fill="#4281c3" d="M 19.035156 12.785156 L 19.074219 12.785156 C 19.097656 12.785156 19.117188 12.765625 19.117188 12.742188 C 19.117188 12.714844 19.097656 12.695312 19.074219 12.695312 L 18.96875 12.695312 L 18.96875 12.550781 L 18.984375 12.550781 C 19.007812 12.550781 19.027344 12.53125 19.027344 12.507812 C 19.027344 12.480469 19.007812 12.460938 18.984375 12.460938 L 18.660156 12.460938 C 18.636719 12.460938 18.617188 12.480469 18.617188 12.507812 C 18.617188 12.53125 18.636719 12.550781 18.660156 12.550781 L 18.675781 12.550781 L 18.675781 12.695312 L 18.570312 12.695312 C 18.546875 12.695312 18.527344 12.714844 18.527344 12.742188 C 18.527344 12.765625 18.546875 12.785156 18.570312 12.785156 L 18.609375 12.785156 C 18.566406 13.03125 18.296875 14.574219 18.304688 14.589844 L 19.339844 14.589844 C 19.347656 14.574219 19.078125 13.03125 19.035156 12.785156 Z M 18.726562 12.550781 L 18.917969 12.550781 L 18.917969 12.695312 L 18.726562 12.695312 Z M 18.726562 12.550781 " fill-opacity="1" fill-rule="nonzero"/><path fill="#000000" d="M 19.335938 14.597656 L 19.339844 14.582031 C 19.328125 14.480469 19.152344 13.453125 19.035156 12.796875 L 19.039062 12.796875 L 19.035156 12.789062 L 19.066406 12.789062 C 19.09375 12.789062 19.117188 12.769531 19.117188 12.738281 C 19.117188 12.710938 19.09375 12.6875 19.066406 12.6875 L 18.96875 12.6875 L 18.96875 12.558594 L 18.976562 12.558594 C 19.003906 12.558594 19.027344 12.535156 19.027344 12.503906 C 19.027344 12.476562 19.003906 12.453125 18.976562 12.453125 L 18.652344 12.453125 C 18.625 12.453125 18.601562 12.476562 18.601562 12.503906 C 18.601562 12.535156 18.625 12.558594 18.652344 12.558594 L 18.660156 12.558594 L 18.660156 12.6875 L 18.5625 12.6875 C 18.535156 12.6875 18.511719 12.710938 18.511719 12.738281 C 18.511719 12.769531 18.535156 12.789062 18.5625 12.789062 L 18.59375 12.789062 L 18.589844 12.796875 L 18.59375 12.796875 C 18.476562 13.453125 18.296875 14.480469 18.289062 14.582031 L 18.289062 14.585938 L 18.292969 14.597656 L 18.300781 14.59375 L 19.328125 14.59375 Z M 18.792969 13.175781 L 18.527344 13.261719 C 18.539062 13.207031 18.546875 13.152344 18.554688 13.101562 Z M 18.5625 13.085938 L 18.808594 12.9375 L 18.808594 13.167969 Z M 18.808594 13.1875 L 18.808594 13.367188 L 18.546875 13.269531 Z M 18.523438 13.277344 L 18.796875 13.378906 L 18.488281 13.496094 C 18.5 13.421875 18.511719 13.351562 18.523438 13.277344 Z M 18.808594 13.390625 L 18.808594 13.613281 L 18.507812 13.503906 Z M 18.792969 13.621094 L 18.441406 13.75 C 18.457031 13.671875 18.46875 13.589844 18.484375 13.511719 Z M 18.808594 13.632812 L 18.808594 13.910156 L 18.445312 13.761719 Z M 18.796875 13.921875 L 18.382812 14.09375 C 18.402344 13.996094 18.417969 13.886719 18.4375 13.773438 Z M 18.808594 13.933594 L 18.808594 14.308594 L 18.398438 14.101562 Z M 18.609375 12.792969 C 18.609375 12.789062 18.609375 12.789062 18.609375 12.792969 L 18.808594 12.789062 L 18.808594 12.910156 Z M 19.191406 13.773438 C 19.210938 13.886719 19.230469 13.996094 19.246094 14.09375 L 18.832031 13.921875 Z M 18.820312 13.910156 L 18.820312 13.632812 L 19.183594 13.761719 Z M 18.835938 13.621094 L 19.144531 13.511719 C 19.160156 13.589844 19.175781 13.671875 19.1875 13.75 Z M 18.820312 13.613281 L 18.820312 13.390625 L 19.125 13.503906 Z M 18.835938 13.378906 L 19.105469 13.277344 C 19.117188 13.351562 19.128906 13.421875 19.144531 13.496094 Z M 18.820312 13.371094 L 18.820312 13.1875 L 19.082031 13.269531 Z M 18.839844 13.175781 L 19.074219 13.101562 C 19.082031 13.152344 19.09375 13.207031 19.101562 13.261719 Z M 18.820312 13.167969 L 18.820312 12.9375 L 19.070312 13.085938 Z M 18.820312 12.789062 L 19.019531 12.789062 C 19.019531 12.789062 19.019531 12.792969 19.019531 12.792969 L 18.820312 12.910156 Z M 18.820312 13.933594 L 19.230469 14.101562 L 18.820312 14.308594 Z M 19.25 14.109375 C 19.289062 14.347656 19.320312 14.527344 19.324219 14.574219 L 18.832031 14.320312 Z M 19.070312 13.070312 L 18.828125 12.925781 L 19.023438 12.808594 C 19.035156 12.886719 19.050781 12.976562 19.070312 13.070312 Z M 18.652344 12.542969 C 18.632812 12.542969 18.617188 12.527344 18.617188 12.507812 C 18.617188 12.484375 18.632812 12.46875 18.652344 12.46875 L 18.976562 12.46875 C 18.996094 12.46875 19.011719 12.484375 19.011719 12.507812 C 19.011719 12.527344 18.996094 12.542969 18.976562 12.542969 Z M 18.953125 12.558594 L 18.953125 12.6875 L 18.917969 12.6875 L 18.917969 12.558594 Z M 18.902344 12.558594 L 18.902344 12.6875 L 18.726562 12.6875 L 18.726562 12.558594 Z M 18.710938 12.558594 L 18.710938 12.6875 L 18.675781 12.6875 L 18.675781 12.558594 Z M 18.527344 12.738281 C 18.527344 12.71875 18.542969 12.703125 18.5625 12.703125 L 19.066406 12.703125 C 19.089844 12.703125 19.105469 12.71875 19.105469 12.738281 C 19.105469 12.761719 19.085938 12.777344 19.066406 12.777344 L 18.5625 12.777344 C 18.542969 12.777344 18.527344 12.761719 18.527344 12.738281 Z M 18.800781 12.925781 L 18.5625 13.070312 C 18.578125 12.976562 18.59375 12.886719 18.605469 12.808594 Z M 18.382812 14.109375 L 18.800781 14.320312 L 18.304688 14.574219 C 18.3125 14.53125 18.339844 14.347656 18.382812 14.109375 Z M 18.328125 14.582031 L 18.808594 14.335938 L 18.808594 14.582031 Z M 18.820312 14.582031 L 18.820312 14.335938 L 19.300781 14.582031 Z M 18.820312 14.582031 " fill-opacity="1" fill-rule="nonzero"/><path fill="#000000" d="M 25.746094 14.605469 L 25.757812 14.582031 L 25.75 14.578125 C 25.734375 14.371094 25.378906 12.328125 25.148438 11.023438 L 25.152344 11.019531 L 25.144531 11.007812 L 25.210938 11.007812 C 25.265625 11.007812 25.3125 10.960938 25.3125 10.90625 C 25.3125 10.847656 25.265625 10.800781 25.210938 10.800781 L 25.015625 10.800781 L 25.015625 10.542969 L 25.03125 10.542969 C 25.085938 10.542969 25.132812 10.496094 25.132812 10.4375 C 25.132812 10.382812 25.085938 10.335938 25.03125 10.335938 L 24.386719 10.335938 C 24.332031 10.335938 24.285156 10.382812 24.285156 10.4375 C 24.285156 10.496094 24.332031 10.542969 24.386719 10.542969 L 24.402344 10.542969 L 24.402344 10.800781 L 24.207031 10.800781 C 24.148438 10.800781 24.105469 10.847656 24.105469 10.90625 C 24.105469 10.960938 24.148438 11.007812 24.207031 11.007812 L 24.269531 11.007812 L 24.261719 11.019531 L 24.269531 11.023438 C 24.039062 12.328125 23.679688 14.375 23.664062 14.578125 L 23.660156 14.578125 L 23.671875 14.605469 L 23.683594 14.601562 L 25.734375 14.601562 Z M 24.664062 11.777344 L 24.136719 11.949219 C 24.15625 11.839844 24.171875 11.730469 24.191406 11.625 Z M 24.203125 11.597656 L 24.695312 11.296875 L 24.695312 11.757812 Z M 24.695312 11.796875 L 24.695312 12.160156 L 24.175781 11.964844 Z M 24.128906 11.976562 L 24.667969 12.179688 L 24.054688 12.410156 C 24.078125 12.265625 24.105469 12.121094 24.128906 11.976562 Z M 24.695312 12.203125 L 24.695312 12.644531 L 24.09375 12.425781 Z M 24.667969 12.664062 L 23.96875 12.914062 C 23.996094 12.757812 24.023438 12.601562 24.050781 12.441406 Z M 24.695312 12.683594 L 24.695312 13.242188 L 23.972656 12.945312 Z M 24.671875 13.261719 L 23.851562 13.601562 C 23.882812 13.40625 23.921875 13.191406 23.957031 12.96875 Z M 24.695312 13.285156 L 24.695312 14.035156 L 23.882812 13.617188 Z M 24.300781 11.007812 L 24.695312 11.007812 L 24.695312 11.246094 Z M 25.457031 12.96875 C 25.496094 13.191406 25.535156 13.40625 25.566406 13.601562 L 24.746094 13.261719 Z M 24.722656 13.242188 L 24.722656 12.683594 L 25.445312 12.941406 Z M 24.75 12.664062 L 25.367188 12.441406 C 25.394531 12.601562 25.421875 12.761719 25.449219 12.914062 Z M 24.722656 12.644531 L 24.722656 12.203125 L 25.324219 12.425781 Z M 24.75 12.179688 L 25.285156 11.976562 C 25.3125 12.121094 25.335938 12.265625 25.363281 12.410156 Z M 24.722656 12.160156 L 24.722656 11.796875 L 25.242188 11.964844 Z M 24.753906 11.777344 L 25.226562 11.625 C 25.242188 11.730469 25.261719 11.839844 25.28125 11.949219 Z M 24.722656 11.757812 L 24.722656 11.296875 L 25.214844 11.597656 Z M 24.722656 11.007812 L 25.117188 11.007812 L 24.722656 11.246094 Z M 24.722656 13.28125 L 25.535156 13.617188 L 24.722656 14.035156 Z M 25.574219 13.632812 C 25.652344 14.109375 25.714844 14.46875 25.722656 14.5625 L 24.738281 14.058594 Z M 25.214844 11.5625 L 24.734375 11.273438 L 25.121094 11.039062 C 25.152344 11.199219 25.183594 11.375 25.214844 11.5625 Z M 24.386719 10.511719 C 24.347656 10.511719 24.3125 10.480469 24.3125 10.441406 C 24.3125 10.398438 24.347656 10.367188 24.386719 10.367188 L 25.03125 10.367188 C 25.070312 10.367188 25.101562 10.398438 25.101562 10.441406 C 25.101562 10.480469 25.070312 10.511719 25.03125 10.511719 Z M 24.984375 10.542969 L 24.984375 10.804688 L 24.914062 10.804688 L 24.914062 10.542969 Z M 24.886719 10.542969 L 24.886719 10.804688 L 24.53125 10.804688 L 24.53125 10.542969 Z M 24.503906 10.542969 L 24.503906 10.804688 L 24.429688 10.804688 L 24.429688 10.542969 Z M 24.132812 10.90625 C 24.132812 10.863281 24.164062 10.832031 24.207031 10.832031 L 25.210938 10.832031 C 25.25 10.832031 25.285156 10.863281 25.285156 10.90625 C 25.285156 10.945312 25.25 10.980469 25.210938 10.980469 L 24.207031 10.980469 C 24.164062 10.980469 24.132812 10.945312 24.132812 10.90625 Z M 24.679688 11.273438 L 24.203125 11.5625 C 24.234375 11.375 24.265625 11.199219 24.292969 11.039062 Z M 23.84375 13.632812 L 24.675781 14.058594 L 23.695312 14.5625 C 23.703125 14.472656 23.761719 14.109375 23.84375 13.632812 Z M 23.738281 14.570312 L 24.695312 14.082031 L 24.695312 14.570312 Z M 24.722656 14.570312 L 24.722656 14.082031 L 25.679688 14.570312 Z M 24.722656 14.570312 " fill-opacity="1" fill-rule="nonzero"/><path fill="#f9bdbd" d="M 8.988281 6.152344 L 9.457031 7.914062 L 10.800781 6.691406 L 10.253906 8.429688 L 12.039062 8.128906 L 10.648438 9.296875 L 12.308594 10.019531 L 10.511719 10.238281 L 11.523438 11.753906 L 9.894531 10.960938 L 9.933594 12.785156 L 8.988281 11.226562 L 8.042969 12.785156 L 8.078125 10.960938 L 6.449219 11.753906 L 7.460938 10.238281 L 5.664062 10.019531 L 7.328125 9.296875 L 5.933594 8.128906 L 7.71875 8.429688 L 7.171875 6.691406 L 8.515625 7.914062 Z M 8.988281 6.152344 " fill-opacity="1" fill-rule="nonzero"/><path fill="#4281c3" d="M 10.917969 22.90625 L 10.914062 22.542969 C 10.78125 22.570312 10.664062 22.589844 10.664062 22.589844 L 5.363281 22.101562 L 4.460938 21.882812 L 5.488281 21.390625 L 5.59375 21.125 L 5.917969 20.765625 L 8.019531 20.8125 L 12.019531 21.390625 L 12.042969 21.734375 L 12.234375 21.753906 Z M 10.917969 22.90625 " fill-opacity="1" fill-rule="nonzero"/><path fill="#4281c3" d="M 4.445312 21.902344 L 10.898438 22.488281 L 10.898438 22.917969 L 4.433594 22.25 Z M 5.4375 21.011719 L 5.4375 21.8125 L 6.109375 21.863281 L 6.089844 21.078125 Z M 15.808594 17.433594 L 15.808594 16.769531 L 15.359375 17.386719 L 6.945312 16.550781 C 6.945312 16.550781 6.941406 16.554688 6.941406 16.554688 L 3.746094 20.148438 L 3.210938 20.078125 L 3.214844 20.746094 L 3.210938 20.75 C 3.207031 20.753906 3.210938 20.761719 3.214844 20.761719 L 10.140625 21.523438 L 10.136719 22.195312 L 10.601562 22.234375 L 10.777344 22.234375 L 10.777344 21.59375 L 12.628906 21.796875 C 12.632812 21.796875 12.632812 21.796875 12.636719 21.792969 L 15.808594 17.441406 C 15.8125 17.4375 15.8125 17.4375 15.808594 17.433594 Z M 15.808594 17.433594 " fill-opacity="1" fill-rule="nonzero"/><path fill="#4281c3" d="M 6.945312 15.878906 L 15.804688 16.757812 C 15.808594 16.757812 15.8125 16.765625 15.808594 16.769531 L 12.636719 21.121094 C 12.632812 21.125 12.632812 21.125 12.628906 21.125 L 3.214844 20.085938 C 3.210938 20.085938 3.207031 20.082031 3.210938 20.074219 L 6.941406 15.878906 C 6.941406 15.878906 6.945312 15.878906 6.945312 15.878906 Z M 6.945312 15.878906 " fill-opacity="1" fill-rule="nonzero"/><path fill="#f9bdbd" d="M 15.285156 16.972656 L 12.414062 20.785156 L 3.847656 19.863281 L 7.058594 16.15625 Z M 15.285156 16.972656 " fill-opacity="1" fill-rule="nonzero"/><path fill="#000000" d="M 9.113281 22.085938 L 6.75 21.859375 C 6.738281 21.859375 6.726562 21.867188 6.726562 21.878906 C 6.726562 21.890625 6.734375 21.902344 6.746094 21.90625 L 9.109375 22.132812 C 9.109375 22.132812 9.113281 22.132812 9.113281 22.132812 C 9.125 22.132812 9.132812 22.121094 9.132812 22.113281 C 9.136719 22.097656 9.125 22.089844 9.113281 22.085938 Z M 9.113281 22.085938 " fill-opacity="1" fill-rule="nonzero"/><path fill="#000000" d="M 13.816406 16.8125 L 13.800781 16.796875 L 13.792969 16.808594 L 8.429688 16.277344 L 8.414062 16.261719 L 8.402344 16.273438 L 7.058594 16.140625 L 7.046875 16.140625 L 6.417969 16.867188 L 6.402344 16.867188 L 6.402344 16.886719 L 5.707031 17.6875 L 5.695312 17.683594 L 5.691406 17.707031 L 4.75 18.792969 L 4.734375 18.789062 L 4.734375 18.8125 L 3.828125 19.855469 L 3.800781 19.886719 L 12.410156 20.8125 L 12.421875 20.8125 L 13.136719 19.867188 L 13.148438 19.867188 L 13.152344 19.84375 L 14.664062 17.839844 L 14.675781 17.84375 L 14.675781 17.820312 L 15.324219 16.960938 Z M 13.761719 16.847656 L 13.167969 17.628906 L 11.355469 17.421875 L 11.945312 16.679688 L 11.929688 16.667969 Z M 8.792969 18.0625 L 7.117188 17.859375 L 7.789062 17.066406 L 9.460938 17.253906 Z M 9.511719 17.257812 L 11.269531 17.457031 L 10.613281 18.28125 L 8.84375 18.066406 Z M 8.761719 18.101562 L 7.878906 19.175781 L 6.175781 18.964844 L 7.082031 17.898438 Z M 8.8125 18.105469 L 10.582031 18.320312 L 9.71875 19.402344 L 7.929688 19.183594 Z M 10.632812 18.328125 L 12.464844 18.550781 L 11.636719 19.636719 L 9.769531 19.410156 Z M 10.664062 18.289062 L 11.324219 17.464844 L 13.136719 17.667969 L 12.496094 18.511719 Z M 11.902344 16.664062 L 11.304688 17.417969 L 9.542969 17.21875 L 10.144531 16.492188 Z M 8.421875 16.320312 L 10.089844 16.484375 L 9.492188 17.214844 L 7.820312 17.027344 Z M 7.066406 16.1875 L 8.367188 16.316406 L 7.769531 17.019531 L 6.46875 16.875 Z M 6.433594 16.914062 L 7.734375 17.058594 L 7.066406 17.851562 L 5.757812 17.691406 Z M 5.726562 17.734375 L 7.03125 17.890625 L 6.125 18.960938 L 4.800781 18.800781 Z M 3.890625 19.851562 L 4.769531 18.835938 L 6.089844 19 L 5.246094 19.996094 Z M 5.296875 20.003906 L 6.140625 19.007812 L 7.84375 19.214844 L 7.042969 20.191406 Z M 7.09375 20.195312 L 7.894531 19.222656 L 9.6875 19.441406 L 8.929688 20.394531 Z M 8.980469 20.398438 L 9.738281 19.449219 L 11.605469 19.675781 L 10.90625 20.59375 L 10.925781 20.609375 Z M 12.402344 20.765625 L 10.949219 20.609375 L 11.65625 19.683594 L 13.085938 19.859375 Z M 13.117188 19.820312 L 11.6875 19.644531 L 12.515625 18.554688 L 13.9375 18.730469 Z M 13.96875 18.691406 L 12.546875 18.515625 L 13.1875 17.671875 L 14.613281 17.832031 Z M 14.644531 17.792969 L 13.21875 17.632812 L 13.8125 16.855469 L 15.246094 16.996094 Z M 14.644531 17.792969 " fill-opacity="1" fill-rule="nonzero"/><path fill="#000000" d="M 15.828125 16.777344 C 15.832031 16.769531 15.832031 16.765625 15.828125 16.757812 C 15.824219 16.75 15.816406 16.742188 15.804688 16.742188 L 11.300781 16.292969 C 11.292969 16.292969 11.289062 16.292969 11.28125 16.292969 C 11.28125 16.292969 11.277344 16.292969 11.277344 16.292969 C 11.269531 16.292969 11.265625 16.292969 11.257812 16.289062 C 11.257812 16.289062 11.257812 16.289062 11.253906 16.289062 L 6.945312 15.863281 C 6.9375 15.863281 6.929688 15.867188 6.921875 15.871094 L 3.28125 19.96875 C 3.28125 19.96875 3.28125 19.96875 3.28125 19.972656 C 3.277344 19.972656 3.277344 19.976562 3.277344 19.976562 C 3.273438 19.980469 3.269531 19.988281 3.265625 19.992188 C 3.261719 19.992188 3.261719 19.996094 3.261719 19.996094 C 3.257812 20 3.253906 20 3.25 20.003906 L 3.191406 20.066406 C 3.1875 20.074219 3.183594 20.082031 3.1875 20.09375 L 3.1875 20.765625 C 3.1875 20.765625 3.1875 20.769531 3.1875 20.769531 C 3.191406 20.78125 3.199219 20.785156 3.210938 20.789062 L 5.414062 21.03125 L 5.414062 21.410156 L 4.4375 21.871094 L 4.417969 21.871094 L 4.417969 22.273438 L 10.925781 22.941406 L 10.925781 22.929688 L 12.242188 21.78125 L 12.625 21.824219 C 12.625 21.824219 12.628906 21.824219 12.628906 21.824219 C 12.636719 21.824219 12.644531 21.820312 12.652344 21.8125 L 15.824219 17.460938 C 15.828125 17.453125 15.832031 17.441406 15.828125 17.433594 Z M 10.882812 22.894531 L 4.460938 22.234375 L 4.460938 21.917969 L 10.882812 22.5 Z M 10.898438 22.460938 L 4.523438 21.878906 L 5.414062 21.457031 L 5.414062 21.84375 L 6.109375 21.875 L 6.109375 21.863281 L 7.0625 21.210938 L 10.117188 21.546875 L 10.117188 22.222656 L 10.804688 22.257812 L 10.808594 22.257812 L 11.460938 21.695312 L 11.734375 21.726562 Z M 6.066406 21.113281 C 6.066406 21.121094 6.066406 21.128906 6.066406 21.136719 C 6.066406 21.140625 6.066406 21.144531 6.066406 21.152344 L 6.066406 21.148438 L 6.066406 21.832031 L 5.457031 21.800781 L 5.457031 21.441406 C 5.457031 21.433594 5.453125 21.421875 5.453125 21.414062 C 5.453125 21.410156 5.453125 21.40625 5.457031 21.398438 C 5.457031 21.394531 5.457031 21.394531 5.457031 21.390625 L 5.457031 21.035156 L 6.066406 21.101562 C 6.066406 21.105469 6.066406 21.109375 6.066406 21.113281 Z M 6.109375 21.8125 L 6.109375 21.109375 L 6.996094 21.207031 Z M 10.160156 22.183594 L 10.160156 21.550781 L 10.761719 21.617188 L 10.761719 22.210938 Z M 10.804688 22.203125 L 10.804688 21.625 L 11.402344 21.6875 Z M 10.925781 22.871094 L 10.925781 22.492188 L 11.792969 21.730469 L 12.183594 21.773438 Z M 12.613281 21.777344 L 3.246094 20.75 L 3.246094 20.746094 C 3.242188 20.746094 3.238281 20.746094 3.234375 20.746094 C 3.230469 20.746094 3.230469 20.746094 3.230469 20.746094 L 3.230469 20.117188 L 12.613281 21.148438 Z M 12.621094 21.105469 L 3.246094 20.074219 L 6.949219 15.90625 L 15.777344 16.78125 Z M 15.785156 17.4375 C 15.785156 17.441406 15.785156 17.441406 15.785156 17.441406 C 15.78125 17.445312 15.78125 17.449219 15.773438 17.453125 L 15.777344 17.453125 L 12.65625 21.734375 L 12.65625 21.132812 L 15.785156 16.839844 Z M 15.785156 17.4375 " fill-opacity="1" fill-rule="nonzero"/><path fill="#000000" d="M 9.429688 21.933594 L 8.128906 21.808594 C 8.117188 21.808594 8.105469 21.816406 8.105469 21.828125 C 8.105469 21.839844 8.113281 21.851562 8.125 21.851562 L 9.425781 21.976562 C 9.425781 21.976562 9.425781 21.976562 9.429688 21.976562 C 9.4375 21.976562 9.449219 21.96875 9.449219 21.957031 C 9.449219 21.945312 9.441406 21.933594 9.429688 21.933594 Z M 9.429688 21.933594 " fill-opacity="1" fill-rule="nonzero"/><path fill="#4281c3" d="M 21.464844 24.476562 L 21.457031 24.007812 C 21.289062 24.042969 21.136719 24.070312 21.136719 24.070312 L 14.269531 23.4375 L 13.101562 23.152344 L 14.429688 22.515625 L 14.570312 22.167969 L 14.984375 21.707031 L 17.710938 21.765625 L 22.890625 22.515625 L 22.921875 22.957031 L 23.171875 22.984375 Z M 21.464844 24.476562 " fill-opacity="1" fill-rule="nonzero"/><path fill="#4281c3" d="M 13.082031 23.175781 L 21.441406 23.9375 L 21.441406 24.496094 L 13.066406 23.632812 Z M 14.363281 22.023438 L 14.363281 23.0625 L 15.238281 23.132812 L 15.207031 22.113281 Z M 27.800781 17.390625 L 27.800781 16.527344 L 27.21875 17.328125 L 16.320312 16.25 C 16.316406 16.246094 16.316406 16.25 16.3125 16.25 L 12.175781 20.902344 L 11.480469 20.8125 L 11.484375 21.679688 L 11.480469 21.683594 C 11.476562 21.691406 11.480469 21.699219 11.484375 21.699219 L 20.460938 22.6875 L 20.453125 23.558594 L 21.054688 23.605469 L 21.28125 23.605469 L 21.28125 22.777344 L 23.683594 23.042969 C 23.683594 23.042969 23.6875 23.039062 23.691406 23.039062 L 27.800781 17.398438 C 27.804688 17.398438 27.804688 17.394531 27.800781 17.390625 Z M 27.800781 17.390625 " fill-opacity="1" fill-rule="nonzero"/><path fill="#4281c3" d="M 16.320312 15.375 L 27.796875 16.515625 C 27.800781 16.515625 27.804688 16.523438 27.800781 16.527344 L 23.691406 22.167969 C 23.6875 22.167969 23.683594 22.171875 23.683594 22.167969 L 11.484375 20.828125 C 11.480469 20.828125 11.476562 20.820312 11.480469 20.8125 L 16.3125 15.378906 C 16.316406 15.378906 16.316406 15.375 16.320312 15.375 Z M 16.320312 15.375 " fill-opacity="1" fill-rule="nonzero"/><path fill="#f9bdbd" d="M 27.125 16.792969 L 23.402344 21.730469 L 12.304688 20.539062 L 16.464844 15.738281 Z M 27.125 16.792969 " fill-opacity="1" fill-rule="nonzero"/><path fill="#000000" d="M 19.128906 23.417969 L 16.066406 23.125 C 16.050781 23.125 16.039062 23.132812 16.035156 23.152344 C 16.035156 23.167969 16.046875 23.179688 16.0625 23.179688 L 19.125 23.476562 C 19.140625 23.476562 19.152344 23.464844 19.152344 23.449219 C 19.15625 23.433594 19.144531 23.421875 19.128906 23.417969 Z M 19.128906 23.417969 " fill-opacity="1" fill-rule="nonzero"/><path fill="#000000" d="M 25.21875 16.585938 L 25.199219 16.566406 L 25.1875 16.582031 L 18.238281 15.890625 L 18.21875 15.875 L 18.207031 15.890625 L 16.464844 15.714844 L 16.453125 15.714844 L 15.636719 16.65625 L 15.617188 16.65625 L 15.613281 16.683594 L 14.714844 17.71875 L 14.695312 17.714844 L 14.695312 17.746094 L 13.476562 19.152344 L 13.457031 19.148438 L 13.453125 19.175781 L 12.28125 20.527344 L 12.246094 20.566406 L 23.398438 21.765625 L 23.414062 21.769531 L 24.339844 20.539062 L 24.355469 20.542969 L 24.359375 20.515625 L 26.316406 17.917969 L 26.332031 17.917969 L 26.335938 17.890625 L 27.175781 16.777344 Z M 25.148438 16.632812 L 24.378906 17.640625 L 22.03125 17.378906 L 22.796875 16.417969 L 22.773438 16.398438 Z M 18.714844 18.203125 L 16.539062 17.941406 L 17.410156 16.914062 L 19.574219 17.15625 Z M 19.640625 17.164062 L 21.921875 17.421875 L 21.070312 18.488281 L 18.78125 18.210938 Z M 18.671875 18.253906 L 17.527344 19.648438 L 15.320312 19.375 L 16.496094 17.992188 Z M 18.738281 18.261719 L 21.03125 18.542969 L 19.914062 19.941406 L 17.59375 19.65625 Z M 21.09375 18.550781 L 23.46875 18.835938 L 22.398438 20.246094 L 19.980469 19.949219 Z M 21.136719 18.496094 L 21.988281 17.429688 L 24.339844 17.695312 L 23.507812 18.785156 Z M 22.742188 16.394531 L 21.964844 17.371094 L 19.683594 17.113281 L 20.460938 16.167969 Z M 18.230469 15.949219 L 20.394531 16.164062 L 19.617188 17.105469 L 17.453125 16.863281 Z M 16.476562 15.773438 L 18.164062 15.941406 L 17.386719 16.855469 L 15.703125 16.664062 Z M 15.660156 16.714844 L 17.34375 16.90625 L 16.472656 17.929688 L 14.78125 17.726562 Z M 14.738281 17.777344 L 16.429688 17.984375 L 15.253906 19.367188 L 13.542969 19.15625 Z M 12.359375 20.523438 L 13.496094 19.210938 L 15.210938 19.417969 L 14.117188 20.710938 Z M 14.183594 20.71875 L 15.277344 19.429688 L 17.484375 19.699219 L 16.445312 20.960938 Z M 16.511719 20.96875 L 17.550781 19.707031 L 19.875 19.992188 L 18.890625 21.226562 Z M 18.957031 21.230469 L 19.9375 20 L 22.359375 20.296875 L 21.453125 21.484375 L 21.476562 21.503906 Z M 23.386719 21.707031 L 21.507812 21.507812 L 22.421875 20.304688 L 24.273438 20.53125 Z M 24.3125 20.480469 L 22.460938 20.253906 L 23.535156 18.847656 L 25.375 19.070312 Z M 25.414062 19.019531 L 23.574219 18.792969 L 24.40625 17.703125 L 26.25 17.910156 Z M 26.289062 17.855469 L 24.445312 17.648438 L 25.210938 16.640625 L 27.070312 16.824219 Z M 26.289062 17.855469 " fill-opacity="1" fill-rule="nonzero"/><path fill="#000000" d="M 27.828125 16.539062 C 27.828125 16.53125 27.828125 16.523438 27.824219 16.515625 C 27.820312 16.503906 27.808594 16.496094 27.796875 16.492188 L 21.960938 15.914062 C 21.953125 15.914062 21.945312 15.914062 21.9375 15.910156 C 21.933594 15.910156 21.929688 15.914062 21.929688 15.914062 C 21.917969 15.914062 21.910156 15.910156 21.902344 15.910156 C 21.898438 15.90625 21.898438 15.90625 21.898438 15.90625 C 21.898438 15.90625 21.898438 15.90625 21.898438 15.910156 L 16.320312 15.355469 C 16.308594 15.355469 16.296875 15.359375 16.289062 15.367188 L 11.570312 20.675781 C 11.570312 20.675781 11.570312 20.675781 11.570312 20.679688 C 11.570312 20.679688 11.566406 20.683594 11.566406 20.683594 C 11.558594 20.691406 11.554688 20.699219 11.550781 20.703125 C 11.550781 20.707031 11.546875 20.707031 11.546875 20.707031 C 11.542969 20.710938 11.535156 20.714844 11.53125 20.71875 L 11.457031 20.800781 C 11.449219 20.8125 11.449219 20.824219 11.449219 20.832031 L 11.449219 21.707031 C 11.449219 21.707031 11.449219 21.710938 11.453125 21.710938 C 11.457031 21.726562 11.46875 21.734375 11.480469 21.734375 L 14.332031 22.050781 L 14.332031 22.542969 L 13.066406 23.140625 L 13.042969 23.136719 L 13.042969 23.660156 L 21.472656 24.527344 L 21.472656 24.507812 L 23.179688 23.023438 L 23.675781 23.078125 C 23.675781 23.078125 23.679688 23.078125 23.679688 23.078125 C 23.691406 23.078125 23.703125 23.074219 23.710938 23.0625 L 27.820312 17.425781 C 27.828125 17.414062 27.828125 17.402344 27.824219 17.394531 L 27.824219 16.539062 Z M 21.417969 24.464844 L 13.101562 23.609375 L 13.101562 23.199219 L 21.417969 23.957031 Z M 21.4375 23.902344 L 13.179688 23.148438 L 14.335938 22.605469 L 14.335938 23.101562 L 15.238281 23.144531 L 15.238281 23.132812 L 16.46875 22.285156 L 20.425781 22.71875 L 20.425781 23.59375 L 21.316406 23.640625 L 21.316406 23.636719 L 21.320312 23.640625 L 22.167969 22.910156 L 22.523438 22.949219 Z M 15.179688 22.160156 C 15.179688 22.167969 15.179688 22.179688 15.179688 22.1875 C 15.179688 22.195312 15.179688 22.199219 15.179688 22.207031 L 15.179688 22.203125 L 15.179688 23.085938 L 14.390625 23.046875 L 14.390625 22.582031 C 14.390625 22.570312 14.386719 22.558594 14.386719 22.546875 C 14.386719 22.542969 14.386719 22.535156 14.390625 22.527344 C 14.390625 22.523438 14.390625 22.519531 14.390625 22.515625 L 14.390625 22.054688 L 15.179688 22.144531 C 15.179688 22.148438 15.179688 22.152344 15.179688 22.160156 Z M 15.238281 23.0625 L 15.238281 22.148438 L 16.382812 22.273438 Z M 20.484375 23.542969 L 20.484375 22.726562 L 21.261719 22.8125 L 21.261719 23.582031 Z M 21.316406 23.570312 L 21.316406 22.816406 L 22.089844 22.902344 Z M 21.476562 24.433594 L 21.476562 23.941406 L 22.597656 22.957031 L 23.105469 23.015625 Z M 23.660156 23.019531 L 11.527344 21.683594 C 11.523438 21.683594 11.515625 21.679688 11.511719 21.679688 C 11.507812 21.679688 11.507812 21.679688 11.503906 21.679688 L 11.503906 20.867188 L 23.660156 22.203125 Z M 23.671875 22.148438 L 11.523438 20.8125 L 16.324219 15.414062 L 27.757812 16.546875 Z M 27.773438 17.398438 C 27.769531 17.398438 27.769531 17.398438 27.769531 17.398438 C 27.765625 17.40625 27.761719 17.414062 27.753906 17.417969 L 27.757812 17.417969 L 23.714844 22.960938 L 23.714844 22.183594 L 27.773438 16.621094 Z M 27.773438 17.398438 " fill-opacity="1" fill-rule="nonzero"/><path fill="#000000" d="M 19.539062 23.21875 L 17.851562 23.058594 C 17.839844 23.058594 17.824219 23.066406 17.824219 23.082031 C 17.820312 23.097656 17.832031 23.113281 17.847656 23.113281 L 19.53125 23.273438 C 19.53125 23.273438 19.535156 23.273438 19.535156 23.273438 C 19.546875 23.273438 19.5625 23.265625 19.5625 23.25 C 19.5625 23.234375 19.550781 23.21875 19.539062 23.21875 Z M 19.539062 23.21875 " fill-opacity="1" fill-rule="nonzero"/><path fill="#000000" d="M 4.589844 23.367188 C 4.601562 23.398438 4.550781 23.414062 4.539062 23.382812 C 4.480469 23.238281 4.425781 23.09375 4.371094 22.953125 C 4.359375 22.917969 4.410156 22.90625 4.421875 22.9375 C 4.476562 23.082031 4.535156 23.222656 4.589844 23.367188 Z M 4.652344 23.039062 C 4.652344 23.128906 4.652344 23.214844 4.652344 23.304688 C 4.652344 23.339844 4.707031 23.339844 4.707031 23.304688 C 4.707031 23.214844 4.707031 23.128906 4.707031 23.039062 C 4.707031 23.003906 4.652344 23.003906 4.652344 23.039062 Z M 5 22.921875 C 4.984375 22.917969 4.972656 22.925781 4.96875 22.941406 C 4.917969 23.066406 4.867188 23.195312 4.816406 23.320312 C 4.8125 23.332031 4.824219 23.351562 4.835938 23.351562 C 4.851562 23.359375 4.863281 23.347656 4.867188 23.335938 C 4.917969 23.207031 4.96875 23.082031 5.019531 22.957031 C 5.027344 22.941406 5.015625 22.925781 5 22.921875 Z M 2.449219 21.996094 C 2.492188 22.125 2.515625 22.257812 2.519531 22.394531 C 2.519531 22.429688 2.574219 22.429688 2.574219 22.394531 C 2.566406 22.253906 2.542969 22.113281 2.5 21.980469 C 2.488281 21.949219 2.4375 21.960938 2.449219 21.996094 Z M 2.683594 21.988281 C 2.683594 22.109375 2.683594 22.226562 2.683594 22.347656 C 2.683594 22.382812 2.738281 22.382812 2.738281 22.347656 C 2.738281 22.226562 2.738281 22.109375 2.738281 21.988281 C 2.738281 21.953125 2.683594 21.953125 2.683594 21.988281 Z M 3.023438 21.980469 C 3.007812 21.972656 2.996094 21.980469 2.984375 21.992188 C 2.90625 22.101562 2.859375 22.234375 2.851562 22.371094 C 2.851562 22.40625 2.90625 22.40625 2.90625 22.371094 C 2.914062 22.242188 2.957031 22.121094 3.03125 22.019531 C 3.039062 22.007812 3.035156 21.988281 3.023438 21.980469 Z M 10.351562 23.691406 C 10.410156 23.859375 10.445312 24.035156 10.460938 24.210938 C 10.460938 24.246094 10.515625 24.246094 10.511719 24.210938 C 10.5 24.03125 10.460938 23.851562 10.402344 23.675781 C 10.390625 23.644531 10.339844 23.660156 10.351562 23.691406 Z M 10.753906 23.753906 C 10.742188 23.75 10.722656 23.75 10.714844 23.765625 C 10.667969 23.875 10.644531 23.996094 10.652344 24.117188 C 10.65625 24.152344 10.707031 24.152344 10.707031 24.117188 C 10.699219 24.007812 10.71875 23.894531 10.761719 23.792969 C 10.769531 23.777344 10.765625 23.761719 10.753906 23.753906 Z M 11.054688 23.792969 C 11 23.894531 10.945312 24 10.890625 24.101562 C 10.875 24.132812 10.921875 24.160156 10.9375 24.128906 C 10.992188 24.027344 11.046875 23.921875 11.101562 23.820312 C 11.121094 23.789062 11.074219 23.761719 11.054688 23.792969 Z M 12.371094 22.324219 C 12.371094 22.289062 12.316406 22.289062 12.320312 22.324219 C 12.328125 22.445312 12.34375 22.570312 12.375 22.691406 C 12.382812 22.726562 12.433594 22.710938 12.425781 22.675781 C 12.398438 22.558594 12.378906 22.441406 12.371094 22.324219 Z M 12.597656 22.378906 C 12.546875 22.464844 12.515625 22.554688 12.503906 22.652344 C 12.5 22.664062 12.503906 22.679688 12.519531 22.683594 C 12.535156 22.6875 12.550781 22.679688 12.554688 22.664062 C 12.566406 22.574219 12.597656 22.484375 12.644531 22.40625 C 12.664062 22.378906 12.617188 22.351562 12.597656 22.378906 Z M 12.925781 22.320312 C 12.835938 22.417969 12.746094 22.519531 12.65625 22.621094 C 12.632812 22.648438 12.671875 22.683594 12.695312 22.660156 C 12.785156 22.558594 12.875 22.457031 12.964844 22.359375 C 12.988281 22.332031 12.949219 22.292969 12.925781 22.320312 Z M 25.683594 22.128906 C 25.644531 22.261719 25.628906 22.398438 25.636719 22.539062 C 25.640625 22.574219 25.695312 22.574219 25.691406 22.539062 C 25.679688 22.40625 25.695312 22.273438 25.734375 22.144531 C 25.746094 22.109375 25.695312 22.097656 25.683594 22.128906 Z M 26.078125 22.09375 C 26.007812 22.242188 25.953125 22.398438 25.914062 22.554688 C 25.90625 22.589844 25.957031 22.605469 25.964844 22.570312 C 26.003906 22.417969 26.058594 22.265625 26.125 22.121094 C 26.140625 22.089844 26.09375 22.0625 26.078125 22.09375 Z M 26.515625 22.167969 C 26.390625 22.292969 26.265625 22.417969 26.140625 22.542969 C 26.117188 22.566406 26.15625 22.605469 26.179688 22.582031 C 26.304688 22.457031 26.429688 22.332031 26.550781 22.207031 C 26.574219 22.183594 26.539062 22.144531 26.515625 22.167969 Z M 24.375 23.4375 C 24.375 23.511719 24.375 23.589844 24.375 23.664062 C 24.375 23.699219 24.425781 23.699219 24.425781 23.664062 C 24.425781 23.589844 24.425781 23.511719 24.425781 23.4375 C 24.425781 23.402344 24.375 23.402344 24.375 23.4375 Z M 24.671875 23.335938 C 24.660156 23.328125 24.644531 23.332031 24.636719 23.34375 C 24.589844 23.4375 24.5625 23.535156 24.550781 23.640625 C 24.550781 23.65625 24.566406 23.667969 24.578125 23.667969 C 24.59375 23.667969 24.605469 23.65625 24.605469 23.640625 C 24.617188 23.546875 24.640625 23.453125 24.683594 23.371094 C 24.6875 23.359375 24.6875 23.339844 24.671875 23.335938 Z M 25.003906 23.25 C 24.890625 23.347656 24.792969 23.464844 24.722656 23.601562 C 24.707031 23.628906 24.753906 23.65625 24.769531 23.625 C 24.835938 23.496094 24.929688 23.382812 25.042969 23.285156 C 25.070312 23.265625 25.03125 23.226562 25.003906 23.25 Z M 20.113281 24.730469 C 20.105469 24.71875 20.09375 24.707031 20.078125 24.710938 C 20.066406 24.714844 20.054688 24.730469 20.0625 24.746094 C 20.085938 24.8125 20.113281 24.878906 20.136719 24.945312 C 20.144531 24.957031 20.15625 24.96875 20.171875 24.964844 C 20.183594 24.960938 20.195312 24.945312 20.1875 24.929688 C 20.164062 24.863281 20.136719 24.796875 20.113281 24.730469 Z M 20.273438 24.679688 C 20.25 24.757812 20.246094 24.839844 20.257812 24.921875 C 20.261719 24.9375 20.277344 24.945312 20.292969 24.941406 C 20.308594 24.9375 20.3125 24.921875 20.308594 24.90625 C 20.296875 24.835938 20.304688 24.765625 20.324219 24.695312 C 20.335938 24.660156 20.285156 24.648438 20.273438 24.679688 Z M 20.640625 24.652344 C 20.5625 24.738281 20.484375 24.828125 20.40625 24.917969 C 20.398438 24.929688 20.398438 24.945312 20.40625 24.957031 C 20.417969 24.964844 20.4375 24.964844 20.445312 24.957031 C 20.523438 24.867188 20.601562 24.777344 20.679688 24.691406 C 20.6875 24.679688 20.691406 24.660156 20.679688 24.652344 C 20.667969 24.640625 20.652344 24.640625 20.640625 24.652344 Z M 14.113281 24.65625 C 14.109375 24.640625 14.09375 24.632812 14.082031 24.636719 C 14.066406 24.640625 14.058594 24.65625 14.0625 24.671875 C 14.078125 24.789062 14.09375 24.90625 14.109375 25.019531 C 14.109375 25.035156 14.128906 25.042969 14.140625 25.039062 C 14.15625 25.035156 14.160156 25.023438 14.160156 25.007812 C 14.144531 24.890625 14.128906 24.773438 14.113281 24.65625 Z M 14.335938 24.738281 C 14.320312 24.734375 14.308594 24.742188 14.304688 24.757812 C 14.28125 24.832031 14.269531 24.914062 14.277344 24.992188 C 14.28125 25.003906 14.289062 25.019531 14.304688 25.019531 C 14.320312 25.019531 14.332031 25.003906 14.332031 24.992188 C 14.324219 24.917969 14.332031 24.84375 14.355469 24.773438 C 14.359375 24.757812 14.347656 24.742188 14.335938 24.738281 Z M 14.605469 24.746094 C 14.527344 24.820312 14.472656 24.921875 14.453125 25.035156 C 14.449219 25.046875 14.457031 25.0625 14.472656 25.066406 C 14.484375 25.070312 14.503906 25.0625 14.503906 25.046875 C 14.523438 24.945312 14.570312 24.851562 14.644531 24.78125 C 14.667969 24.757812 14.632812 24.71875 14.605469 24.746094 Z M 22.910156 24.488281 C 22.910156 24.574219 22.910156 24.65625 22.910156 24.738281 C 22.910156 24.773438 22.964844 24.773438 22.964844 24.738281 C 22.964844 24.65625 22.964844 24.574219 22.964844 24.488281 C 22.964844 24.453125 22.910156 24.453125 22.910156 24.488281 Z M 23.132812 24.53125 C 23.113281 24.605469 23.09375 24.679688 23.074219 24.753906 C 23.066406 24.789062 23.117188 24.804688 23.128906 24.769531 C 23.144531 24.695312 23.167969 24.621094 23.1875 24.546875 C 23.195312 24.511719 23.144531 24.5 23.132812 24.53125 Z M 23.4375 24.546875 C 23.355469 24.613281 23.292969 24.707031 23.257812 24.808594 C 23.246094 24.839844 23.300781 24.855469 23.308594 24.824219 C 23.339844 24.726562 23.398438 24.644531 23.476562 24.585938 C 23.488281 24.574219 23.484375 24.554688 23.476562 24.546875 C 23.464844 24.535156 23.449219 24.535156 23.4375 24.546875 Z M 7.039062 23.449219 C 7.03125 23.4375 7.011719 23.433594 7 23.441406 C 6.988281 23.449219 6.984375 23.464844 6.992188 23.476562 C 7.023438 23.550781 7.054688 23.628906 7.089844 23.703125 C 7.09375 23.714844 7.113281 23.71875 7.125 23.710938 C 7.140625 23.703125 7.140625 23.6875 7.136719 23.675781 C 7.101562 23.601562 7.070312 23.523438 7.039062 23.449219 Z M 7.183594 23.363281 C 7.183594 23.457031 7.183594 23.546875 7.183594 23.640625 C 7.183594 23.675781 7.238281 23.675781 7.238281 23.640625 C 7.238281 23.546875 7.238281 23.457031 7.238281 23.363281 C 7.238281 23.328125 7.183594 23.328125 7.183594 23.363281 Z M 7.46875 23.398438 C 7.402344 23.480469 7.351562 23.578125 7.332031 23.679688 C 7.324219 23.714844 7.375 23.730469 7.382812 23.695312 C 7.402344 23.601562 7.445312 23.511719 7.503906 23.4375 C 7.515625 23.425781 7.515625 23.410156 7.503906 23.398438 C 7.496094 23.386719 7.476562 23.386719 7.46875 23.398438 Z M 7.46875 23.398438 " fill-opacity="1" fill-rule="nonzero"/><g clip-path="url(#b5cfedadb3)"><path fill="#000000" d="M 10.6875 9.285156 L 12.140625 8.070312 L 10.28125 8.378906 L 10.847656 6.566406 L 9.449219 7.84375 L 8.957031 6.007812 L 8.464844 7.84375 L 7.0625 6.566406 L 7.632812 8.382812 L 5.773438 8.070312 L 7.222656 9.285156 L 5.492188 10.039062 L 7.363281 10.269531 L 6.3125 11.851562 L 8.011719 11.023438 L 7.96875 12.925781 L 8.957031 11.304688 L 9.941406 12.925781 L 9.902344 11.023438 L 11.601562 11.851562 L 10.546875 10.269531 L 12.421875 10.039062 Z M 11.445312 11.714844 L 9.847656 10.933594 L 9.882812 12.726562 L 8.957031 11.199219 L 8.027344 12.726562 L 8.066406 10.9375 L 6.464844 11.714844 L 7.457031 10.226562 L 5.695312 10.011719 L 7.328125 9.300781 L 5.960938 8.15625 L 7.710938 8.449219 L 7.175781 6.742188 L 8.492188 7.941406 L 8.957031 6.214844 L 9.421875 7.941406 L 10.738281 6.742188 L 10.203125 8.449219 L 11.953125 8.15625 L 10.585938 9.300781 L 12.21875 10.011719 L 10.457031 10.226562 Z M 8.957031 8.183594 C 8.253906 8.183594 7.683594 8.757812 7.683594 9.46875 C 7.683594 10.175781 8.253906 10.75 8.957031 10.75 C 9.660156 10.75 10.230469 10.175781 10.230469 9.46875 C 10.230469 8.761719 9.660156 8.183594 8.957031 8.183594 Z M 8.957031 10.695312 C 8.285156 10.695312 7.738281 10.144531 7.738281 9.46875 C 7.738281 8.789062 8.285156 8.238281 8.957031 8.238281 C 9.628906 8.238281 10.175781 8.789062 10.175781 9.46875 C 10.175781 10.144531 9.628906 10.695312 8.957031 10.695312 Z M 26.820312 18.78125 C 26.859375 18.722656 26.898438 18.667969 26.941406 18.613281 C 26.714844 19.621094 26.371094 20.597656 25.917969 21.519531 C 25.910156 21.519531 25.90625 21.519531 25.898438 21.519531 C 25.894531 21.519531 25.890625 21.519531 25.886719 21.519531 C 25.878906 21.519531 25.875 21.519531 25.871094 21.519531 C 25.855469 21.519531 25.839844 21.519531 25.824219 21.519531 C 26.257812 20.648438 26.59375 19.730469 26.820312 18.78125 Z M 27.203125 14.617188 L 27.210938 14.617188 L 27.210938 14.578125 L 27.203125 14.578125 C 26.929688 11.59375 25.648438 8.828125 23.523438 6.683594 C 21.113281 4.253906 17.914062 2.917969 14.507812 2.917969 C 11.101562 2.917969 7.898438 4.253906 5.492188 6.683594 C 3.082031 9.113281 1.757812 12.34375 1.757812 15.777344 C 1.757812 17.785156 2.226562 19.777344 3.117188 21.558594 C 3.144531 21.550781 3.175781 21.550781 3.203125 21.546875 C 2.3125 19.769531 1.839844 17.78125 1.839844 15.777344 C 1.839844 15.386719 1.855469 15 1.890625 14.617188 L 27.125 14.617188 C 27.15625 15 27.175781 15.386719 27.175781 15.777344 C 27.175781 16.007812 27.167969 16.238281 27.15625 16.46875 C 27.171875 16.46875 27.1875 16.46875 27.203125 16.46875 C 27.214844 16.46875 27.226562 16.476562 27.238281 16.480469 C 27.25 16.246094 27.257812 16.011719 27.257812 15.777344 C 27.257812 15.386719 27.238281 15 27.203125 14.617188 Z M 1.894531 14.578125 C 2.164062 11.617188 3.4375 8.871094 5.550781 6.742188 C 7.941406 4.328125 11.121094 3 14.507812 3 C 17.890625 3 21.074219 4.328125 23.464844 6.742188 C 25.574219 8.871094 26.847656 11.617188 27.121094 14.578125 Z M 1.894531 14.578125 " fill-opacity="1" fill-rule="nonzero"/></g><path fill="#000000" d="M 27.066406 23.386719 L 23.472656 25.40625 L 23.464844 25.402344 L 21.507812 25.179688 L 19.871094 25.742188 L 19.863281 25.738281 L 18.191406 25.035156 L 13.78125 26.179688 L 13.773438 26.171875 L 11.683594 24.933594 L 9.554688 25.375 L 8.75 24.332031 C 8.539062 24.359375 6.214844 24.667969 6.09375 24.691406 C 6 24.707031 4.488281 24.039062 4.027344 23.832031 C 3.605469 23.644531 2.308594 23.0625 2.070312 22.914062 C 2.066406 22.910156 2.066406 22.90625 2.066406 22.902344 C 2.0625 22.890625 2.054688 22.875 2.050781 22.863281 C 2.050781 22.859375 2.046875 22.855469 2.046875 22.851562 C 2.046875 22.847656 2.042969 22.847656 2.042969 22.847656 C 2.054688 22.839844 2.066406 22.847656 2.074219 22.855469 C 2.207031 22.980469 5.9375 24.636719 6.085938 24.636719 C 6.210938 24.613281 8.652344 24.289062 8.757812 24.273438 L 8.773438 24.273438 L 9.578125 25.3125 L 11.691406 24.878906 L 13.789062 26.121094 L 18.195312 24.980469 L 19.875 25.683594 L 21.503906 25.125 L 23.460938 25.347656 L 27.1875 23.257812 C 27.171875 23.269531 27.160156 23.28125 27.148438 23.296875 C 27.132812 23.308594 27.121094 23.324219 27.109375 23.339844 C 27.097656 23.347656 27.089844 23.355469 27.078125 23.367188 C 27.074219 23.371094 27.070312 23.378906 27.066406 23.386719 Z M 27.066406 23.386719 " fill-opacity="1" fill-rule="nonzero"/></svg>