<svg xmlns="http://www.w3.org/2000/svg" xmlns:xlink="http://www.w3.org/1999/xlink" width="40" zoomAndPan="magnify" viewBox="0 0 30 30.000001" height="40" preserveAspectRatio="xMidYMid meet" version="1.0"><defs><clipPath id="39f0046935"><path d="M 0.484375 23 L 10 23 L 10 28.992188 L 0.484375 28.992188 Z M 0.484375 23 " clip-rule="nonzero"/></clipPath><clipPath id="2e267cfd18"><path d="M 9 20 L 21 20 L 21 28.992188 L 9 28.992188 Z M 9 20 " clip-rule="nonzero"/></clipPath><clipPath id="cc1a7c0af1"><path d="M 26 27 L 29.515625 27 L 29.515625 28.992188 L 26 28.992188 Z M 26 27 " clip-rule="nonzero"/></clipPath><clipPath id="faa6a86d88"><path d="M 23 25 L 29.515625 25 L 29.515625 28 L 23 28 Z M 23 25 " clip-rule="nonzero"/></clipPath><clipPath id="fbd17af686"><path d="M 19 27 L 25 27 L 25 28.992188 L 19 28.992188 Z M 19 27 " clip-rule="nonzero"/></clipPath><clipPath id="dc5a44516f"><path d="M 22 27 L 28 27 L 28 28.992188 L 22 28.992188 Z M 22 27 " clip-rule="nonzero"/></clipPath><clipPath id="674050ea8b"><path d="M 10 27 L 16 27 L 16 28.992188 L 10 28.992188 Z M 10 27 " clip-rule="nonzero"/></clipPath><clipPath id="eca2dca5a1"><path d="M 13.597656 27.328125 L 17.886719 27.328125 L 17.886719 28.992188 L 13.597656 28.992188 Z M 13.597656 27.328125 " clip-rule="nonzero"/></clipPath><clipPath id="6380008b00"><path d="M 8 27 L 13 27 L 13 28.992188 L 8 28.992188 Z M 8 27 " clip-rule="nonzero"/></clipPath><clipPath id="b5c7c5310f"><path d="M 14.265625 13.027344 L 29.515625 13.027344 L 29.515625 26.4375 L 14.265625 26.4375 Z M 14.265625 13.027344 " clip-rule="nonzero"/></clipPath><clipPath id="af23bfb8af"><path d="M 3 27 L 5 27 L 5 28.992188 L 3 28.992188 Z M 3 27 " clip-rule="nonzero"/></clipPath><clipPath id="836e12d120"><path d="M 4 27 L 6 27 L 6 28.992188 L 4 28.992188 Z M 4 27 " clip-rule="nonzero"/></clipPath></defs><g clip-path="url(#39f0046935)"><path fill="#00609e" d="M 4.246094 24.773438 L 8.433594 28.933594 L 9.378906 28.933594 L 4.246094 23.835938 L -0.886719 28.933594 L 0.0585938 28.933594 L 4.246094 24.773438 " fill-opacity="1" fill-rule="nonzero"/></g><g clip-path="url(#2e267cfd18)"><path fill="#00609e" d="M 20.601562 28.933594 L 18.738281 27.09375 L 18.75 27.09375 L 12.425781 20.8125 L 12.378906 20.8125 L 12.382812 20.816406 L 12.378906 20.8125 L 9.582031 23.589844 L 10.746094 23.589844 L 12.378906 21.96875 L 19.390625 28.933594 L 20.601562 28.933594 L 20.273438 28.605469 L 20.601562 28.933594 " fill-opacity="1" fill-rule="nonzero"/></g><path fill="#2a8ecd" d="M 22.296875 27.117188 L 20.304688 25.132812 L 17.398438 25.132812 L 19.371094 27.09375 L 22.296875 27.117188 " fill-opacity="1" fill-rule="nonzero"/><path fill="#2a8ecd" d="M 24.324219 22.4375 L 22.6875 20.8125 L 19.488281 20.8125 L 21.125 22.4375 L 24.324219 22.4375 " fill-opacity="1" fill-rule="nonzero"/><path fill="#2a8ecd" d="M 20.835938 22.4375 L 19.199219 20.8125 L 16.242188 20.8125 L 17.878906 22.4375 L 20.835938 22.4375 " fill-opacity="1" fill-rule="nonzero"/><g clip-path="url(#cc1a7c0af1)"><path fill="#2a8ecd" d="M 29.273438 27.308594 L 26.070312 27.308594 L 27.707031 28.933594 L 30.910156 28.933594 L 29.273438 27.308594 " fill-opacity="1" fill-rule="nonzero"/></g><path fill="#2a8ecd" d="M 23.632812 24.933594 L 26.835938 24.933594 L 24.527344 22.640625 L 21.328125 22.640625 L 23.632812 24.933594 " fill-opacity="1" fill-rule="nonzero"/><g clip-path="url(#faa6a86d88)"><path fill="#2a8ecd" d="M 25.859375 27.140625 L 29.085938 27.167969 L 27.039062 25.132812 L 23.839844 25.132812 L 25.859375 27.140625 " fill-opacity="1" fill-rule="nonzero"/></g><path fill="#2a8ecd" d="M 18.082031 22.640625 L 20.386719 24.933594 L 23.34375 24.933594 L 21.039062 22.640625 L 18.082031 22.640625 " fill-opacity="1" fill-rule="nonzero"/><path fill="#2a8ecd" d="M 25.570312 27.140625 L 23.550781 25.132812 L 20.59375 25.132812 L 22.589844 27.117188 L 25.570312 27.140625 " fill-opacity="1" fill-rule="nonzero"/><path fill="#2a8ecd" d="M 17.589844 22.4375 L 15.953125 20.8125 L 13.046875 20.8125 L 14.679688 22.4375 L 17.589844 22.4375 " fill-opacity="1" fill-rule="nonzero"/><path fill="#2a8ecd" d="M 20.097656 24.933594 L 17.792969 22.640625 L 14.886719 22.640625 L 17.191406 24.933594 L 20.097656 24.933594 " fill-opacity="1" fill-rule="nonzero"/><g clip-path="url(#fbd17af686)"><path fill="#2a8ecd" d="M 19.585938 27.308594 L 21.222656 28.933594 L 24.171875 28.933594 L 22.535156 27.308594 L 19.585938 27.308594 " fill-opacity="1" fill-rule="nonzero"/></g><g clip-path="url(#dc5a44516f)"><path fill="#2a8ecd" d="M 22.824219 27.308594 L 24.460938 28.933594 L 27.417969 28.933594 L 25.78125 27.308594 L 22.824219 27.308594 " fill-opacity="1" fill-rule="nonzero"/></g><path fill="#2a8ecd" d="M 16.035156 27.179688 L 14.164062 25.320312 L 11.566406 25.320312 L 13.4375 27.179688 L 16.035156 27.179688 " fill-opacity="1" fill-rule="nonzero"/><path fill="#2a8ecd" d="M 11.167969 25.15625 L 9.839844 23.835938 L 7.4375 23.835938 L 8.765625 25.15625 L 11.167969 25.15625 " fill-opacity="1" fill-rule="nonzero"/><g clip-path="url(#674050ea8b)"><path fill="#2a8ecd" d="M 10.96875 27.34375 L 12.589844 28.953125 L 15.007812 28.972656 L 13.371094 27.34375 L 10.96875 27.34375 " fill-opacity="1" fill-rule="nonzero"/></g><path fill="#2a8ecd" d="M 8.699219 25.320312 L 6.304688 25.320312 L 8.175781 27.179688 L 10.570312 27.179688 L 8.699219 25.320312 " fill-opacity="1" fill-rule="nonzero"/><path fill="#2a8ecd" d="M 8.933594 25.320312 L 10.804688 27.179688 L 13.203125 27.179688 L 11.332031 25.320312 L 8.933594 25.320312 " fill-opacity="1" fill-rule="nonzero"/><path fill="#2a8ecd" d="M 7.203125 23.835938 L 4.808594 23.835938 L 6.136719 25.15625 L 8.53125 25.15625 L 7.203125 23.835938 " fill-opacity="1" fill-rule="nonzero"/><g clip-path="url(#eca2dca5a1)"><path fill="#2a8ecd" d="M 13.605469 27.34375 L 15.246094 28.972656 L 17.863281 28.992188 L 16.203125 27.34375 L 13.605469 27.34375 " fill-opacity="1" fill-rule="nonzero"/></g><g clip-path="url(#6380008b00)"><path fill="#2a8ecd" d="M 8.339844 27.34375 L 9.941406 28.933594 L 12.355469 28.949219 L 10.734375 27.34375 L 8.339844 27.34375 " fill-opacity="1" fill-rule="nonzero"/></g><path fill="#2a8ecd" d="M 10.074219 23.835938 L 11.402344 25.15625 L 13.996094 25.15625 L 12.671875 23.835938 L 10.074219 23.835938 " fill-opacity="1" fill-rule="nonzero"/><g clip-path="url(#b5c7c5310f)"><path fill="#fcdc09" d="M 26.238281 21.988281 L 28.644531 22.15625 L 26.351562 21.816406 L 31.050781 21.804688 L 26.269531 21.449219 L 28.675781 21.265625 L 26.355469 21.261719 L 31.003906 20.570312 L 26.222656 20.90625 L 28.578125 20.378906 L 26.28125 20.710938 L 30.777344 19.355469 L 26.097656 20.378906 L 28.347656 19.515625 L 26.125 20.175781 L 30.375 18.183594 L 25.894531 19.875 L 27.996094 18.695312 L 25.894531 19.667969 L 29.808594 17.085938 L 25.621094 19.402344 L 27.527344 17.933594 L 25.589844 19.203125 L 29.082031 16.078125 L 25.28125 18.976562 L 26.953125 17.246094 L 25.21875 18.785156 L 28.21875 15.1875 L 24.886719 18.605469 L 26.28125 16.652344 L 24.789062 18.425781 L 27.230469 14.433594 L 24.4375 18.292969 L 25.53125 16.160156 L 24.316406 18.132812 L 26.144531 13.828125 L 23.949219 18.046875 L 24.71875 15.78125 L 23.800781 17.910156 L 24.984375 13.386719 L 23.425781 17.875 L 23.855469 15.527344 L 23.261719 17.769531 L 23.765625 13.117188 L 22.886719 17.78125 L 22.964844 15.398438 L 22.707031 17.703125 L 22.523438 13.027344 L 22.339844 17.765625 L 22.066406 15.398438 L 22.148438 17.722656 L 21.28125 13.117188 L 21.792969 17.828125 L 21.179688 15.527344 L 21.601562 17.816406 L 20.066406 13.386719 L 21.261719 17.96875 L 20.320312 15.785156 L 21.074219 17.992188 L 18.902344 13.828125 L 20.757812 18.1875 L 19.503906 16.167969 L 20.578125 18.242188 L 17.816406 14.433594 L 20.289062 18.476562 L 18.757812 16.660156 L 20.121094 18.5625 L 16.832031 15.1875 L 19.867188 18.828125 L 18.085938 17.257812 L 19.71875 18.941406 L 15.964844 16.078125 L 19.503906 19.238281 L 17.511719 17.941406 L 19.378906 19.375 L 15.242188 17.085938 L 19.203125 19.699219 L 17.046875 18.703125 L 19.101562 19.855469 L 14.671875 18.183594 L 18.972656 20.199219 L 16.695312 19.527344 L 18.898438 20.367188 L 14.269531 19.355469 L 17.757812 20.40625 L 19.199219 20.40625 C 19.246094 20.40625 19.296875 20.414062 19.34375 20.429688 C 19.386719 20.414062 19.4375 20.40625 19.488281 20.40625 L 20.492188 20.40625 C 20.878906 19.6875 21.644531 19.195312 22.523438 19.195312 C 23.796875 19.195312 24.832031 20.222656 24.832031 21.484375 C 24.832031 21.757812 24.78125 22.019531 24.695312 22.261719 C 24.695312 22.265625 24.695312 22.265625 24.699219 22.269531 C 24.742188 22.289062 24.785156 22.316406 24.816406 22.351562 L 25.894531 23.417969 L 30.113281 25.371094 L 25.9375 23.03125 L 28.191406 23.878906 L 26.089844 22.898438 L 30.597656 24.234375 L 26.125 22.519531 L 28.480469 23.035156 L 26.261719 22.367188 L 30.914062 23.035156 Z M 16.535156 20.40625 L 16.574219 20.40625 L 16.46875 20.390625 Z M 27.125 24.644531 C 27.160156 24.679688 27.1875 24.71875 27.210938 24.761719 C 27.253906 24.785156 27.292969 24.8125 27.328125 24.84375 L 27.878906 25.390625 L 29.464844 26.425781 L 27.046875 24.5625 Z M 25.921875 23.445312 L 26.367188 23.890625 L 27.78125 24.671875 Z M 25.921875 23.445312 " fill-opacity="1" fill-rule="nonzero"/></g><path fill="#6d6e70" d="M 4.144531 26.480469 L 3.429688 26.480469 L 3.429688 27.1875 L 4.144531 27.1875 L 4.144531 26.480469 " fill-opacity="1" fill-rule="nonzero"/><path fill="#58595b" d="M 4.351562 27.1875 L 5.0625 27.1875 L 5.0625 26.480469 L 4.351562 27.175781 L 4.351562 27.1875 " fill-opacity="1" fill-rule="nonzero"/><path fill="#6d6e70" d="M 4.351562 27.175781 L 5.0625 26.480469 L 4.351562 26.480469 Z M 4.351562 27.175781 " fill-opacity="1" fill-rule="nonzero"/><g clip-path="url(#af23bfb8af)"><path fill="#58595b" d="M 4.144531 28.070312 L 4.144531 27.375 L 3.429688 28.070312 Z M 4.144531 28.070312 " fill-opacity="1" fill-rule="nonzero"/><path fill="#6d6e70" d="M 3.429688 27.363281 L 3.429688 28.070312 L 4.144531 27.375 L 4.144531 27.363281 L 3.429688 27.363281 " fill-opacity="1" fill-rule="nonzero"/></g><g clip-path="url(#836e12d120)"><path fill="#58595b" d="M 4.351562 28.070312 L 5.0625 28.070312 L 5.0625 27.363281 L 4.351562 27.363281 L 4.351562 28.070312 " fill-opacity="1" fill-rule="nonzero"/></g></svg>