<svg xmlns="http://www.w3.org/2000/svg" xmlns:xlink="http://www.w3.org/1999/xlink" width="40" zoomAndPan="magnify" viewBox="0 0 30 30.000001" height="40" preserveAspectRatio="xMidYMid meet" version="1.0"><defs><clipPath id="60841e7f3f"><path d="M 2.113281 8 L 28.242188 8 L 28.242188 26.855469 L 2.113281 26.855469 Z M 2.113281 8 " clip-rule="nonzero"/></clipPath><clipPath id="9aca711872"><path d="M 7 2.902344 L 9 2.902344 L 9 6 L 7 6 Z M 7 2.902344 " clip-rule="nonzero"/></clipPath><clipPath id="af626f22da"><path d="M 2.113281 8 L 5 8 L 5 10 L 2.113281 10 Z M 2.113281 8 " clip-rule="nonzero"/></clipPath><clipPath id="1a1d04897b"><path d="M 2.113281 10 L 27 10 L 27 23 L 2.113281 23 Z M 2.113281 10 " clip-rule="nonzero"/></clipPath><clipPath id="b6bba71376"><path d="M 2.113281 10 L 27 10 L 27 23 L 2.113281 23 Z M 2.113281 10 " clip-rule="nonzero"/></clipPath><clipPath id="797ec482e6"><path d="M 5 25 L 24 25 L 24 26.855469 L 5 26.855469 Z M 5 25 " clip-rule="nonzero"/></clipPath><clipPath id="09d2caf994"><path d="M 21 9 L 28.242188 9 L 28.242188 26.855469 L 21 26.855469 Z M 21 9 " clip-rule="nonzero"/></clipPath><clipPath id="5e6010debc"><path d="M 21 9 L 28.242188 9 L 28.242188 26.855469 L 21 26.855469 Z M 21 9 " clip-rule="nonzero"/></clipPath></defs><g clip-path="url(#60841e7f3f)"><path fill="#dde2dc" d="M 26.53125 9.746094 L 26.53125 8.035156 L 23.101562 8.035156 L 23.101562 9.746094 L 21.390625 9.746094 L 21.390625 10.601562 L 6.398438 10.601562 L 2.96875 22.148438 L 7.683594 22.148438 L 7.683594 25.144531 C 7.378906 25.144531 7.09375 25.222656 6.828125 25.375 C 6.566406 25.527344 6.355469 25.734375 6.203125 26 C 6.179688 26.042969 6.15625 26.089844 6.136719 26.136719 L 6.097656 26.226562 C 6.066406 26.300781 6.039062 26.382812 6.019531 26.464844 C 6.019531 26.496094 6.019531 26.523438 6.019531 26.550781 C 5.996094 26.648438 5.976562 26.75 5.96875 26.855469 L 28.242188 26.855469 L 28.242188 9.746094 Z M 26.53125 9.746094 " fill-opacity="1" fill-rule="nonzero"/></g><path fill="#ffe100" d="M 11.109375 8.890625 C 11.109375 9.289062 11.03125 9.671875 10.878906 10.039062 C 10.730469 10.402344 10.511719 10.726562 10.230469 11.007812 C 9.949219 11.289062 9.625 11.503906 9.257812 11.65625 C 8.890625 11.808594 8.507812 11.886719 8.109375 11.886719 C 7.714844 11.886719 7.332031 11.808594 6.964844 11.65625 C 6.597656 11.503906 6.273438 11.289062 5.992188 11.007812 C 5.710938 10.726562 5.492188 10.402344 5.339844 10.039062 C 5.1875 9.671875 5.113281 9.289062 5.113281 8.890625 C 5.113281 8.496094 5.1875 8.113281 5.339844 7.746094 C 5.492188 7.378906 5.710938 7.054688 5.992188 6.773438 C 6.273438 6.496094 6.597656 6.277344 6.964844 6.125 C 7.332031 5.972656 7.714844 5.898438 8.109375 5.898438 C 8.507812 5.898438 8.890625 5.972656 9.257812 6.125 C 9.625 6.277344 9.949219 6.496094 10.230469 6.773438 C 10.511719 7.054688 10.730469 7.378906 10.878906 7.746094 C 11.03125 8.113281 11.109375 8.496094 11.109375 8.890625 Z M 11.109375 8.890625 " fill-opacity="1" fill-rule="nonzero"/><path fill="#efcc03" d="M 9.652344 11.457031 C 9.179688 11.746094 8.664062 11.886719 8.109375 11.886719 C 7.804688 11.886719 7.503906 11.839844 7.210938 11.746094 C 6.917969 11.652344 6.644531 11.519531 6.394531 11.34375 C 6.144531 11.167969 5.925781 10.957031 5.738281 10.714844 C 5.550781 10.46875 5.40625 10.203125 5.300781 9.917969 C 5.195312 9.628906 5.136719 9.332031 5.121094 9.023438 C 5.109375 8.71875 5.140625 8.417969 5.21875 8.121094 C 5.296875 7.824219 5.417969 7.546875 5.585938 7.289062 C 5.75 7.03125 5.949219 6.800781 6.183594 6.605469 C 6.039062 6.996094 5.96875 7.402344 5.96875 7.824219 C 5.96875 8.304688 6.0625 8.769531 6.246094 9.214844 C 6.433594 9.65625 6.695312 10.050781 7.035156 10.390625 C 7.378906 10.734375 7.769531 10.996094 8.21875 11.179688 C 8.664062 11.363281 9.128906 11.457031 9.609375 11.457031 Z M 9.652344 11.457031 " fill-opacity="1" fill-rule="nonzero"/><g clip-path="url(#9aca711872)"><path fill="#f8ad3b" d="M 8.109375 5.042969 C 7.992188 5.042969 7.890625 5 7.808594 4.917969 C 7.722656 4.835938 7.683594 4.734375 7.683594 4.613281 L 7.683594 3.332031 C 7.683594 3.214844 7.722656 3.113281 7.808594 3.03125 C 7.890625 2.945312 7.992188 2.90625 8.109375 2.90625 C 8.230469 2.90625 8.328125 2.945312 8.414062 3.03125 C 8.496094 3.113281 8.539062 3.214844 8.539062 3.332031 L 8.539062 4.613281 C 8.539062 4.734375 8.496094 4.835938 8.414062 4.917969 C 8.328125 5 8.230469 5.042969 8.109375 5.042969 Z M 8.109375 5.042969 " fill-opacity="1" fill-rule="nonzero"/></g><path fill="#f8ad3b" d="M 8.109375 14.878906 C 7.992188 14.878906 7.890625 14.835938 7.808594 14.753906 C 7.722656 14.671875 7.683594 14.570312 7.683594 14.453125 L 7.683594 13.167969 C 7.683594 13.050781 7.722656 12.949219 7.808594 12.867188 C 7.890625 12.78125 7.992188 12.742188 8.109375 12.742188 C 8.230469 12.742188 8.328125 12.78125 8.414062 12.867188 C 8.496094 12.949219 8.539062 13.050781 8.539062 13.167969 L 8.539062 14.453125 C 8.539062 14.570312 8.496094 14.671875 8.414062 14.753906 C 8.328125 14.835938 8.230469 14.878906 8.109375 14.878906 Z M 8.109375 14.878906 " fill-opacity="1" fill-rule="nonzero"/><path fill="#f8ad3b" d="M 13.679688 9.320312 L 12.394531 9.320312 C 12.277344 9.320312 12.175781 9.277344 12.089844 9.195312 C 12.007812 9.109375 11.964844 9.011719 11.964844 8.890625 C 11.964844 8.773438 12.007812 8.671875 12.089844 8.589844 C 12.175781 8.507812 12.277344 8.464844 12.394531 8.464844 L 13.679688 8.464844 C 13.796875 8.464844 13.898438 8.507812 13.980469 8.589844 C 14.066406 8.671875 14.105469 8.773438 14.105469 8.890625 C 14.105469 9.011719 14.066406 9.109375 13.980469 9.195312 C 13.898438 9.277344 13.796875 9.320312 13.679688 9.320312 Z M 13.679688 9.320312 " fill-opacity="1" fill-rule="nonzero"/><g clip-path="url(#af626f22da)"><path fill="#f8ad3b" d="M 3.828125 9.320312 L 2.542969 9.320312 C 2.421875 9.320312 2.324219 9.277344 2.238281 9.195312 C 2.15625 9.109375 2.113281 9.011719 2.113281 8.890625 C 2.113281 8.773438 2.15625 8.671875 2.238281 8.589844 C 2.324219 8.507812 2.421875 8.464844 2.542969 8.464844 L 3.828125 8.464844 C 3.945312 8.464844 4.046875 8.507812 4.128906 8.589844 C 4.214844 8.671875 4.253906 8.773438 4.253906 8.890625 C 4.253906 9.011719 4.214844 9.109375 4.128906 9.195312 C 4.046875 9.277344 3.945312 9.320312 3.828125 9.320312 Z M 3.828125 9.320312 " fill-opacity="1" fill-rule="nonzero"/></g><path fill="#f8ad3b" d="M 11.066406 6.367188 C 10.949219 6.371094 10.847656 6.328125 10.761719 6.246094 C 10.675781 6.160156 10.636719 6.058594 10.636719 5.941406 C 10.636719 5.820312 10.675781 5.722656 10.761719 5.636719 L 11.671875 4.730469 C 11.753906 4.648438 11.855469 4.605469 11.972656 4.605469 C 12.09375 4.605469 12.195312 4.648438 12.277344 4.730469 C 12.363281 4.816406 12.402344 4.914062 12.402344 5.035156 C 12.402344 5.152344 12.363281 5.253906 12.277344 5.339844 L 11.371094 6.246094 C 11.285156 6.328125 11.183594 6.371094 11.066406 6.367188 Z M 11.066406 6.367188 " fill-opacity="1" fill-rule="nonzero"/><path fill="#f8ad3b" d="M 4.253906 13.167969 C 4.136719 13.167969 4.035156 13.128906 3.953125 13.042969 C 3.867188 12.960938 3.824219 12.859375 3.824219 12.742188 C 3.824219 12.621094 3.867188 12.519531 3.953125 12.4375 L 4.859375 11.53125 C 4.945312 11.445312 5.042969 11.40625 5.164062 11.40625 C 5.28125 11.40625 5.382812 11.445312 5.46875 11.53125 C 5.550781 11.613281 5.59375 11.714844 5.59375 11.835938 C 5.59375 11.953125 5.550781 12.054688 5.46875 12.136719 L 4.550781 13.054688 C 4.46875 13.128906 4.371094 13.167969 4.253906 13.167969 Z M 4.253906 13.167969 " fill-opacity="1" fill-rule="nonzero"/><path fill="#f8ad3b" d="M 4.253906 13.167969 C 4.136719 13.167969 4.035156 13.128906 3.953125 13.042969 C 3.867188 12.960938 3.824219 12.859375 3.824219 12.742188 C 3.824219 12.621094 3.867188 12.519531 3.953125 12.4375 L 4.859375 11.53125 C 4.945312 11.445312 5.042969 11.40625 5.164062 11.40625 C 5.28125 11.40625 5.382812 11.445312 5.46875 11.53125 C 5.550781 11.613281 5.59375 11.714844 5.59375 11.835938 C 5.59375 11.953125 5.550781 12.054688 5.46875 12.136719 L 4.550781 13.054688 C 4.46875 13.128906 4.371094 13.167969 4.253906 13.167969 Z M 4.253906 13.167969 " fill-opacity="1" fill-rule="nonzero"/><path fill="#f8ad3b" d="M 12.007812 13.167969 C 11.890625 13.167969 11.789062 13.128906 11.703125 13.042969 L 10.796875 12.136719 C 10.710938 12.054688 10.671875 11.953125 10.671875 11.835938 C 10.671875 11.714844 10.710938 11.613281 10.796875 11.53125 C 10.878906 11.445312 10.980469 11.40625 11.101562 11.40625 C 11.21875 11.40625 11.320312 11.445312 11.40625 11.53125 L 12.3125 12.4375 C 12.398438 12.519531 12.4375 12.621094 12.4375 12.742188 C 12.4375 12.859375 12.398438 12.960938 12.3125 13.042969 C 12.226562 13.128906 12.128906 13.167969 12.007812 13.167969 Z M 12.007812 13.167969 " fill-opacity="1" fill-rule="nonzero"/><path fill="#f8ad3b" d="M 5.15625 6.367188 C 5.035156 6.371094 4.933594 6.328125 4.851562 6.246094 L 3.941406 5.339844 C 3.859375 5.253906 3.816406 5.152344 3.816406 5.035156 C 3.816406 4.914062 3.859375 4.816406 3.941406 4.730469 C 4.027344 4.648438 4.128906 4.605469 4.246094 4.605469 C 4.367188 4.605469 4.46875 4.648438 4.550781 4.730469 L 5.460938 5.636719 C 5.542969 5.722656 5.585938 5.820312 5.585938 5.941406 C 5.585938 6.058594 5.542969 6.160156 5.460938 6.246094 C 5.375 6.328125 5.273438 6.371094 5.15625 6.367188 Z M 5.15625 6.367188 " fill-opacity="1" fill-rule="nonzero"/><g clip-path="url(#1a1d04897b)"><path fill="#cfd6ce" d="M 2.96875 22.148438 L 26.101562 22.148438 L 22.675781 10.601562 L 6.398438 10.601562 Z M 2.96875 22.148438 " fill-opacity="1" fill-rule="nonzero"/></g><path fill="#00addc" d="M 23.960938 20.867188 L 5.113281 20.867188 L 6.339844 16.574219 L 6.582031 15.734375 L 7.683594 11.886719 L 21.390625 11.886719 Z M 23.960938 20.867188 " fill-opacity="1" fill-rule="nonzero"/><g clip-path="url(#b6bba71376)"><path fill="#b3bfb1" d="M 26.101562 22.148438 L 2.96875 22.148438 L 3.351562 20.867188 L 11.363281 20.867188 C 11.769531 20.867188 12.171875 20.820312 12.570312 20.726562 C 12.96875 20.632812 13.347656 20.492188 13.714844 20.3125 C 14.078125 20.128906 14.417969 19.90625 14.730469 19.644531 C 15.042969 19.382812 15.324219 19.089844 15.566406 18.761719 C 15.8125 18.4375 16.015625 18.085938 16.179688 17.710938 C 16.339844 17.335938 16.457031 16.949219 16.527344 16.546875 C 16.601562 16.148438 16.625 15.742188 16.601562 15.335938 C 16.582031 14.929688 16.511719 14.53125 16.394531 14.140625 L 15.726562 11.886719 L 15.34375 10.601562 L 22.675781 10.601562 Z M 26.101562 22.148438 " fill-opacity="1" fill-rule="nonzero"/></g><path fill="#02a0c4" d="M 23.960938 20.867188 L 11.363281 20.867188 C 11.769531 20.867188 12.171875 20.820312 12.570312 20.726562 C 12.96875 20.632812 13.347656 20.492188 13.714844 20.3125 C 14.078125 20.128906 14.417969 19.90625 14.730469 19.644531 C 15.042969 19.382812 15.324219 19.089844 15.566406 18.761719 C 15.8125 18.4375 16.015625 18.085938 16.179688 17.710938 C 16.339844 17.335938 16.457031 16.949219 16.527344 16.546875 C 16.601562 16.148438 16.625 15.742188 16.601562 15.335938 C 16.582031 14.929688 16.511719 14.53125 16.394531 14.140625 L 15.726562 11.886719 L 21.390625 11.886719 Z M 23.960938 20.867188 " fill-opacity="1" fill-rule="nonzero"/><g clip-path="url(#797ec482e6)"><path fill="#cfd6ce" d="M 7.683594 25.144531 L 21.390625 25.144531 C 21.617188 25.144531 21.835938 25.1875 22.046875 25.273438 C 22.253906 25.359375 22.441406 25.484375 22.601562 25.644531 C 22.761719 25.804688 22.886719 25.988281 22.972656 26.199219 C 23.058594 26.410156 23.101562 26.625 23.101562 26.855469 L 5.96875 26.855469 C 5.96875 26.625 6.011719 26.410156 6.097656 26.199219 C 6.1875 25.988281 6.308594 25.804688 6.46875 25.644531 C 6.632812 25.484375 6.816406 25.359375 7.027344 25.273438 C 7.238281 25.1875 7.453125 25.144531 7.683594 25.144531 Z M 7.683594 25.144531 " fill-opacity="1" fill-rule="nonzero"/><path fill="#b3bfb1" d="M 23.101562 26.855469 L 5.96875 26.855469 C 5.96875 26.546875 6.046875 26.261719 6.199219 26 L 19.605469 26 C 19.851562 26 20.0625 25.917969 20.238281 25.753906 C 20.417969 25.589844 20.515625 25.386719 20.53125 25.144531 L 21.390625 25.144531 C 21.617188 25.144531 21.835938 25.1875 22.046875 25.273438 C 22.253906 25.359375 22.441406 25.484375 22.601562 25.644531 C 22.761719 25.804688 22.886719 25.988281 22.972656 26.199219 C 23.058594 26.410156 23.101562 26.625 23.101562 26.855469 Z M 23.101562 26.855469 " fill-opacity="1" fill-rule="nonzero"/></g><path fill="#b3bfb1" d="M 7.683594 22.148438 L 21.390625 22.148438 L 21.390625 25.144531 L 7.683594 25.144531 Z M 7.683594 22.148438 " fill-opacity="1" fill-rule="nonzero"/><path fill="#80877e" d="M 21.390625 22.148438 L 21.390625 25.144531 L 20.53125 25.144531 C 20.53125 24.859375 20.476562 24.585938 20.371094 24.324219 C 20.261719 24.0625 20.105469 23.832031 19.90625 23.632812 C 19.703125 23.429688 19.472656 23.277344 19.210938 23.167969 C 18.949219 23.058594 18.675781 23.003906 18.390625 23.003906 L 7.683594 23.003906 L 7.683594 22.148438 Z M 21.390625 22.148438 " fill-opacity="1" fill-rule="nonzero"/><path fill="#0c6f89" d="M 14.105469 11.886719 L 14.964844 11.886719 L 14.964844 20.867188 L 14.105469 20.867188 Z M 14.105469 11.886719 " fill-opacity="1" fill-rule="nonzero"/><path fill="#0c6f89" d="M 11.585938 11.886719 C 11.585938 11.90625 11.585938 11.929688 11.585938 11.949219 L 11.019531 15.734375 L 10.890625 16.589844 L 10.253906 20.867188 L 9.394531 20.867188 C 9.394531 20.84375 9.394531 20.824219 9.394531 20.800781 L 10.023438 16.589844 L 10.148438 15.734375 L 10.722656 11.886719 Z M 11.585938 11.886719 " fill-opacity="1" fill-rule="nonzero"/><path fill="#0c6f89" d="M 19.722656 20.867188 L 18.867188 20.867188 L 18.226562 16.589844 L 18.097656 15.734375 L 17.535156 11.949219 C 17.53125 11.929688 17.53125 11.90625 17.535156 11.886719 L 18.390625 11.886719 L 18.964844 15.734375 L 19.089844 16.589844 L 19.714844 20.800781 C 19.71875 20.824219 19.722656 20.84375 19.722656 20.867188 Z M 19.722656 20.867188 " fill-opacity="1" fill-rule="nonzero"/><path fill="#0c6f89" d="M 21.816406 16.160156 C 21.816406 16.28125 21.777344 16.382812 21.691406 16.464844 C 21.609375 16.546875 21.507812 16.589844 21.390625 16.589844 L 6.457031 16.589844 C 6.417969 16.597656 6.378906 16.597656 6.339844 16.589844 L 6.582031 15.734375 L 21.390625 15.734375 C 21.507812 15.734375 21.609375 15.777344 21.691406 15.859375 C 21.777344 15.941406 21.816406 16.042969 21.816406 16.160156 Z M 21.816406 16.160156 " fill-opacity="1" fill-rule="nonzero"/><g clip-path="url(#09d2caf994)"><path fill="#cfd6ce" d="M 21.390625 9.746094 L 28.242188 9.746094 L 28.242188 26.855469 L 21.390625 26.855469 Z M 21.390625 9.746094 " fill-opacity="1" fill-rule="nonzero"/></g><path fill="#00a651" d="M 26.957031 13.167969 L 22.675781 14.453125 L 22.675781 25.570312 L 26.957031 25.570312 Z M 26.957031 13.167969 " fill-opacity="1" fill-rule="nonzero"/><g clip-path="url(#5e6010debc)"><path fill="#b3bfb1" d="M 28.242188 9.746094 L 28.242188 26.855469 L 21.390625 26.855469 L 21.390625 25.570312 C 21.757812 25.5625 22.125 25.515625 22.488281 25.4375 C 22.847656 25.355469 23.199219 25.242188 23.539062 25.09375 C 23.875 24.945312 24.199219 24.765625 24.503906 24.554688 C 24.804688 24.34375 25.085938 24.105469 25.34375 23.839844 C 25.601562 23.574219 25.832031 23.285156 26.035156 22.976562 C 26.234375 22.667969 26.40625 22.339844 26.542969 21.996094 C 26.683594 21.65625 26.785156 21.300781 26.855469 20.9375 C 26.925781 20.574219 26.960938 20.210938 26.957031 19.839844 L 26.957031 9.746094 Z M 28.242188 9.746094 " fill-opacity="1" fill-rule="nonzero"/></g><path fill="#038e42" d="M 26.957031 19.839844 L 26.957031 25.570312 L 22.675781 25.570312 L 22.675781 25.386719 C 23.289062 25.226562 23.859375 24.96875 24.386719 24.617188 C 24.917969 24.269531 25.375 23.84375 25.761719 23.339844 C 26.148438 22.839844 26.445312 22.289062 26.648438 21.6875 C 26.855469 21.089844 26.957031 20.472656 26.957031 19.839844 Z M 26.957031 19.839844 " fill-opacity="1" fill-rule="nonzero"/><path fill="#dde2dc" d="M 23.101562 8.035156 L 26.53125 8.035156 L 26.53125 9.746094 L 23.101562 9.746094 Z M 23.101562 8.035156 " fill-opacity="1" fill-rule="nonzero"/><path fill="#ffe100" d="M 24.386719 22.148438 C 24.308594 22.148438 24.238281 22.128906 24.167969 22.089844 C 24.066406 22.027344 24.003906 21.941406 23.972656 21.828125 C 23.945312 21.714844 23.957031 21.605469 24.019531 21.503906 L 24.914062 20.011719 L 24.386719 20.011719 C 24.210938 20.011719 24.085938 19.933594 24.007812 19.777344 C 23.925781 19.617188 23.9375 19.46875 24.046875 19.328125 L 25.328125 17.617188 C 25.402344 17.519531 25.496094 17.464844 25.613281 17.449219 C 25.730469 17.433594 25.835938 17.460938 25.929688 17.53125 C 26.023438 17.601562 26.082031 17.695312 26.097656 17.8125 C 26.113281 17.929688 26.085938 18.035156 26.015625 18.128906 L 25.246094 19.15625 L 25.671875 19.15625 C 25.839844 19.15625 25.960938 19.226562 26.042969 19.371094 C 26.128906 19.515625 26.125 19.660156 26.042969 19.800781 L 24.757812 21.941406 C 24.671875 22.078125 24.550781 22.148438 24.386719 22.148438 Z M 24.386719 22.148438 " fill-opacity="1" fill-rule="nonzero"/></svg>