<svg xmlns="http://www.w3.org/2000/svg" xmlns:xlink="http://www.w3.org/1999/xlink" width="40" zoomAndPan="magnify" viewBox="0 0 30 30.000001" height="40" preserveAspectRatio="xMidYMid meet" version="1.0"><defs><clipPath id="7889041b81"><path d="M 7 2.902344 L 23 2.902344 L 23 15 L 7 15 Z M 7 2.902344 " clip-rule="nonzero"/></clipPath><clipPath id="a4499d66ab"><path d="M 1.375 21 L 28.957031 21 L 28.957031 27 L 1.375 27 Z M 1.375 21 " clip-rule="nonzero"/></clipPath><clipPath id="45296ecddc"><path d="M 1.589844 20.871094 L 28.820312 20.871094 L 28.820312 26.640625 L 1.589844 26.640625 Z M 1.589844 20.871094 " clip-rule="nonzero"/></clipPath></defs><path fill="#fbf88b" d="M 19.3125 9.921875 C 19.3125 12.136719 17.488281 13.933594 15.242188 13.933594 C 12.992188 13.933594 11.171875 12.136719 11.171875 9.921875 C 11.171875 7.707031 12.992188 5.910156 15.242188 5.910156 C 17.488281 5.910156 19.3125 7.707031 19.3125 9.921875 " fill-opacity="1" fill-rule="nonzero"/><g clip-path="url(#7889041b81)"><path fill="#3a1e16" d="M 11.519531 6.027344 C 11.171875 5.648438 10.824219 5.269531 10.476562 4.890625 C 10.332031 4.734375 10.097656 4.964844 10.242188 5.121094 C 10.589844 5.5 10.9375 5.878906 11.285156 6.257812 C 11.425781 6.414062 11.660156 6.179688 11.519531 6.027344 Z M 9.59375 9.757812 C 9.074219 9.757812 8.554688 9.757812 8.039062 9.757812 C 7.824219 9.757812 7.824219 10.085938 8.039062 10.085938 C 8.554688 10.085938 9.074219 10.085938 9.59375 10.085938 C 9.804688 10.085938 9.804688 9.757812 9.59375 9.757812 Z M 17.589844 5.171875 C 17.78125 4.699219 17.972656 4.222656 18.164062 3.75 C 18.242188 3.554688 17.921875 3.46875 17.84375 3.664062 C 17.652344 4.136719 17.464844 4.613281 17.273438 5.085938 C 17.195312 5.28125 17.515625 5.367188 17.589844 5.171875 Z M 13.355469 5.085938 C 13.164062 4.613281 12.972656 4.136719 12.78125 3.664062 C 12.707031 3.46875 12.382812 3.554688 12.464844 3.75 C 12.652344 4.222656 12.84375 4.699219 13.035156 5.171875 C 13.113281 5.367188 13.433594 5.28125 13.355469 5.085938 Z M 10.066406 7.773438 C 9.582031 7.59375 9.097656 7.410156 8.613281 7.226562 C 8.414062 7.152344 8.328125 7.464844 8.527344 7.542969 C 9.007812 7.722656 9.492188 7.90625 9.976562 8.089844 C 10.175781 8.164062 10.261719 7.851562 10.066406 7.773438 Z M 20.40625 8.074219 C 20.886719 7.890625 21.371094 7.707031 21.855469 7.523438 C 22.054688 7.449219 21.96875 7.132812 21.769531 7.210938 C 21.285156 7.390625 20.800781 7.574219 20.316406 7.757812 C 20.121094 7.832031 20.207031 8.148438 20.40625 8.074219 Z M 19.136719 6.257812 C 19.484375 5.878906 19.832031 5.5 20.179688 5.121094 C 20.320312 4.964844 20.085938 4.734375 19.945312 4.890625 C 19.597656 5.269531 19.25 5.648438 18.902344 6.027344 C 18.757812 6.179688 18.992188 6.414062 19.136719 6.257812 Z M 20.828125 10.085938 C 21.347656 10.085938 21.863281 10.085938 22.382812 10.085938 C 22.59375 10.085938 22.59375 9.757812 22.382812 9.757812 C 21.863281 9.757812 21.347656 9.757812 20.828125 9.757812 C 20.613281 9.757812 20.613281 10.085938 20.828125 10.085938 Z M 15.074219 3.117188 C 15.074219 3.625 15.074219 4.136719 15.074219 4.648438 C 15.074219 4.859375 15.40625 4.859375 15.40625 4.648438 C 15.40625 4.136719 15.40625 3.625 15.40625 3.117188 C 15.40625 2.90625 15.074219 2.90625 15.074219 3.117188 Z M 19.476562 9.921875 C 19.457031 11.894531 18.027344 13.65625 16.042969 14.023438 C 14.316406 14.34375 12.535156 13.570312 11.621094 12.089844 C 10.6875 10.582031 10.847656 8.613281 11.980469 7.257812 C 13.101562 5.917969 15.027344 5.398438 16.683594 5.996094 C 18.351562 6.597656 19.460938 8.175781 19.476562 9.921875 C 19.480469 10.132812 19.148438 10.132812 19.144531 9.921875 C 19.128906 8.113281 17.835938 6.519531 16.027344 6.148438 C 14.417969 5.820312 12.730469 6.558594 11.886719 7.949219 C 11.050781 9.332031 11.1875 11.144531 12.238281 12.382812 C 13.289062 13.625 15.050781 14.089844 16.59375 13.535156 C 18.125 12.984375 19.132812 11.515625 19.144531 9.921875 C 19.148438 9.710938 19.480469 9.710938 19.476562 9.921875 " fill-opacity="1" fill-rule="nonzero"/></g><g clip-path="url(#a4499d66ab)"><path fill="#80cc2a" d="M 26.511719 22.121094 C 26.511719 22.121094 27.6875 20.636719 28.3125 21.175781 C 28.941406 21.714844 27.648438 22.660156 27.648438 22.660156 C 28.605469 22.816406 28.605469 23.257812 28.605469 23.257812 C 28.84375 25.082031 23.851562 25.1875 23.851562 25.1875 C 23.34375 25.824219 22.25 25.707031 22.25 25.707031 C 21.582031 26.054688 20.644531 25.824219 20.644531 25.824219 C 14.832031 27.578125 8.457031 25.496094 8.457031 25.496094 C 5.03125 26.132812 3.308594 24.976562 3.308594 24.976562 C 3.308594 24.976562 2.546875 25.324219 2.175781 24.839844 C 1.804688 24.359375 2.917969 23.785156 2.917969 23.785156 C 2.339844 23.820312 1.394531 23.277344 1.785156 22.914062 C 2.175781 22.546875 2.917969 22.914062 2.917969 22.914062 C 1.941406 22.238281 2.136719 21.660156 2.136719 21.660156 C 2.742188 21.136719 3.976562 22.3125 3.976562 22.3125 C 6.480469 21.351562 13.484375 21.386719 13.484375 21.386719 C 22.238281 20.835938 26.511719 22.121094 26.511719 22.121094 " fill-opacity="1" fill-rule="nonzero"/></g><g clip-path="url(#45296ecddc)"><path fill="#3a1e16" d="M 28.273438 23.855469 C 27.960938 24.210938 27.496094 24.390625 27.054688 24.53125 C 26.023438 24.859375 24.945312 25.015625 23.859375 25.011719 C 23.800781 24.984375 23.734375 24.988281 23.675781 25.050781 C 23.5 25.25 23.285156 25.398438 23.03125 25.484375 C 22.753906 25.570312 22.53125 25.535156 22.253906 25.515625 C 22.023438 25.496094 21.855469 25.664062 21.636719 25.710938 C 21.375 25.765625 21.097656 25.734375 20.835938 25.699219 C 20.800781 25.675781 20.753906 25.660156 20.699219 25.675781 C 16.703125 26.636719 12.476562 26.453125 8.523438 25.382812 C 8.488281 25.375 8.457031 25.375 8.429688 25.382812 C 7.578125 25.535156 6.710938 25.578125 5.847656 25.511719 C 5.414062 25.480469 4.984375 25.417969 4.558594 25.332031 C 4.160156 25.246094 3.730469 25.167969 3.429688 24.878906 C 3.429688 24.878906 3.425781 24.878906 3.425781 24.878906 C 3.390625 24.835938 3.332031 24.8125 3.261719 24.835938 C 3.023438 24.910156 2.105469 25.027344 2.296875 24.515625 C 2.367188 24.328125 2.597656 24.246094 2.773438 24.179688 C 2.972656 24.101562 3.179688 24.03125 3.382812 23.957031 C 3.386719 23.957031 3.390625 23.957031 3.394531 23.953125 C 3.515625 23.910156 3.535156 23.746094 3.453125 23.667969 C 3.421875 23.628906 3.371094 23.613281 3.3125 23.625 C 2.925781 23.632812 2.417969 23.53125 2.089844 23.316406 C 1.753906 23.101562 2.113281 22.90625 2.363281 22.914062 C 2.570312 22.917969 2.769531 23.007812 2.957031 23.082031 C 3.117188 23.144531 3.25 22.90625 3.125 22.796875 C 2.9375 22.640625 2.757812 22.472656 2.589844 22.296875 C 2.472656 22.171875 2.070312 21.65625 2.535156 21.707031 C 2.984375 21.753906 3.4375 22.167969 3.765625 22.433594 C 3.773438 22.441406 3.78125 22.445312 3.785156 22.449219 C 3.824219 22.476562 3.875 22.492188 3.933594 22.476562 C 6.789062 21.753906 9.738281 21.570312 12.671875 21.515625 C 15.664062 21.457031 18.667969 21.417969 21.65625 21.5625 C 23.222656 21.636719 24.925781 21.652344 26.390625 22.269531 C 26.410156 22.277344 26.429688 22.277344 26.445312 22.28125 C 26.511719 22.296875 26.582031 22.277344 26.628906 22.207031 C 26.925781 21.75 27.398438 21.398438 27.945312 21.285156 C 28.113281 21.25 28.324219 21.238281 28.367188 21.4375 C 28.40625 21.609375 28.261719 21.773438 28.164062 21.898438 C 27.976562 22.144531 27.765625 22.371094 27.507812 22.546875 C 27.398438 22.589844 27.382812 22.738281 27.457031 22.820312 C 27.492188 22.867188 27.546875 22.890625 27.605469 22.875 C 27.871094 22.886719 28.160156 22.929688 28.34375 23.132812 C 28.558594 23.371094 28.460938 23.640625 28.273438 23.855469 Z M 28.8125 23.339844 C 28.75 22.90625 28.394531 22.6875 28.003906 22.59375 C 28.25 22.375 28.476562 22.109375 28.625 21.835938 C 28.789062 21.53125 28.765625 21.113281 28.398438 20.96875 C 28.046875 20.828125 27.59375 21.007812 27.277344 21.167969 C 26.929688 21.34375 26.640625 21.605469 26.414062 21.914062 C 25.191406 21.4375 23.859375 21.355469 22.5625 21.273438 C 20.996094 21.175781 19.425781 21.140625 17.855469 21.136719 C 14.835938 21.125 11.796875 21.101562 8.785156 21.355469 C 7.148438 21.496094 5.519531 21.730469 3.929688 22.128906 C 3.644531 21.902344 3.355469 21.675781 3.027344 21.523438 C 2.765625 21.402344 2.40625 21.25 2.152344 21.453125 C 1.757812 21.777344 2.035156 22.222656 2.371094 22.574219 C 2.269531 22.570312 2.171875 22.578125 2.070312 22.605469 C 1.820312 22.671875 1.574219 22.871094 1.59375 23.148438 C 1.613281 23.464844 1.898438 23.617188 2.160156 23.71875 C 2.308594 23.777344 2.453125 23.828125 2.605469 23.871094 C 2.222656 24.027344 1.882812 24.261719 1.929688 24.679688 C 2 25.292969 2.78125 25.3125 3.261719 25.1875 C 3.546875 25.425781 3.894531 25.527344 4.257812 25.613281 C 4.707031 25.714844 5.167969 25.789062 5.632812 25.832031 C 6.578125 25.925781 7.53125 25.878906 8.464844 25.722656 C 12.445312 26.792969 16.699219 26.972656 20.722656 26.019531 C 20.738281 26.023438 20.753906 26.03125 20.773438 26.03125 C 21.058594 26.070312 21.351562 26.101562 21.640625 26.054688 C 21.773438 26.03125 21.894531 25.992188 22.019531 25.9375 C 22.203125 25.859375 22.304688 25.878906 22.496094 25.890625 C 23.007812 25.921875 23.511719 25.710938 23.863281 25.351562 C 24.585938 25.355469 25.304688 25.289062 26.015625 25.148438 C 26.660156 25.019531 27.347656 24.855469 27.929688 24.542969 C 28.355469 24.316406 28.886719 23.875 28.8125 23.339844 " fill-opacity="1" fill-rule="nonzero"/></g><path fill="#71cdee" d="M 20.003906 23.511719 L 10.519531 23.511719 L 10.519531 24.398438 L 20.003906 24.398438 Z M 20.003906 23.511719 L 10.519531 23.511719 L 11.957031 20.617188 L 14.515625 20.617188 L 14.515625 18.410156 L 15.984375 18.410156 L 15.984375 20.617188 L 18.746094 20.617188 L 20.003906 23.511719 " fill-opacity="1" fill-rule="nonzero"/><path fill="#3a1e16" d="M 16.808594 24.234375 C 15.105469 24.234375 13.40625 24.234375 11.703125 24.234375 C 11.363281 24.234375 11.023438 24.234375 10.683594 24.234375 C 10.683594 24.050781 10.683594 23.863281 10.683594 23.675781 C 11.695312 23.675781 12.703125 23.675781 13.714844 23.675781 C 15.417969 23.675781 17.117188 23.675781 18.820312 23.675781 C 19.15625 23.675781 19.496094 23.675781 19.835938 23.675781 C 19.835938 23.863281 19.835938 24.050781 19.835938 24.234375 C 18.828125 24.234375 17.816406 24.234375 16.808594 24.234375 Z M 12.058594 20.78125 C 12.878906 20.78125 13.695312 20.78125 14.515625 20.78125 C 14.605469 20.78125 14.679688 20.703125 14.679688 20.617188 C 14.679688 19.933594 14.679688 19.253906 14.679688 18.574219 C 15.058594 18.574219 15.4375 18.574219 15.820312 18.574219 C 15.820312 19.253906 15.820312 19.933594 15.820312 20.617188 C 15.820312 20.703125 15.894531 20.78125 15.984375 20.78125 C 16.867188 20.78125 17.753906 20.78125 18.636719 20.78125 C 19.007812 21.636719 19.382812 22.492188 19.753906 23.347656 C 18.769531 23.347656 17.789062 23.347656 16.808594 23.347656 C 15.105469 23.347656 13.40625 23.347656 11.703125 23.347656 C 11.398438 23.347656 11.089844 23.347656 10.785156 23.347656 C 11.210938 22.492188 11.632812 21.636719 12.058594 20.78125 Z M 20.167969 23.511719 C 20.167969 23.484375 20.160156 23.460938 20.148438 23.4375 C 20.148438 23.433594 20.148438 23.429688 20.144531 23.429688 C 19.726562 22.464844 19.316406 21.515625 18.898438 20.550781 C 18.863281 20.476562 18.804688 20.457031 18.734375 20.453125 C 17.871094 20.453125 17.011719 20.453125 16.148438 20.453125 C 16.148438 19.773438 16.148438 19.089844 16.148438 18.410156 C 16.148438 18.320312 16.074219 18.246094 15.984375 18.246094 C 15.496094 18.246094 15.003906 18.246094 14.515625 18.246094 C 14.425781 18.246094 14.347656 18.320312 14.347656 18.410156 C 14.347656 19.089844 14.347656 19.773438 14.347656 20.453125 C 13.550781 20.453125 12.753906 20.453125 11.957031 20.453125 C 11.902344 20.453125 11.839844 20.484375 11.8125 20.535156 C 11.332031 21.5 10.855469 22.464844 10.375 23.429688 C 10.375 23.433594 10.371094 23.4375 10.371094 23.441406 C 10.359375 23.460938 10.351562 23.484375 10.351562 23.511719 C 10.351562 23.808594 10.351562 24.101562 10.351562 24.398438 C 10.351562 24.488281 10.429688 24.5625 10.519531 24.5625 C 11.585938 24.5625 12.648438 24.5625 13.714844 24.5625 C 15.417969 24.5625 17.117188 24.5625 18.820312 24.5625 C 19.214844 24.5625 19.609375 24.5625 20.003906 24.5625 C 20.050781 24.5625 20.089844 24.546875 20.113281 24.519531 C 20.117188 24.515625 20.117188 24.515625 20.121094 24.515625 C 20.121094 24.511719 20.121094 24.511719 20.125 24.511719 C 20.152344 24.484375 20.167969 24.449219 20.167969 24.398438 C 20.167969 24.101562 20.167969 23.808594 20.167969 23.511719 " fill-opacity="1" fill-rule="nonzero"/><path fill="#f5f6f5" d="M 5.535156 10.914062 L 24.949219 10.914062 L 26.761719 19.074219 L 3.753906 19.074219 L 5.535156 10.914062 " fill-opacity="1" fill-rule="nonzero"/><path fill="#3a1e16" d="M 5.535156 10.75 C 5.546875 10.75 5.558594 10.753906 5.570312 10.75 C 5.820312 10.730469 6.082031 10.75 6.332031 10.75 C 6.867188 10.75 7.398438 10.75 7.933594 10.75 C 9.550781 10.75 11.167969 10.75 12.785156 10.75 C 14.652344 10.75 16.519531 10.75 18.386719 10.75 C 19.933594 10.75 21.476562 10.75 23.019531 10.75 C 23.664062 10.75 24.304688 10.75 24.949219 10.75 C 25.019531 10.75 25.09375 10.800781 25.109375 10.871094 C 25.183594 11.210938 25.257812 11.550781 25.332031 11.886719 C 25.863281 14.269531 26.390625 16.648438 26.921875 19.027344 C 26.945312 19.132812 26.875 19.234375 26.761719 19.234375 C 26.75 19.234375 26.734375 19.234375 26.722656 19.234375 C 26.429688 19.261719 26.121094 19.234375 25.824219 19.234375 C 25.191406 19.234375 24.5625 19.234375 23.929688 19.234375 C 22.015625 19.234375 20.097656 19.234375 18.183594 19.234375 C 15.96875 19.234375 13.75 19.234375 11.535156 19.234375 C 9.703125 19.234375 7.871094 19.234375 6.039062 19.234375 C 5.277344 19.234375 4.515625 19.234375 3.753906 19.234375 C 3.640625 19.234375 3.570312 19.132812 3.59375 19.027344 C 3.667969 18.6875 3.742188 18.34375 3.816406 18.003906 C 4.335938 15.625 4.855469 13.25 5.375 10.871094 C 5.417969 10.664062 5.738281 10.753906 5.695312 10.957031 C 5.621094 11.300781 5.546875 11.640625 5.46875 11.984375 C 4.953125 14.359375 4.433594 16.738281 3.914062 19.117188 C 3.859375 19.046875 3.804688 18.976562 3.753906 18.910156 C 3.765625 18.910156 3.78125 18.914062 3.792969 18.910156 C 3.878906 18.886719 4.011719 18.910156 4.101562 18.910156 C 4.296875 18.910156 4.496094 18.910156 4.691406 18.910156 C 5.324219 18.910156 5.953125 18.910156 6.585938 18.910156 C 8.5 18.910156 10.417969 18.910156 12.332031 18.910156 C 14.546875 18.910156 16.765625 18.910156 18.980469 18.910156 C 20.8125 18.910156 22.644531 18.910156 24.472656 18.910156 C 25.238281 18.910156 26 18.910156 26.761719 18.910156 C 26.707031 18.976562 26.65625 19.046875 26.601562 19.117188 C 26.527344 18.777344 26.453125 18.4375 26.375 18.097656 C 25.847656 15.71875 25.316406 13.339844 24.789062 10.957031 C 24.839844 10.996094 24.894531 11.039062 24.949219 11.078125 C 24.9375 11.078125 24.921875 11.074219 24.914062 11.078125 C 24.839844 11.097656 24.726562 11.078125 24.652344 11.078125 C 24.484375 11.078125 24.316406 11.078125 24.148438 11.078125 C 23.617188 11.078125 23.082031 11.078125 22.546875 11.078125 C 20.933594 11.078125 19.316406 11.078125 17.699219 11.078125 C 15.832031 11.078125 13.960938 11.078125 12.09375 11.078125 C 10.550781 11.078125 9.007812 11.078125 7.460938 11.078125 C 6.820312 11.078125 6.175781 11.078125 5.535156 11.078125 C 5.320312 11.078125 5.320312 10.75 5.535156 10.75 " fill-opacity="1" fill-rule="nonzero"/><path fill="#71cdee" d="M 11.917969 16.351562 L 11.796875 18.328125 L 14.53125 18.328125 L 14.59375 16.351562 Z M 5.1875 16.351562 L 4.765625 18.328125 L 7.273438 18.328125 L 7.589844 16.351562 Z M 8.578125 16.351562 L 8.300781 18.328125 L 10.703125 18.328125 L 10.882812 16.351562 Z M 12.210938 11.550781 L 12.128906 12.902344 L 14.703125 12.902344 L 14.746094 11.550781 Z M 9.25 11.550781 L 9.058594 12.902344 L 11.1875 12.902344 L 11.308594 11.550781 Z M 6.210938 11.550781 L 5.921875 12.902344 L 8.140625 12.902344 L 8.359375 11.550781 Z M 5.769531 13.632812 L 5.382812 15.4375 L 7.734375 15.4375 L 8.023438 13.632812 Z M 8.957031 13.632812 L 8.707031 15.4375 L 10.964844 15.4375 L 11.125 13.632812 Z M 14.691406 13.632812 L 14.621094 15.4375 L 11.972656 15.4375 L 12.082031 13.632812 L 14.691406 13.632812 " fill-opacity="1" fill-rule="nonzero"/><path fill="#3a1e16" d="M 14.421875 16.515625 C 14.40625 17.066406 14.386719 17.613281 14.371094 18.164062 C 13.570312 18.164062 12.769531 18.164062 11.972656 18.164062 C 12.007812 17.613281 12.039062 17.066406 12.074219 16.515625 C 12.855469 16.515625 13.640625 16.515625 14.421875 16.515625 Z M 14.695312 16.222656 C 14.667969 16.203125 14.636719 16.1875 14.59375 16.1875 C 13.703125 16.1875 12.808594 16.1875 11.917969 16.1875 C 11.824219 16.1875 11.757812 16.261719 11.75 16.351562 C 11.710938 17.011719 11.671875 17.667969 11.632812 18.328125 C 11.625 18.417969 11.710938 18.492188 11.796875 18.492188 C 12.707031 18.492188 13.617188 18.492188 14.53125 18.492188 C 14.621094 18.492188 14.691406 18.417969 14.695312 18.328125 C 14.714844 17.667969 14.738281 17.011719 14.757812 16.351562 C 14.761719 16.289062 14.734375 16.246094 14.695312 16.222656 Z M 7.132812 18.164062 C 6.414062 18.164062 5.691406 18.164062 4.96875 18.164062 C 5.085938 17.613281 5.203125 17.066406 5.324219 16.515625 C 6.015625 16.515625 6.707031 16.515625 7.398438 16.515625 C 7.308594 17.066406 7.222656 17.613281 7.132812 18.164062 Z M 7.589844 16.1875 C 6.789062 16.1875 5.988281 16.1875 5.1875 16.1875 C 5.121094 16.1875 5.042969 16.238281 5.027344 16.308594 C 4.886719 16.96875 4.746094 17.625 4.605469 18.285156 C 4.585938 18.386719 4.652344 18.492188 4.765625 18.492188 C 5.601562 18.492188 6.4375 18.492188 7.273438 18.492188 C 7.339844 18.492188 7.421875 18.441406 7.433594 18.371094 C 7.539062 17.714844 7.644531 17.054688 7.75 16.394531 C 7.753906 16.375 7.75 16.355469 7.75 16.339844 C 7.742188 16.261719 7.691406 16.1875 7.589844 16.1875 Z M 10.703125 16.515625 C 10.652344 17.066406 10.601562 17.613281 10.554688 18.164062 C 9.867188 18.164062 9.179688 18.164062 8.492188 18.164062 C 8.566406 17.613281 8.644531 17.066406 8.722656 16.515625 C 9.382812 16.515625 10.042969 16.515625 10.703125 16.515625 Z M 10.957031 16.207031 C 10.933594 16.195312 10.910156 16.1875 10.882812 16.1875 C 10.113281 16.1875 9.347656 16.1875 8.578125 16.1875 C 8.515625 16.1875 8.429688 16.238281 8.417969 16.308594 C 8.328125 16.96875 8.234375 17.625 8.144531 18.285156 C 8.128906 18.386719 8.183594 18.492188 8.300781 18.492188 C 9.101562 18.492188 9.902344 18.492188 10.703125 18.492188 C 10.800781 18.492188 10.863281 18.417969 10.871094 18.328125 C 10.929688 17.667969 10.988281 17.011719 11.046875 16.351562 C 11.054688 16.273438 11.011719 16.226562 10.957031 16.207031 Z M 14.574219 11.710938 C 14.566406 12.054688 14.554688 12.398438 14.542969 12.742188 C 13.796875 12.742188 13.050781 12.742188 12.304688 12.742188 C 12.324219 12.398438 12.34375 12.054688 12.367188 11.710938 C 13.101562 11.710938 13.839844 11.710938 14.574219 11.710938 Z M 14.847656 11.417969 C 14.820312 11.398438 14.789062 11.386719 14.746094 11.386719 C 13.902344 11.386719 13.054688 11.386719 12.210938 11.386719 C 12.117188 11.386719 12.050781 11.460938 12.042969 11.550781 C 12.015625 12 11.988281 12.453125 11.960938 12.902344 C 11.957031 12.992188 12.042969 13.066406 12.128906 13.066406 C 12.988281 13.066406 13.84375 13.066406 14.703125 13.066406 C 14.792969 13.066406 14.867188 12.992188 14.867188 12.902344 C 14.882812 12.453125 14.898438 12 14.910156 11.550781 C 14.914062 11.488281 14.886719 11.445312 14.847656 11.417969 Z M 11.128906 11.710938 C 11.097656 12.054688 11.070312 12.398438 11.039062 12.742188 C 10.441406 12.742188 9.84375 12.742188 9.25 12.742188 C 9.296875 12.398438 9.34375 12.054688 9.390625 11.710938 C 9.972656 11.710938 10.550781 11.710938 11.128906 11.710938 Z M 11.386719 11.402344 C 11.363281 11.390625 11.339844 11.386719 11.308594 11.386719 C 10.625 11.386719 9.9375 11.386719 9.25 11.386719 C 9.183594 11.386719 9.097656 11.4375 9.089844 11.503906 C 9.027344 11.957031 8.964844 12.410156 8.898438 12.859375 C 8.886719 12.964844 8.941406 13.066406 9.058594 13.066406 C 9.769531 13.066406 10.480469 13.066406 11.1875 13.066406 C 11.285156 13.066406 11.347656 12.992188 11.355469 12.902344 C 11.394531 12.453125 11.433594 12 11.476562 11.550781 C 11.480469 11.472656 11.441406 11.421875 11.386719 11.402344 Z M 6.128906 12.742188 C 6.199219 12.398438 6.273438 12.054688 6.347656 11.710938 C 6.953125 11.710938 7.558594 11.710938 8.164062 11.710938 C 8.109375 12.054688 8.054688 12.398438 8 12.742188 C 7.375 12.742188 6.75 12.742188 6.128906 12.742188 Z M 5.921875 13.066406 C 6.664062 13.066406 7.402344 13.066406 8.140625 13.066406 C 8.207031 13.066406 8.289062 13.015625 8.300781 12.949219 C 8.371094 12.496094 8.445312 12.042969 8.515625 11.59375 C 8.519531 11.570312 8.519531 11.554688 8.515625 11.535156 C 8.511719 11.457031 8.457031 11.386719 8.359375 11.386719 C 7.644531 11.386719 6.925781 11.386719 6.210938 11.386719 C 6.144531 11.386719 6.066406 11.4375 6.054688 11.503906 C 5.957031 11.957031 5.859375 12.410156 5.761719 12.859375 C 5.742188 12.964844 5.8125 13.066406 5.921875 13.066406 Z M 5.902344 13.796875 C 6.546875 13.796875 7.1875 13.796875 7.832031 13.796875 C 7.753906 14.289062 7.671875 14.78125 7.59375 15.273438 C 6.925781 15.273438 6.257812 15.273438 5.585938 15.273438 C 5.691406 14.78125 5.796875 14.289062 5.902344 13.796875 Z M 8.183594 13.621094 C 8.175781 13.542969 8.125 13.46875 8.023438 13.46875 C 7.273438 13.46875 6.519531 13.46875 5.769531 13.46875 C 5.699219 13.46875 5.621094 13.519531 5.609375 13.589844 C 5.480469 14.191406 5.351562 14.792969 5.222656 15.394531 C 5.203125 15.496094 5.269531 15.601562 5.382812 15.601562 C 6.167969 15.601562 6.953125 15.601562 7.734375 15.601562 C 7.800781 15.601562 7.882812 15.550781 7.894531 15.480469 C 7.992188 14.878906 8.085938 14.277344 8.183594 13.675781 C 8.1875 13.65625 8.1875 13.636719 8.183594 13.621094 Z M 10.945312 13.796875 C 10.898438 14.289062 10.855469 14.78125 10.8125 15.273438 C 10.171875 15.273438 9.535156 15.273438 8.894531 15.273438 C 8.964844 14.78125 9.03125 14.289062 9.101562 13.796875 C 9.714844 13.796875 10.328125 13.796875 10.945312 13.796875 Z M 11.199219 13.488281 C 11.179688 13.476562 11.152344 13.46875 11.125 13.46875 C 10.402344 13.46875 9.679688 13.46875 8.957031 13.46875 C 8.894531 13.46875 8.808594 13.519531 8.800781 13.589844 C 8.714844 14.191406 8.628906 14.792969 8.546875 15.394531 C 8.53125 15.496094 8.585938 15.601562 8.707031 15.601562 C 9.457031 15.601562 10.210938 15.601562 10.964844 15.601562 C 11.058594 15.601562 11.121094 15.523438 11.128906 15.4375 C 11.183594 14.835938 11.234375 14.234375 11.289062 13.632812 C 11.296875 13.554688 11.253906 13.507812 11.199219 13.488281 Z M 14.519531 13.796875 C 14.5 14.289062 14.480469 14.78125 14.460938 15.273438 C 13.691406 15.273438 12.921875 15.273438 12.148438 15.273438 C 12.179688 14.78125 12.207031 14.289062 12.238281 13.796875 C 13 13.796875 13.757812 13.796875 14.519531 13.796875 Z M 14.789062 13.503906 C 14.789062 13.5 14.785156 13.5 14.785156 13.5 C 14.785156 13.5 14.785156 13.5 14.78125 13.5 C 14.757812 13.480469 14.726562 13.46875 14.691406 13.46875 C 13.820312 13.46875 12.953125 13.46875 12.082031 13.46875 C 11.988281 13.46875 11.921875 13.546875 11.917969 13.632812 C 11.882812 14.234375 11.84375 14.835938 11.808594 15.4375 C 11.800781 15.523438 11.886719 15.601562 11.972656 15.601562 C 12.855469 15.601562 13.738281 15.601562 14.621094 15.601562 C 14.714844 15.601562 14.785156 15.527344 14.789062 15.4375 C 14.808594 14.835938 14.832031 14.234375 14.855469 13.632812 C 14.859375 13.570312 14.828125 13.527344 14.789062 13.503906 " fill-opacity="1" fill-rule="nonzero"/><path fill="#71cdee" d="M 25.238281 16.351562 L 22.722656 16.351562 L 23.039062 18.328125 L 25.660156 18.328125 Z M 21.734375 16.351562 L 19.449219 16.351562 L 19.570312 18.328125 L 22.007812 18.328125 Z M 18.394531 16.351562 L 15.835938 16.351562 L 15.898438 18.328125 L 18.515625 18.328125 Z M 24.214844 11.550781 L 21.953125 11.550781 L 22.167969 12.902344 L 24.503906 12.902344 Z M 21.0625 11.550781 L 19 11.550781 L 19.121094 12.902344 L 21.25 12.902344 Z M 18.101562 11.550781 L 15.683594 11.550781 L 15.726562 12.902344 L 18.183594 12.902344 Z M 24.660156 13.636719 L 22.289062 13.636719 L 22.574219 15.4375 L 25.046875 15.4375 Z M 21.351562 13.636719 L 19.203125 13.636719 L 19.347656 15.4375 L 21.605469 15.4375 Z M 18.304688 15.4375 L 15.804688 15.4375 L 15.75 13.636719 L 18.183594 13.636719 L 18.304688 15.4375 " fill-opacity="1" fill-rule="nonzero"/><path fill="#3a1e16" d="M 22.914062 16.515625 C 23.644531 16.515625 24.375 16.515625 25.105469 16.515625 C 25.222656 17.066406 25.339844 17.613281 25.457031 18.164062 C 24.699219 18.164062 23.9375 18.164062 23.179688 18.164062 C 23.089844 17.613281 23.003906 17.066406 22.914062 16.515625 Z M 25.820312 18.285156 C 25.679688 17.625 25.539062 16.96875 25.398438 16.308594 C 25.386719 16.238281 25.308594 16.1875 25.238281 16.1875 C 24.402344 16.1875 23.5625 16.1875 22.722656 16.1875 C 22.605469 16.1875 22.546875 16.292969 22.5625 16.394531 C 22.667969 17.054688 22.773438 17.714844 22.878906 18.371094 C 22.890625 18.441406 22.972656 18.492188 23.039062 18.492188 C 23.914062 18.492188 24.789062 18.492188 25.660156 18.492188 C 25.742188 18.492188 25.792969 18.445312 25.8125 18.386719 C 25.824219 18.355469 25.828125 18.324219 25.820312 18.285156 Z M 21.820312 18.164062 C 21.121094 18.164062 20.425781 18.164062 19.726562 18.164062 C 19.691406 17.613281 19.65625 17.066406 19.625 16.515625 C 20.277344 16.515625 20.933594 16.515625 21.589844 16.515625 C 21.667969 17.066406 21.742188 17.613281 21.820312 18.164062 Z M 22.167969 18.285156 C 22.074219 17.625 21.984375 16.96875 21.890625 16.308594 C 21.882812 16.238281 21.796875 16.1875 21.734375 16.1875 C 20.972656 16.1875 20.210938 16.1875 19.449219 16.1875 C 19.363281 16.1875 19.277344 16.261719 19.28125 16.351562 C 19.324219 17.011719 19.363281 17.667969 19.40625 18.328125 C 19.410156 18.417969 19.476562 18.492188 19.570312 18.492188 C 20.382812 18.492188 21.195312 18.492188 22.007812 18.492188 C 22.113281 18.492188 22.167969 18.410156 22.167969 18.328125 C 22.167969 18.316406 22.171875 18.300781 22.167969 18.285156 Z M 18.339844 18.164062 C 17.582031 18.164062 16.820312 18.164062 16.058594 18.164062 C 16.042969 17.613281 16.023438 17.066406 16.007812 16.515625 C 16.75 16.515625 17.496094 16.515625 18.242188 16.515625 C 18.273438 17.066406 18.308594 17.613281 18.339844 18.164062 Z M 18.394531 16.1875 C 17.542969 16.1875 16.6875 16.1875 15.835938 16.1875 C 15.746094 16.1875 15.667969 16.261719 15.667969 16.351562 C 15.691406 17.011719 15.710938 17.667969 15.734375 18.328125 C 15.734375 18.417969 15.804688 18.492188 15.898438 18.492188 C 16.769531 18.492188 17.644531 18.492188 18.515625 18.492188 C 18.550781 18.492188 18.578125 18.484375 18.601562 18.46875 C 18.652344 18.449219 18.6875 18.402344 18.683594 18.328125 C 18.640625 17.667969 18.601562 17.011719 18.5625 16.351562 C 18.554688 16.265625 18.488281 16.1875 18.394531 16.1875 Z M 24.300781 12.742188 C 23.636719 12.742188 22.972656 12.742188 22.308594 12.742188 C 22.253906 12.398438 22.199219 12.054688 22.144531 11.710938 C 22.792969 11.710938 23.4375 11.710938 24.082031 11.710938 C 24.15625 12.054688 24.226562 12.398438 24.300781 12.742188 Z M 22.011719 12.949219 C 22.019531 13.015625 22.101562 13.066406 22.167969 13.066406 C 22.949219 13.066406 23.726562 13.066406 24.503906 13.066406 C 24.585938 13.066406 24.636719 13.019531 24.65625 12.960938 C 24.667969 12.933594 24.671875 12.898438 24.664062 12.859375 C 24.566406 12.410156 24.472656 11.957031 24.375 11.503906 C 24.359375 11.4375 24.285156 11.386719 24.214844 11.386719 C 23.460938 11.386719 22.707031 11.386719 21.953125 11.386719 C 21.835938 11.386719 21.777344 11.488281 21.792969 11.59375 C 21.867188 12.042969 21.9375 12.496094 22.011719 12.949219 Z M 21.0625 12.742188 C 20.46875 12.742188 19.871094 12.742188 19.273438 12.742188 C 19.242188 12.398438 19.210938 12.054688 19.183594 11.710938 C 19.761719 11.710938 20.339844 11.710938 20.917969 11.710938 C 20.96875 12.054688 21.015625 12.398438 21.0625 12.742188 Z M 21.25 13.066406 C 21.359375 13.066406 21.410156 12.988281 21.410156 12.90625 C 21.414062 12.890625 21.414062 12.875 21.410156 12.859375 C 21.347656 12.410156 21.285156 11.957031 21.222656 11.503906 C 21.210938 11.4375 21.128906 11.386719 21.0625 11.386719 C 20.375 11.386719 19.6875 11.386719 19 11.386719 C 18.917969 11.386719 18.828125 11.460938 18.835938 11.550781 C 18.875 12 18.917969 12.453125 18.957031 12.902344 C 18.964844 12.992188 19.027344 13.066406 19.121094 13.066406 C 19.832031 13.066406 20.542969 13.066406 21.25 13.066406 Z M 15.851562 11.710938 C 16.550781 11.710938 17.25 11.710938 17.949219 11.710938 C 17.96875 12.054688 17.988281 12.398438 18.007812 12.742188 C 17.300781 12.742188 16.59375 12.742188 15.886719 12.742188 C 15.875 12.398438 15.863281 12.054688 15.851562 11.710938 Z M 15.726562 13.066406 C 16.546875 13.066406 17.363281 13.066406 18.183594 13.066406 C 18.21875 13.066406 18.246094 13.058594 18.269531 13.046875 C 18.316406 13.023438 18.355469 12.976562 18.351562 12.902344 C 18.324219 12.453125 18.296875 12 18.269531 11.550781 C 18.265625 11.460938 18.199219 11.386719 18.101562 11.386719 C 17.296875 11.386719 16.488281 11.386719 15.683594 11.386719 C 15.59375 11.386719 15.511719 11.460938 15.515625 11.550781 C 15.53125 12 15.546875 12.453125 15.558594 12.902344 C 15.5625 12.992188 15.632812 13.066406 15.726562 13.066406 Z M 24.839844 15.273438 C 24.132812 15.273438 23.425781 15.273438 22.714844 15.273438 C 22.636719 14.78125 22.558594 14.289062 22.480469 13.796875 C 23.160156 13.796875 23.84375 13.796875 24.527344 13.796875 C 24.632812 14.289062 24.734375 14.78125 24.839844 15.273438 Z M 25.046875 15.601562 C 25.125 15.601562 25.175781 15.554688 25.195312 15.496094 C 25.207031 15.464844 25.214844 15.433594 25.203125 15.394531 C 25.078125 14.792969 24.949219 14.191406 24.820312 13.589844 C 24.804688 13.523438 24.730469 13.472656 24.660156 13.472656 C 23.871094 13.472656 23.078125 13.472656 22.289062 13.472656 C 22.171875 13.472656 22.109375 13.574219 22.128906 13.679688 C 22.222656 14.277344 22.320312 14.878906 22.414062 15.480469 C 22.425781 15.550781 22.507812 15.601562 22.574219 15.601562 C 23.398438 15.601562 24.222656 15.601562 25.046875 15.601562 Z M 21.417969 15.273438 C 20.777344 15.273438 20.140625 15.273438 19.5 15.273438 C 19.460938 14.78125 19.421875 14.289062 19.378906 13.796875 C 19.992188 13.796875 20.601562 13.796875 21.210938 13.796875 C 21.277344 14.289062 21.347656 14.78125 21.417969 15.273438 Z M 21.605469 15.601562 C 21.710938 15.601562 21.765625 15.519531 21.765625 15.4375 C 21.765625 15.425781 21.765625 15.410156 21.765625 15.394531 C 21.679688 14.792969 21.597656 14.191406 21.511719 13.589844 C 21.503906 13.523438 21.417969 13.472656 21.351562 13.472656 C 20.636719 13.472656 19.917969 13.472656 19.203125 13.472656 C 19.117188 13.472656 19.027344 13.546875 19.035156 13.636719 C 19.085938 14.234375 19.132812 14.835938 19.183594 15.4375 C 19.191406 15.523438 19.253906 15.601562 19.347656 15.601562 C 20.101562 15.601562 20.851562 15.601562 21.605469 15.601562 Z M 15.917969 13.796875 C 16.621094 13.796875 17.328125 13.796875 18.03125 13.796875 C 18.0625 14.289062 18.097656 14.78125 18.128906 15.273438 C 17.410156 15.273438 16.6875 15.273438 15.96875 15.273438 C 15.949219 14.78125 15.933594 14.289062 15.917969 13.796875 Z M 15.804688 15.601562 C 16.640625 15.601562 17.472656 15.601562 18.304688 15.601562 C 18.339844 15.601562 18.363281 15.59375 18.386719 15.578125 C 18.4375 15.558594 18.476562 15.511719 18.472656 15.4375 C 18.429688 14.835938 18.390625 14.234375 18.351562 13.636719 C 18.34375 13.546875 18.28125 13.472656 18.183594 13.472656 C 17.371094 13.472656 16.5625 13.472656 15.75 13.472656 C 15.660156 13.472656 15.582031 13.546875 15.582031 13.636719 C 15.601562 14.234375 15.621094 14.835938 15.640625 15.4375 C 15.644531 15.523438 15.714844 15.601562 15.804688 15.601562 " fill-opacity="1" fill-rule="nonzero"/></svg>