<svg xmlns="http://www.w3.org/2000/svg" xmlns:xlink="http://www.w3.org/1999/xlink" width="40" zoomAndPan="magnify" viewBox="0 0 30 30.000001" height="40" preserveAspectRatio="xMidYMid meet" version="1.0"><defs><clipPath id="375d10d223"><path d="M 1.933594 2.902344 L 28.066406 2.902344 L 28.066406 27 L 1.933594 27 Z M 1.933594 2.902344 " clip-rule="nonzero"/></clipPath><clipPath id="80974de13f"><path d="M 2 22 L 28 22 L 28 28.304688 L 2 28.304688 Z M 2 22 " clip-rule="nonzero"/></clipPath><clipPath id="15e492b958"><path d="M 1.933594 2.902344 L 28.066406 2.902344 L 28.066406 28.304688 L 1.933594 28.304688 Z M 1.933594 2.902344 " clip-rule="nonzero"/></clipPath></defs><g clip-path="url(#375d10d223)"><path fill="#91c5eb" d="M 28.015625 15.828125 C 28.015625 20.359375 25.652344 24.34375 22.082031 26.640625 C 20.863281 26.5 19.640625 26.382812 18.417969 26.285156 C 17.023438 25.9375 15.574219 25.824219 14.148438 25.734375 C 13.417969 25.6875 12.6875 25.644531 11.957031 25.585938 C 11.207031 25.527344 10.453125 25.472656 9.703125 25.464844 C 8.867188 25.457031 8.019531 25.507812 7.203125 25.695312 C 7 25.519531 6.699219 25.460938 6.441406 25.539062 C 3.710938 23.175781 1.984375 19.703125 1.984375 15.828125 C 1.984375 8.710938 7.8125 2.9375 15 2.9375 C 22.1875 2.9375 28.015625 8.710938 28.015625 15.828125 Z M 28.015625 15.828125 " fill-opacity="1" fill-rule="nonzero"/></g><path fill="#f9bdbd" d="M 9.109375 9.988281 C 9.28125 10.1875 9.636719 10.605469 9.535156 10.902344 C 9.496094 11.007812 9.398438 11.097656 9.136719 11.175781 C 8.90625 11.246094 8.546875 11.300781 7.984375 11.351562 C 7.058594 11.429688 6.453125 11.410156 5.621094 11.378906 C 5.335938 11.371094 5.007812 11.359375 4.636719 11.351562 C 4.269531 11.34375 3.976562 11.339844 3.746094 11.335938 C 3.238281 11.332031 3.007812 11.332031 2.867188 11.28125 C 2.925781 11.128906 2.984375 10.976562 3.050781 10.824219 C 3.082031 10.75 3.113281 10.675781 3.148438 10.605469 C 3.636719 9.511719 4.277344 8.5 5.050781 7.585938 C 5.238281 7.644531 5.386719 7.738281 5.46875 7.851562 C 5.582031 8.007812 5.589844 8.195312 5.59375 8.375 C 5.601562 8.574219 5.609375 8.757812 5.765625 8.855469 C 5.886719 8.933594 6.003906 8.894531 6.128906 8.851562 C 6.246094 8.8125 6.378906 8.769531 6.542969 8.8125 C 6.773438 8.871094 6.878906 9.050781 6.992188 9.238281 C 7.101562 9.417969 7.214844 9.609375 7.453125 9.667969 C 7.640625 9.714844 7.777344 9.644531 7.914062 9.578125 C 8.050781 9.507812 8.195312 9.4375 8.410156 9.476562 C 8.722656 9.535156 8.917969 9.765625 9.109375 9.988281 Z M 27.015625 10.964844 C 26.757812 10.972656 26.34375 11.132812 26.152344 11.441406 C 26.097656 11.539062 26.066406 11.636719 26.042969 11.722656 C 26.007812 11.851562 25.972656 11.976562 25.84375 12.042969 C 25.738281 12.097656 25.65625 12.078125 25.5625 12.050781 C 25.484375 12.027344 25.398438 12.003906 25.269531 12.011719 C 24.957031 12.03125 24.648438 12.230469 24.367188 12.585938 C 24.292969 12.683594 24.265625 12.742188 24.242188 12.792969 C 24.214844 12.851562 24.191406 12.90625 24.105469 12.996094 C 23.957031 13.152344 23.828125 13.207031 23.703125 13.257812 C 23.597656 13.300781 23.5 13.339844 23.398438 13.4375 C 23.152344 13.667969 23.027344 14.058594 23.144531 14.238281 C 23.285156 14.460938 23.808594 14.382812 24.089844 14.339844 C 24.109375 14.335938 24.128906 14.335938 24.148438 14.332031 C 24.4375 14.289062 24.710938 14.273438 24.964844 14.273438 C 25.761719 14.273438 26.398438 14.441406 26.894531 14.574219 C 27.335938 14.691406 27.667969 14.777344 27.929688 14.71875 C 27.820312 13.425781 27.515625 12.167969 27.015625 10.964844 Z M 27.015625 10.964844 " fill-opacity="1" fill-rule="nonzero"/><path fill="#72bf80" d="M 27.828125 17.785156 C 27.667969 18.828125 27.375 19.84375 26.957031 20.824219 C 26.585938 21.6875 26.125 22.503906 25.582031 23.265625 C 25.089844 22.988281 24.640625 22.746094 24.449219 22.667969 C 24.429688 22.660156 24.40625 22.652344 24.382812 22.648438 C 24.371094 22.644531 24.359375 22.644531 24.347656 22.640625 C 24.210938 22.78125 24.125 22.871094 24.125 22.871094 L 23.101562 24.074219 L 20.664062 24.976562 L 17.171875 24.765625 L 13.835938 25.183594 L 12.464844 24.65625 C 12.144531 24.6875 11.761719 24.722656 11.308594 24.765625 C 6.109375 25.242188 6.109375 25.242188 6.109375 25.242188 C 6.109375 25.242188 5.832031 24.25 5.667969 23.925781 C 5.617188 23.816406 5.539062 23.554688 5.457031 23.246094 C 5.183594 23.34375 4.902344 23.445312 4.625 23.546875 C 3.988281 22.710938 3.457031 21.796875 3.039062 20.824219 C 2.769531 20.191406 2.554688 19.546875 2.390625 18.886719 L 4.921875 17.828125 C 5.453125 17.605469 6.054688 17.628906 6.566406 17.878906 C 6.671875 17.929688 6.777344 17.992188 6.875 18.066406 L 7.191406 18.300781 L 7.648438 18.636719 L 8.476562 19.253906 L 9.648438 20.515625 C 9.707031 20.472656 9.78125 20.417969 9.871094 20.355469 L 9.617188 19.703125 L 9.75 19.71875 C 9.808594 19.726562 9.867188 19.730469 9.925781 19.730469 C 10.253906 19.730469 10.570312 19.625 10.832031 19.421875 L 14.054688 16.921875 C 14.1875 16.820312 14.328125 16.738281 14.476562 16.671875 L 14.472656 16.917969 L 15.25 16.570312 L 15.246094 16.507812 C 15.289062 16.507812 15.335938 16.507812 15.378906 16.511719 C 15.714844 16.527344 16.042969 16.628906 16.339844 16.8125 L 18.859375 18.40625 L 18.828125 18.425781 L 19.671875 18.894531 C 19.949219 19 20.269531 18.976562 20.53125 18.820312 L 21.425781 18.277344 L 21.417969 18.53125 L 21.789062 18.058594 L 21.921875 17.980469 L 22.039062 17.980469 L 22.066406 17.996094 L 22.941406 17.800781 L 22.378906 17.703125 L 24.035156 16.703125 C 24.304688 16.539062 24.601562 16.445312 24.898438 16.417969 C 25.320312 16.382812 25.75 16.484375 26.121094 16.71875 Z M 27.828125 17.785156 " fill-opacity="1" fill-rule="nonzero"/><g clip-path="url(#80974de13f)"><path fill="#5daa5b" d="M 27.34375 24.347656 C 27.34375 24.347656 23.160156 27.101562 23.0625 27.132812 C 22.96875 27.167969 20.152344 27.710938 20.152344 27.710938 L 17.238281 26.78125 L 13.066406 28.253906 L 9.246094 26.878906 L 8.113281 27.390625 L 5.492188 26.621094 L 2.578125 24.34375 C 2.578125 24.34375 7.019531 22.597656 7.433594 22.699219 C 7.84375 22.800781 9.449219 23.597656 10.304688 23.519531 C 11.160156 23.445312 12.1875 23.039062 12.734375 23.171875 C 13.28125 23.308594 14.648438 24.121094 15.503906 23.953125 C 16.359375 23.78125 19.234375 22.664062 19.882812 22.867188 C 20.535156 23.070312 21.148438 23.597656 21.902344 23.519531 C 22.65625 23.445312 23.886719 22.488281 24.398438 22.695312 C 24.914062 22.902344 27.34375 24.347656 27.34375 24.347656 Z M 27.34375 24.347656 " fill-opacity="1" fill-rule="nonzero"/></g><path fill="#f9bdbd" d="M 14.175781 11.828125 L 15.621094 11.828125 L 15.621094 13.191406 L 14.175781 13.191406 Z M 14.175781 11.828125 " fill-opacity="1" fill-rule="nonzero"/><path fill="#f9bdbd" d="M 15.125 13.191406 L 14.632812 13.191406 L 14.324219 24.152344 C 14.324219 24.207031 14.582031 24.25 14.898438 24.25 C 15.214844 24.25 15.46875 24.207031 15.46875 24.152344 Z M 15.125 13.191406 " fill-opacity="1" fill-rule="nonzero"/><path fill="#f9bdbd" d="M 14.832031 12.292969 L 12.597656 9.324219 C 12.597656 9.320312 12.597656 9.320312 12.597656 9.316406 L 11.339844 5.175781 C 11.335938 5.15625 11.363281 5.140625 11.375 5.160156 L 13.886719 8.714844 C 13.886719 8.714844 13.886719 8.71875 13.886719 8.71875 L 14.863281 12.277344 C 14.871094 12.296875 14.84375 12.308594 14.832031 12.292969 Z M 14.832031 12.292969 " fill-opacity="1" fill-rule="nonzero"/><path fill="#f9bdbd" d="M 15.175781 12.449219 C 15.175781 12.527344 15.148438 12.59375 15.09375 12.648438 C 15.039062 12.703125 14.96875 12.730469 14.890625 12.730469 C 14.8125 12.730469 14.746094 12.703125 14.691406 12.648438 C 14.632812 12.59375 14.605469 12.527344 14.605469 12.449219 C 14.605469 12.371094 14.632812 12.304688 14.691406 12.25 C 14.746094 12.195312 14.8125 12.167969 14.890625 12.167969 C 14.96875 12.167969 15.039062 12.195312 15.09375 12.25 C 15.148438 12.304688 15.175781 12.371094 15.175781 12.449219 Z M 15.175781 12.449219 " fill-opacity="1" fill-rule="nonzero"/><path fill="#f9bdbd" d="M 9.773438 18.480469 L 11.621094 15.261719 C 11.621094 15.261719 11.621094 15.261719 11.625 15.257812 L 14.949219 12.453125 C 14.964844 12.441406 14.988281 12.460938 14.976562 12.480469 L 12.699219 16.183594 C 12.699219 16.1875 12.699219 16.1875 12.695312 16.191406 L 9.800781 18.503906 C 9.785156 18.519531 9.761719 18.5 9.773438 18.480469 Z M 9.773438 18.480469 " fill-opacity="1" fill-rule="nonzero"/><path fill="#f9bdbd" d="M 18.492188 12.871094 L 14.785156 12.515625 C 14.765625 12.515625 14.761719 12.484375 14.785156 12.480469 L 18.378906 11.464844 C 18.378906 11.464844 18.382812 11.464844 18.382812 11.464844 L 22.738281 11.769531 C 22.761719 11.769531 22.765625 11.800781 22.742188 11.804688 L 18.496094 12.871094 C 18.496094 12.871094 18.492188 12.871094 18.492188 12.871094 Z M 9.199219 18.757812 C 9.199219 18.757812 9.199219 18.753906 9.199219 18.753906 L 7.835938 17.195312 L 7.882812 17.195312 L 7.882812 16.351562 L 7.628906 16.351562 L 8.328125 14.753906 C 8.328125 14.753906 8.328125 14.75 8.328125 14.75 L 8.5 12.074219 C 8.5 12.0625 8.480469 12.058594 8.476562 12.070312 L 7.472656 14.550781 C 7.46875 14.550781 7.46875 14.550781 7.46875 14.554688 L 7.410156 16.351562 L 6.992188 16.351562 L 6.992188 16.738281 L 4.988281 16.648438 C 4.988281 16.648438 4.988281 16.648438 4.984375 16.648438 L 2.398438 17.4375 C 2.386719 17.441406 2.390625 17.460938 2.402344 17.460938 L 5.097656 17.515625 C 5.101562 17.515625 5.101562 17.515625 5.101562 17.511719 L 6.992188 16.875 L 6.992188 17.195312 L 7.273438 17.195312 L 7.082031 23.96875 C 7.082031 24 7.242188 24.027344 7.4375 24.027344 C 7.632812 24.027344 7.789062 24 7.789062 23.96875 L 7.578125 17.195312 L 7.597656 17.195312 L 8.441406 19.203125 C 8.441406 19.207031 8.445312 19.207031 8.445312 19.207031 L 10.007812 20.894531 C 10.015625 20.902344 10.03125 20.894531 10.027344 20.882812 Z M 25.695312 19.171875 L 23.566406 17.949219 C 23.566406 17.949219 23.566406 17.949219 23.5625 17.949219 L 22.023438 17.679688 L 22.023438 17.179688 L 21.644531 17.179688 L 21.972656 15.464844 C 21.972656 15.460938 21.972656 15.460938 21.972656 15.460938 L 21.589844 13.046875 C 21.589844 13.035156 21.570312 13.035156 21.570312 13.046875 L 21.171875 15.449219 C 21.171875 15.449219 21.171875 15.453125 21.171875 15.453125 L 21.5 17.179688 L 21.210938 17.179688 L 21.210938 17.707031 L 19.199219 18.21875 C 19.195312 18.21875 19.195312 18.222656 19.195312 18.222656 L 17.457031 19.398438 C 17.449219 19.40625 17.453125 19.421875 17.464844 19.417969 L 19.507812 18.953125 C 19.507812 18.953125 19.511719 18.953125 19.511719 18.953125 L 21.210938 17.871094 L 21.210938 17.945312 L 21.46875 17.945312 L 21.292969 24.121094 C 21.292969 24.152344 21.4375 24.175781 21.617188 24.175781 C 21.792969 24.175781 21.9375 24.152344 21.9375 24.121094 L 21.746094 17.945312 L 22.023438 17.945312 L 22.023438 17.933594 L 23.269531 18.691406 C 23.269531 18.691406 23.269531 18.691406 23.273438 18.691406 L 25.6875 19.191406 C 25.699219 19.191406 25.707031 19.175781 25.695312 19.171875 Z M 25.695312 19.171875 " fill-opacity="1" fill-rule="nonzero"/><g clip-path="url(#15e492b958)"><path fill="#000000" d="M 27.390625 24.324219 C 27.285156 24.257812 26.421875 23.746094 25.644531 23.308594 C 26.191406 22.546875 26.65625 21.726562 27.027344 20.859375 C 27.707031 19.265625 28.050781 17.570312 28.050781 15.828125 C 28.050781 14.082031 27.707031 12.390625 27.023438 10.796875 C 26.367188 9.257812 25.425781 7.875 24.226562 6.6875 C 23.03125 5.503906 21.632812 4.570312 20.078125 3.917969 C 18.472656 3.246094 16.761719 2.902344 15 2.902344 C 13.238281 2.902344 11.527344 3.246094 9.921875 3.917969 C 8.367188 4.570312 6.96875 5.503906 5.773438 6.6875 C 4.628906 7.820312 3.722656 9.125 3.070312 10.574219 C 3.039062 10.648438 3.007812 10.722656 2.976562 10.796875 C 2.292969 12.390625 1.949219 14.082031 1.949219 15.828125 C 1.949219 17.570312 2.292969 19.265625 2.976562 20.859375 C 3.390625 21.832031 3.921875 22.742188 4.558594 23.582031 C 3.992188 23.789062 3.46875 23.992188 3.101562 24.132812 C 2.835938 24.234375 2.65625 24.304688 2.609375 24.324219 L 2.59375 24.324219 L 2.578125 24.371094 L 5.507812 26.664062 L 5.511719 26.664062 L 5.515625 26.667969 L 8.140625 27.4375 L 8.152344 27.441406 L 9.285156 26.929688 L 13.089844 28.300781 L 13.101562 28.304688 L 17.277344 26.832031 L 20.175781 27.757812 L 20.183594 27.761719 L 20.207031 27.757812 C 20.308594 27.738281 20.488281 27.703125 20.714844 27.65625 C 21.566406 27.492188 23.042969 27.203125 23.113281 27.179688 C 23.210938 27.148438 26.703125 24.851562 27.398438 24.390625 L 27.421875 24.375 L 27.40625 24.324219 Z M 26.957031 20.828125 C 26.589844 21.695312 26.128906 22.511719 25.582031 23.273438 C 25.089844 22.996094 24.640625 22.75 24.453125 22.675781 C 24.429688 22.664062 24.40625 22.660156 24.386719 22.652344 C 24.078125 22.585938 23.605469 22.816406 23.101562 23.058594 C 22.699219 23.253906 22.285156 23.453125 21.960938 23.492188 L 21.789062 18.066406 L 21.921875 17.984375 L 22.042969 17.984375 L 23.253906 18.722656 C 23.261719 18.726562 23.265625 18.726562 23.269531 18.730469 L 25.6875 19.226562 C 25.691406 19.226562 25.691406 19.230469 25.695312 19.230469 C 25.714844 19.230469 25.734375 19.21875 25.742188 19.199219 C 25.75 19.175781 25.742188 19.152344 25.71875 19.140625 L 25.582031 19.0625 L 23.589844 17.921875 C 23.585938 17.917969 23.582031 17.917969 23.574219 17.917969 L 22.382812 17.707031 L 24.035156 16.707031 C 24.304688 16.542969 24.601562 16.449219 24.902344 16.425781 C 25.320312 16.386719 25.75 16.488281 26.125 16.722656 L 27.828125 17.789062 C 27.667969 18.832031 27.375 19.851562 26.957031 20.828125 Z M 7.671875 17.253906 L 7.503906 16.847656 C 7.503906 16.84375 7.507812 16.839844 7.511719 16.835938 L 9.15625 18.722656 L 9.933594 20.722656 L 8.464844 19.136719 Z M 8.363281 19.082031 L 7.691406 18.585938 L 7.648438 18.554688 L 7.605469 17.28125 Z M 7.835938 17.097656 L 7.550781 16.773438 C 7.566406 16.714844 7.554688 16.65625 7.519531 16.609375 L 7.640625 16.335938 L 7.835938 16.335938 Z M 7.460938 16.5625 C 7.453125 16.558594 7.445312 16.554688 7.4375 16.554688 C 7.433594 16.550781 7.429688 16.550781 7.421875 16.550781 L 7.492188 14.507812 L 8.441406 12.171875 L 8.28125 14.691406 Z M 7.351562 16.546875 C 7.289062 16.558594 7.238281 16.601562 7.214844 16.664062 L 7.015625 16.652344 L 7.015625 16.335938 L 7.359375 16.335938 Z M 7.144531 16.730469 L 5.082031 17.425781 L 2.542969 17.375 L 4.980469 16.632812 L 7.011719 16.726562 Z M 7.015625 16.851562 L 7.21875 16.78125 C 7.238281 16.828125 7.277344 16.867188 7.328125 16.886719 C 7.367188 16.898438 7.40625 16.894531 7.441406 16.882812 L 7.535156 17.109375 L 7.015625 17.109375 Z M 7.296875 17.179688 L 7.53125 17.179688 L 7.742188 23.902344 C 7.714844 23.917969 7.605469 23.941406 7.425781 23.941406 C 7.246094 23.941406 7.136719 23.917969 7.109375 23.902344 Z M 7.648438 18.644531 L 8.480469 19.257812 L 9.96875 20.867188 C 9.976562 20.875 9.992188 20.882812 10.003906 20.882812 C 10.011719 20.882812 10.019531 20.878906 10.027344 20.875 C 10.050781 20.859375 10.058594 20.839844 10.046875 20.816406 L 9.617188 19.710938 L 9.75 19.726562 C 9.808594 19.734375 9.871094 19.738281 9.929688 19.738281 C 10.253906 19.738281 10.570312 19.628906 10.832031 19.425781 L 14.058594 16.929688 C 14.1875 16.824219 14.332031 16.742188 14.480469 16.679688 L 14.28125 23.738281 C 13.992188 23.636719 13.710938 23.519531 13.464844 23.414062 C 13.1875 23.292969 12.949219 23.191406 12.78125 23.152344 C 12.445312 23.066406 11.941406 23.183594 11.410156 23.304688 C 11.074219 23.378906 10.726562 23.457031 10.40625 23.492188 C 10.382812 23.492188 10.363281 23.496094 10.339844 23.496094 C 9.730469 23.550781 8.726562 23.152344 8.058594 22.890625 C 7.957031 22.847656 7.863281 22.8125 7.78125 22.78125 Z M 14.648438 13.207031 L 15.070312 13.207031 L 15.414062 24.125 C 15.382812 24.152344 15.203125 24.195312 14.878906 24.195312 C 14.554688 24.195312 14.371094 24.152344 14.34375 24.125 Z M 14.457031 13.207031 L 12.652344 16.144531 L 9.832031 18.402344 L 11.632812 15.261719 L 14.167969 13.125 L 14.242188 13.0625 L 14.710938 12.664062 C 14.730469 12.675781 14.75 12.6875 14.769531 12.691406 L 14.5 13.136719 L 14.488281 13.136719 C 14.476562 13.160156 14.464844 13.183594 14.453125 13.207031 Z M 15.152344 12.386719 L 15.5625 12.269531 L 15.5625 12.273438 C 15.5625 12.273438 15.566406 12.269531 15.566406 12.269531 L 18.367188 11.480469 L 22.613281 11.777344 L 18.472656 12.816406 L 15.585938 12.539062 C 15.582031 12.53125 15.574219 12.527344 15.570312 12.519531 C 15.566406 12.519531 15.566406 12.515625 15.5625 12.515625 L 15.5625 12.535156 L 15.148438 12.496094 C 15.152344 12.476562 15.15625 12.453125 15.15625 12.429688 C 15.15625 12.414062 15.15625 12.402344 15.152344 12.386719 Z M 15.5625 12.195312 L 15.132812 12.316406 C 15.089844 12.21875 14.988281 12.148438 14.871094 12.148438 C 14.867188 12.148438 14.859375 12.148438 14.855469 12.148438 L 14.769531 11.84375 L 15.5625 11.84375 Z M 14.78125 12.160156 C 14.78125 12.164062 14.777344 12.164062 14.777344 12.164062 L 14.503906 11.804688 L 12.609375 9.285156 L 11.386719 5.246094 L 13.835938 8.710938 L 14.679688 11.792969 Z M 14.710938 12.195312 C 14.636719 12.25 14.585938 12.332031 14.585938 12.429688 C 14.585938 12.5 14.613281 12.566406 14.65625 12.617188 L 14.195312 13.007812 L 14.195312 11.847656 L 14.445312 11.847656 Z M 14.832031 12.730469 L 14.847656 12.710938 C 14.855469 12.710938 14.863281 12.710938 14.871094 12.710938 C 14.980469 12.710938 15.074219 12.652344 15.121094 12.566406 L 15.140625 12.566406 L 15.5625 12.609375 L 15.5625 13.136719 L 14.585938 13.136719 Z M 15.246094 16.511719 C 15.292969 16.511719 15.335938 16.511719 15.378906 16.515625 C 15.714844 16.53125 16.042969 16.632812 16.339844 16.820312 L 18.859375 18.410156 L 17.441406 19.371094 C 17.421875 19.386719 17.417969 19.40625 17.425781 19.429688 C 17.433594 19.445312 17.449219 19.457031 17.46875 19.457031 C 17.472656 19.457031 17.476562 19.457031 17.480469 19.457031 L 19.523438 18.992188 C 19.527344 18.988281 19.53125 18.988281 19.535156 18.984375 L 19.671875 18.898438 C 19.949219 19.007812 20.273438 18.984375 20.53125 18.824219 L 21.425781 18.285156 L 21.28125 23.421875 C 21.042969 23.347656 20.8125 23.238281 20.589844 23.128906 C 20.375 23.023438 20.152344 22.914062 19.933594 22.847656 C 19.882812 22.828125 19.820312 22.820312 19.746094 22.820312 C 19.175781 22.804688 17.976562 23.1875 16.902344 23.527344 C 16.320312 23.714844 15.820312 23.871094 15.535156 23.929688 C 15.519531 23.933594 15.5 23.933594 15.480469 23.9375 Z M 21.4375 17.984375 L 21.429688 18.199219 L 20.492188 18.765625 C 20.269531 18.902344 19.996094 18.929688 19.75 18.851562 L 21.179688 17.941406 L 21.179688 17.984375 Z M 21.25 17.914062 L 21.25 17.894531 L 21.535156 17.714844 C 21.558594 17.722656 21.582031 17.722656 21.605469 17.71875 L 21.910156 17.90625 L 21.898438 17.914062 Z M 21.683594 17.683594 C 21.695312 17.679688 21.703125 17.671875 21.707031 17.660156 L 23.558594 17.988281 L 25.546875 19.125 L 23.289062 18.660156 L 22.078125 17.925781 Z M 21.992188 17.640625 L 21.738281 17.59375 C 21.753906 17.519531 21.714844 17.445312 21.640625 17.414062 L 21.679688 17.21875 L 21.992188 17.21875 Z M 21.578125 17.367188 L 21.53125 17.132812 L 21.210938 15.453125 L 21.582031 13.210938 L 21.941406 15.464844 Z M 21.511719 17.417969 C 21.476562 17.4375 21.445312 17.472656 21.429688 17.515625 C 21.417969 17.550781 21.417969 17.585938 21.429688 17.617188 L 21.25 17.664062 L 21.25 17.21875 L 21.476562 17.21875 Z M 21.441406 17.691406 L 19.707031 18.789062 L 19.5 18.921875 L 17.59375 19.355469 L 18.925781 18.453125 C 18.929688 18.453125 18.929688 18.453125 18.929688 18.453125 L 19.214844 18.257812 Z M 21.5 18.285156 L 21.5 18.199219 L 21.507812 17.984375 L 21.714844 17.984375 L 21.90625 24.113281 C 21.878906 24.125 21.78125 24.144531 21.621094 24.144531 C 21.464844 24.144531 21.363281 24.125 21.335938 24.113281 Z M 27.929688 14.71875 C 27.667969 14.78125 27.335938 14.691406 26.894531 14.574219 C 26.398438 14.441406 25.761719 14.273438 24.964844 14.273438 C 24.710938 14.273438 24.4375 14.292969 24.148438 14.332031 C 24.132812 14.335938 24.113281 14.339844 24.089844 14.339844 C 23.808594 14.382812 23.285156 14.460938 23.144531 14.238281 C 23.027344 14.058594 23.152344 13.667969 23.398438 13.4375 C 23.5 13.339844 23.597656 13.300781 23.703125 13.257812 C 23.828125 13.207031 23.957031 13.152344 24.105469 12.996094 C 24.191406 12.90625 24.214844 12.851562 24.242188 12.792969 C 24.265625 12.742188 24.292969 12.683594 24.367188 12.585938 C 24.648438 12.230469 24.957031 12.03125 25.269531 12.011719 C 25.398438 12.003906 25.484375 12.027344 25.5625 12.050781 C 25.65625 12.078125 25.738281 12.101562 25.84375 12.042969 C 25.972656 11.976562 26.007812 11.855469 26.042969 11.722656 C 26.066406 11.636719 26.097656 11.539062 26.152344 11.441406 C 26.34375 11.132812 26.757812 10.972656 27.015625 10.964844 C 27.515625 12.167969 27.820312 13.425781 27.929688 14.71875 Z M 3.042969 10.824219 C 3.074219 10.75 3.105469 10.675781 3.136719 10.605469 C 3.628906 9.511719 4.265625 8.5 5.039062 7.585938 C 5.226562 7.644531 5.375 7.738281 5.457031 7.851562 C 5.570312 8.007812 5.578125 8.195312 5.585938 8.375 C 5.589844 8.574219 5.597656 8.757812 5.753906 8.855469 C 5.878906 8.933594 5.996094 8.894531 6.121094 8.851562 C 6.234375 8.8125 6.367188 8.769531 6.53125 8.8125 C 6.761719 8.871094 6.867188 9.050781 6.980469 9.238281 C 7.089844 9.417969 7.203125 9.609375 7.441406 9.667969 C 7.628906 9.714844 7.769531 9.644531 7.902344 9.578125 C 8.042969 9.507812 8.183594 9.4375 8.402344 9.476562 C 8.710938 9.535156 8.910156 9.765625 9.097656 9.988281 C 9.269531 10.1875 9.625 10.605469 9.523438 10.902344 C 9.488281 11.007812 9.390625 11.097656 9.128906 11.175781 C 8.894531 11.246094 8.535156 11.300781 7.972656 11.351562 C 7.046875 11.433594 6.445312 11.410156 5.613281 11.382812 C 5.324219 11.371094 5 11.359375 4.625 11.351562 C 4.257812 11.34375 3.96875 11.339844 3.734375 11.335938 C 3.226562 11.332031 2.996094 11.332031 2.855469 11.28125 C 2.914062 11.128906 2.976562 10.976562 3.042969 10.824219 Z M 2.023438 15.828125 C 2.023438 14.28125 2.292969 12.777344 2.832031 11.351562 C 2.988281 11.402344 3.226562 11.40625 3.734375 11.410156 C 3.96875 11.414062 4.257812 11.414062 4.625 11.421875 C 4.996094 11.429688 5.324219 11.441406 5.609375 11.453125 C 6.011719 11.46875 6.359375 11.480469 6.714844 11.480469 C 7.101562 11.480469 7.496094 11.464844 7.980469 11.421875 C 8.542969 11.375 8.90625 11.316406 9.148438 11.246094 C 9.441406 11.15625 9.550781 11.054688 9.59375 10.925781 C 9.707031 10.589844 9.335938 10.152344 9.15625 9.941406 C 8.964844 9.71875 8.75 9.46875 8.414062 9.40625 C 8.175781 9.363281 8.011719 9.441406 7.871094 9.511719 C 7.738281 9.578125 7.621094 9.636719 7.460938 9.597656 C 7.25 9.546875 7.148438 9.378906 7.042969 9.199219 C 6.929688 9.007812 6.808594 8.808594 6.550781 8.742188 C 6.363281 8.695312 6.222656 8.742188 6.097656 8.785156 C 5.980469 8.824219 5.886719 8.855469 5.792969 8.792969 C 5.667969 8.71875 5.664062 8.558594 5.65625 8.375 C 5.652344 8.191406 5.644531 7.984375 5.515625 7.808594 C 5.417969 7.671875 5.265625 7.582031 5.09375 7.523438 C 5.324219 7.253906 5.566406 6.992188 5.820312 6.738281 C 7.015625 5.558594 8.402344 4.632812 9.945312 3.984375 C 11.546875 3.316406 13.25 2.976562 15 2.976562 C 16.75 2.976562 18.453125 3.316406 20.050781 3.984375 C 21.597656 4.632812 22.984375 5.558594 24.175781 6.738281 C 25.367188 7.917969 26.304688 9.292969 26.957031 10.824219 C 26.96875 10.847656 26.976562 10.871094 26.988281 10.894531 C 26.707031 10.914062 26.285156 11.085938 26.089844 11.40625 C 26.027344 11.511719 26 11.613281 25.972656 11.703125 C 25.9375 11.828125 25.910156 11.925781 25.808594 11.980469 C 25.730469 12.023438 25.671875 12.007812 25.582031 11.980469 C 25.5 11.960938 25.402344 11.933594 25.265625 11.941406 C 24.933594 11.960938 24.601562 12.167969 24.308594 12.542969 C 24.230469 12.644531 24.199219 12.707031 24.175781 12.761719 C 24.148438 12.820312 24.128906 12.863281 24.050781 12.945312 C 23.914062 13.089844 23.792969 13.140625 23.671875 13.191406 C 23.566406 13.234375 23.460938 13.277344 23.347656 13.386719 C 23.101562 13.617188 22.933594 14.046875 23.082031 14.277344 C 23.25 14.539062 23.78125 14.460938 24.101562 14.414062 C 24.121094 14.410156 24.140625 14.40625 24.15625 14.402344 C 25.332031 14.234375 26.222656 14.472656 26.875 14.644531 C 27.214844 14.734375 27.5 14.808594 27.742188 14.808594 C 27.8125 14.808594 27.875 14.804688 27.933594 14.792969 C 27.964844 15.132812 27.976562 15.480469 27.976562 15.828125 C 27.976562 16.464844 27.929688 17.09375 27.839844 17.714844 L 26.160156 16.664062 C 25.773438 16.421875 25.328125 16.316406 24.894531 16.355469 C 24.582031 16.378906 24.277344 16.476562 23.996094 16.648438 L 22.273438 17.6875 L 22.066406 17.652344 L 22.066406 17.144531 L 21.691406 17.144531 L 22.015625 15.472656 C 22.015625 15.46875 22.015625 15.460938 22.015625 15.457031 L 21.65625 13.199219 L 21.632812 13.042969 C 21.628906 13.019531 21.609375 13.003906 21.585938 13.003906 C 21.5625 13.003906 21.542969 13.019531 21.539062 13.042969 L 21.140625 15.445312 C 21.140625 15.453125 21.140625 15.457031 21.140625 15.460938 L 21.460938 17.144531 L 21.179688 17.144531 L 21.179688 17.679688 L 19.195312 18.1875 C 19.1875 18.1875 19.183594 18.191406 19.179688 18.195312 L 19.175781 18.195312 L 18.925781 18.367188 L 16.378906 16.757812 C 16.070312 16.566406 15.730469 16.460938 15.382812 16.445312 C 15.335938 16.441406 15.289062 16.441406 15.242188 16.441406 L 15.140625 13.207031 L 15.636719 13.207031 L 15.636719 12.617188 L 18.464844 12.886719 C 18.46875 12.886719 18.46875 12.886719 18.472656 12.886719 C 18.476562 12.886719 18.480469 12.886719 18.484375 12.886719 L 22.628906 11.847656 L 22.730469 11.820312 C 22.757812 11.8125 22.777344 11.789062 22.773438 11.761719 C 22.769531 11.734375 22.75 11.714844 22.722656 11.710938 L 18.367188 11.40625 C 18.359375 11.40625 18.355469 11.40625 18.347656 11.410156 L 15.636719 12.175781 L 15.636719 11.773438 L 14.75 11.773438 L 13.902344 8.691406 C 13.902344 8.683594 13.898438 8.679688 13.894531 8.675781 L 11.386719 5.117188 C 11.371094 5.097656 11.339844 5.089844 11.316406 5.101562 C 11.292969 5.113281 11.28125 5.140625 11.289062 5.164062 L 12.542969 9.308594 C 12.542969 9.3125 12.546875 9.320312 12.550781 9.324219 L 14.394531 11.773438 L 14.121094 11.773438 L 14.121094 13.070312 L 11.582031 15.210938 C 11.578125 15.214844 11.574219 15.21875 11.570312 15.226562 L 9.722656 18.441406 C 9.710938 18.464844 9.714844 18.496094 9.738281 18.511719 C 9.746094 18.519531 9.757812 18.523438 9.773438 18.523438 C 9.785156 18.523438 9.796875 18.519531 9.808594 18.511719 L 12.699219 16.195312 C 12.707031 16.191406 12.710938 16.1875 12.714844 16.183594 L 14.542969 13.207031 L 14.578125 13.207031 L 14.480469 16.597656 C 14.472656 16.601562 14.460938 16.605469 14.453125 16.613281 C 14.296875 16.679688 14.148438 16.765625 14.011719 16.871094 L 10.789062 19.367188 C 10.496094 19.597656 10.128906 19.695312 9.761719 19.652344 L 9.589844 19.632812 L 9.222656 18.691406 C 9.21875 18.6875 9.21875 18.683594 9.214844 18.675781 L 9.210938 18.675781 L 7.90625 17.179688 L 7.90625 16.265625 L 7.671875 16.265625 L 8.347656 14.714844 C 8.347656 14.710938 8.351562 14.703125 8.351562 14.699219 L 8.511719 12.175781 L 8.523438 12.023438 C 8.523438 12 8.507812 11.980469 8.484375 11.976562 C 8.464844 11.96875 8.441406 11.980469 8.429688 12.003906 L 7.425781 14.484375 C 7.421875 14.488281 7.421875 14.492188 7.421875 14.5 L 7.363281 16.265625 L 6.945312 16.265625 L 6.945312 16.648438 L 4.980469 16.558594 C 4.972656 16.558594 4.96875 16.558594 4.964844 16.5625 L 2.523438 17.304688 L 2.375 17.351562 C 2.351562 17.355469 2.339844 17.378906 2.34375 17.402344 C 2.347656 17.425781 2.367188 17.441406 2.390625 17.441406 L 5.085938 17.496094 C 5.09375 17.496094 5.097656 17.496094 5.101562 17.492188 L 5.109375 17.492188 L 6.945312 16.871094 L 6.945312 17.175781 L 7.226562 17.175781 L 7.195312 18.21875 L 6.917969 18.011719 C 6.816406 17.9375 6.710938 17.871094 6.597656 17.816406 C 6.070312 17.558594 5.445312 17.535156 4.894531 17.765625 L 2.375 18.820312 C 2.140625 17.847656 2.023438 16.847656 2.023438 15.828125 Z M 3.042969 20.828125 C 2.769531 20.199219 2.554688 19.550781 2.390625 18.890625 L 4.921875 17.835938 C 5.453125 17.613281 6.054688 17.636719 6.566406 17.882812 C 6.671875 17.9375 6.777344 18 6.875 18.070312 L 7.191406 18.304688 L 7.070312 22.734375 C 7.0625 22.738281 7.054688 22.738281 7.050781 22.742188 C 6.492188 22.882812 5.519531 23.226562 4.628906 23.554688 C 3.988281 22.714844 3.457031 21.804688 3.042969 20.828125 Z M 3.128906 24.199219 C 4.300781 23.746094 6.222656 23.027344 7.066406 22.808594 L 7.035156 23.914062 C 7.035156 24 7.28125 24.011719 7.425781 24.011719 C 7.570312 24.011719 7.816406 24 7.816406 23.914062 L 7.78125 22.859375 C 7.859375 22.886719 7.941406 22.917969 8.03125 22.957031 C 8.660156 23.207031 9.59375 23.574219 10.222656 23.574219 C 10.265625 23.574219 10.308594 23.570312 10.347656 23.570312 C 10.367188 23.566406 10.390625 23.5625 10.410156 23.5625 C 10.738281 23.527344 11.085938 23.449219 11.425781 23.371094 C 11.949219 23.253906 12.445312 23.140625 12.761719 23.21875 C 12.925781 23.261719 13.160156 23.363281 13.4375 23.480469 C 13.691406 23.585938 13.980469 23.710938 14.277344 23.8125 L 14.269531 24.132812 C 14.269531 24.261719 14.777344 24.265625 14.878906 24.265625 C 14.980469 24.265625 15.488281 24.261719 15.488281 24.132812 L 15.484375 24.011719 C 15.503906 24.007812 15.527344 24.003906 15.550781 24 C 15.835938 23.941406 16.339844 23.78125 16.925781 23.597656 C 17.945312 23.273438 19.1875 22.878906 19.742188 22.890625 C 19.808594 22.894531 19.867188 22.902344 19.910156 22.914062 C 20.125 22.984375 20.335938 23.085938 20.554688 23.191406 C 20.789062 23.304688 21.03125 23.421875 21.28125 23.496094 L 21.261719 24.125 C 21.261719 24.199219 21.457031 24.214844 21.621094 24.214844 C 21.785156 24.214844 21.980469 24.199219 21.980469 24.121094 L 21.964844 23.566406 C 22.300781 23.527344 22.722656 23.320312 23.132812 23.125 C 23.605469 22.898438 24.089844 22.660156 24.371094 22.722656 C 24.390625 22.726562 24.40625 22.734375 24.421875 22.742188 C 24.867188 22.917969 26.765625 24.035156 27.25 24.324219 L 2.808594 24.324219 C 2.90625 24.285156 3.011719 24.242188 3.128906 24.199219 Z M 23.089844 27.113281 C 23.03125 27.132812 21.859375 27.363281 20.703125 27.585938 C 20.53125 27.621094 20.359375 27.652344 20.195312 27.6875 L 20.191406 27.6875 L 17.289062 26.761719 L 17.277344 26.757812 L 13.101562 28.230469 L 9.296875 26.859375 L 9.28125 26.851562 L 8.148438 27.363281 L 5.546875 26.601562 L 2.722656 24.394531 L 27.261719 24.394531 C 25.808594 25.351562 23.191406 27.070312 23.089844 27.113281 Z M 11.269531 24.019531 C 11.28125 24.039062 11.273438 24.058594 11.257812 24.070312 C 11.253906 24.074219 11.246094 24.074219 11.238281 24.074219 C 11.226562 24.074219 11.214844 24.070312 11.207031 24.054688 L 11.03125 23.757812 C 11.023438 23.738281 11.027344 23.71875 11.046875 23.707031 C 11.0625 23.699219 11.085938 23.703125 11.097656 23.71875 Z M 9.378906 23.671875 L 9.101562 24.027344 C 9.09375 24.039062 9.082031 24.042969 9.074219 24.042969 C 9.066406 24.042969 9.058594 24.039062 9.050781 24.035156 C 9.035156 24.023438 9.03125 24 9.042969 23.984375 L 9.324219 23.628906 C 9.335938 23.613281 9.355469 23.609375 9.371094 23.621094 C 9.390625 23.632812 9.390625 23.65625 9.378906 23.671875 Z M 9.003906 23.585938 L 8.972656 23.90625 C 8.972656 23.925781 8.957031 23.9375 8.9375 23.9375 C 8.9375 23.9375 8.9375 23.9375 8.933594 23.9375 C 8.914062 23.9375 8.902344 23.917969 8.902344 23.898438 L 8.929688 23.582031 C 8.933594 23.5625 8.949219 23.546875 8.96875 23.546875 C 8.988281 23.550781 9.003906 23.566406 9.003906 23.585938 Z M 11.425781 23.558594 L 11.378906 23.894531 C 11.378906 23.910156 11.363281 23.925781 11.34375 23.925781 C 11.34375 23.925781 11.339844 23.925781 11.339844 23.925781 C 11.320312 23.921875 11.304688 23.902344 11.308594 23.882812 L 11.351562 23.550781 C 11.355469 23.53125 11.375 23.515625 11.394531 23.519531 C 11.414062 23.523438 11.425781 23.539062 11.425781 23.558594 Z M 8.828125 24.070312 C 8.835938 24.089844 8.824219 24.109375 8.804688 24.117188 C 8.800781 24.117188 8.796875 24.117188 8.792969 24.117188 C 8.777344 24.117188 8.765625 24.109375 8.757812 24.09375 L 8.632812 23.734375 C 8.628906 23.714844 8.636719 23.695312 8.65625 23.6875 C 8.675781 23.683594 8.695312 23.691406 8.703125 23.710938 Z M 11.703125 23.695312 C 11.71875 23.710938 11.71875 23.730469 11.707031 23.746094 L 11.480469 23.988281 C 11.472656 23.996094 11.464844 24 11.453125 24 C 11.445312 24 11.4375 24 11.429688 23.992188 C 11.414062 23.976562 11.414062 23.957031 11.425781 23.941406 L 11.652344 23.699219 C 11.667969 23.683594 11.691406 23.683594 11.703125 23.695312 Z M 26.539062 17.597656 L 27.367188 18.085938 C 27.382812 18.097656 27.390625 18.117188 27.378906 18.136719 C 27.375 18.148438 27.359375 18.152344 27.347656 18.152344 C 27.34375 18.152344 27.335938 18.152344 27.328125 18.148438 L 26.5 17.660156 C 26.484375 17.648438 26.476562 17.625 26.488281 17.609375 C 26.5 17.59375 26.523438 17.585938 26.539062 17.597656 Z M 26.171875 17.0625 C 26.183594 17.042969 26.207031 17.039062 26.222656 17.050781 L 27.261719 17.679688 C 27.277344 17.6875 27.285156 17.710938 27.273438 17.726562 C 27.265625 17.738281 27.253906 17.742188 27.242188 17.742188 C 27.238281 17.742188 27.230469 17.742188 27.222656 17.738281 L 26.183594 17.109375 C 26.167969 17.101562 26.164062 17.078125 26.171875 17.0625 Z M 4.375 18.765625 C 4.382812 18.785156 4.375 18.804688 4.355469 18.8125 L 3.589844 19.117188 C 3.585938 19.117188 3.582031 19.117188 3.578125 19.117188 C 3.5625 19.117188 3.550781 19.109375 3.542969 19.097656 C 3.535156 19.078125 3.546875 19.054688 3.5625 19.050781 L 4.328125 18.746094 C 4.347656 18.738281 4.367188 18.75 4.375 18.765625 Z M 25.035156 23.933594 L 25.070312 23.617188 C 25.074219 23.597656 25.09375 23.582031 25.113281 23.585938 C 25.132812 23.585938 25.144531 23.605469 25.144531 23.625 L 25.105469 23.941406 C 25.105469 23.960938 25.089844 23.976562 25.070312 23.976562 C 25.070312 23.976562 25.070312 23.976562 25.066406 23.976562 C 25.046875 23.972656 25.03125 23.953125 25.035156 23.933594 Z M 25.226562 23.996094 C 25.214844 23.980469 25.222656 23.957031 25.242188 23.949219 L 25.492188 23.824219 C 25.511719 23.8125 25.53125 23.820312 25.539062 23.835938 C 25.550781 23.855469 25.542969 23.878906 25.523438 23.886719 L 25.273438 24.011719 C 25.269531 24.015625 25.261719 24.015625 25.257812 24.015625 C 25.242188 24.015625 25.230469 24.011719 25.226562 23.996094 Z M 6.09375 23.539062 L 5.917969 23.796875 C 5.910156 23.808594 5.898438 23.816406 5.886719 23.816406 C 5.878906 23.816406 5.871094 23.8125 5.867188 23.808594 C 5.847656 23.796875 5.84375 23.773438 5.855469 23.757812 L 6.03125 23.5 C 6.042969 23.480469 6.066406 23.476562 6.082031 23.488281 C 6.097656 23.5 6.101562 23.523438 6.09375 23.539062 Z M 24.722656 23.636719 C 24.710938 23.617188 24.722656 23.597656 24.738281 23.589844 C 24.757812 23.582031 24.777344 23.589844 24.785156 23.605469 L 24.964844 24.003906 C 24.972656 24.019531 24.964844 24.042969 24.945312 24.050781 C 24.941406 24.054688 24.9375 24.054688 24.929688 24.054688 C 24.917969 24.054688 24.902344 24.046875 24.898438 24.03125 Z M 3.730469 18.640625 C 3.722656 18.621094 3.730469 18.601562 3.75 18.59375 L 4.910156 18.148438 C 4.929688 18.140625 4.949219 18.148438 4.957031 18.167969 C 4.964844 18.1875 4.953125 18.207031 4.933594 18.214844 L 3.777344 18.664062 C 3.773438 18.664062 3.765625 18.664062 3.761719 18.664062 C 3.746094 18.664062 3.734375 18.65625 3.730469 18.640625 Z M 3.523438 18.765625 L 3.269531 18.863281 C 3.265625 18.863281 3.261719 18.867188 3.257812 18.867188 C 3.242188 18.867188 3.230469 18.855469 3.222656 18.84375 C 3.214844 18.824219 3.226562 18.804688 3.246094 18.796875 L 3.496094 18.699219 C 3.515625 18.691406 3.535156 18.699219 3.542969 18.71875 C 3.550781 18.738281 3.539062 18.757812 3.523438 18.765625 Z M 5.785156 23.429688 L 5.777344 23.738281 C 5.777344 23.757812 5.761719 23.773438 5.742188 23.773438 C 5.722656 23.773438 5.707031 23.757812 5.707031 23.738281 L 5.710938 23.425781 C 5.710938 23.40625 5.730469 23.390625 5.75 23.390625 C 5.769531 23.394531 5.785156 23.410156 5.785156 23.429688 Z M 5.671875 23.925781 C 5.679688 23.941406 5.671875 23.964844 5.652344 23.972656 C 5.648438 23.976562 5.644531 23.976562 5.636719 23.976562 C 5.625 23.976562 5.613281 23.96875 5.605469 23.957031 L 5.441406 23.632812 C 5.433594 23.613281 5.441406 23.59375 5.457031 23.585938 C 5.476562 23.574219 5.496094 23.582031 5.507812 23.601562 Z M 20.375 23.855469 L 20.375 23.621094 C 20.375 23.601562 20.390625 23.585938 20.410156 23.585938 C 20.433594 23.585938 20.449219 23.601562 20.449219 23.621094 L 20.449219 23.855469 C 20.449219 23.875 20.433594 23.890625 20.410156 23.890625 C 20.390625 23.890625 20.375 23.875 20.375 23.855469 Z M 20.183594 23.78125 C 20.175781 23.765625 20.183594 23.742188 20.203125 23.734375 C 20.21875 23.726562 20.242188 23.738281 20.25 23.753906 L 20.324219 23.925781 C 20.332031 23.941406 20.324219 23.964844 20.304688 23.972656 C 20.300781 23.972656 20.296875 23.976562 20.289062 23.976562 C 20.277344 23.976562 20.261719 23.964844 20.257812 23.953125 Z M 20.5 23.835938 L 20.59375 23.675781 C 20.605469 23.660156 20.628906 23.65625 20.644531 23.664062 C 20.660156 23.675781 20.667969 23.695312 20.65625 23.714844 L 20.5625 23.871094 C 20.558594 23.882812 20.546875 23.890625 20.53125 23.890625 C 20.527344 23.890625 20.519531 23.886719 20.515625 23.886719 C 20.496094 23.875 20.492188 23.851562 20.5 23.835938 Z M 20.5 23.835938 " fill-opacity="1" fill-rule="nonzero"/></g></svg>